<?xml version="1.0" encoding="utf-8"?>
<!-- Generator: Adobe Illustrator 19.1.0, SVG Export Plug-In . SVG Version: 6.00 Build 0)  -->
<svg version="1.0" id="Слой_1" xmlns="http://www.w3.org/2000/svg" xmlns:xlink="http://www.w3.org/1999/xlink" x="0px" y="0px"
	 viewBox="0 0 139.627289 102.714096" style="enable-background:new 0 0 139.627289 102.714096;" xml:space="preserve">
<g>
	<polygon style="fill:#A9A6A6;" points="35.060867,22.846273 0,38.731785 0,15.88551 35.060867,0 	"/>
	<polygon style="fill:#A9A6A6;" points="57.476078,22.846273 22.415213,38.731785 22.415213,15.88551 57.476078,0 	"/>
	<path style="fill:#FFFFFF;" d="M40.968445,19.656565c0,6.964237-5.645214,12.607714-12.607716,12.607714
		c-6.964237,0-12.609399-5.643476-12.609399-12.607714c0-6.964184,5.645162-12.607662,12.609399-12.607662
		C35.323231,7.048902,40.968445,12.692381,40.968445,19.656565"/>
	<path style="fill:#E52A21;" d="M35.060867,19.656565c0,3.700279-3.000225,6.700453-6.700455,6.700453
		c-3.701963,0-6.702137-3.000174-6.702137-6.700453c0-3.700228,3.000174-6.700401,6.702137-6.700401
		C32.060642,12.956163,35.060867,15.956337,35.060867,19.656565"/>
	<path style="fill:#A9A6A6;" d="M2.964181,59.97205c0.070668,0.010365,0.163753,0.018993,0.281043,0.024151
		c0.115501,0.005157,0.239631,0.010315,0.372443,0.015522c0.131023,0.005157,0.258627,0.012051,0.38623,0.017208
		c0.127551,0.003471,0.229317,0.006893,0.312088,0.006893c0.760356,0,1.329388-0.143074,1.708724-0.427589
		s0.568978-0.765564,0.568978-1.444939v-0.289673c0-0.677586-0.189642-1.158691-0.568978-1.443153
		c-0.379336-0.284515-0.948368-0.427639-1.708724-0.427639c-0.082771,0-0.184538,0.003471-0.312088,0.006893
		c-0.127603,0.005207-0.255206,0.0121-0.38623,0.017258c-0.132812,0.005157-0.256943,0.010365-0.372443,0.015522
		c-0.11729,0.006893-0.210374,0.013786-0.281043,0.024155V59.97205z M2.964181,51.630119v2.548485
		c0.212058-0.020733,0.434482-0.032784,0.662063-0.032784h0.693161c0.589711,0,1.146639,0.060356,1.675995,0.177593
		c0.525883,0.118973,0.991411,0.322453,1.393163,0.613861c0.401752,0.289673,0.720734,0.675903,0.958681,1.153481
		c0.239683,0.479366,0.358657,1.072498,0.358657,1.782867v0.289673c0,0.712154-0.118974,1.305286-0.35692,1.784599
		c-0.239684,0.479366-0.558665,0.862125-0.960418,1.153534c-0.400016,0.289673-0.865544,0.494888-1.391479,0.613861
		c-0.527619,0.117237-1.086231,0.175858-1.674205,0.175858c-0.558665,0-1.09665-0.018997-1.613904-0.056881
		c-0.517306-0.037941-0.974204-0.087982-1.369063-0.153492c-0.15344-0.020679-0.272413-0.065514-0.358657-0.136234
		c-0.086191-0.070667-0.129287-0.184486-0.129287-0.346554V50.081779c0-0.086243,0.031046-0.162067,0.091348-0.225895
		c0.060355-0.065514,0.131076-0.098293,0.212111-0.098293h6.609053c0.081035,0,0.151703,0.031044,0.212058,0.089664
		c0.060355,0.058617,0.091401,0.131073,0.091401,0.217266v1.274242c0,0.086189-0.031046,0.15691-0.091401,0.21032
		c-0.060355,0.053463-0.131023,0.081036-0.212058,0.081036H2.964181z"/>
	<path style="fill:#A9A6A6;" d="M14.296233,51.790821c-0.020732-0.096558-0.044832-0.163754-0.075877-0.201691
		c-0.029309-0.037941-0.086245-0.055199-0.167279-0.055199c-0.079298,0-0.13618,0.017258-0.165542,0.055199
		c-0.030993,0.037937-0.056882,0.105133-0.075826,0.201691l-2.203613,9.697205
		c-0.020679,0.075878-0.056882,0.139652-0.106871,0.193115c-0.050042,0.055145-0.112081,0.081036-0.182802,0.081036H9.70973
		c-0.081035,0-0.1466-0.024155-0.196589-0.072407c-0.053461-0.048302-0.077561-0.115551-0.077561-0.201744
		c0-0.010365,0.003421-0.020679,0.008577-0.03278c0.005209-0.010315,0.005209-0.025837,0.005209-0.048252L11.9426,51.290825
		c0.091401-0.375916,0.222425-0.672482,0.394859-0.888012c0.172436-0.213795,0.35692-0.377598,0.555192-0.491417
		c0.196588-0.113762,0.398333-0.186222,0.60697-0.217213c0.206902-0.032784,0.393123-0.050041,0.553455-0.050041
		c0.162069,0,0.348291,0.017258,0.555245,0.050041c0.208585,0.030991,0.410329,0.103451,0.606916,0.217213
		c0.198272,0.113819,0.382757,0.277622,0.555192,0.491417c0.172436,0.21553,0.303458,0.512096,0.39486,0.888012l2.491549,10.116169
		c0,0.022415,0.001738,0.037937,0.006893,0.048252c0.005157,0.0121,0.008631,0.022415,0.008631,0.03278
		c0,0.086193-0.025888,0.153442-0.075878,0.201744c-0.04999,0.048252-0.117237,0.072407-0.198271,0.072407h-1.610483
		c-0.070669,0-0.131023-0.02589-0.181013-0.081036c-0.050041-0.053463-0.086245-0.117237-0.106924-0.193115L14.296233,51.790821z"/>
	<path style="fill:#A9A6A6;" d="M24.109781,51.790874c-0.020679-0.096558-0.044832-0.163807-0.075825-0.201744
		c-0.031046-0.037888-0.086243-0.055149-0.167278-0.055149c-0.081034,0-0.136232,0.017262-0.165543,0.055149
		c-0.031046,0.037937-0.056881,0.105186-0.075825,0.201744l-1.094913,4.791721h2.674299L24.109781,51.790874z M28.485964,61.488026
		c0,0.086246-0.025888,0.153492-0.075878,0.201744c-0.050041,0.048306-0.117289,0.07246-0.198324,0.07246h-1.61043
		c-0.070669,0-0.131023-0.02589-0.181065-0.081036c-0.051725-0.053463-0.086191-0.11729-0.106871-0.193169l-0.698318-3.065685
		h-3.493326l-0.700054,3.065685c-0.020679,0.075878-0.056883,0.139706-0.106924,0.193169
		c-0.051725,0.055145-0.11208,0.081036-0.182749,0.081036h-1.608746c-0.081036,0-0.146547-0.024155-0.196535-0.07246
		c-0.053463-0.048252-0.077616-0.115498-0.077616-0.201744c0-0.010311,0.003473-0.020679,0.006893-0.030991
		c0.005211-0.012104,0.006893-0.027626,0.006893-0.050041l2.493286-10.116116
		c0.089664-0.375916,0.222425-0.672482,0.394859-0.888012c0.172436-0.213795,0.356922-0.377598,0.553457-0.491417
		c0.198324-0.113815,0.400068-0.186222,0.608706-0.217266c0.206902-0.03273,0.393124-0.049988,0.553455-0.049988
		c0.162069,0,0.346554,0.017258,0.555193,0.049988c0.208637,0.031044,0.410381,0.103451,0.60697,0.217266
		c0.198271,0.113819,0.382755,0.277622,0.555191,0.491417c0.172436,0.21553,0.303459,0.512096,0.394859,0.888012l2.49155,10.116116
		c0,0.022415,0.001684,0.037937,0.006893,0.050041C28.482491,61.467346,28.485964,61.477715,28.485964,61.488026"/>
	<path style="fill:#A9A6A6;" d="M32.02549,61.44009c0,0.086243-0.031044,0.160385-0.093136,0.225899
		c-0.060356,0.063828-0.132761,0.096554-0.213795,0.096554h-1.500086c-0.081036,0-0.151756-0.032726-0.213848-0.096554
		c-0.060303-0.065514-0.091349-0.139656-0.091349-0.225899v-8.48674c0-0.68795,0.091349-1.248352,0.275887-1.679413
		c0.182749-0.429325,0.432745-0.765568,0.748306-1.008671c0.317245-0.241367,0.687952-0.405174,1.115593-0.491417
		c0.427589-0.084454,0.887962-0.129288,1.384533-0.129288c0.455215,0,0.838024,0.008579,1.146641,0.024101
		c0.308666,0.017258,0.572453,0.036201,0.789719,0.056934c0.217266,0.022415,0.401752,0.046516,0.548298,0.072403
		c0.146545,0.027573,0.281044,0.051727,0.401752,0.074142c0.11208,0.020679,0.19138,0.053463,0.23621,0.096558
		c0.044834,0.043095,0.067249,0.122448,0.067249,0.241421v1.032822c0,0.086189-0.031044,0.160332-0.091347,0.225845
		c-0.060356,0.063828-0.131077,0.096558-0.212112,0.096558h-3.100204c-0.444847,0-0.755199,0.096558-0.932789,0.289673
		c-0.177593,0.194851-0.265522,0.560398-0.265522,1.098331V61.44009z"/>
	<path style="fill:#A9A6A6;" d="M44.117954,54.679859c0-1.07597-0.179329-1.858742-0.541409-2.348476
		c-0.360394-0.489677-0.915585-0.73452-1.669102-0.73452c-0.751778,0-1.308708,0.244843-1.669048,0.73452
		c-0.362129,0.489735-0.541405,1.272507-0.541405,2.348476v2.177673c0,1.07597,0.179276,1.858746,0.541405,2.346741
		c0.36034,0.491417,0.917271,0.73452,1.669048,0.73452c0.753517,0,1.308708-0.243103,1.669102-0.73452
		c0.36208-0.487995,0.541409-1.270771,0.541409-2.346741V54.679859z M46.230167,56.857533
		c0,0.893169-0.108662,1.657051-0.325928,2.291542c-0.217216,0.634544-0.51899,1.153534-0.903484,1.557022
		c-0.384495,0.403435-0.837971,0.701736-1.363907,0.894852c-0.527618,0.193115-1.103489,0.289673-1.729404,0.289673
		c-0.625912,0-1.203522-0.096558-1.729404-0.289673c-0.524197-0.193115-0.979359-0.491417-1.363903-0.894852
		c-0.384495-0.403488-0.684532-0.922478-0.901749-1.557022c-0.217266-0.634491-0.32761-1.398373-0.32761-2.291542v-2.177673
		c0-0.882854,0.110344-1.643211,0.32761-2.282909c0.217216-0.639702,0.517254-1.162163,0.901749-1.565651
		c0.384544-0.403439,0.839706-0.70174,1.363903-0.896591c0.525883-0.193115,1.103493-0.289673,1.729404-0.289673
		c0.625916,0,1.201786,0.096558,1.729404,0.289673c0.525936,0.194851,0.979412,0.493153,1.363907,0.896591
		c0.384495,0.403488,0.686268,0.925949,0.903484,1.565651c0.217266,0.639698,0.325928,1.400055,0.325928,2.282909V56.857533z"/>
	<path style="fill:#A9A6A6;" d="M54.129772,58.163506c0-0.225845-0.030994-0.439693-0.091347-0.644855
		c-0.060356-0.203484-0.165543-0.384495-0.312088-0.539669c-0.146599-0.155231-0.337978-0.28278-0.577663-0.379337
		c-0.23621-0.098293-0.532776-0.144863-0.886223-0.144863h-1.931198v3.548523c0.1828,0,0.394859,0.006893,0.639698,0.017208
		c0.241421,0.010365,0.443165,0.015522,0.606968,0.015522c0.484524,0,0.891434-0.03273,1.213837-0.096558
		c0.325928-0.063774,0.586288-0.167225,0.782825-0.306877c0.198273-0.139706,0.339661-0.313824,0.425903-0.5242
		c0.086193-0.210373,0.129288-0.453476,0.129288-0.73452V58.163506z M54.067734,53.049381
		c0-0.558662-0.194851-0.956944-0.582817-1.193153c-0.391388-0.237949-1.070763-0.355186-2.044964-0.355186
		c-0.181015,0-0.372444,0.003422-0.568981,0.006893c-0.196587,0.005157-0.377598,0.013786-0.539719,0.025837v3.274376h1.931198
		c0.353447,0,0.646595-0.039677,0.87933-0.120708c0.232792-0.081036,0.417278-0.19138,0.555244-0.331085
		c0.136181-0.139652,0.231003-0.303459,0.289673-0.491364c0.055145-0.187958,0.081036-0.384548,0.081036-0.58971V53.049381z
		 M56.179947,58.406609c0,0.644909-0.106922,1.188049-0.324192,1.629425c-0.218948,0.441429-0.527618,0.798347-0.925896,1.072498
		c-0.400017,0.275887-0.882858,0.474159-1.448364,0.598289c-0.565556,0.122444-1.203522,0.184536-1.910469,0.184536
		c-0.617283,0-1.150112-0.015522-1.598377-0.048306c-0.451797-0.03273-0.791458-0.075878-1.024193-0.129288
		c-0.253471-0.053459-0.438007-0.13623-0.555244-0.25005c-0.115501-0.11208-0.172436-0.320717-0.172436-0.620701V50.678543
		c0-0.291355,0.051723-0.49831,0.158649-0.62244c0.105186-0.12413,0.28104-0.206902,0.522461-0.249996
		c0.203426-0.031048,0.525883-0.067249,0.97073-0.10519c0.444847-0.036201,0.963837-0.056881,1.56218-0.056881
		c0.68795,0,1.317337,0.056881,1.88805,0.1707c0.570717,0.113762,1.063869,0.298248,1.477673,0.556927
		c0.415539,0.256889,0.73452,0.594868,0.963837,1.008671c0.227634,0.413803,0.339714,0.927635,0.339714,1.539761v0.322403
		c0,0.537987-0.115551,1.025928-0.346607,1.460464c-0.231052,0.436218-0.577606,0.762093-1.041451,0.975941
		c0.463844,0.21553,0.822498,0.525883,1.079391,0.929317c0.256943,0.401752,0.384544,0.910431,0.384544,1.524239V58.406609z"/>
	<path style="fill:#A9A6A6;" d="M64.740616,61.568851c-0.04483,0.043148-0.124184,0.075878-0.236259,0.096611
		c-0.120712,0.022362-0.255211,0.046513-0.40181,0.072403c-0.146492,0.027573-0.330978,0.051727-0.546509,0.072407
		c-0.219002,0.022415-0.482838,0.041359-0.791508,0.056881c-0.308563,0.017258-0.691422,0.024151-1.146534,0.024151
		c-0.496624,0-0.956997-0.043095-1.384586-0.129284c-0.425903-0.086246-0.798347-0.25005-1.115593-0.491417
		c-0.313824-0.243156-0.565556-0.577663-0.748306-1.008724c-0.184483-0.429325-0.275887-0.989674-0.275887-1.677677v-5.631378
		c0-0.688004,0.091404-1.248352,0.275887-1.677677c0.182751-0.431061,0.434483-0.767303,0.748306-1.008724
		c0.317245-0.241367,0.68969-0.406906,1.115593-0.491417c0.427589-0.086189,0.887962-0.131023,1.384586-0.131023
		c0.455112,0,0.837971,0.008633,1.146534,0.02589c0.30867,0.015469,0.572506,0.034466,0.791508,0.055145
		c0.21553,0.022415,0.400017,0.04657,0.546509,0.072407c0.146599,0.027622,0.281097,0.051723,0.40181,0.074139
		c0.112076,0.020733,0.191429,0.053463,0.236259,0.096558c0.044731,0.043148,0.067146,0.124184,0.067146,0.241421v1.032822
		c0,0.086193-0.030945,0.160332-0.091347,0.225899c-0.060303,0.06551-0.131027,0.096558-0.212059,0.096558h-3.100204
		c-0.443111,0-0.755199,0.096558-0.932793,0.291355c-0.177593,0.193115-0.265522,0.558666-0.265522,1.096649v1.743191h4.117504
		c0.081032,0,0.151649,0.031048,0.212059,0.096558c0.060303,0.063828,0.091347,0.139652,0.091347,0.225899v1.162109
		c0,0.084507-0.031044,0.160385-0.091347,0.224159c-0.06041,0.065563-0.131027,0.096558-0.212059,0.096558h-4.117504v2.082905
		c0,0.537983,0.087929,0.903534,0.265522,1.096649c0.177593,0.194798,0.489681,0.291355,0.932793,0.291355h3.100204
		c0.081032,0,0.151756,0.031048,0.212059,0.096558c0.060402,0.063828,0.091347,0.139706,0.091347,0.225899v1.032822
		C64.807762,61.444721,64.785347,61.525757,64.740616,61.568851"/>
	<path style="fill:#A9A6A6;" d="M72.35997,50.096935c0-0.086193,0.030945-0.162071,0.091347-0.225845
		c0.060303-0.06551,0.131027-0.096558,0.212059-0.096558h1.503563c0.081032,0,0.151756,0.031048,0.213844,0.096558
		c0.060303,0.063774,0.091347,0.139652,0.091347,0.225845v9.681683h2.612259c0.243103,0,0.410332-0.055199,0.5-0.162067
		c0.091347-0.106926,0.136177-0.317299,0.136177-0.629387v-8.890228c0-0.086193,0.031044-0.162071,0.09314-0.225845
		c0.060402-0.06551,0.13102-0.096558,0.212051-0.096558h1.503563c0.081032,0,0.151756,0.031048,0.212059,0.096558
		c0.06041,0.063774,0.091454,0.139652,0.091454,0.225845v8.890228c0,0.312088-0.020737,0.570766-0.06041,0.774197h1.412209
		c0.082726,0,0.153442,0.03278,0.213745,0.098293c0.06041,0.063774,0.091454,0.139652,0.091454,0.224159v3.582993
		c0,0.086189-0.031044,0.160332-0.091454,0.225842c-0.060303,0.063831-0.13102,0.096558-0.213745,0.096558h-1.503555
		c-0.081032,0-0.151756-0.032726-0.212059-0.096558c-0.06041-0.06551-0.091454-0.139652-0.091454-0.225842v-1.903576h-9.783295
		c-0.982834,0-1.686356-0.220741-2.110474-0.662117c-0.425903-0.43969-0.638069-1.144901-0.638069-2.113949v-8.890228
		c0-0.086193,0.029366-0.162071,0.089668-0.225845c0.062088-0.06551,0.132812-0.096558,0.213844-0.096558h1.503555
		c0.079353,0,0.149971,0.031048,0.213852,0.096558c0.060303,0.063774,0.089561,0.139652,0.089561,0.225845v8.890228
		c0,0.312088,0.046616,0.522461,0.137962,0.629387c0.089668,0.106869,0.256897,0.162067,0.500099,0.162067h2.765701V50.096935z"/>
	<path style="fill:#A9A6A6;" d="M89.334816,61.568851c-0.04483,0.043148-0.124184,0.075878-0.236259,0.096611
		c-0.120712,0.022362-0.255211,0.046513-0.40181,0.072403c-0.146492,0.027573-0.330978,0.051727-0.546509,0.072407
		c-0.217316,0.022415-0.482841,0.041359-0.791504,0.056881c-0.308563,0.017258-0.691429,0.024151-1.146591,0.024151
		c-0.49662,0-0.95694-0.043095-1.384529-0.129284c-0.425903-0.086246-0.798347-0.25005-1.115646-0.491417
		c-0.313828-0.243156-0.565559-0.577663-0.748253-1.008724c-0.184486-0.429325-0.274155-0.989674-0.274155-1.677677v-5.631378
		c0-0.688004,0.089668-1.248352,0.274155-1.677677c0.182693-0.431061,0.434425-0.767303,0.748253-1.008724
		c0.317299-0.241367,0.689743-0.406906,1.115646-0.491417c0.427589-0.086189,0.887909-0.131023,1.384529-0.131023
		c0.455162,0,0.838028,0.008633,1.146591,0.02589c0.308662,0.015469,0.574188,0.034466,0.791504,0.055145
		c0.21553,0.022415,0.400017,0.04657,0.546509,0.072407c0.146599,0.027622,0.281097,0.051723,0.40181,0.074139
		c0.112076,0.020733,0.191429,0.053463,0.236259,0.096558c0.044731,0.043148,0.067146,0.124184,0.067146,0.241421v1.032822
		c0,0.086193-0.030945,0.160332-0.091347,0.225899c-0.060303,0.06551-0.131027,0.096558-0.212059,0.096558h-3.100258
		c-0.443062,0-0.755203,0.096558-0.932739,0.291355c-0.177643,0.193115-0.265518,0.558666-0.265518,1.096649v1.743191h4.1175
		c0.081032,0,0.151649,0.031048,0.212059,0.096558c0.060303,0.063828,0.091347,0.139652,0.091347,0.225899v1.162109
		c0,0.084507-0.031044,0.160385-0.091347,0.224159c-0.06041,0.065563-0.131027,0.096558-0.212059,0.096558h-4.1175v2.082905
		c0,0.537983,0.087875,0.903534,0.265518,1.096649c0.177536,0.194798,0.489677,0.291355,0.932739,0.291355h3.100258
		c0.081032,0,0.151756,0.031048,0.212059,0.096558c0.060402,0.063828,0.091347,0.139706,0.091347,0.225899v1.032822
		C89.401962,61.444721,89.379547,61.525757,89.334816,61.568851"/>
	<path style="fill:#A9A6A6;" d="M99.88562,61.665775c-0.060402,0.065567-0.131126,0.096611-0.212158,0.096611h-1.505249
		c-0.081032,0-0.151749-0.031044-0.212051-0.096611c-0.06041-0.06551-0.091454-0.139652-0.091454-0.225842v-4.938271H93.55072
		v4.938271c0,0.086189-0.029366,0.160332-0.091454,0.225842c-0.061989,0.065567-0.132706,0.096611-0.213745,0.096611h-1.503555
		c-0.081039,0-0.151756-0.031044-0.212059-0.096611c-0.06041-0.06551-0.089661-0.139652-0.089661-0.225842V50.08057
		c0-0.086193,0.029251-0.158596,0.089661-0.217216c0.060303-0.05867,0.13102-0.087978,0.212059-0.087978h1.503555
		c0.081039,0,0.151756,0.029308,0.213745,0.087978c0.062088,0.05862,0.091454,0.131023,0.091454,0.217216v4.453743h4.313988
		V50.08057c0-0.086193,0.031044-0.158596,0.091454-0.217216c0.060303-0.05867,0.13102-0.087978,0.212051-0.087978h1.505249
		c0.081032,0,0.151756,0.029308,0.212158,0.087978c0.060303,0.05862,0.091354,0.131023,0.091354,0.217216v11.359364
		C99.976974,61.526123,99.945923,61.600266,99.88562,61.665775"/>
	<path style="fill:#A9A6A6;" d="M108.878983,61.512493c-0.060402,0.048306-0.141441,0.087982-0.243202,0.120712
		c-0.060303,0.022415-0.163757,0.04657-0.310356,0.072456c-0.146492,0.027573-0.327606,0.055145-0.539665,0.081036
		c-0.213852,0.025837-0.451797,0.049988-0.713844,0.072403c-0.263832,0.020679-0.541458,0.03273-0.836235,0.03273
		c-0.455269,0-0.936317-0.070667-1.443253-0.21032c-0.505157-0.139652-0.968948-0.394859-1.384537-0.765568
		c-0.417274-0.372444-0.763832-0.874226-1.041451-1.508717c-0.277626-0.634541-0.415489-1.451832-0.415489-2.453609v-2.370842
		c0-1.010403,0.137863-1.836327,0.415489-2.47776c0.277618-0.639702,0.624176-1.14143,1.041451-1.508717
		c0.415588-0.363815,0.879379-0.613811,1.384537-0.750046c0.506935-0.134495,0.987984-0.201744,1.443253-0.201744
		c0.294777,0,0.572403,0.012104,0.836235,0.032784c0.262047,0.020679,0.499992,0.04657,0.713844,0.072403
		c0.212059,0.027576,0.393173,0.056938,0.539665,0.087929c0.146599,0.034519,0.250053,0.055199,0.310356,0.065567
		c0.101761,0.032726,0.1828,0.072403,0.243202,0.120655c0.060303,0.048306,0.091354,0.132759,0.091354,0.25005v1.081074
		c0,0.098293-0.022415,0.177593-0.067253,0.243107c-0.046516,0.063828-0.125862,0.096607-0.236259,0.096607h-0.031044
		c-0.131027-0.010365-0.291412-0.024151-0.477577-0.041412c-0.187965-0.015522-0.387917-0.029308-0.601761-0.039673
		c-0.212059-0.010315-0.429382-0.020679-0.653542-0.03273c-0.220688-0.010368-0.432747-0.015522-0.637962-0.015522
		c-0.32235,0-0.618912,0.051723-0.886223,0.153439c-0.268997,0.101765-0.499992,0.268993-0.693108,0.500046
		c-0.191437,0.231052-0.343185,0.539669-0.453484,0.927635c-0.113869,0.387966-0.169014,0.865597-0.169014,1.43631v2.370842
		c0,0.560402,0.055145,1.032822,0.169014,1.420788c0.110298,0.38623,0.262047,0.700054,0.453484,0.936264
		c0.193115,0.23621,0.42411,0.405174,0.693108,0.508625c0.267311,0.101765,0.563873,0.151756,0.886223,0.151756
		c0.205215,0,0.417274-0.005157,0.637962-0.015526c0.224159-0.010365,0.441483-0.022415,0.653542-0.03278
		c0.213844-0.010315,0.413795-0.024101,0.601761-0.039623c0.186165-0.017258,0.34655-0.029308,0.477577-0.041412h0.031044
		c0.110397,0,0.189743,0.032784,0.236259,0.096558c0.044838,0.065514,0.067253,0.146599,0.067253,0.243156v1.081074
		C108.970337,61.38147,108.939285,61.464241,108.878983,61.512493"/>
	<path style="fill:#A9A6A6;" d="M119.012413,61.617683c0,0.096607-0.077667,0.144859-0.229424,0.144859h-2.034599
		c-0.162071,0-0.279305-0.058617-0.350029-0.177589l-3.477753-5.50209v5.357227c0,0.086243-0.031044,0.160385-0.091454,0.225899
		c-0.061981,0.063774-0.132706,0.096554-0.213737,0.096554h-1.503563c-0.081032,0-0.151756-0.03278-0.212059-0.096554
		c-0.060402-0.065514-0.091454-0.139656-0.091454-0.225899V50.096302c0-0.084507,0.031052-0.15691,0.091454-0.217266
		c0.060303-0.058617,0.131027-0.087929,0.212059-0.087929h1.503563c0.081032,0,0.151756,0.029312,0.213737,0.087929
		c0.06041,0.060356,0.091454,0.132759,0.091454,0.217266v5.131332l3.720963-5.308922
		c0.039574-0.053463,0.089561-0.087982,0.144814-0.103451c0.055145-0.017262,0.122391-0.024155,0.205109-0.024155h1.731194
		c0.191429,0,0.289726,0.063778,0.289726,0.193115c0,0.074142-0.036308,0.160332-0.106926,0.256889l-3.888184,5.341705
		l3.917442,5.841751C118.984734,61.510811,119.012413,61.574585,119.012413,61.617683"/>
	<path style="fill:#A9A6A6;" d="M120.273499,50.080887c0-0.205166,0.096504-0.306881,0.287933-0.306881h1.306976
		c0.191322,0,0.287933,0.101715,0.287933,0.306881v8.48679c0,0.096558,0.025887,0.14481,0.075874,0.14481
		c0.051674,0,0.093033-0.043095,0.122398-0.127602l3.539841-8.293625c0.091454-0.21553,0.1828-0.356918,0.281097-0.420696
		c0.096504-0.063828,0.224159-0.096558,0.387909-0.096558h1.639847c0.1707,0,0.315506,0.062038,0.432739,0.186222
		c0.115555,0.122395,0.174179,0.275887,0.174179,0.458633v11.021385c0,0.086193-0.029358,0.160385-0.091446,0.225899
		c-0.060303,0.063774-0.131027,0.096558-0.212067,0.096558h-1.291504c-0.081032,0-0.148277-0.032784-0.205109-0.096558
		c-0.055145-0.065514-0.084511-0.139706-0.084511-0.225899v-8.116032c0-0.086189-0.024094-0.129288-0.074188-0.129288
		c-0.051674,0-0.096504,0.043098-0.137863,0.129288l-3.37262,7.857407c-0.120712,0.289673-0.260361,0.460369-0.417274,0.508625
		c-0.156914,0.048302-0.325928,0.072456-0.508728,0.072456h-1.532814c-0.174179,0-0.318985-0.062092-0.43454-0.186222
		c-0.117233-0.122448-0.174065-0.275887-0.174065-0.460373V50.080887z"/>
	<path style="fill:#A9A6A6;" d="M138.15477,46.531414c0,0.010365-0.003464,0.018944-0.008621,0.024151
		c-0.005157,0.005157-0.006943,0.018944-0.006943,0.039623c-0.060303,0.312088-0.160294,0.608654-0.29657,0.888016
		c-0.136185,0.279305-0.315506,0.525883-0.53273,0.741413c-0.217316,0.21553-0.481155,0.387966-0.789719,0.517303
		c-0.30867,0.127552-0.665634,0.193115-1.070816,0.193115c-0.415482,0-0.774139-0.065563-1.07933-0.193115
		c-0.301727-0.129337-0.563873-0.301773-0.781097-0.517303c-0.218994-0.21553-0.394852-0.462109-0.531036-0.741413
		c-0.136276-0.279362-0.236267-0.575928-0.296555-0.888016c0-0.020679-0.001801-0.034466-0.006958-0.039623
		c-0.006836-0.005207-0.008621-0.013786-0.008621-0.024151c0-0.075878,0.049988-0.113815,0.151749-0.113815h1.139755
		c0.101654,0,0.167221,0.06551,0.196579,0.193115c0.091354,0.377598,0.246475,0.648327,0.463791,0.815605
		c0.219009,0.167225,0.468948,0.249996,0.751724,0.249996c0.282791,0,0.534515-0.082771,0.753525-0.249996
		c0.217209-0.167278,0.372437-0.438007,0.462112-0.815605c0.031036-0.127605,0.096497-0.193115,0.198257-0.193115h1.139755
		C138.102997,46.417599,138.15477,46.455536,138.15477,46.531414 M131.090561,61.116795V50.081623
		c0-0.205166,0.096497-0.306881,0.287933-0.306881h1.306976c0.19133,0,0.287933,0.101715,0.287933,0.306881v8.485054
		c0,0.098244,0.024094,0.146545,0.075882,0.146545c0.051666,0,0.091339-0.043095,0.122391-0.129337l3.539841-8.293625
		c0.091446-0.213795,0.1828-0.355183,0.281097-0.418961c0.096497-0.065563,0.224152-0.096558,0.38623-0.096558h1.641525
		c0.1707,0,0.315506,0.062042,0.432739,0.184486c0.115555,0.12413,0.174179,0.277569,0.174179,0.460373v11.019646
		c0,0.086246-0.029358,0.162071-0.091461,0.225899c-0.060303,0.06551-0.131012,0.09824-0.212051,0.09824h-1.291504
		c-0.081024,0-0.149963-0.03273-0.205109-0.09824c-0.055145-0.063828-0.084503-0.139652-0.084503-0.225899v-8.116032
		c0-0.084454-0.024109-0.127602-0.075882-0.127602c-0.049988,0-0.094818,0.043148-0.136185,0.127602l-3.37262,7.859142
		c-0.120697,0.289673-0.260361,0.458633-0.417267,0.508625c-0.156921,0.046566-0.325928,0.072403-0.508728,0.072403h-1.532822
		c-0.174164,0-0.318985-0.062038-0.436218-0.186169C131.147385,61.453033,131.090561,61.301331,131.090561,61.116795"/>
	<path style="fill:#A9A6A6;" d="M4.861811,71.152397c-0.020679-0.096558-0.044832-0.163803-0.075825-0.201744
		c-0.031046-0.037888-0.086244-0.055145-0.167278-0.055145c-0.081035,0-0.136233,0.017258-0.165542,0.055145
		c-0.031046,0.037941-0.056882,0.105186-0.075825,0.201744l-1.094914,4.791725h2.674299L4.861811,71.152397z M9.237993,80.849548
		c0,0.08625-0.025889,0.153496-0.075878,0.201752c-0.050041,0.048302-0.11729,0.072456-0.198324,0.072456H7.35336
		c-0.070668,0-0.131023-0.025894-0.181065-0.081039c-0.051725-0.053459-0.086191-0.117287-0.106871-0.193169l-0.698318-3.065681
		H2.87378l-0.700054,3.065681c-0.02068,0.075882-0.056882,0.139709-0.106924,0.193169
		c-0.049989,0.055145-0.11208,0.081039-0.182749,0.081039H0.275307c-0.081035,0-0.146546-0.024155-0.196535-0.072456
		c-0.053462-0.048256-0.077614-0.115501-0.077614-0.201752c0-0.010307,0.003473-0.020676,0.006893-0.030991
		c0.005209-0.0121,0.006893-0.027626,0.006893-0.050041L2.50823,70.652405c0.089664-0.375916,0.222424-0.672485,0.394859-0.888016
		c0.172435-0.213791,0.35692-0.377594,0.553456-0.491417c0.198324-0.113815,0.400069-0.186218,0.608706-0.217262
		c0.206902-0.03273,0.393123-0.049988,0.553456-0.049988c0.162069,0,0.346554,0.017258,0.555192,0.049988
		c0.208638,0.031044,0.410382,0.103447,0.60697,0.217262c0.198271,0.113823,0.382757,0.277626,0.555192,0.491417
		c0.172435,0.21553,0.303459,0.5121,0.394859,0.888016l2.49155,10.116112c0,0.022415,0.001683,0.037941,0.006893,0.050041
		C9.23452,80.828873,9.237993,80.839241,9.237993,80.849548"/>
	<path style="fill:#A9A6A6;" d="M16.407236,72.734413c0-0.679375-0.189693-1.158691-0.569031-1.444939
		c-0.379336-0.284462-0.950051-0.427589-1.708724-0.427589c-0.082771,0-0.184485,0.003418-0.312089,0.008629
		c-0.127603,0.005157-0.255154,0.010315-0.38623,0.015526c-0.13276,0.006889-0.256889,0.012047-0.372443,0.017204
		c-0.117237,0.005211-0.210321,0.0121-0.281042,0.024155v3.839874c0.060354,0,0.15344,0.00174,0.281042,0.008636
		c0.125867,0.005203,0.256943,0.010361,0.393123,0.015518c0.13797,0.005211,0.268993,0.010368,0.396596,0.015526
		c0.125867,0.006889,0.220688,0.008629,0.281043,0.008629c0.820765,0,1.403529-0.162071,1.755293-0.484528
		c0.34829-0.322395,0.522462-0.806923,0.522462-1.451828V72.734413z M18.519449,72.879227
		c0,0.710419-0.118973,1.307022-0.358656,1.791489c-0.237947,0.482788-0.556929,0.87249-0.958681,1.16906
		c-0.401752,0.296562-0.867332,0.505203-1.393216,0.629333c-0.529356,0.124184-1.086284,0.18454-1.675942,0.18454
		c-0.203481,0-0.437955-0.006897-0.700054-0.022423c-0.26552-0.017258-0.484524-0.029305-0.655222-0.041405v4.212318
		c0,0.086243-0.029309,0.160385-0.084508,0.225899c-0.055145,0.063774-0.12413,0.096558-0.205165,0.096558h-1.519082
		c-0.081035,0-0.151703-0.032784-0.212058-0.096558c-0.060355-0.065514-0.0914-0.139656-0.0914-0.225899V69.699722
		c0-0.160332,0.043096-0.275887,0.127603-0.346558c0.087928-0.070717,0.206902-0.115547,0.358657-0.13623
		c0.396544-0.065514,0.853494-0.115501,1.369063-0.153442c0.51899-0.037933,1.056922-0.056877,1.615587-0.056877
		c0.587974,0,1.146639,0.060303,1.674258,0.177589c0.525883,0.118973,0.991463,0.322403,1.391479,0.612076
		c0.401752,0.291405,0.720734,0.675903,0.960417,1.155266c0.237947,0.477631,0.35692,1.072502,0.35692,1.782867V72.879227z"/>
	<path style="fill:#A9A6A6;" d="M29.853291,81.067711c-0.050041,0.037941-0.11208,0.056938-0.184538,0.056938h-1.532816
		c-0.070721,0-0.127604-0.032784-0.175907-0.096558c-0.044832-0.065514-0.067249-0.139656-0.067249-0.225899v-7.503906
		c0-0.106918-0.015522-0.160385-0.044832-0.160385c-0.010313,0-0.036201,0.031044-0.075825,0.096558l-1.458727,3.081261
		c-0.051725,0.086189-0.118975,0.153442-0.205217,0.201744c-0.086191,0.048256-0.179276,0.072403-0.281044,0.072403h-1.534552
		c-0.101767,0-0.194851-0.024147-0.281042-0.072403c-0.086245-0.048302-0.15523-0.115555-0.205217-0.201744l-1.472515-3.081261
		c-0.041359-0.065514-0.065512-0.096558-0.075876-0.096558c-0.030994,0-0.046516,0.053467-0.046516,0.160385v7.503906
		c0,0.086243-0.022417,0.160385-0.068985,0.225899c-0.044832,0.063774-0.103451,0.096558-0.174171,0.096558h-1.534554
		c-0.070721,0-0.131023-0.018997-0.181065-0.056938c-0.051725-0.03788-0.075878-0.099976-0.075878-0.184479V69.780807
		c0-0.182747,0.056936-0.336243,0.172436-0.458633c0.11729-0.12413,0.2621-0.186218,0.434534-0.186218h1.244881
		c0.122446,0,0.234528,0.034462,0.334505,0.105186c0.101767,0.070663,0.177591,0.163803,0.227633,0.282776l2.293226,4.936531
		c0.041412,0.075829,0.070721,0.132759,0.093138,0.168961c0.020679,0.037941,0.044832,0.056885,0.075825,0.056885
		c0.029308,0,0.055199-0.018944,0.075878-0.056885c0.020679-0.036201,0.049988-0.093132,0.089664-0.168961l2.294962-4.936531
		c0.050041-0.118973,0.125866-0.212112,0.227633-0.282776c0.101715-0.070724,0.212059-0.105186,0.334505-0.105186h1.244881
		c0.172434,0,0.317297,0.062088,0.432796,0.186218c0.117237,0.122391,0.175856,0.275887,0.175856,0.458633v11.102425
		C29.929115,80.967735,29.90328,81.029831,29.853291,81.067711"/>
	<path style="fill:#A9A6A6;" d="M36.216557,71.152397c-0.020679-0.096558-0.044834-0.163803-0.075825-0.201744
		c-0.031048-0.037888-0.086246-0.055145-0.167278-0.055145c-0.081036,0-0.136234,0.017258-0.165543,0.055145
		c-0.031048,0.037941-0.056881,0.105186-0.075825,0.201744l-1.094913,4.791725h2.674297L36.216557,71.152397z M40.592739,80.849548
		c0,0.08625-0.02589,0.153496-0.075878,0.201752c-0.050041,0.048302-0.11729,0.072456-0.198326,0.072456h-1.610428
		c-0.070671,0-0.131023-0.025894-0.181065-0.081039c-0.051727-0.053459-0.086193-0.117287-0.106873-0.193169l-0.698318-3.065681
		h-3.493324l-0.700054,3.065681c-0.020679,0.075882-0.056885,0.139709-0.106926,0.193169
		c-0.051723,0.055145-0.11208,0.081039-0.182747,0.081039h-1.608747c-0.081034,0-0.146545-0.024155-0.196535-0.072456
		c-0.053461-0.048256-0.077614-0.115501-0.077614-0.201752c0-0.010307,0.003473-0.020676,0.006893-0.030991
		c0.005209-0.0121,0.006893-0.027626,0.006893-0.050041l2.493286-10.116112c0.089664-0.375916,0.222424-0.672485,0.394859-0.888016
		c0.172436-0.213791,0.356918-0.377594,0.553455-0.491417c0.198322-0.113815,0.40007-0.186218,0.608707-0.217262
		c0.206902-0.03273,0.391384-0.049988,0.553455-0.049988c0.162067,0,0.346554,0.017258,0.555191,0.049988
		c0.208637,0.031044,0.410381,0.103447,0.606972,0.217262c0.198269,0.113823,0.382755,0.277626,0.555191,0.491417
		c0.172436,0.21553,0.303459,0.5121,0.394859,0.888016l2.49155,10.116112c0,0.022415,0.001682,0.037941,0.006893,0.050041
		C40.589264,80.828873,40.592739,80.839241,40.592739,80.849548"/>
	<path style="fill:#A9A6A6;" d="M48.37048,70.926872c-0.060356,0.053459-0.131077,0.081085-0.212112,0.081085h-2.658775v9.793709
		c0,0.086189-0.031044,0.160332-0.0914,0.225845c-0.060356,0.065567-0.131023,0.096558-0.213795,0.096558h-1.503559
		c-0.081036,0-0.151703-0.030991-0.212059-0.096558c-0.060356-0.065514-0.0914-0.139656-0.0914-0.225845v-9.793709h-2.658775
		c-0.081036,0-0.151756-0.027626-0.212112-0.081085c-0.060352-0.053413-0.091347-0.12413-0.091347-0.210327v-1.274239
		c0-0.086189,0.030994-0.1586,0.091347-0.21727c0.060356-0.058617,0.131077-0.089607,0.212112-0.089607h7.429764
		c0.081036,0,0.151756,0.030991,0.212112,0.089607c0.060299,0.05867,0.091347,0.131081,0.091347,0.21727v1.274239
		C48.461826,70.802742,48.430779,70.873459,48.37048,70.926872"/>
	<path style="fill:#A9A6A6;" d="M54.949169,69.393684c0.020679-0.075821,0.049988-0.139656,0.091347-0.193115
		c0.039677-0.053406,0.110344-0.081032,0.212112-0.081032h1.550076c0.081032,0,0.153439,0.029305,0.219002,0.089661
		c0.065514,0.058617,0.0793,0.151756,0.039623,0.281097l-2.493233,9.229889c-0.120708,0.441376-0.251732,0.820709-0.393124,1.137955
		c-0.143124,0.317299-0.32761,0.581085-0.556927,0.789719c-0.225899,0.210373-0.512096,0.363815-0.856968,0.460373
		s-0.774197,0.144859-1.291451,0.144859c-0.120708,0-0.258678-0.005203-0.410381-0.015518
		c-0.151756-0.012054-0.301773-0.027573-0.448318-0.048309c-0.146549-0.022415-0.286201-0.04483-0.417278-0.065506
		c-0.131023-0.020683-0.243103-0.048256-0.334503-0.081039c-0.081036-0.020676-0.153439-0.049988-0.218952-0.087929
		c-0.067245-0.037933-0.100029-0.100029-0.100029-0.186218v-1.032822c0-0.117241,0.032784-0.198273,0.100029-0.241417
		c0.065514-0.043098,0.143127-0.058624,0.234474-0.048256c0.11208,0.010368,0.243156,0.022415,0.394859,0.032784
		c0.151756,0.010315,0.30867,0.020676,0.472473,0.03273c0.160336,0.008629,0.31551,0.017258,0.462055,0.022415
		c0.146599,0.006889,0.275887,0.008629,0.387966,0.008629c0.322456,0,0.57761-0.067245,0.758675-0.201744
		c0.1828-0.134499,0.329346-0.410385,0.441425-0.831078L52.868,78.220139h-0.227631
		c-0.112083,0-0.229321-0.013786-0.350029-0.041412c-0.120708-0.025833-0.241367-0.082718-0.356918-0.168961
		c-0.115501-0.086189-0.227581-0.21727-0.332771-0.394859c-0.108604-0.177597-0.201744-0.422432-0.28104-0.73452l-1.991505-7.390091
		c-0.070721-0.246574,0.020679-0.370758,0.272415-0.370758h1.534603c0.110344,0,0.184486,0.029305,0.213795,0.089661
		c0.031044,0.058617,0.055145,0.12587,0.075878,0.200012l1.534554,6.567688c0.029308,0.139656,0.060352,0.234474,0.089664,0.282784
		c0.031044,0.048248,0.086243,0.072403,0.167278,0.072403h0.091347L54.949169,69.393684z"/>
	<path style="fill:#A9A6A6;" d="M64.428368,72.734413c0-0.679375-0.189636-1.158691-0.569027-1.444939
		c-0.379284-0.284462-0.948315-0.427589-1.708672-0.427589c-0.082825,0-0.184486,0.003418-0.312088,0.008629
		c-0.127605,0.005157-0.255154,0.010315-0.38623,0.015526c-0.132759,0.006889-0.256889,0.012047-0.372444,0.017204
		c-0.117237,0.005211-0.21032,0.0121-0.28104,0.024155v3.839874c0.060352,0,0.153439,0.00174,0.28104,0.008636
		c0.125866,0.005203,0.256943,0.010361,0.394859,0.015518c0.136234,0.005211,0.267258,0.010368,0.394859,0.015526
		c0.125866,0.006889,0.220634,0.008629,0.281044,0.008629c0.820763,0,1.405266-0.162071,1.755291-0.484528
		c0.348236-0.322395,0.522408-0.806923,0.522408-1.451828V72.734413z M66.540634,72.879227
		c0,0.710419-0.119026,1.307022-0.358658,1.791489c-0.237946,0.482788-0.556923,0.87249-0.958733,1.16906
		c-0.401695,0.296562-0.867279,0.505203-1.393162,0.629333c-0.529354,0.124184-1.086281,0.18454-1.675941,0.18454
		c-0.20348,0-0.437954-0.006897-0.700054-0.022423c-0.265518-0.017258-0.482788-0.029305-0.65522-0.041405v4.212318
		c0,0.086243-0.029312,0.160385-0.084511,0.225899c-0.055145,0.063774-0.12413,0.096558-0.205162,0.096558h-1.519085
		c-0.081032,0-0.151703-0.032784-0.212055-0.096558c-0.060356-0.065514-0.0914-0.139656-0.0914-0.225899V69.699722
		c0-0.160332,0.043095-0.275887,0.129337-0.346558c0.086193-0.070717,0.205166-0.115547,0.358658-0.13623
		c0.394806-0.065514,0.851757-0.115501,1.367325-0.153442c0.51899-0.037933,1.056923-0.056877,1.615536-0.056877
		c0.587975,0,1.14669,0.060303,1.674259,0.177589c0.525883,0.118973,0.991459,0.322403,1.391476,0.612076
		c0.40181,0.291405,0.720787,0.675903,0.960419,1.155266c0.237946,0.477631,0.356972,1.072502,0.356972,1.782867V72.879227z"/>
	<path style="fill:#A9A6A6;" d="M76.64386,81.027351c-0.06041,0.065567-0.131134,0.096611-0.212166,0.096611h-1.505241
		c-0.081039,0-0.151756-0.031044-0.212059-0.096611c-0.06041-0.065506-0.091454-0.139648-0.091454-0.225845v-4.938263h-4.313988
		v4.938263c0,0.086197-0.029358,0.160339-0.091454,0.225845c-0.061981,0.065567-0.132706,0.096611-0.213737,0.096611h-1.503563
		c-0.081032,0-0.151756-0.031044-0.212059-0.096611c-0.060402-0.065506-0.089661-0.139648-0.089661-0.225845v-11.35936
		c0-0.086189,0.029259-0.158592,0.089661-0.217216c0.060303-0.05867,0.131027-0.087975,0.212059-0.087975h1.503563
		c0.081032,0,0.151756,0.029305,0.213737,0.087975c0.062096,0.058624,0.091454,0.131027,0.091454,0.217216v4.453743h4.313988
		v-4.453743c0-0.086189,0.031044-0.158592,0.091454-0.217216c0.060303-0.05867,0.13102-0.087975,0.212059-0.087975h1.505241
		c0.081032,0,0.151756,0.029305,0.212166,0.087975c0.060303,0.058624,0.091347,0.131027,0.091347,0.217216v11.35936
		C76.735207,80.887703,76.704163,80.961845,76.64386,81.027351"/>
	<path style="fill:#A9A6A6;" d="M90.528236,80.80188c0,0.086189-0.029259,0.160332-0.091347,0.225845
		c-0.060303,0.063828-0.131027,0.096558-0.212059,0.096558h-1.503563c-0.081032,0-0.151756-0.03273-0.213844-0.096558
		c-0.060303-0.065514-0.089661-0.139656-0.089661-0.225845V69.442513c0-0.086189,0.029358-0.158646,0.089661-0.217262
		c0.062088-0.060356,0.132812-0.089668,0.213844-0.089668h1.503563c0.081032,0,0.151756,0.029312,0.212059,0.089668
		c0.062088,0.058617,0.091347,0.131073,0.091347,0.217262V80.80188z M81.126015,79.332787
		c0.070618,0.0121,0.163757,0.018997,0.280991,0.024147c0.117241,0.005157,0.239632,0.010368,0.372444,0.017265
		c0.131027,0.005157,0.258682,0.010307,0.387917,0.015518c0.125862,0.005157,0.227631,0.008583,0.310455,0.008583
		c0.760353,0,1.329384-0.143074,1.708672-0.427589c0.379387-0.286255,0.570717-0.767303,0.570717-1.444946v-0.289673
		c0-0.677635-0.19133-1.158684-0.570717-1.444885c-0.379288-0.284515-0.948318-0.427643-1.708672-0.427643
		c-0.082825,0-0.184593,0.003471-0.310455,0.008629c-0.129234,0.005157-0.256889,0.010368-0.387917,0.015526
		c-0.132812,0.006889-0.255203,0.012047-0.372444,0.017258c-0.117233,0.005157-0.210373,0.012047-0.280991,0.024101V79.332787z
		 M81.126015,73.541023c0.212059-0.022362,0.434433-0.03273,0.662064-0.03273h0.693108
		c0.589767,0,1.14669,0.060356,1.676048,0.177589c0.527565,0.11898,0.991356,0.322456,1.393166,0.612129
		c0.401695,0.291359,0.72068,0.675903,0.958626,1.15522c0.239738,0.477631,0.358658,1.072495,0.358658,1.78286v0.289673
		c0,0.710426-0.118919,1.30529-0.356865,1.782867c-0.239738,0.47937-0.558723,0.863861-0.960419,1.153534
		c-0.400017,0.291405-0.863914,0.494888-1.391479,0.613861c-0.527672,0.118973-1.086288,0.177589-1.674263,0.177589
		c-0.558609,0-1.096596-0.01899-1.613846-0.056931c-0.517357-0.037888-0.974205-0.087929-1.369064-0.153442
		c-0.153442-0.020676-0.272469-0.067245-0.358658-0.13623c-0.086189-0.070671-0.129341-0.186218-0.129341-0.348289V69.458038
		c0-0.084503,0.031052-0.160385,0.091347-0.225899c0.06041-0.063774,0.131134-0.096558,0.212166-0.096558h1.519028
		c0.081039,0,0.149971,0.032784,0.205223,0.096558c0.055145,0.065514,0.084503,0.141396,0.084503,0.225899V73.541023z"/>
	<path style="fill:#A9A6A6;" d="M99.872681,65.89299c0,0.010368-0.003471,0.018944-0.008629,0.024155
		c-0.005157,0.005157-0.00695,0.018944-0.00695,0.039619c-0.060303,0.312088-0.160278,0.608658-0.296562,0.888016
		c-0.136185,0.279305-0.315514,0.525879-0.532722,0.741417c-0.21553,0.21553-0.481155,0.387962-0.789719,0.517303
		c-0.30867,0.127548-0.665642,0.193115-1.070816,0.193115c-0.415489,0-0.774147-0.065567-1.079338-0.193115
		c-0.30172-0.129341-0.563873-0.301773-0.78109-0.517303c-0.219002-0.215538-0.394859-0.462112-0.531036-0.741417
		c-0.136292-0.279358-0.236267-0.575928-0.29657-0.888016c0-0.020676-0.001785-0.034462-0.006943-0.039619
		c-0.006844-0.005211-0.008629-0.013786-0.008629-0.024155c0-0.075874,0.049988-0.113815,0.151756-0.113815h1.13974
		c0.101662,0,0.167229,0.065514,0.196594,0.193115c0.091347,0.377602,0.246468,0.648331,0.463791,0.815605
		c0.219002,0.167229,0.468948,0.25,0.751724,0.25s0.534515-0.082771,0.753517-0.25
		c0.217216-0.167274,0.372444-0.438004,0.462105-0.815605c0.031044-0.127602,0.096504-0.193115,0.198273-0.193115h1.139748
		C99.8209,65.779175,99.872681,65.817116,99.872681,65.89299 M92.808464,80.478371V69.443199
		c0-0.205162,0.096504-0.306877,0.287933-0.306877h1.306976c0.191322,0,0.287933,0.101715,0.287933,0.306877v8.485054
		c0,0.098244,0.025887,0.146545,0.075882,0.146545c0.051666,0,0.093025-0.043091,0.122391-0.129333l3.539841-8.293625
		c0.091454-0.213799,0.1828-0.355186,0.281097-0.418961c0.096504-0.065567,0.224159-0.096558,0.387909-0.096558h1.639847
		c0.1707,0,0.315514,0.062035,0.432747,0.184486c0.115555,0.12413,0.174171,0.277565,0.174171,0.460373v11.019646
		c0,0.086243-0.029358,0.162071-0.091454,0.225899c-0.060303,0.065506-0.13102,0.098236-0.212059,0.098236h-1.291496
		c-0.079247,0-0.148285-0.03273-0.205116-0.098236c-0.055145-0.063828-0.084503-0.139656-0.084503-0.225899v-8.116035
		c0-0.08445-0.024101-0.127602-0.074196-0.127602c-0.051674,0-0.096504,0.043152-0.137863,0.127602l-3.37262,7.859146
		c-0.120712,0.289673-0.260361,0.458633-0.417274,0.508621c-0.156914,0.04657-0.325928,0.072403-0.508728,0.072403h-1.532814
		c-0.174171,0-0.318985-0.062035-0.43454-0.186165C92.865295,80.814613,92.808464,80.66291,92.808464,80.478371"/>
	<path style="fill:#A9A6A6;" d="M7.347204,98.687416c-0.198324,0.436272-0.46558,0.796616-0.806978,1.081131
		c-0.337924,0.284515-0.739677,0.496567-1.206994,0.636223c-0.467264,0.141388-0.967258,0.210373-1.503507,0.210373
		c-0.567295,0-1.086284-0.037933-1.557021-0.112076c-0.470685-0.075882-0.924163-0.17244-1.360434-0.291412
		c-0.079298-0.020676-0.148283-0.055145-0.205165-0.103447c-0.055198-0.049988-0.084508-0.117241-0.084508-0.20343v-1.000092
		c0-0.084457,0.025889-0.155174,0.077614-0.208641c0.049989-0.053406,0.117237-0.081032,0.198272-0.081032h0.029309
		c0.608654,0.065514,1.151796,0.118973,1.634583,0.162071c0.479367,0.043144,0.901799,0.063828,1.267349,0.063828
		c0.617284,0,1.055238-0.143127,1.313865-0.427643c0.258626-0.284462,0.38623-0.712105,0.38623-1.282822v-0.339661
		c0-0.213844-0.017259-0.419014-0.051725-0.612129c-0.034466-0.193115-0.105187-0.365547-0.212058-0.515564
		c-0.10866-0.151703-0.251786-0.272415-0.434535-0.363815c-0.181065-0.091347-0.413802-0.136185-0.698318-0.136185H1.445099
		c-0.193115,0-0.289672-0.103447-0.289672-0.306931v-1.017296c0-0.203484,0.096557-0.306931,0.289672-0.306931h2.688085
		c0.284516,0,0.517253-0.043098,0.698318-0.129288c0.182749-0.084511,0.325875-0.201744,0.434535-0.346611
		c0.106871-0.144806,0.177592-0.312088,0.212058-0.500046c0.034466-0.187904,0.051725-0.389648,0.051725-0.605179v-0.258629
		c0-0.203476-0.020679-0.400017-0.067248-0.587975c-0.044832-0.187958-0.131023-0.3535-0.258626-0.493149
		c-0.125867-0.139656-0.301775-0.251732-0.524199-0.337929c-0.222424-0.086243-0.506887-0.129333-0.850021-0.129333
		c-0.272465,0-0.513833,0.00515-0.722471,0.017258c-0.206901,0.010315-0.417275,0.022415-0.629333,0.039619
		c-0.212111,0.015526-0.441428,0.039673-0.684532,0.072456c-0.24142,0.03273-0.531092,0.063774-0.865596,0.096558H0.898484
		c-0.081035,0-0.148283-0.025887-0.198272-0.081032c-0.051725-0.053459-0.077614-0.122444-0.077614-0.208641v-1.000092
		c0-0.086189,0.029309-0.153435,0.084508-0.20343c0.056882-0.046562,0.125867-0.082771,0.205165-0.105186
		c0.436271-0.117233,0.889749-0.213844,1.360434-0.289673c0.470737-0.074135,0.989727-0.112076,1.557021-0.112076
		c0.546562,0,1.051766,0.058617,1.51903,0.177589c0.46558,0.118973,0.869017,0.308617,1.206994,0.572456
		c0.339661,0.263779,0.606917,0.605179,0.798348,1.024193c0.191379,0.420692,0.289672,0.936264,0.289672,1.548386v0.258629
		c0,0.570717-0.115553,1.051765-0.341397,1.444939c-0.22937,0.393127-0.551772,0.706894-0.965627,0.943161
		c0.424169,0.246521,0.750096,0.589661,0.97252,1.024193c0.220687,0.436218,0.334504,0.912109,0.334504,1.427681v0.339661
		C7.643769,97.732208,7.543739,98.251198,7.347204,98.687416"/>
	<path style="fill:#A9A6A6;" d="M13.217,90.51487c-0.020679-0.096558-0.044832-0.163803-0.075825-0.201744
		c-0.031046-0.037888-0.086244-0.055145-0.167278-0.055145s-0.136233,0.017258-0.165543,0.055145
		c-0.031046,0.037941-0.056882,0.105186-0.075825,0.201744l-1.094914,4.791725h2.674299L13.217,90.51487z M17.593182,100.212021
		c0,0.08625-0.025888,0.153496-0.075876,0.201744c-0.050043,0.048309-0.11729,0.072464-0.198324,0.072464H15.70855
		c-0.070669,0-0.131023-0.025894-0.181066-0.081039c-0.051725-0.053459-0.086191-0.117287-0.106871-0.193169l-0.698318-3.065681
		H11.22897l-0.700054,3.065681c-0.020679,0.075882-0.056882,0.139709-0.106923,0.193169
		c-0.049989,0.055145-0.112081,0.081039-0.182749,0.081039H8.630497c-0.081035,0-0.146546-0.024155-0.196535-0.072464
		c-0.053462-0.048248-0.077615-0.115494-0.077615-0.201744c0-0.010307,0.003473-0.020676,0.006893-0.030991
		c0.00521-0.0121,0.006893-0.027626,0.006893-0.050041l2.493286-10.116112c0.089664-0.375916,0.222425-0.672485,0.394859-0.888016
		c0.172436-0.213791,0.356921-0.377594,0.553456-0.491417c0.198324-0.113815,0.400068-0.186218,0.608706-0.217262
		c0.206902-0.03273,0.393124-0.049988,0.553456-0.049988c0.162068,0,0.346554,0.017258,0.555192,0.049988
		c0.208637,0.031044,0.410382,0.103447,0.60697,0.217262c0.198272,0.113823,0.382756,0.277626,0.555192,0.491417
		c0.172435,0.21553,0.303458,0.5121,0.394859,0.888016l2.491549,10.116112c0,0.022415,0.001684,0.037941,0.006893,0.050041
		C17.58971,100.191345,17.593182,100.201714,17.593182,100.212021"/>
	<path style="fill:#A9A6A6;" d="M24.92881,96.887505c0-0.225845-0.02931-0.439697-0.089664-0.644859
		c-0.060354-0.203484-0.165543-0.384491-0.312088-0.539665c-0.146599-0.155235-0.337978-0.282784-0.577662-0.379341
		c-0.237946-0.096558-0.532776-0.144859-0.887959-0.144859h-1.929464v3.548523c0.1828,0,0.394859,0.006889,0.638014,0.017204
		c0.243105,0.010368,0.444849,0.015526,0.608654,0.015526c0.484524,0,0.891434-0.03273,1.213835-0.096558
		c0.325928-0.063774,0.58629-0.167229,0.782825-0.306877c0.196589-0.139709,0.337978-0.313828,0.425905-0.5242
		c0.086191-0.210373,0.127604-0.453476,0.127604-0.73452V96.887505z M24.868456,91.773376
		c0-0.558662-0.194853-0.95694-0.584555-1.193153c-0.38965-0.237946-1.070761-0.355186-2.043228-0.355186
		c-0.182749,0-0.372444,0.003426-0.568979,0.006897c-0.196587,0.005157-0.3776,0.013786-0.539721,0.025833v3.274376h1.929464
		c0.355183,0,0.646591-0.039673,0.881065-0.120705c0.23279-0.081039,0.417276-0.191383,0.553509-0.331085
		c0.137917-0.139656,0.232738-0.303459,0.289673-0.491364c0.056881-0.187958,0.082771-0.384552,0.082771-0.589714V91.773376z
		 M26.980669,97.130608c0,0.644905-0.106924,1.188049-0.325928,1.629425c-0.218952,0.441429-0.525883,0.798347-0.9259,1.072495
		c-0.398279,0.275887-0.881119,0.474159-1.44836,0.598289c-0.565559,0.122444-1.201786,0.18454-1.908733,0.18454
		c-0.617283,0-1.150112-0.015526-1.600117-0.048309c-0.450058-0.03273-0.791454-0.075874-1.022455-0.129288
		c-0.253469-0.053459-0.438007-0.13623-0.555244-0.250046c-0.115501-0.113815-0.172436-0.320717-0.172436-0.620705V89.402542
		c0-0.291359,0.051725-0.498314,0.158649-0.622444c0.105186-0.12413,0.281042-0.206902,0.522461-0.249992
		c0.201746-0.031052,0.525883-0.067253,0.970732-0.105194c0.444847-0.036201,0.963837-0.056877,1.562178-0.056877
		c0.686268,0,1.317339,0.056877,1.888052,0.1707c0.570715,0.112022,1.063869,0.298248,1.477671,0.556923
		c0.413803,0.256897,0.734522,0.594872,0.963839,1.008675c0.227633,0.413803,0.339714,0.927635,0.339714,1.539757v0.322403
		c0,0.537987-0.115553,1.025932-0.346607,1.460464c-0.231054,0.436218-0.577608,0.762093-1.041452,0.975945
		c0.463844,0.21553,0.8225,0.525879,1.079391,0.929314c0.256943,0.401756,0.384546,0.910431,0.384546,1.524239V97.130608z"/>
	<path style="fill:#A9A6A6;" d="M35.122906,93.403854c0-1.075966-0.179329-1.858742-0.541405-2.348473
		c-0.360394-0.489677-0.915588-0.73452-1.669102-0.73452c-0.751781,0-1.30871,0.244843-1.66905,0.73452
		c-0.360394,0.489731-0.541405,1.272507-0.541405,2.348473v2.177673c0,1.075974,0.181011,1.858749,0.541405,2.346741
		c0.36034,0.491417,0.917269,0.73452,1.66905,0.73452c0.753513,0,1.308708-0.243103,1.669102-0.73452
		c0.362076-0.487991,0.541405-1.270767,0.541405-2.346741V93.403854z M37.235119,95.581528
		c0,0.893173-0.108662,1.657051-0.325928,2.291542c-0.217213,0.634544-0.51899,1.153534-0.903484,1.557022
		c-0.382809,0.403435-0.837971,0.701736-1.363903,0.894852c-0.525883,0.193115-1.101757,0.289673-1.729404,0.289673
		c-0.625916,0-1.203522-0.096558-1.729404-0.289673c-0.524199-0.193115-0.979361-0.491417-1.363907-0.894852
		c-0.384493-0.403488-0.684532-0.922478-0.901747-1.557022c-0.217266-0.634491-0.32761-1.398369-0.32761-2.291542v-2.177673
		c0-0.882851,0.110344-1.643211,0.32761-2.282906c0.217215-0.639702,0.517254-1.162163,0.901747-1.565651
		c0.384546-0.403442,0.839708-0.701744,1.363907-0.896591c0.525883-0.193115,1.103489-0.289673,1.729404-0.289673
		c0.627647,0,1.203522,0.096558,1.729404,0.289673c0.525932,0.194847,0.981094,0.493149,1.363903,0.896591
		c0.384495,0.403488,0.686272,0.925949,0.903484,1.565651c0.217266,0.639694,0.325928,1.400055,0.325928,2.282906V95.581528z"/>
	<path style="fill:#A9A6A6;" d="M41.550526,98.486198H45.6353l-1.791496-7.971169
		c-0.020733-0.096558-0.044834-0.163811-0.075878-0.201744c-0.029308-0.037941-0.086243-0.056885-0.167278-0.056885
		s-0.137917,0.018944-0.167225,0.056885c-0.031048,0.037933-0.055199,0.105186-0.075878,0.201744L41.550526,98.486198z
		 M39.407318,98.486198l2.081116-8.471214c0.093136-0.375862,0.224159-0.672432,0.394859-0.887962
		c0.172436-0.213791,0.358658-0.379333,0.555244-0.491417c0.198273-0.113815,0.400017-0.186218,0.606918-0.21727
		c0.206902-0.03273,0.39312-0.049988,0.555191-0.049988c0.162067,0,0.346607,0.017258,0.555244,0.049988
		c0.206902,0.031052,0.408646,0.103455,0.606918,0.21727c0.198269,0.112083,0.382755,0.277626,0.555191,0.491417
		c0.1707,0.21553,0.301773,0.5121,0.394859,0.887962l2.065643,8.471214h1.184578c0.081036,0,0.151703,0.031044,0.213795,0.096611
		c0.060356,0.063774,0.0914,0.139648,0.0914,0.225845v3.581253c0,0.086243-0.031044,0.162071-0.0914,0.225899
		c-0.062092,0.065506-0.132759,0.098289-0.213795,0.098289h-1.503559c-0.081032,0-0.151756-0.032784-0.212059-0.098289
		c-0.060352-0.063828-0.0914-0.139656-0.0914-0.225899v-1.90358h-7.065948v1.90358c0,0.086243-0.029308,0.162071-0.089664,0.225899
		c-0.060356,0.065506-0.131077,0.098289-0.212112,0.098289h-1.503506c-0.081089,0-0.151756-0.032784-0.213848-0.098289
		c-0.062038-0.063828-0.091347-0.139656-0.091347-0.225899v-3.581253c0-0.086197,0.029308-0.162071,0.091347-0.225845
		c0.062092-0.065567,0.132759-0.096611,0.213848-0.096611H39.407318z"/>
</g>
</svg>
