<?xml version="1.0" encoding="utf-8"?>
<!-- Generator: Adobe Illustrator 19.1.0, SVG Export Plug-In . SVG Version: 6.00 Build 0)  -->
<svg version="1.0" id="Слой_1" xmlns="http://www.w3.org/2000/svg" xmlns:xlink="http://www.w3.org/1999/xlink" x="0px" y="0px"
	 viewBox="0 0 209.530792 68.379112" style="enable-background:new 0 0 209.530792 68.379112;" xml:space="preserve">
<g>
	<path style="fill:none;stroke:#000000;stroke-miterlimit:10;" d="M39.7542,9.094333L29.177691,35.185646
		c-0.824211,2.034599-3.812309,2.034599-4.636518,0L13.964661,9.094333c-0.637989-1.572518,0.567268-3.270903,2.319088-3.270903
		h21.151337C39.188667,5.82343,40.392189,7.521814,39.7542,9.094333z M47.849552,15.344728v30.163984
		c0,0.229317-0.191402,0.413803-0.429352,0.413803H33.39175c-1.813911,0-3.048477-1.769081-2.363947-3.386402L42.93544,14.415357
		C43.992413,11.916913,47.849552,12.646277,47.849552,15.344728z M5.869308,15.344728v30.163984
		c0,0.229317,0.191379,0.413803,0.429326,0.413803H20.32711c1.813911,0,3.048479-1.769081,2.363947-3.386402L10.783423,14.415357
		C9.726448,11.916913,5.869308,12.646277,5.869308,15.344728z M46.152905,51.221123H7.565956
		c-3.874373,0-7.015962-3.026035-7.015962-6.759045V7.285604c0-3.73301,3.141589-6.759046,7.015962-6.759046h38.586948
		c3.874374,0,7.015938,3.026036,7.015938,6.759046v37.176476C53.168842,48.195087,50.027279,51.221123,46.152905,51.221123z"/>
	<polygon points="98.74968,43.868237 96.252945,43.868237 96.252945,14.214638 94.866646,14.214638 81.905487,43.868237 
		80.619194,43.868237 67.658028,14.214638 66.237267,14.214638 66.237267,43.868237 63.750904,43.868237 63.750904,11.604141 
		69.078819,11.604141 81.279602,39.124847 93.411392,11.604141 98.74968,11.604141 	"/>
	<polygon style="fill:none;stroke:#020203;stroke-width:0.283;stroke-miterlimit:10;" points="98.74968,43.868237 
		96.252945,43.868237 96.252945,14.214638 94.866646,14.214638 81.905487,43.868237 80.619194,43.868237 67.658028,14.214638 
		66.237267,14.214638 66.237267,43.868237 63.750904,43.868237 63.750904,11.604141 69.078819,11.604141 81.279602,39.124847 
		93.411392,11.604141 98.74968,11.604141 	"/>
	<path d="M108.975662,34.755768h2.498413c0,2.079456,0.47245,3.591621,1.413895,4.53307
		c0.94487,0.941422,2.541542,1.413868,4.79512,1.413868h10.547226c1.648361,0,2.929504-0.186222,3.841614-0.556927
		c0.91214-0.370708,1.569077-1.013855,1.972534-1.92944c0.403488-0.915558,0.60524-2.224266,0.60524-3.926098
		c0-3.624376-1.350098-5.436552-4.057175-5.436552h-14.881973v-3.257116h14.188828c1.106964,0,1.960464-0.139652,2.562225-0.424168
		c0.601761-0.28278,1.031113-0.770723,1.288025-1.462149c0.255188-0.691423,0.384491-1.672522,0.384491-2.94158
		c0-1.572493-0.18277-2.808796-0.546585-3.707121c-0.363815-0.898327-0.996597-1.551812-1.894943-1.955301
		c-0.894882-0.405199-2.167358-0.606917-3.81057-0.606917H117.68309c-1.529396,0-2.757072,0.237947-3.681259,0.713815
		c-0.922478,0.475894-1.575966,1.153532-1.955299,2.029442c-0.38105,0.875937-0.572456,1.946672-0.572456,3.208838h-2.498413
		c0-6.140052,2.912247-9.209209,8.74192-9.209209h10.197197c2.005295,0,3.660583,0.374153,4.962387,1.124223
		c1.300079,0.748307,2.253586,1.801835,2.853638,3.160532c0.601761,1.356988,0.901764,2.948474,0.901764,4.770989
		c0,2.148415-0.255173,3.720934-0.770752,4.714106c-0.513794,0.996595-1.2173,1.670786-2.110474,2.02597
		c1.198364,0.569004,2.063934,1.462173,2.596741,2.679482c0.534515,1.217333,0.801773,2.991571,0.801773,5.321024
		c0,2.110477-0.293121,3.819229-0.879395,5.122753c-0.589676,1.306973-1.534576,2.265652-2.838104,2.877754
		c-1.305252,0.613834-3.029495,0.919029-5.169281,0.919029h-10.545494c-1.558731,0-2.9002-0.19656-4.02784-0.589684
		c-1.125938-0.393124-2.03289-0.970757-2.720871-1.729431c-0.684532-0.762119-1.187996-1.715618-1.510422-2.867413
		C109.135994,37.621471,108.975662,36.283455,108.975662,34.755768"/>
	<path style="fill:none;stroke:#020203;stroke-width:0.283;stroke-miterlimit:10;" d="M108.975662,34.755768h2.498413
		c0,2.079456,0.47245,3.591621,1.413895,4.53307c0.94487,0.941422,2.541542,1.413868,4.79512,1.413868h10.547226
		c1.648361,0,2.929504-0.186222,3.841614-0.556927c0.91214-0.370708,1.569077-1.013855,1.972534-1.92944
		c0.403488-0.915558,0.60524-2.224266,0.60524-3.926098c0-3.624376-1.350098-5.436552-4.057175-5.436552h-14.881973v-3.257116
		h14.188828c1.106964,0,1.960464-0.139652,2.562225-0.424168c0.601761-0.28278,1.031113-0.770723,1.288025-1.462149
		c0.255188-0.691423,0.384491-1.672522,0.384491-2.94158c0-1.572493-0.18277-2.808796-0.546585-3.707121
		c-0.363815-0.898327-0.996597-1.551812-1.894943-1.955301c-0.894882-0.405199-2.167358-0.606917-3.81057-0.606917H117.68309
		c-1.529396,0-2.757072,0.237947-3.681259,0.713815c-0.922478,0.475894-1.575966,1.153532-1.955299,2.029442
		c-0.38105,0.875937-0.572456,1.946672-0.572456,3.208838h-2.498413c0-6.140052,2.912247-9.209209,8.74192-9.209209h10.197197
		c2.005295,0,3.660583,0.374153,4.962387,1.124223c1.300079,0.748307,2.253586,1.801835,2.853638,3.160532
		c0.601761,1.356988,0.901764,2.948474,0.901764,4.770989c0,2.148415-0.255173,3.720934-0.770752,4.714106
		c-0.513794,0.996595-1.2173,1.670786-2.110474,2.02597c1.198364,0.569004,2.063934,1.462173,2.596741,2.679482
		c0.534515,1.217333,0.801773,2.991571,0.801773,5.321024c0,2.110477-0.293121,3.819229-0.879395,5.122753
		c-0.589676,1.306973-1.534576,2.265652-2.838104,2.877754c-1.305252,0.613834-3.029495,0.919029-5.169281,0.919029h-10.545494
		c-1.558731,0-2.9002-0.19656-4.02784-0.589684c-1.125938-0.393124-2.03289-0.970757-2.720871-1.729431
		c-0.684532-0.762119-1.187996-1.715618-1.510422-2.867413C109.135994,37.621471,108.975662,36.283455,108.975662,34.755768z"/>
	<polygon points="146.625977,11.603615 172.59314,11.603615 172.59314,14.860731 160.819962,14.860731 160.819962,43.867737 
		158.321533,43.867737 158.321533,14.860731 146.625977,14.860731 	"/>
	<polygon style="fill:none;stroke:#020203;stroke-width:0.283;stroke-miterlimit:10;" points="146.625977,11.603615 
		172.59314,11.603615 172.59314,14.860731 160.819962,14.860731 160.819962,43.867737 158.321533,43.867737 158.321533,14.860731 
		146.625977,14.860731 	"/>
	<path d="M187.537201,32.531319h14.326721l-7.160767-18.60117L187.537201,32.531319z M183.078293,43.868237h-2.777771
		l12.51973-32.264095h3.827835l12.518051,32.264095h-2.920883l-3.091568-8.079803h-16.976929L183.078293,43.868237z"/>
	<path style="fill:none;stroke:#020203;stroke-width:0.283;stroke-miterlimit:10;" d="M187.537201,32.531319h14.326721
		l-7.160767-18.60117L187.537201,32.531319z M183.078293,43.868237h-2.777771l12.51973-32.264095h3.827835l12.518051,32.264095
		h-2.920883l-3.091568-8.079803h-16.976929L183.078293,43.868237z"/>
	<path d="M1.601286,66.374321v-6.82111h1.408686L4.68423,64.38282c0.155176,0.450035,0.26552,0.78627,0.336215,1.010429
		c0.081061-0.248306,0.205191-0.613831,0.37589-1.093178l1.693228-4.746861h1.258693v6.82111H7.446483v-5.708961l-2.053595,5.708961
		H4.548024l-2.044965-5.805519v5.805519H1.601286z"/>
	<path d="M9.82198,68.277374l-0.096583-0.786247c0.189668,0.050018,0.35521,0.074142,0.494863,0.074142
		c0.194852,0,0.348317-0.031044,0.463844-0.093109c0.1155-0.062065,0.210348-0.148285,0.28449-0.260368
		c0.055172-0.082741,0.144835-0.291382,0.267256-0.624176c0.015523-0.04483,0.041386-0.113785,0.075878-0.203453l-1.943225-4.950317
		h0.934528l1.065578,2.860519c0.139679,0.362106,0.263809,0.744888,0.372443,1.144905
		c0.098294-0.384491,0.218977-0.760384,0.35692-1.125931l1.094888-2.879494h0.867307l-1.948408,5.02446
		c-0.206901,0.541405-0.370707,0.915588-0.486234,1.122482c-0.155176,0.274155-0.332767,0.477608-0.531066,0.605209
		c-0.200007,0.129318-0.437955,0.193115-0.71384,0.193115C10.213366,68.379112,10.027144,68.34462,9.82198,68.277374"/>
	<path d="M15.471272,63.931763c0,0.636253,0.134497,1.105255,0.401752,1.408714
		c0.267257,0.305191,0.589684,0.456924,0.967311,0.456924c0.387939,0,0.71726-0.156891,0.991436-0.470711
		c0.27586-0.315536,0.413803-0.803505,0.413803-1.463886c0-0.62936-0.13447-1.10178-0.403463-1.415604
		c-0.267256-0.313828-0.587973-0.469002-0.962128-0.469002c-0.368996,0-0.696608,0.167252-0.982833,0.500046
		C15.614372,62.811012,15.471272,63.295536,15.471272,63.931763 M14.685027,68.268242v-6.834896h0.791429v0.641411
		c0.186195-0.250023,0.398279-0.439667,0.631069-0.563824c0.234501-0.125866,0.520727-0.189667,0.85523-0.189667
		c0.436218,0,0.824184,0.108635,1.158689,0.32761c0.332767,0.21553,0.584501,0.522438,0.755226,0.917297
		c0.170698,0.394859,0.256891,0.829369,0.256891,1.300079c0,0.506939-0.094822,0.962124-0.28278,1.365612
		c-0.187933,0.405205-0.462082,0.715553-0.820738,0.931084c-0.35692,0.21553-0.734522,0.322426-1.129381,0.322426
		c-0.289671,0-0.551744-0.058617-0.779352-0.17585c-0.231053-0.118973-0.418985-0.267258-0.567267-0.446587v2.405304H14.685027z"/>
	<path d="M20.748516,63.904346c0,0.632809,0.143101,1.106991,0.429327,1.420788
		c0.286224,0.315536,0.648329,0.47245,1.082836,0.47245c0.431063,0,0.787983-0.158623,1.074209-0.474159
		c0.284489-0.317268,0.431061-0.800056,0.431061-1.448387c0-0.610363-0.146572-1.072472-0.434507-1.388004
		c-0.284517-0.313828-0.644884-0.47245-1.070763-0.47245c-0.434507,0-0.796612,0.156914-1.082836,0.470711
		C20.891617,62.797382,20.748516,63.271568,20.748516,63.904346 M19.857084,63.904346
		c0-0.915558,0.26552-1.593197,0.791428-2.034599c0.439667-0.365547,0.977625-0.548298,1.612167-0.548298
		c0.701765,0,1.279373,0.222424,1.725958,0.667274c0.44832,0.444847,0.670746,1.060421,0.670746,1.844955
		c0,0.63623-0.098295,1.136276-0.296566,1.501801c-0.198298,0.363808-0.486259,0.646591-0.865597,0.848335
		c-0.375864,0.201744-0.787956,0.30175-1.234541,0.30175c-0.717287,0-1.296631-0.220718-1.739769-0.665565
		C20.077772,65.376862,19.857084,64.738899,19.857084,63.904346"/>
	<polygon points="25.697807,61.433319 27.049612,61.433319 28.392786,65.388756 29.889452,61.433319 31.137806,61.433319 
		31.137806,66.375031 30.270498,66.375031 30.270498,62.395473 28.75489,66.375031 27.978983,66.375031 26.54612,62.205807 
		26.54612,66.375031 25.697807,66.375031 	"/>
	<path d="M35.809315,64.565071l0.853497,0.106918c-0.093113,0.567268-0.332794,1.012123-0.715576,1.33284
		c-0.384495,0.320717-0.856941,0.481071-1.415607,0.481071c-0.700027,0-1.265587-0.220711-1.693203-0.663849
		c-0.424168-0.441399-0.637962-1.074211-0.637962-1.900105c0-0.532799,0.093113-1.000065,0.27586-1.400108
		c0.182777-0.400013,0.462109-0.700027,0.836262-0.900036c0.375889-0.200035,0.782825-0.300037,1.224228-0.300037
		c0.555218,0,1.008667,0.136234,1.36388,0.406937c0.353474,0.272411,0.579342,0.656933,0.681084,1.155243l-0.843155,0.125866
		c-0.081059-0.331059-0.224159-0.581081-0.429352-0.748333c-0.203453-0.167252-0.450031-0.251736-0.739704-0.251736
		c-0.436218,0-0.791428,0.15173-1.065575,0.455215c-0.272442,0.301723-0.410385,0.779354-0.410385,1.434574
		c0,0.66383,0.13105,1.14661,0.396599,1.446629c0.26207,0.301743,0.605206,0.451767,1.029373,0.451767
		c0.3414,0,0.627625-0.100006,0.856941-0.30349C35.604126,65.292725,35.747227,64.984077,35.809315,64.565071"/>
	<path d="M37.400276,61.433319h0.869019v2.134628c0.277596,0,0.470711-0.049988,0.581055-0.153465
		c0.110371-0.101711,0.274174-0.400013,0.489708-0.893143c0.170696-0.389675,0.308613-0.648327,0.413799-0.770748
		c0.106899-0.125866,0.229321-0.208637,0.36726-0.251732c0.137943-0.043125,0.360371-0.06554,0.667301-0.06554h0.172409v0.693161
		l-0.243103-0.00518c-0.227608,0-0.372444,0.034492-0.437958,0.098293c-0.065536,0.067245-0.170696,0.270702-0.30864,0.608654
		c-0.13105,0.322426-0.251762,0.546589-0.362106,0.670742c-0.108631,0.12413-0.275883,0.237949-0.505203,0.339664
		c0.372444,0.096558,0.737968,0.431061,1.100071,1.005249l0.950054,1.531128h-0.955235l-0.9259-1.531128
		c-0.189671-0.306931-0.355209-0.508652-0.49831-0.606941c-0.141392-0.098297-0.308643-0.146576-0.505203-0.146576v2.284645
		h-0.869019V61.433319z"/>
	<polygon points="41.726051,61.433319 42.595066,61.433319 42.595066,65.20253 45.00211,61.433319 45.936638,61.433319 
		45.936638,66.375031 45.069359,66.375031 45.069359,62.628239 42.662315,66.375031 41.726051,66.375031 	"/>
	<path d="M50.259701,59.562527h0.593128c-0.048279,0.387966-0.19656,0.686241-0.441399,0.894878
		c-0.246578,0.206902-0.572453,0.310379-0.981098,0.310379c-0.413803,0-0.739704-0.103477-0.987991-0.308643
		c-0.24313-0.206924-0.391411-0.505203-0.43969-0.896614h0.593155c0.044834,0.212086,0.132763,0.368996,0.267258,0.472446
		c0.132759,0.103451,0.313797,0.156914,0.536247,0.156914c0.262074,0,0.458637-0.051754,0.593132-0.151756
		C50.123493,59.940128,50.213131,59.781506,50.259701,59.562527 M47.244003,61.433319h0.869019v3.769211l2.40704-3.769211h0.934528
		v4.941711h-0.867279v-3.746792l-2.407043,3.746792h-0.936264V61.433319z"/>
	<path d="M55.231564,64.448174l0.893143-0.224136c0.06554,0.332771,0.248287,0.663826,0.541409,0.99662
		c0.294853,0.332771,0.684532,0.498314,1.170765,0.498314c0.493153,0,0.886276-0.122452,1.172501-0.367287
		c0.284489-0.246552,0.427616-0.541405,0.427616-0.889694c0-0.375893-0.150021-0.672459-0.451767-0.894882
		c-0.303459-0.22245-0.71384-0.332794-1.236279-0.332794h-0.446583v-0.786247c0.429348,0,0.758671-0.024151,0.986279-0.07243
		c0.229317-0.048279,0.431061-0.1707,0.606945-0.36726c0.175854-0.196564,0.26207-0.420723,0.26207-0.672455
		c0-0.298302-0.118973-0.556931-0.358654-0.775909c-0.239658-0.220711-0.562088-0.331055-0.970734-0.331055
		c-0.356918,0-0.662113,0.086216-0.915585,0.256916c-0.251732,0.174145-0.425877,0.401752-0.52417,0.684532
		c-0.096558,0.284489-0.144836,0.494835-0.144836,0.634514l-0.896618-0.194851
		c0.224159-1.44836,1.051792-2.172543,2.489815-2.172543c0.691425,0,1.238014,0.184486,1.644947,0.555195
		c0.405201,0.37244,0.608654,0.805241,0.608654,1.301815c0,0.634514-0.313824,1.127666-0.936264,1.479404
		c0.358631,0.094849,0.662117,0.291409,0.903507,0.587975c0.241394,0.296566,0.363815,0.65004,0.363815,1.062134
		c0,0.586235-0.234501,1.077652-0.706947,1.472511c-0.470711,0.396568-1.094887,0.594872-1.872532,0.594872
		C56.504044,66.491432,55.633289,65.810341,55.231564,64.448174"/>
	<path d="M64.744072,63.894192c-0.317268,0.124157-0.789715,0.231052-1.419075,0.317272
		c-0.356918,0.048279-0.610363,0.105164-0.758648,0.167252c-0.146572,0.062065-0.260361,0.153442-0.341423,0.272415
		c-0.081036,0.118973-0.122421,0.251732-0.122421,0.398308c0,0.22242,0.087955,0.408646,0.263813,0.556923
		c0.174171,0.150024,0.432796,0.224159,0.769012,0.224159c0.334503,0,0.632805-0.070694,0.893166-0.212082
		c0.260368-0.141388,0.451767-0.334503,0.574188-0.579346c0.093109-0.189667,0.141388-0.469002,0.141388-0.837997V63.894192z
		 M64.814774,65.764984c-0.320724,0.26384-0.631096,0.450035-0.929375,0.55867
		c-0.296593,0.108627-0.615574,0.162094-0.95697,0.162094c-0.562111,0-0.99662-0.13279-1.298344-0.396599
		c-0.301746-0.265518-0.451767-0.60347-0.451767-1.017296c0-0.241394,0.056908-0.463821,0.1707-0.663826
		c0.115524-0.198303,0.262096-0.360367,0.450031-0.481079c0.184483-0.120686,0.391411-0.212086,0.622463-0.274151
		c0.1707-0.043121,0.429329-0.08448,0.772461-0.125866c0.700027-0.081036,1.217304-0.17588,1.550098-0.28796
		c0.001717-0.115528,0.003448-0.187935,0.003448-0.218979c0-0.341396-0.082771-0.581055-0.246574-0.720734
		c-0.220711-0.189671-0.551773-0.284489-0.989727-0.284489c-0.40691,0-0.708656,0.068958-0.903511,0.206902
		c-0.193111,0.137943-0.337948,0.382782-0.431061,0.732807l-0.848309-0.110344
		c0.075851-0.350025,0.203453-0.634541,0.381046-0.850071c0.177589-0.21553,0.431061-0.381046,0.765564-0.496574
		c0.334507-0.117264,0.724182-0.17588,1.163872-0.17588c0.436245,0,0.791431,0.050014,1.065578,0.150017
		c0.272438,0.098267,0.474182,0.222424,0.601761,0.372444c0.129311,0.15173,0.218979,0.341396,0.26899,0.570713
		c0.031052,0.143127,0.044838,0.401756,0.044838,0.772461v1.115597c0,0.77935,0.018967,1.272499,0.055168,1.479401
		c0.036201,0.205193,0.110344,0.403465,0.220718,0.591423h-0.908691C64.897514,66.201233,64.84063,65.997772,64.814774,65.764984"/>
	<path d="M67.839783,65.685318h1.144897c0.489685,0,0.829346-0.055168,1.012115-0.165512
		c0.181046-0.110344,0.277603-0.300011,0.289673-0.569008c0-0.158623-0.053436-0.305191-0.160355-0.43969
		c-0.106895-0.134499-0.244843-0.218979-0.413803-0.25692c-0.1707-0.034462-0.444878-0.053436-0.82074-0.053436h-1.051788V65.685318
		z M67.839783,63.512779h0.927635c0.368996,0,0.622467-0.01897,0.760384-0.055172
		c0.137939-0.037941,0.263809-0.112083,0.370728-0.225872c0.112053-0.113815,0.163811-0.250023,0.163811-0.406937
		c0-0.260361-0.094849-0.441402-0.284515-0.544853c-0.191383-0.103451-0.51899-0.153465-0.982811-0.153465h-0.955231V63.512779z
		 M66.970764,61.433319h2.003555c0.491417,0,0.858673,0.039677,1.09491,0.118973
		c0.241394,0.079327,0.448296,0.224163,0.618996,0.434536c0.172432,0.212059,0.258652,0.463818,0.258652,0.758648
		c0,0.236237-0.05175,0.441425-0.153465,0.615574c-0.101738,0.175854-0.253471,0.322426-0.453476,0.441399
		c0.239655,0.075878,0.43969,0.222424,0.600021,0.434513c0.158646,0.212082,0.236237,0.463814,0.236237,0.755226
		c-0.029312,0.468994-0.205193,0.815552-0.519012,1.043159c-0.315536,0.225868-0.77417,0.339684-1.375931,0.339684h-2.310486
		V61.433319z"/>
	<path d="M72.674042,63.904346c0,0.632809,0.143127,1.106991,0.42762,1.420788c0.286224,0.315536,0.648323,0.47245,1.082832,0.47245
		c0.431068,0,0.787987-0.158623,1.074211-0.474159c0.286224-0.317268,0.431061-0.800056,0.431061-1.448387
		c0-0.610363-0.144836-1.072472-0.434509-1.388004c-0.284515-0.313828-0.644882-0.47245-1.070763-0.47245
		c-0.434509,0-0.796608,0.156914-1.082832,0.470711C72.817169,62.797382,72.674042,63.271568,72.674042,63.904346
		 M71.780899,63.904346c0-0.915558,0.265518-1.593197,0.791428-2.034599c0.439667-0.365547,0.977631-0.548298,1.612167-0.548298
		c0.701767,0,1.279373,0.222424,1.72596,0.667274c0.448318,0.444847,0.670746,1.060421,0.670746,1.844955
		c0,0.63623-0.098297,1.136276-0.296562,1.501801c-0.198303,0.363808-0.486267,0.646591-0.865601,0.848335
		c-0.375862,0.201744-0.787956,0.30175-1.234543,0.30175c-0.717285,0-1.296631-0.220718-1.739769-0.665565
		C72.001587,65.376862,71.780899,64.738899,71.780899,63.904346"/>
	<path d="M78.788757,62.12648c-0.065536,1.603539-0.320717,2.789825-0.772484,3.558838h2.755363V62.12648H78.788757z
		 M78.064583,61.433319h3.569176v4.251999h0.555214v2.089798h-0.713837v-1.400085h-4.031288v1.400085h-0.713837v-2.089798h0.458633
		C77.799034,64.885284,78.092155,63.467945,78.064583,61.433319"/>
	<polygon points="87.799828,66.374321 87.799828,60.358429 85.468636,60.358429 85.468636,59.553211 91.07415,59.553211 
		91.07415,60.358429 88.736092,60.358429 88.736092,66.374321 	"/>
	<path d="M92.153198,63.931763c0,0.636253,0.134499,1.105255,0.401756,1.408714
		c0.267258,0.305191,0.589684,0.456924,0.967308,0.456924c0.387939,0,0.717262-0.156891,0.993149-0.470711
		c0.274147-0.315536,0.412094-0.803505,0.412094-1.463886c0-0.62936-0.134476-1.10178-0.403465-1.415604
		c-0.267258-0.313828-0.587975-0.469002-0.962128-0.469002c-0.368996,0-0.696609,0.167252-0.982834,0.500046
		C92.296303,62.811012,92.153198,63.295536,92.153198,63.931763 M91.366959,68.268242v-6.834896h0.791428v0.641411
		c0.186195-0.250023,0.398277-0.439667,0.631065-0.563824c0.236214-0.125866,0.520729-0.189667,0.855232-0.189667
		c0.436218,0,0.824188,0.108635,1.158691,0.32761c0.334503,0.21553,0.584496,0.522438,0.755226,0.917297
		c0.1707,0.394859,0.256889,0.829369,0.256889,1.300079c0,0.506939-0.094826,0.962124-0.281044,1.365612
		c-0.189667,0.405205-0.463814,0.715553-0.82074,0.931084c-0.358658,0.21553-0.736252,0.322426-1.131111,0.322426
		c-0.289673,0-0.550041-0.058617-0.779358-0.17585c-0.229317-0.118973-0.418983-0.267258-0.567268-0.446587v2.405304H91.366959z"/>
	<path d="M96.714371,68.277374l-0.096588-0.786247c0.189667,0.050018,0.355209,0.074142,0.494865,0.074142
		c0.194855,0,0.34832-0.031044,0.463844-0.093109c0.115501-0.062065,0.21035-0.148285,0.284485-0.260368
		c0.055176-0.082741,0.144836-0.291382,0.267258-0.624176c0.015526-0.04483,0.041389-0.113785,0.075882-0.203453l-1.94323-4.950317
		h0.936272l1.063835,2.860519c0.139679,0.362106,0.263809,0.744888,0.372444,1.144905
		c0.098297-0.384491,0.218979-0.760384,0.356926-1.125931l1.094887-2.879494h0.867302l-1.948402,5.02446
		c-0.206902,0.541405-0.370712,0.915588-0.486237,1.122482c-0.155174,0.274155-0.332771,0.477608-0.531067,0.605209
		c-0.200005,0.129318-0.437958,0.193115-0.713837,0.193115C97.105751,68.379112,96.919533,68.34462,96.714371,68.277374"/>
	<path d="M105.511986,63.884853c0-0.513809-0.127602-0.936268-0.379333-1.265587
		c-0.253471-0.329323-0.608658-0.493126-1.069031-0.493126c-0.477631,0-0.848335,0.174145-1.108696,0.522434
		c-0.262077,0.346581-0.391388,0.810398-0.391388,1.38974c0,0.574188,0.143097,1.013855,0.43277,1.317345
		c0.287964,0.303452,0.64315,0.455185,1.062134,0.455185c0.431061,0,0.78109-0.174149,1.050079-0.527618
		C105.377487,64.931488,105.511986,64.464195,105.511986,63.884853 M105.555107,59.39146l0.765541,0.008629
		c-0.03447,0.331059-0.110344,0.56382-0.227585,0.693161c-0.118973,0.129314-0.26899,0.213795-0.455208,0.251732
		c-0.184486,0.037941-0.546593,0.055172-1.086258,0.055172c-0.717293,0-1.205261,0.067249-1.465622,0.200008
		c-0.260368,0.132786-0.448296,0.346581-0.56382,0.639702c-0.112083,0.293118-0.175888,0.670746-0.191406,1.132824
		c0.220711-0.312088,0.475891-0.548298,0.769012-0.705212c0.293114-0.155174,0.622467-0.234497,0.987991-0.234497
		c0.672455,0,1.229408,0.222424,1.670807,0.667297c0.439667,0.446556,0.658669,1.048317,0.658669,1.808727
		c0,0.575897-0.110367,1.050056-0.331055,1.419052c-0.22245,0.368996-0.484528,0.653488-0.789719,0.855232
		c-0.303459,0.201744-0.717285,0.30175-1.243172,0.30175c-0.605209,0-1.077652-0.13279-1.417343-0.400047
		c-0.336212-0.270699-0.594864-0.613838-0.777641-1.031082c-0.179298-0.420723-0.268967-1.14835-0.268967-2.186356
		c0-1.306973,0.231056-2.186356,0.686241-2.638096c0.458664-0.455215,1.165581-0.679348,2.117371-0.679348
		c0.589714,0,0.927666-0.010342,1.006958-0.029312C105.480942,59.501831,105.532692,59.458706,105.555107,59.39146"/>
	<path d="M108.026108,63.904346c0,0.632809,0.143105,1.106991,0.429329,1.420788
		c0.286224,0.315536,0.648323,0.47245,1.082832,0.47245c0.431061,0,0.787987-0.158623,1.074211-0.474159
		c0.284492-0.317268,0.431061-0.800056,0.431061-1.448387c0-0.610363-0.146568-1.072472-0.434509-1.388004
		c-0.284515-0.313828-0.644882-0.47245-1.070763-0.47245c-0.434509,0-0.796608,0.156914-1.082832,0.470711
		C108.169212,62.797382,108.026108,63.271568,108.026108,63.904346 M107.134674,63.904346
		c0-0.915558,0.265518-1.593197,0.791428-2.034599c0.439667-0.365547,0.977631-0.548298,1.612167-0.548298
		c0.701767,0,1.279373,0.222424,1.72596,0.667274c0.448318,0.444847,0.670746,1.060421,0.670746,1.844955
		c0,0.63623-0.098297,1.136276-0.296562,1.501801c-0.198303,0.363808-0.486267,0.646591-0.865601,0.848335
		c-0.375862,0.201744-0.787956,0.30175-1.234543,0.30175c-0.717285,0-1.296631-0.220718-1.739769-0.665565
		C107.355362,65.376862,107.134674,64.738899,107.134674,63.904346"/>
	<polygon points="112.956955,61.433319 116.998581,61.433319 116.998581,66.375031 116.131279,66.375031 116.131279,62.12648 
		113.825974,62.12648 113.825974,66.375031 112.956955,66.375031 	"/>
	<path d="M119.08596,63.931763c0,0.636253,0.134491,1.105255,0.401749,1.408714
		c0.267258,0.305191,0.589684,0.456924,0.967316,0.456924c0.387939,0,0.717255-0.156891,0.991432-0.470711
		c0.275864-0.315536,0.413803-0.803505,0.413803-1.463886c0-0.62936-0.134468-1.10178-0.403465-1.415604
		c-0.26725-0.313828-0.587967-0.469002-0.96212-0.469002c-0.369003,0-0.696609,0.167252-0.982834,0.500046
		C119.229057,62.811012,119.08596,63.295536,119.08596,63.931763 M118.299713,68.268242v-6.834896h0.791428v0.641411
		c0.186195-0.250023,0.398277-0.439667,0.631073-0.563824c0.234497-0.125866,0.520721-0.189667,0.855225-0.189667
		c0.436226,0,0.824188,0.108635,1.158691,0.32761c0.334503,0.21553,0.584503,0.522438,0.755226,0.917297
		c0.1707,0.394859,0.256889,0.829369,0.256889,1.300079c0,0.506939-0.094818,0.962124-0.282776,1.365612
		c-0.187935,0.405205-0.462082,0.715553-0.82074,0.931084c-0.356918,0.21553-0.73452,0.322426-1.129379,0.322426
		c-0.289673,0-0.550034-0.058617-0.77935-0.17585c-0.231056-0.118973-0.418991-0.267258-0.567268-0.446587v2.405304H118.299713z"/>
	<path d="M124.364883,63.904346c0,0.632809,0.143127,1.106991,0.42762,1.420788c0.286224,0.315536,0.648331,0.47245,1.08284,0.47245
		c0.431061,0,0.787979-0.158623,1.074203-0.474159c0.286224-0.317268,0.431061-0.800056,0.431061-1.448387
		c0-0.610363-0.144836-1.072472-0.434509-1.388004c-0.284515-0.313828-0.644882-0.47245-1.070755-0.47245
		c-0.434509,0-0.796616,0.156914-1.08284,0.470711C124.508011,62.797382,124.364883,63.271568,124.364883,63.904346
		 M123.471741,63.904346c0-0.915558,0.265526-1.593197,0.791435-2.034599c0.439659-0.365547,0.977623-0.548298,1.612167-0.548298
		c0.701759,0,1.279366,0.222424,1.725952,0.667274c0.448326,0.444847,0.670753,1.060421,0.670753,1.844955
		c0,0.63623-0.098297,1.136276-0.29657,1.501801c-0.198303,0.363808-0.486259,0.646591-0.865601,0.848335
		c-0.375862,0.201744-0.787956,0.30175-1.234535,0.30175c-0.717293,0-1.296638-0.220718-1.739777-0.665565
		C123.692429,65.376862,123.471741,64.738899,123.471741,63.904346"/>
	<path d="M130.160965,65.685318h1.143158c0.491425,0,0.831085-0.055168,1.012146-0.165512
		c0.182755-0.110344,0.279312-0.300011,0.291382-0.569008c0-0.158623-0.053436-0.305191-0.162064-0.43969
		c-0.105194-0.134499-0.243134-0.218979-0.412094-0.25692c-0.1707-0.034462-0.44487-0.053436-0.82074-0.053436h-1.051788V65.685318z
		 M130.160965,63.512779h0.927628c0.369003,0,0.622467-0.01897,0.760391-0.055172
		c0.137939-0.037941,0.2621-0.112083,0.370728-0.225872c0.112061-0.113815,0.163803-0.250023,0.163803-0.406937
		c0-0.260361-0.094849-0.441402-0.286224-0.544853c-0.191406-0.103451-0.517273-0.153465-0.981094-0.153465h-0.955231V63.512779z
		 M129.291946,61.433319h2.003555c0.491409,0,0.858673,0.039677,1.09491,0.118973
		c0.239655,0.079327,0.448303,0.224163,0.618988,0.434536c0.17244,0.212059,0.258667,0.463818,0.258667,0.758648
		c0,0.236237-0.051758,0.441425-0.153473,0.615574c-0.101746,0.175854-0.253464,0.322426-0.453476,0.441399
		c0.239655,0.075878,0.439697,0.222424,0.598312,0.434513c0.160355,0.212082,0.237946,0.463814,0.237946,0.755226
		c-0.029312,0.468994-0.205185,0.815552-0.519012,1.043159c-0.315536,0.225868-0.77417,0.339684-1.375931,0.339684h-2.310486
		V61.433319z"/>
	<path d="M134.993332,63.904346c0,0.632809,0.143097,1.106991,0.429321,1.420788
		c0.286224,0.315536,0.648331,0.47245,1.08284,0.47245c0.431061,0,0.787979-0.158623,1.074203-0.474159
		c0.2845-0.317268,0.431076-0.800056,0.431076-1.448387c0-0.610363-0.146576-1.072472-0.434509-1.388004
		c-0.284515-0.313828-0.644882-0.47245-1.07077-0.47245c-0.434509,0-0.796616,0.156914-1.08284,0.470711
		C135.136429,62.797382,134.993332,63.271568,134.993332,63.904346 M134.101898,63.904346
		c0-0.915558,0.265518-1.593197,0.791428-2.034599c0.439667-0.365547,0.977631-0.548298,1.612167-0.548298
		c0.701767,0,1.279373,0.222424,1.725967,0.667274c0.448318,0.444847,0.670731,1.060421,0.670731,1.844955
		c0,0.63623-0.098282,1.136276-0.296555,1.501801c-0.198303,0.363808-0.486267,0.646591-0.865601,0.848335
		c-0.37587,0.201744-0.787949,0.30175-1.234543,0.30175c-0.717285,0-1.296631-0.220718-1.739761-0.665565
		C134.322586,65.376862,134.101898,64.738899,134.101898,63.904346"/>
	<path d="M141.111832,62.12648c-0.065536,1.603539-0.320709,2.789825-0.772476,3.558838h2.755356V62.12648H141.111832z
		 M140.38765,61.433319h3.569183v4.251999h0.556931v2.089798h-0.715546v-1.400085h-4.031296v1.400085h-0.713837v-2.089798h0.458633
		C140.122116,64.885284,140.415222,63.467945,140.38765,61.433319"/>
	<polygon points="145.469864,61.433319 146.338882,61.433319 146.338882,63.49036 148.745926,63.49036 148.745926,61.433319 
		149.613235,61.433319 149.613235,66.375031 148.745926,66.375031 148.745926,64.183495 146.338882,64.183495 146.338882,66.375031 
		145.469864,66.375031 	"/>
	<path d="M151.491257,63.904346c0,0.632809,0.141388,1.106991,0.427612,1.420788
		c0.286224,0.315536,0.648331,0.47245,1.08284,0.47245c0.431061,0,0.787979-0.158623,1.074219-0.474159
		c0.286224-0.317268,0.431061-0.800056,0.431061-1.448387c0-0.610363-0.144836-1.072472-0.434509-1.388004
		c-0.284515-0.313828-0.644882-0.47245-1.07077-0.47245c-0.434509,0-0.796616,0.156914-1.08284,0.470711
		C151.632645,62.797382,151.491257,63.271568,151.491257,63.904346 M150.598114,63.904346
		c0-0.915558,0.265518-1.593197,0.791428-2.034599c0.439667-0.365547,0.977631-0.548298,1.612167-0.548298
		c0.701767,0,1.279373,0.222424,1.725967,0.667274c0.448318,0.444847,0.670746,1.060421,0.670746,1.844955
		c0,0.63623-0.098297,1.136276-0.29657,1.501801c-0.198303,0.363808-0.486267,0.646591-0.865601,0.848335
		c-0.37587,0.201744-0.787949,0.30175-1.234543,0.30175c-0.717285,0-1.296631-0.220718-1.739761-0.665565
		C150.818802,65.376862,150.598114,64.738899,150.598114,63.904346"/>
	<path d="M159.429199,59.562527h0.593124c-0.048279,0.387966-0.196548,0.686241-0.441391,0.894878
		c-0.246582,0.206902-0.574158,0.310379-0.981094,0.310379c-0.413803,0-0.739716-0.103477-0.987991-0.308643
		c-0.243134-0.206924-0.391418-0.505203-0.439697-0.896614h0.593155c0.04483,0.212086,0.132767,0.368996,0.267258,0.472446
		c0.132767,0.103451,0.313797,0.156914,0.536255,0.156914c0.26033,0,0.460373-0.051754,0.593124-0.151756
		C159.292999,59.940128,159.382629,59.781506,159.429199,59.562527 M156.413498,61.433319h0.869019v3.769211l2.407043-3.769211
		h0.934525v4.941711h-0.867279v-3.746792l-2.407043,3.746792h-0.936264V61.433319z"/>
	<path d="M166.053589,63.574158h2.396698l-0.737991-1.889763c-0.225861-0.574188-0.391388-1.044899-0.500015-1.413895
		c-0.089661,0.436245-0.218979,0.870754-0.382782,1.303524L166.053589,63.574158z M164.013809,66.374321l2.713943-6.82111h1.010406
		l2.893311,6.82111h-1.067322l-0.824188-2.065643h-2.957092l-0.775909,2.065643H164.013809z"/>
	<path d="M172.05188,63.931763c0,0.636253,0.134506,1.105255,0.401764,1.408714
		c0.267258,0.305191,0.589676,0.456924,0.9673,0.456924c0.387939,0,0.71727-0.156891,0.99144-0.470711
		c0.275864-0.315536,0.413803-0.803505,0.413803-1.463886c0-0.62936-0.134476-1.10178-0.403458-1.415604
		c-0.267258-0.313828-0.587982-0.469002-0.962128-0.469002c-0.369003,0-0.696609,0.167252-0.982834,0.500046
		C172.194992,62.811012,172.05188,63.295536,172.05188,63.931763 M171.26564,68.268242v-6.834896h0.791428v0.641411
		c0.186203-0.250023,0.398285-0.439667,0.631073-0.563824c0.236206-0.125866,0.520721-0.189667,0.855225-0.189667
		c0.436218,0,0.824188,0.108635,1.158691,0.32761c0.334503,0.21553,0.584503,0.522438,0.755234,0.917297
		c0.170685,0.394859,0.256882,0.829369,0.256882,1.300079c0,0.506939-0.094818,0.962124-0.281036,1.365612
		c-0.189667,0.405205-0.463821,0.715553-0.822479,0.931084c-0.356918,0.21553-0.734512,0.322426-1.129379,0.322426
		c-0.289673,0-0.550034-0.058617-0.779358-0.17585c-0.231049-0.118973-0.418976-0.267258-0.567261-0.446587v2.405304H171.26564z"/>
	<polygon points="176.783752,61.433319 178.135559,61.433319 179.478729,65.388756 180.975403,61.433319 182.223755,61.433319 
		182.223755,66.375031 181.356445,66.375031 181.356445,62.395473 179.840836,66.375031 179.064926,66.375031 177.632065,62.205807 
		177.632065,66.375031 176.783752,66.375031 	"/>
	<path d="M186.824387,63.894192c-0.317276,0.124157-0.789719,0.231052-1.419083,0.317272
		c-0.356918,0.048279-0.610367,0.105164-0.758652,0.167252c-0.146576,0.062065-0.260361,0.153442-0.341415,0.272415
		c-0.081039,0.118973-0.122421,0.251732-0.122421,0.398308c0,0.22242,0.087952,0.408646,0.263809,0.556923
		c0.174164,0.150024,0.4328,0.224159,0.769012,0.224159c0.334503,0,0.632797-0.070694,0.893173-0.212082
		c0.260361-0.141388,0.451767-0.334503,0.574188-0.579346c0.09137-0.189667,0.141388-0.469002,0.141388-0.837997V63.894192z
		 M186.895081,65.764984c-0.320724,0.26384-0.631104,0.450035-0.929382,0.55867
		c-0.298294,0.108627-0.61557,0.162094-0.95697,0.162094c-0.562103,0-0.996613-0.13279-1.29834-0.396599
		c-0.301743-0.265518-0.451767-0.60347-0.451767-1.017296c0-0.241394,0.058624-0.463821,0.1707-0.663826
		c0.115524-0.198303,0.2621-0.360367,0.450027-0.481079c0.184494-0.120686,0.391418-0.212086,0.622467-0.274151
		c0.1707-0.043121,0.429337-0.08448,0.772461-0.125866c0.700027-0.081036,1.217316-0.17588,1.55011-0.28796
		c0.001709-0.115528,0.003448-0.187935,0.003448-0.218979c0-0.341396-0.082779-0.581055-0.246582-0.720734
		c-0.220718-0.189671-0.550034-0.284489-0.989731-0.284489c-0.406906,0-0.710388,0.068958-0.903503,0.206902
		s-0.337952,0.382782-0.431061,0.732807l-0.848312-0.110344c0.075851-0.350025,0.203445-0.634541,0.381042-0.850071
		s0.431061-0.381046,0.765564-0.496574c0.334503-0.117264,0.724182-0.17588,1.163879-0.17588
		c0.436234,0,0.791428,0.050014,1.065567,0.150017c0.272446,0.098267,0.474197,0.222424,0.601761,0.372444
		c0.129318,0.15173,0.218979,0.341396,0.268997,0.570713c0.031052,0.143127,0.04483,0.401756,0.04483,0.772461v1.115597
		c0,0.77935,0.017242,1.272499,0.055176,1.479401c0.036209,0.205193,0.110352,0.403465,0.220718,0.591423h-0.908691
		C186.977814,66.201233,186.920944,65.997772,186.895081,65.764984"/>
	<polygon points="188.359299,61.433319 192.523315,61.433319 192.523315,62.12648 190.873245,62.12648 190.873245,66.375031 
		190.009384,66.375031 190.009384,62.12648 188.359299,62.12648 	"/>
	<path d="M193.425323,68.277374l-0.096603-0.786247c0.189697,0.050018,0.35524,0.074142,0.494888,0.074142
		c0.194855,0,0.348297-0.031044,0.463852-0.093109c0.115494-0.062065,0.210312-0.148285,0.284454-0.260368
		c0.055206-0.082741,0.144867-0.291382,0.267258-0.624176c0.015518-0.04483,0.041412-0.113785,0.075882-0.203453l-1.943207-4.950317
		h0.936264l1.063828,2.860519c0.139694,0.362106,0.263824,0.744888,0.372437,1.144905
		c0.098297-0.384491,0.219009-0.760384,0.356918-1.125931l1.09491-2.879494h0.867294l-1.94841,5.02446
		c-0.206909,0.541405-0.370712,0.915588-0.486206,1.122482c-0.155182,0.274155-0.332779,0.477608-0.531097,0.605209
		c-0.200012,0.129318-0.437958,0.193115-0.713837,0.193115C193.816711,68.379112,193.630493,68.34462,193.425323,68.277374"/>
	<path d="M199.077072,63.931763c0,0.636253,0.134491,1.105255,0.401749,1.408714
		c0.267258,0.305191,0.589661,0.456924,0.967316,0.456924c0.387909,0,0.717255-0.156891,0.991409-0.470711
		c0.275879-0.315536,0.413803-0.803505,0.413803-1.463886c0-0.62936-0.134445-1.10178-0.403442-1.415604
		c-0.267258-0.313828-0.587967-0.469002-0.962143-0.469002c-0.368973,0-0.696594,0.167252-0.982834,0.500046
		C199.220139,62.811012,199.077072,63.295536,199.077072,63.931763 M198.290817,68.268242v-6.834896h0.791412v0.641411
		c0.186218-0.250023,0.39827-0.439667,0.631073-0.563824c0.234528-0.125866,0.520721-0.189667,0.855225-0.189667
		c0.436218,0,0.824188,0.108635,1.158691,0.32761c0.332764,0.21553,0.584503,0.522438,0.755249,0.917297
		c0.1707,0.394859,0.256897,0.829369,0.256897,1.300079c0,0.506939-0.094833,0.962124-0.281052,1.365612
		c-0.189697,0.405205-0.463837,0.715553-0.822495,0.931084c-0.356918,0.21553-0.734528,0.322426-1.129379,0.322426
		c-0.289673,0-0.551727-0.058617-0.779358-0.17585c-0.231049-0.118973-0.418961-0.267258-0.567245-0.446587v2.405304H198.290817z"/>
	<path d="M208.661774,61.433319h0.869019v4.941711h-0.869019V61.433319z M204.673615,65.685318h0.912109
		c0.550034,0,0.941422-0.065514,1.175949-0.194824c0.236206-0.13105,0.353455-0.334503,0.353455-0.61039
		c0-0.212082-0.087936-0.403465-0.260376-0.570717c-0.175858-0.168983-0.558655-0.251755-1.153473-0.251755h-1.027664V65.685318z
		 M203.806335,61.433319h0.867279v1.931175h1.100067c0.717255,0,1.270767,0.134495,1.656998,0.401752
		c0.38797,0.26897,0.581085,0.637966,0.581085,1.110409c0,0.412094-0.160385,0.765572-0.484528,1.058685
		c-0.324188,0.293121-0.841446,0.43969-1.551804,0.43969h-2.169098V61.433319z"/>
</g>
</svg>
