<?xml version="1.0" encoding="utf-8"?>
<!-- Generator: Adobe Illustrator 19.1.0, SVG Export Plug-In . SVG Version: 6.00 Build 0)  -->
<svg version="1.0" id="Слой_1" xmlns="http://www.w3.org/2000/svg" xmlns:xlink="http://www.w3.org/1999/xlink" x="0px" y="0px"
	 viewBox="0 0 146.271866 65.011017" style="enable-background:new 0 0 146.271866 65.011017;" xml:space="preserve">
<g>
	<path style="fill:#134380;" d="M111.283607,4.562877h-4.915848v40.628441h-7.372887V-0.03394h19.563324v45.249409
		c-0.565559,0.032757-1.046608,0.084484-1.529449,0.08622c-1.853531,0.010338-3.707123,0.005157-5.74514,0.005157V4.562877z"/>
	<polygon style="fill:#134380;" points="61.895832,45.2201 54.578094,45.2201 54.578094,-0.02068 74.106895,-0.02068 
		74.106895,45.309765 70.587738,45.309765 66.839203,45.309765 66.839203,4.58824 61.895832,4.58824 	"/>
	<path style="fill:#134380;" d="M137.263657,31.835665c-0.839706-9.104023-1.667313-18.077023-2.494965-27.048258
		c-0.175858,0-0.351776,0-0.525894,0c-0.815552,8.972973-1.631149,17.947681-2.458755,27.048258H137.263657z M131.361603,36.515251
		c-0.272461,2.872597-0.539719,5.703835-0.820755,8.662624h-7.421196c1.56218-15.035439,3.119202-30.036385,4.689957-45.171825
		h13.418114c1.563919,15.011311,3.127777,30.031223,4.705475,45.18219h-7.448761
		c-0.277618-2.865704-0.553452-5.700359-0.841446-8.672989H131.361603z"/>
	<polygon style="fill:#134380;" points="82.861626,4.437169 77.019882,4.437169 77.019882,-0.019996 96.110725,-0.019996 
		96.110725,4.449245 90.301704,4.449245 90.301704,45.201843 82.861626,45.201843 	"/>
	<path style="fill:#134380;" d="M1.415632,43.721725h44.645943V1.453518H1.415632V43.721725z M0,0h47.499565v45.209763H0V0z"/>
	<path style="fill:#134380;" d="M31.073704,31.172682c-0.665537-2.827765-4.52273-5.071028-7.76948-4.819269
		c-3.417448,0.263811-6.18483,2.253576-6.738338,4.819269H31.073704z M15.202031,35.897102
		c0.748307,1.67252,1.346595,3.012276,1.994924,4.462372h-4.865809c-2.689821-4.03476-1.755293-11.27659,2.777749-15.231998
		c4.879597-4.257181,11.942127-4.400282,16.947643-0.306931c4.803719,3.927834,5.860691,11.171402,3.129513,15.588917h-4.896856
		c0.651749-1.467331,1.26556-2.853626,2.000078-4.51236H15.202031z"/>
	<polygon style="fill:#134380;" points="21.52499,9.759587 12.219223,9.759587 12.219223,5.40932 35.265507,5.40932 
		35.265507,9.707862 26.101128,9.707862 26.101128,20.477512 21.52499,20.477512 	"/>
	<path style="fill:#134380;" d="M30.917158,22.083813v-5.069263c-1.167318-0.067249-2.193247-0.125868-3.339886-0.193115v-4.255446
		h7.674604v13.318084C33.894917,24.694336,32.565529,23.528753,30.917158,22.083813"/>
	<path style="fill:#134380;" d="M12.167024,25.953371V12.559437h7.760797v4.227846
		c-0.979361,0.063803-2.003553,0.129314-3.248487,0.210375v5.043402C15.04133,23.461847,13.653324,24.663658,12.167024,25.953371"/>
	<polygon style="fill:#134380;" points="4.532884,65.011017 4.532884,53.91206 1.667155,53.91206 1.667155,65.011017 
		-0.00021,65.011017 -0.00021,52.594719 6.182937,52.594719 6.182937,65.011017 	"/>
	<polygon style="fill:#134380;" points="7.849987,65.011017 7.849987,52.594719 12.617502,52.594719 12.617502,53.894798 
		9.50004,53.894798 9.50004,57.81057 12.117456,57.81057 12.000219,59.127895 9.50004,59.127895 9.50004,63.74543 
		12.700274,63.74543 12.700274,65.011017 	"/>
	<polygon style="fill:#134380;" points="18.599642,65.011017 18.599642,59.243423 15.733912,59.243423 15.733912,65.011017 
		14.066547,65.011017 14.066547,52.594719 15.733912,52.594719 15.733912,57.943329 18.599642,57.943329 18.599642,52.594719 
		20.249695,52.594719 20.249695,65.011017 	"/>
	<path style="fill:#134380;" d="M22.950619,62.177216c0.087929,0.56728,0.277571,0.998344,0.565506,1.291462
		c0.289673,0.294853,0.722471,0.443138,1.300079,0.443138c0.688004,0,1.172527-0.213806,1.450098-0.641422
		c0.277622-0.427616,0.417274-1.0811,0.417274-1.958748c0-0.73452-0.150019-1.267323-0.450005-1.601826
		c-0.298302-0.332771-0.77767-0.500023-1.434576-0.500023h-1.215622l0.132759-1.265598h1.082863
		c0.500048,0,0.881067-0.141388,1.14143-0.424168c0.2621-0.284504,0.393124-0.810398,0.393124-1.575951
		c0-0.810398-0.110344-1.391479-0.334505-1.741508c-0.220688-0.350002-0.598288-0.525883-1.132799-0.525883
		c-0.46558,0-0.836287,0.13105-1.106964,0.393124c-0.272465,0.260361-0.443165,0.731075-0.508677,1.407001l-1.401793-0.132786
		c0.034466-0.555191,0.110344-1.022484,0.225845-1.400082c0.117289-0.377602,0.294882-0.684532,0.534512-0.917297
		c0.237947-0.232761,0.539722-0.400017,0.906956-0.500046c0.367287-0.098267,0.817291-0.149994,1.350121-0.149994
		c0.634489,0,1.146585,0.082771,1.543182,0.250023c0.393122,0.167255,0.70179,0.400017,0.924215,0.700031
		c0.222424,0.300011,0.372442,0.658669,0.450005,1.075943c0.077614,0.415539,0.117237,0.881092,0.117237,1.391453
		c0,0.300011-0.024101,0.598312-0.067249,0.900063c-0.044779,0.300011-0.110344,0.574173-0.200006,0.825909
		c-0.089664,0.248287-0.201693,0.462093-0.341398,0.641422c-0.137917,0.175869-0.303459,0.300011-0.493101,0.365536
		c0.568979,0.189671,0.950052,0.536236,1.150059,1.041454c0.201746,0.505203,0.300039,1.125931,0.300039,1.85873
		c0,0.522446-0.039675,1.010403-0.124184,1.467327c-0.082769,0.45694-0.24826,0.858681-0.491415,1.20871
		c-0.244841,0.348289-0.589659,0.624176-1.034508,0.825905c-0.444901,0.198296-1.025928,0.298302-1.7484,0.298302
		c-0.556927,0-1.031086-0.058632-1.425945-0.174149c-0.394859-0.117249-0.722469-0.28968-0.982832-0.517273
		c-0.260365-0.227608-0.458635-0.503487-0.593132-0.824188c-0.132759-0.322441-0.21553-0.684532-0.248312-1.082836
		L22.950619,62.177216z"/>
	<polygon style="fill:#134380;" points="31.817747,65.011017 31.817747,53.894798 29.750366,53.894798 29.750366,52.594719 
		35.585224,52.594719 35.585224,53.894798 33.4678,53.894798 33.4678,65.011017 	"/>
	<path style="fill:#134380;" d="M40.40015,58.17783v-4.367512h-1.082863c-0.355186,0-0.632809,0.036201-0.832817,0.106895
		c-0.201744,0.072433-0.350025,0.187958-0.450005,0.343136c-0.101715,0.155174-0.165543,0.365551-0.191376,0.625912
		c-0.029312,0.260365-0.043152,0.581055-0.043152,0.958683c0,0.43277,0.01384,0.798309,0.043152,1.098331
		c0.025833,0.300014,0.089661,0.543129,0.191376,0.725906c0.099979,0.184498,0.241367,0.313812,0.424168,0.391399
		c0.182751,0.079323,0.431065,0.117249,0.743153,0.117249H40.40015z M42.050255,65.011017H40.40015v-5.567585h-1.232883
		l-1.182789,5.567585h-1.834644l1.517345-5.767593c-0.289673-0.077602-0.525883-0.217255-0.70863-0.415554
		c-0.18454-0.200008-0.32935-0.448296-0.4328-0.743149c-0.106922-0.293121-0.179329-0.636242-0.217266-1.024208
		c-0.039677-0.389675-0.058617-0.817291-0.058617-1.282818c0-0.556927,0.036201-1.034557,0.108604-1.434574
		c0.07246-0.400043,0.219006-0.729366,0.441429-0.991436c0.222424-0.260365,0.54314-0.451771,0.958679-0.575901
		c0.417278-0.120708,0.969048-0.181065,1.658737-0.181065h2.632938V65.011017z"/>
	<polygon style="fill:#134380;" points="51.653271,65.011017 50.118668,58.510612 49.218605,60.660751 49.218605,65.011017 
		47.570236,65.011017 47.570236,60.660751 46.668438,58.510612 45.135567,65.011017 43.218204,65.011017 45.720123,56.6605 
		43.535503,52.594719 45.402878,52.594719 47.570236,58.110584 47.570236,52.594719 49.218605,52.594719 49.218605,58.110584 
		51.385963,52.594719 53.253338,52.594719 51.068718,56.6605 53.568897,65.011017 	"/>
	<polygon style="fill:#134380;" points="59.267574,65.011017 59.267574,53.91206 56.401844,53.91206 56.401844,65.011017 
		54.734482,65.011017 54.734482,52.594719 60.917629,52.594719 60.917629,65.011017 	"/>
	<path style="fill:#134380;" d="M65.103798,58.610615c0.398285,0,0.722473-0.055172,0.967316-0.167252
		c0.243103-0.110344,0.432739-0.274151,0.565552-0.491402c0.132759-0.217255,0.220688-0.482788,0.258629-0.80006
		c0.039627-0.315536,0.056885-0.674179,0.056885-1.075932c0-0.343105-0.017258-0.65004-0.056885-0.915558
		c-0.037941-0.265545-0.118973-0.491417-0.243156-0.674191c-0.120659-0.184486-0.30172-0.320694-0.541405-0.408646
		c-0.237946-0.089664-0.56382-0.134499-0.974205-0.134499h-0.917267v4.667538H65.103798z M62.586414,65.011017V52.594719h2.150097
		c0.787987,0,1.432838,0.072433,1.932884,0.21553c0.500046,0.144836,0.893173,0.358658,1.175949,0.641438
		c0.282784,0.284489,0.477631,0.636227,0.582764,1.058685c0.105186,0.422432,0.156914,0.906956,0.156914,1.450096
		c0,0.610367-0.051727,1.162125-0.156914,1.650082c-0.105133,0.487968-0.294823,0.903507-0.565506,1.241459
		c-0.2742,0.339676-0.648323,0.600037-1.125954,0.784534c-0.477631,0.182777-1.089706,0.274162-1.832855,0.274162h-0.684532
		v5.100311H62.586414z"/>
	<path style="fill:#134380;" d="M73.135696,63.910946c0.389648,0,0.691368-0.091373,0.906898-0.275871
		c0.21727-0.182774,0.379341-0.47934,0.484528-0.889709c0.105186-0.412094,0.169014-0.939713,0.191429-1.584579
		c0.022415-0.643147,0.03273-1.427685,0.03273-2.350147c0-0.910416-0.010315-1.691494-0.03273-2.341518
		c-0.022415-0.65004-0.086243-1.184578-0.191429-1.600117c-0.105186-0.417274-0.267258-0.718998-0.484528-0.908665
		c-0.21553-0.187962-0.51725-0.28278-0.906898-0.28278c-0.40007,0-0.713844,0.096558-0.941475,0.291382
		c-0.229317,0.194851-0.400017,0.49831-0.517258,0.908691c-0.117233,0.410355-0.191376,0.941448-0.225899,1.591488
		c-0.032722,0.650024-0.049988,1.431103-0.049988,2.341518c0,0.922462,0.017265,1.707001,0.049988,2.350147
		c0.034523,0.644867,0.108665,1.172485,0.225899,1.584579c0.117241,0.41037,0.287941,0.706936,0.517258,0.889709
		C72.421852,63.819572,72.735626,63.910946,73.135696,63.910946 M73.135696,65.228271
		c-0.824242,0-1.465622-0.136208-1.924309-0.408646c-0.462059-0.270706-0.806931-0.675903-1.034508-1.206966
		c-0.227638-0.534515-0.370758-1.201797-0.425903-2.001858c-0.055199-0.800045-0.082771-1.734585-0.082771-2.800163
		c0-1.055252,0.027573-1.982887,0.082771-2.782948c0.055145-0.80003,0.198265-1.472488,0.425903-2.017365
		c0.227577-0.543144,0.572449-0.953499,1.034508-1.225937c0.458687-0.270702,1.100067-0.40691,1.924309-0.40691
		c0.810341,0,1.444885,0.132759,1.900101,0.398281c0.455215,0.26899,0.791397,0.667297,1.008667,1.201809
		c0.21553,0.532803,0.346558,1.203522,0.391388,2.008762c0.043144,0.803478,0.065567,1.746635,0.065567,2.824306
		c0,1.089718-0.022423,2.032875-0.065567,2.832932c-0.04483,0.801769-0.175858,1.467331-0.391388,2.000122
		c-0.21727,0.534523-0.553452,0.931091-1.008667,1.19146C74.580582,65.097237,73.946037,65.228271,73.135696,65.228271"/>
	<polygon style="fill:#134380;" points="84.720375,65.011017 84.720375,55.960468 82.804695,65.011017 81.202896,65.011017 
		79.204498,55.960468 79.204498,65.011017 77.93541,65.011017 77.93541,52.594719 79.902817,52.594719 82.052917,62.445339 
		84.237534,52.594719 86.0877,52.594719 86.0877,65.011017 	"/>
	<path style="fill:#134380;" d="M90.420204,55.27594l-1.04834,5.434814h2.048386L90.420204,55.27594z M92.070312,65.011017
		l-0.500046-2.982941h-2.317375l-0.515572,2.982941h-1.567337l2.4674-12.416298h1.748398l2.501862,12.416298H92.070312z"/>
	<path style="fill:#134380;" d="M97.554619,58.610615c0.398277,0,0.722466-0.055172,0.967308-0.167252
		c0.243103-0.110344,0.431061-0.274151,0.565559-0.491402c0.132759-0.217255,0.220688-0.482788,0.258629-0.80006
		c0.037933-0.315536,0.056877-0.674179,0.056877-1.075932c0-0.343105-0.018944-0.65004-0.056877-0.915558
		c-0.037941-0.265545-0.11898-0.491417-0.243156-0.674191c-0.120659-0.184486-0.301727-0.320694-0.541412-0.408646
		c-0.237946-0.089664-0.56382-0.134499-0.975883-0.134499h-0.915588v4.667538H97.554619z M95.037231,65.011017V52.594719h2.150101
		c0.787979,0,1.432838,0.072433,1.932884,0.21553c0.500046,0.144836,0.893166,0.358658,1.175949,0.641438
		c0.282776,0.284489,0.477631,0.636227,0.582764,1.058685c0.105186,0.422432,0.156914,0.906956,0.156914,1.450096
		c0,0.610367-0.051727,1.162125-0.156914,1.650082c-0.105133,0.487968-0.29483,0.903507-0.565506,1.241459
		c-0.2742,0.339676-0.648331,0.600037-1.125961,0.784534c-0.477631,0.182777-1.089706,0.274162-1.832855,0.274162h-0.684532
		v5.100311H95.037231z"/>
	<polygon style="fill:#134380;" points="109.00296,65.011017 109.00296,55.960468 107.08728,65.011017 105.485481,65.011017 
		103.487083,55.960468 103.487083,65.011017 102.217995,65.011017 102.217995,52.594719 104.185402,52.594719 106.335503,62.445339 
		108.520119,52.594719 110.370285,52.594719 110.370285,65.011017 	"/>
	<path style="fill:#134380;" d="M114.702789,55.27594l-1.04834,5.434814h2.048386L114.702789,55.27594z M116.352898,65.011017
		l-0.500046-2.982941h-2.317375l-0.515572,2.982941h-1.567337l2.4674-12.416298h1.748398l2.501862,12.416298H116.352898z"/>
	<polygon style="fill:#134380;" points="120.8218,65.011017 120.8218,53.894798 118.754417,53.894798 118.754417,52.594719 
		124.589272,52.594719 124.589272,53.894798 122.471848,53.894798 122.471848,65.011017 	"/>
	<path style="fill:#134380;" d="M125.137413,52.594353h1.734558l1.582863,7.683247l1.750137-7.683247h1.482819l-2.348419,9.716137
		c-0.101715,0.422443-0.212051,0.813843-0.334503,1.17421c-0.122391,0.362091-0.281036,0.6759-0.474152,0.943172
		c-0.196594,0.267258-0.437958,0.477615-0.725899,0.63279c-0.289673,0.15519-0.644905,0.23278-1.067337,0.23278
		c-0.232742,0-0.441376-0.018967-0.625916-0.056908c-0.182747-0.03965-0.363815-0.113792-0.539665-0.225868
		c0.108604-0.222427,0.22068-0.441406,0.332764-0.658676c0.110344-0.217247,0.220741-0.43623,0.332771-0.658653
		c0.156906,0.124146,0.322449,0.184498,0.500046,0.184498c0.167274,0,0.341393-0.084492,0.5242-0.251743
		c0.184479-0.165531,0.358597-0.45348,0.525879-0.86557L125.137413,52.594353z"/>
	<path style="fill:#134380;" d="M135.338242,58.610615c0.398285,0,0.722473-0.055172,0.967316-0.167252
		c0.243103-0.110344,0.432739-0.274151,0.565552-0.491402c0.132767-0.217255,0.220688-0.482788,0.258636-0.80006
		c0.039612-0.315536,0.05687-0.674179,0.05687-1.075932c0-0.343105-0.017258-0.65004-0.05687-0.915558
		c-0.037949-0.265545-0.118973-0.491417-0.243164-0.674191c-0.120651-0.184486-0.301727-0.320694-0.541397-0.408646
		c-0.237961-0.089664-0.563828-0.134499-0.974213-0.134499h-0.917267v4.667538H135.338242z M132.820862,65.011017V52.594719
		h2.150101c0.787979,0,1.432831,0.072433,1.932877,0.21553c0.500046,0.144836,0.893173,0.358658,1.175949,0.641438
		c0.282776,0.284489,0.477631,0.636227,0.582764,1.058685c0.105194,0.422432,0.158646,0.906956,0.158646,1.450096
		c0,0.610367-0.053452,1.162125-0.158646,1.650082c-0.105133,0.487968-0.29483,0.903507-0.565506,1.241459
		c-0.2742,0.339676-0.648331,0.600037-1.125961,0.784534c-0.477631,0.182777-1.089691,0.274162-1.832855,0.274162h-0.684525
		v5.100311H132.820862z"/>
	<path style="fill:#134380;" d="M142.804428,55.27594l-1.048355,5.434814h2.048386L142.804428,55.27594z M144.454529,65.011017
		l-0.500046-2.982941H141.6371l-0.515564,2.982941h-1.567337l2.467392-12.416298h1.750092l2.500183,12.416298H144.454529z"/>
</g>
</svg>
