<?xml version="1.0" encoding="utf-8"?>
<!-- Generator: Adobe Illustrator 19.1.0, SVG Export Plug-In . SVG Version: 6.00 Build 0)  -->
<svg version="1.0" id="Слой_1" xmlns="http://www.w3.org/2000/svg" xmlns:xlink="http://www.w3.org/1999/xlink" x="0px" y="0px"
	 viewBox="0 0 152.150497 43.909313" style="enable-background:new 0 0 152.150497 43.909313;" xml:space="preserve">
<g>
	<path style="fill:#E52329;" d="M14.206096,14.797122C9.383328,19.652618,4.508889,24.570179,0,29.127348v14.781965h14.206096
		l14.206042-14.206068H14.206096V14.797122z"/>
	<path style="fill:#4A6193;" d="M42.618233,29.703587v-5.165821V6.457297V0H28.950125
		c-4.345137,4.341637-9.212683,9.229889-14.156108,14.206069h13.618121v5.165849v18.080441v6.457325h14.206095l14.206043-14.206097
		H42.618233z"/>
	<polygon style="fill:#4A6193;" points="65.588326,29.808933 65.588326,43.840855 61.851841,43.840855 61.851841,41.944199 
		55.135918,41.944199 58.918915,38.51123 61.851841,38.51123 61.851841,34.795479 51.461525,44.158127 51.461525,39.211258 
		61.851841,29.808933 	"/>
	<path style="fill:#4A6193;" d="M76.890747,39.157112c-1.038025,0.87249-2.207085,1.308708-3.508842,1.308708h-0.794876v-3.376064
		h0.794876c0.531036,0,0.98967-0.179329,1.374214-0.539696c0.38623-0.360367,0.579346-0.831078,0.579346-1.413868
		c0-0.567295-0.194847-1.034557-0.587975-1.401821c-0.391388-0.36726-0.846596-0.550034-1.365585-0.550034h-1.669106v10.655834
		h-3.734695V33.184338l3.734695-3.376089h1.688042c1.301819,0,2.472557,0.443138,3.50885,1.327677
		c1.20005,1.024193,1.801865,2.358765,1.801865,4.000267C78.711555,36.79319,78.104584,38.132919,76.890747,39.157112"/>
	<polygon style="fill:#4A6193;" points="90.562492,29.443382 90.562492,34.429928 96.269745,29.443382 96.269745,43.840855 
		92.34536,43.840855 92.34536,38.511204 86.029396,44.139156 86.029396,38.511204 79.810043,44.139156 79.810043,39.176765 	"/>
	<polygon style="fill:#4A6193;" points="111.685043,29.808933 111.685043,43.840855 107.948563,43.840855 107.948563,41.944199 
		101.232635,41.944199 105.01564,38.51123 107.948563,38.51123 107.948563,34.795479 97.55825,44.158127 97.55825,39.211258 
		107.948563,29.808933 	"/>
	<polygon style="fill:#4A6193;" points="117.810257,33.183968 117.810257,43.841568 114.073776,43.841568 114.073776,33.183968 
		117.810257,29.809643 125.831413,29.809643 122.11393,33.183968 	"/>
	<polygon style="fill:#4A6193;" points="124.882942,39.26643 128.807281,35.662758 124.939827,31.852188 127.574448,29.481348 
		131.595398,33.183285 135.349091,29.808958 140.923584,29.808958 124.882942,44.158127 	"/>
	<path style="fill:#4A6193;" d="M148.415802,43.840672h-1.043182c-2.238083,0-4.11235-0.674164-5.622803-2.019077
		c-1.510406-1.346645-2.265656-3.012276-2.265656-4.996857c0-1.972561,0.758667-3.634716,2.274277-4.988256
		c1.519089-1.351805,3.388153-2.027706,5.614182-2.027706h4.777878l-3.734695,3.374327h-0.777664
		c-1.251785,0-2.301865,0.348316-3.148453,1.043186c-0.846603,0.696583-1.269043,1.562153-1.269043,2.59845
		c0,1.024193,0.425858,1.886314,1.279343,2.588081c0.851822,0.701763,1.898422,1.053528,3.138153,1.053528h0.777664V43.840672z"/>
</g>
</svg>
