<?xml version="1.0" encoding="utf-8"?>
<!-- Generator: Adobe Illustrator 16.0.1, SVG Export Plug-In . SVG Version: 6.00 Build 0)  -->
<!DOCTYPE svg PUBLIC "-//W3C//DTD SVG 1.1//EN" "http://www.w3.org/Graphics/SVG/1.1/DTD/svg11.dtd">
<svg version="1.1" id="Слой_1" xmlns="http://www.w3.org/2000/svg" xmlns:xlink="http://www.w3.org/1999/xlink" x="0px" y="0px"
	 width="244.333px" height="245px" viewBox="185.167 275.5 244.333 245" enable-background="new 185.167 275.5 244.333 245"
	 xml:space="preserve">
<path fill-rule="evenodd" clip-rule="evenodd" fill="#017DC1" d="M429.439,399.45c-1.352,67.662-54.076,121.725-122.127,121.687
	c-71.15-0.039-122.362-58.284-121.885-123.214c0.491-66.713,55.372-120.743,123.666-120.332
	C372.325,277.972,428.19,329.012,429.439,399.45z"/>
<path fill-rule="evenodd" clip-rule="evenodd" fill="#FEFEFE" d="M307.067,284.648c62.948,0.036,114.316,51.6,114.28,114.717
	c-0.036,63.152-51.438,114.328-114.645,114.141c-63.076-0.188-114.273-51.477-114.05-114.255
	C192.879,335.916,244.098,284.613,307.067,284.648z"/>
<path fill-rule="evenodd" clip-rule="evenodd" fill="#017DC1" d="M228.397,399.237c0.028-43.772,35.387-78.921,79.312-78.84
	c43.09,0.079,78.529,35.552,78.593,78.667c0.063,43.512-35.768,79.369-79.17,79.229C263.719,478.152,228.37,442.658,228.397,399.237
	z"/>
<path fill-rule="evenodd" clip-rule="evenodd" fill="#0981C3" d="M262.927,483.886c6.379-4.918,6.379-4.918,9.56-2.634
	c-3.697,3.17-7.338,6.308-10.999,9.42c-1.744,1.483-3.656,2.344-5.94,1.222c-1.163-0.57-2.654-0.967-2.2-2.774
	c0.379-1.511,1.352-1.505,2.688-1.083c1.903,0.602,2.264-0.733,2.273-2.225c0.018-2.827,0.083-5.656-0.036-8.479
	c-0.035-0.834,0.878-2.889-1.353-2.135c-2.255,0.763-3.858-4.229-6.312-0.477c-1.451,2.22-3.218,4.233-4.858,6.328
	c-0.992,1.266-1.734,3.036-3.852,1.242c-1.834-1.555-0.516-2.541,0.374-3.688c1.222-1.577,2.411-3.181,3.67-4.727
	c1.686-2.067,3.895-4.044,0.137-6.265c-0.821-0.485-0.789-1.413-0.199-2.175c0.724-0.935,1.55-1.085,2.55-0.32
	c4.48,3.423,9.171,6.604,13.401,10.313C264.177,477.486,261.921,480.824,262.927,483.886z"/>
<path fill-rule="evenodd" clip-rule="evenodd" fill="#0780C3" d="M220.275,441.423c-3.116,0.163-4.486,1.495-5.979,2.423
	c-1.556,0.966-2.598,1.189-3.657-0.59c-1.036-1.74,0.06-2.299,1.299-3c3.468-1.964,6.917-3.964,10.344-5.997
	c1.381-0.819,2.64-1.594,3.658,0.449c0.774,1.556,2.363,2.88,0.465,4.819c-2.048,2.094-3.853,4.423-6.532,7.546
	c3.742-0.646,6.478-0.923,9.1-1.625c2.876-0.771,3.906,1.006,4.902,2.995c1.24,2.474-1.13,2.712-2.351,3.476
	c-2.813,1.761-5.706,3.406-8.629,4.979c-1.396,0.751-2.914,2.828-4.4-0.024c-1.503-2.889,1.343-2.821,2.56-3.726
	c1.418-1.055,3.056-1.813,4.366-3.57c-2.452,0.453-4.91,0.873-7.352,1.374c-1.354,0.278-2.639,0.567-3.455-0.979
	c-0.724-1.372,0.304-2.173,1.012-3.041C216.973,445.278,218.373,443.669,220.275,441.423z"/>
<path fill-rule="evenodd" clip-rule="evenodd" fill="#0A82C4" d="M412.192,420.313c-0.675,0-1.13,0.143-1.32-0.021
	c-4.462-3.843-9.717-5.623-15.489-6.318c-1.064-0.129-0.782-1.652-0.684-2.631c0.2-1.982,0.629-3.969,0.585-5.946
	c-0.077-3.447,1.284-3.955,4.569-3.557c3.655,0.444,7.599,2.306,11.242-1.036c0.833-0.765,3.46,0.365,5.241,0.726
	c0.744,0.15,0.906,0.843,0.868,1.562c-0.06,1.113-0.539,2.181-1.688,2.007c-2.888-0.436-3.251,1.56-2.848,3.301
	c0.623,2.692-3.232,6.231,1.415,8.088c1.473,0.588,1.605,1.581,1.195,2.761C414.661,421.029,413.056,420.156,412.192,420.313z"/>
<path fill-rule="evenodd" clip-rule="evenodd" fill="#0780C3" d="M330.618,315.702c-2.745-0.638-5.483-1.303-8.235-1.903
	c-1.695-0.37-2.05-1.304-1.614-2.907c0.696-2.562,1.04-5.232,1.9-7.73c0.765-2.22-0.14-6.196,2.59-6.316
	c3.438-0.15,7.277,0.686,10.375,2.874c1.152,0.814,2.161,2.673,1.36,3.411c-3.654,3.368,1.729,9.206-3.463,11.891
	C332.691,315.456,331.637,315.477,330.618,315.702z"/>
<path fill-rule="evenodd" clip-rule="evenodd" fill="#057FC3" d="M389.232,438.989c2.008,4.104,7.161,2.911,10.227,5.689
	c2.123,1.924,0.9,4.283-0.173,6.415c-4.015,7.98-4.01,7.982-11.464,3.544c-0.714-0.425-1.498-0.761-2.138-1.277
	c-1.751-1.414-5.577-1.92-5.075-4.07c0.831-3.564,2.961-6.995,6.058-9.438C387.15,439.472,387.896,439.423,389.232,438.989z"/>
<path fill-rule="evenodd" clip-rule="evenodd" fill="#0881C3" d="M384.581,341.889c-2.953,0.377-5.926,0.646-8.854,1.167
	c-2.047,0.364-3.289-0.665-4.033-2.177c-0.814-1.654,0.925-2.241,1.874-3.027c2.941-2.439,5.951-4.796,8.9-7.227
	c1.127-0.929,2.067-1.598,3.306-0.056c1.106,1.378,0.865,2.285-0.449,3.286c-1.663,1.266-3.233,2.656-4.551,4.9
	c2.515-0.289,5.043-0.487,7.538-0.896c1.993-0.328,3.703-0.059,4.764,1.761c1.363,2.34-1.129,2.771-2.167,3.701
	c-2.719,2.437-5.657,4.626-8.476,6.954c-1.132,0.933-2.04,1.552-3.274-0.011c-1.135-1.437-0.781-2.292,0.493-3.267
	c1.808-1.383,3.544-2.861,5.311-4.298C384.836,342.429,384.709,342.159,384.581,341.889z"/>
<path fill-rule="evenodd" clip-rule="evenodd" fill="#0981C3" d="M342.738,488.947c-0.457,2.778-1.035,5.543-1.328,8.337
	c-0.215,2.044-1.421,2.971-3.146,3.315c-1.862,0.371-2.033-1.347-2.512-2.491c-1.477-3.522-2.838-7.094-4.322-10.612
	c-0.556-1.317-1.08-2.339,0.762-3.177c2.007-0.913,2.679,0.14,3.294,1.681c0.792,1.984,1.629,3.95,2.963,7.174
	c0.749-4.098,1.393-6.935,1.749-9.809c0.242-1.954,1.248-3.092,3.001-3.479c2.229-0.492,2.191,1.605,2.727,2.828
	c1.464,3.346,2.728,6.777,4.174,10.132c0.699,1.621,0.79,2.863-1.157,3.553c-1.783,0.63-2.3-0.482-2.81-1.861
	c-0.722-1.952-1.6-3.847-2.411-5.764C343.394,488.832,343.065,488.891,342.738,488.947z"/>
<path fill-rule="evenodd" clip-rule="evenodd" fill="#0780C3" d="M306.654,294.566c5.413-0.03,8.832,3.468,8.929,9.138
	c0.095,5.523-3.396,9.271-8.751,9.396c-5.129,0.121-8.887-3.737-8.997-9.235C297.727,298.436,301.369,294.595,306.654,294.566z"/>
<path fill-rule="evenodd" clip-rule="evenodd" fill="#0880C3" d="M392.851,358.08c2.914,0.376,5.825,0.79,8.744,1.118
	c1.773,0.2,2.697,1.293,3.002,2.866c0.355,1.836-1.295,2.055-2.442,2.6c-3.307,1.57-6.616,3.134-9.944,4.658
	c-1.314,0.602-2.615,1.572-3.699-0.579c-1.089-2.166,0.439-2.55,1.756-3.187c1.91-0.926,3.834-1.822,5.748-3.669
	c-2.717-0.257-5.43-0.605-8.153-0.74c-2.065-0.103-3.623-0.891-4.205-2.865c-0.743-2.52,1.694-2.463,2.983-3.127
	c3.254-1.675,6.614-3.141,9.92-4.719c1.314-0.628,2.313-0.977,3.188,0.817c0.87,1.786-0.016,2.388-1.312,3.017
	c-1.923,0.932-3.844,1.869-5.766,2.803C392.73,357.407,392.791,357.743,392.851,358.08z"/>
<path fill-rule="evenodd" clip-rule="evenodd" fill="#0780C3" d="M229.437,359.881c-0.538,3.277-2.4,6.266-3.873,9.407
	c-0.592,1.262-1.535,0.901-2.494,0.456c-1.654-0.768-3.328-1.491-4.986-2.249c-9.97-4.555-10.099-5.038-4.179-14.379
	c0.648-1.022,1.103-2.159,2.606-1.427c1.439,0.7,0.973,1.771,0.63,2.952c-0.646,2.225-3.801,5.269-1.691,6.379
	c2.886,1.519,2.625-3.122,4.278-4.668c1.915-1.792,3.834-2.575,6.282-1.666C228.26,355.522,229.446,357.188,229.437,359.881z"/>
<path fill-rule="evenodd" clip-rule="evenodd" fill="#0780C3" d="M240.855,341.094c0.114,4.443-4.357,9.253-8.674,9.335
	c-4.667,0.087-9.896-4.758-10.052-9.316c-0.149-4.353,4.432-9.343,8.641-9.412C235.286,331.627,240.744,336.71,240.855,341.094z"/>
<path fill-rule="evenodd" clip-rule="evenodd" fill="#0680C3" d="M267.831,302.878c4.618,0.074,8.804,5.048,8.75,10.399
	c-0.046,4.577-4.378,8.52-9.305,8.467c-4.652-0.05-8.783-4.942-8.73-10.337C258.59,306.925,263.079,302.801,267.831,302.878z"/>
<path fill-rule="evenodd" clip-rule="evenodd" fill="#0881C3" d="M398.506,421.142c5.434,0.085,9.952,3.902,9.963,8.416
	c0.013,5.327-3.889,9.416-8.888,9.314c-5.707-0.116-10.046-4.066-9.866-8.979C389.907,424.663,393.522,421.063,398.506,421.142z"/>
<path fill-rule="evenodd" clip-rule="evenodd" fill="#0981C3" d="M366.132,486.276c-1.759-0.03-3.985-0.591-4.047-2.157
	c-0.081-2.041,1.731-2.781,3.959-2.128c1.804,0.529,3.164-0.669,4.255-1.985c0.668-0.807,0.947-1.776,0.238-2.737
	c-0.748-1.014-1.646-0.778-2.623-0.309c-1.166,0.563-2.069,2.633-3.729,0.742c-1.451-1.654,0.37-2.261,1.056-3.204
	c0.638-0.879,1.057-1.757,0.078-2.604c-0.894-0.774-1.909-0.54-2.702,0.147c-0.727,0.631-1.712,1.409-1.817,2.22
	c-0.232,1.811,0.055,3.734-2.352,4.234c-0.791,0.164-1.139-0.531-1.424-1.12c-0.976-2.012-0.64-3.933,0.72-5.591
	c2.033-2.479,4.339-4.674,7.829-4.695c1.945-0.011,9.958,8.327,10.042,10.285C375.766,480.85,369.954,486.303,366.132,486.276z"/>
<path fill-rule="evenodd" clip-rule="evenodd" fill="#0C83C4" d="M299.611,500.838c0.716-2.335-0.257-3.361-2.803-3.821
	c-3.431-0.618-2.906,1.814-3.192,3.619c-0.264,1.663-0.168,3.473-2.698,3.14c-2.39-0.314-1.679-2.139-1.558-3.468
	c0.346-3.8,0.901-7.58,1.3-11.376c0.188-1.791,0.845-2.744,2.85-2.383c1.979,0.356,1.701,1.566,1.406,2.967
	c-0.439,2.086-0.628,3.803,2.503,4.071c2.781,0.239,3.525-0.868,3.579-3.255c0.037-1.678,0.527-2.963,2.668-2.563
	c1.842,0.344,1.8,1.624,1.638,3.014c-0.404,3.46-0.645,6.949-1.284,10.364c-0.282,1.503,0.543,4.185-2.432,4.024
	C298.623,505.013,299.736,502.655,299.611,500.838z"/>
<path fill-rule="evenodd" clip-rule="evenodd" fill="#0880C3" d="M248.147,313.275c0.559,0.434,1.157,0.74,1.538,1.22
	c2.792,3.507,5.513,7.069,8.314,10.568c0.952,1.189,0.661,2.009-0.351,2.959c-1.396,1.311-2.265,0.653-3.19-0.565
	c-1.807-2.378-3.671-4.715-5.521-7.062c-0.823-1.044-1.534-2.26-3.134-0.864c-1.253,1.093-2.153,1.989-0.747,3.66
	c1.277,1.517,2.414,3.176,3.44,4.877c1.379,2.286,1.739,4.695-0.069,6.958c-0.691,0.866-1.478,2.049-2.841,1.45
	c-1.545-0.68-1.379-1.727-0.747-3.239c1.542-3.688-1.524-5.956-3.481-8.068c-3.128-3.376-2.594-5.414,1.131-7.562
	C244.475,316.461,246.171,314.813,248.147,313.275z"/>
<path fill-rule="evenodd" clip-rule="evenodd" fill="#0B82C4" d="M350.657,304.707c3.541,0.524,6.956,1.929,8.091,6.318
	c0.281,1.086,0.484,2.653-0.676,3.175c-1.36,0.612-2.905-0.384-3.148-1.655c-0.481-2.506-1.588-4.171-4.188-3.925
	c-2.672,0.253-3.649,2.564-4.623,4.735c-0.755,1.682-0.769,3.348,0.422,4.692c1.316,1.485,3,2.03,4.894,0.748
	c1.522-1.032,3.214-0.644,3.84,0.801c0.796,1.839-1.184,2.549-2.428,3.094c-3.497,1.534-6.509,0.137-9.193-2.081
	c-3.032-2.504-3.097-5.756-1.762-9.083C343.378,307.811,345.553,304.741,350.657,304.707z"/>
<path fill-rule="evenodd" clip-rule="evenodd" fill="#0881C3" d="M218.035,433.361c-3.91,0.029-5.339-2.384-6.127-5.24
	c-0.651-2.359-1.241-4.158-4.289-2.726c-1.268,0.596-2.637,0.49-3.062-1.38c-0.389-1.711,0.378-2.389,1.962-2.741
	c2.433-0.542,4.802-1.369,7.239-1.885c2.363-0.499,5.587-2.862,6.897-1.109c2.073,2.773,2.924,6.732,2.63,10.396
	C223.041,431.737,220.585,433.039,218.035,433.361z"/>
<path fill-rule="evenodd" clip-rule="evenodd" fill="#0A82C4" d="M281.296,495.585c-0.637-0.168-1.778-0.395-2.865-0.775
	c-1.942-0.68-3.543-0.951-4.087,1.768c-0.306,1.524-0.991,2.81-3.099,2.134c-2.801-0.898-1.205-2.641-0.8-3.998
	c0.808-2.703,1.625-5.445,2.861-7.962c0.841-1.712-0.195-5.706,3.586-4.487c4.049,1.307,9.396,1.379,10.5,7.009
	C288.016,492.464,285.03,495.53,281.296,495.585z"/>
<path fill-rule="evenodd" clip-rule="evenodd" fill="#0A81C4" d="M324.462,500.457c-2.209,2.873-9.843,5.785-12.788,4.73
	c-2.483-0.889-1.904-3.499-1.91-5.126c-0.015-4.03-2.687-8.085-0.358-11.966c0.553-0.922,3.153-0.986,3.172,1.361
	c0.032,4.212,2.535,4.286,5.63,3.85c2.133-0.301,3.897,0.535,5.308,2.14C325.131,496.871,325.998,498.437,324.462,500.457z"/>
<path fill-rule="evenodd" clip-rule="evenodd" fill="#0881C3" d="M203.724,400.636c4.536,1.396,9.768,2.583,14.605,4.681
	c2.221,0.964,2.072,3.758-0.447,5.054c-4.132,2.127-8.402,3.993-12.649,5.889c-0.759,0.339-1.886,1.369-2.475-0.048
	c-0.418-1.007-0.74-2.467,0.274-3.281c4.164-3.345,3.538-6.076-0.715-8.754c-0.564-0.355-0.572-1.806-0.591-2.755
	C201.709,400.602,202.443,400.449,203.724,400.636z"/>
<path fill-rule="evenodd" clip-rule="evenodd" fill="#0881C3" d="M380.565,475.342c-2.743-4.989-5.191-9.474-7.671-13.939
	c-0.687-1.235-1.043-2.31,0.105-3.572c1.164-1.282,2.23-1.594,3.899-0.923c3.98,1.598,8.053,2.967,12.07,4.477
	c0.966,0.363,2.663,0.33,2.153,1.979c-0.372,1.201-1.308,2.311-2.927,2.178c-4.507-0.37-6.306,1.463-5.047,6.013
	C383.651,473.371,381.975,474.042,380.565,475.342z"/>
<path fill-rule="evenodd" clip-rule="evenodd" fill="#0880C3" d="M365.146,325.214c-1.927,0.535-2.278,1.99-3.159,2.919
	c-0.985,1.04-1.594,2.679-3.507,1.16c-1.728-1.371-0.995-2.418,0.053-3.71c2.407-2.968,4.699-6.032,7.09-9.015
	c0.858-1.071,1.428-2.749,3.475-1.302c2.321,1.639,0.678,2.721-0.244,3.988c-0.468,0.644-0.948,1.279-1.619,2.183
	c3.82,1.203,8.167-3.461,11.412,2.256c-9.268-0.476-11.764,4.382-9.446,12.593C365.225,334.633,365.225,334.633,365.146,325.214z"/>
<path fill-rule="evenodd" clip-rule="evenodd" fill="#0780C3" d="M239.293,456.237c1.924,1.173,4.129,2.01,2.293,5.142
	c-2.172,3.705-4.082,7.563-6.204,11.301c-0.477,0.838-0.582,2.674-2.22,1.863c-1.107-0.548-2.156-1.545-1.752-3.182
	c1.102-4.468-0.672-6.375-5.228-5.88c-1.576,0.171-2.579-1.013-2.88-2.24c-0.411-1.679,1.366-1.494,2.312-1.86
	C230.079,459.654,234.573,458.003,239.293,456.237z"/>
<path fill-rule="evenodd" clip-rule="evenodd" fill="#047FC2" d="M398.271,385.958c0.154-3.67,2.044-5.673,5.464-6.041
	c3.24-0.349,6.396,2.529,6.206,5.661c-0.212,3.491-2.349,5.55-5.743,5.62C400.813,391.268,398.704,389.333,398.271,385.958z"/>
<path fill-rule="evenodd" clip-rule="evenodd" fill="#1688C7" d="M287.275,312.525c0.478,1.416-0.101,2.552-1.968,2.912
	c-1.879,0.362-2.18-1.005-2.484-2.34c-0.551-2.421-1.079-4.849-1.652-7.266c-1.636-6.901,0.946-9.81,8.282-9.401
	c1.149,0.063,1.912,0.329,2.068,1.56c0.122,0.956-0.287,1.793-1.198,1.842c-8.022,0.433-4.414,5.554-3.832,9.432
	C286.639,310.243,286.95,311.197,287.275,312.525z"/>
<path fill-rule="evenodd" clip-rule="evenodd" fill="#0680C3" d="M217.559,385.521c-0.284,3.699-2.504,5.656-5.831,5.677
	c-3.407,0.021-5.746-2.143-5.717-5.652c0.028-3.483,2.291-5.638,5.771-5.573C215.166,380.037,217.29,382.004,217.559,385.521z"/>
<path fill-rule="evenodd" clip-rule="evenodd" fill="#1989C7" d="M324.559,492.345c0.807-2.13-2.587-6.053,1.888-6.358
	c3.777-0.258,1.948,3.812,2.65,5.843c0.794,2.295,0.395,4.976,0.974,7.378c0.773,3.207-0.464,4.318-3.459,4.202
	C324.763,499.937,324.959,496.086,324.559,492.345z"/>
<path fill-rule="evenodd" clip-rule="evenodd" fill="#3E9CD0" d="M340.526,478.786c-1.25,2.225-3.325,3.627-6.257,3.353
	c-1.06-0.099-2.591-0.241-2.361-1.847c0.185-1.29,1.519-1.111,2.399-0.884c2.001,0.516,3.006-0.583,4.037-1.984
	c0.309-0.418,1.193-0.734,1.693-0.61C340.688,476.976,340.851,477.747,340.526,478.786z"/>
<path fill-rule="evenodd" clip-rule="evenodd" fill="#3A9ACF" d="M403.583,350.635c0.833,0.109,1.153,0.833,1.042,1.407
	c-0.424,2.187,0.085,3.793,2.193,4.854c0.726,0.364,1.124,1.206,0.468,2.064c-0.509,0.665-1.261,0.496-1.776,0.189
	c-2.621-1.557-4.041-3.796-3.457-6.946C402.194,351.439,402.475,350.572,403.583,350.635z"/>
<path fill-rule="evenodd" clip-rule="evenodd" fill="#CBE4F2" d="M324.559,492.345c0.684,3.688,1.368,7.376,2.052,11.064
	c-1.599-0.341-0.876-2.373-2.148-2.952c-0.315-1.67-0.632-3.341-0.947-5.011C324.699,494.694,324.259,493.395,324.559,492.345z"/>
<path fill-rule="evenodd" clip-rule="evenodd" fill="#FEFEFE" d="M235.12,399.355c-0.074-39.829,32.06-72.044,72.065-72.247
	c39.713-0.202,72.229,32.228,72.256,72.062c0.026,39.896-32.241,72.255-72.065,72.269
	C267.493,471.452,235.194,439.229,235.12,399.355z"/>
<path fill-rule="evenodd" clip-rule="evenodd" fill="#F3F8FB" d="M408.364,412.785c-2.908-0.751-5.441-1.552-8.035-2.018
	c-1.462-0.263-2-0.807-1.909-2.24c0.089-1.396,0.688-2.221,2.127-2.15c2.156,0.105,4.404-0.039,6.441,0.534
	C411.148,408.083,407.787,410.842,408.364,412.785z"/>
<path fill-rule="evenodd" clip-rule="evenodd" fill="#E1EFF7" d="M331.62,310.132c-0.376,1.925-1.87,1.619-3.122,1.457
	c-1.38-0.177-3.272,0.001-3.014-2.301c0.152-1.348,1.021-2.128,2.426-1.731C329.407,307.981,331.361,307.877,331.62,310.132z"/>
<path fill-rule="evenodd" clip-rule="evenodd" fill="#C5E1F0" d="M332.571,303.362c-0.404,1.532-1.476,1.782-2.713,1.404
	c-1.158-0.354-2.972-0.106-2.85-2.043c0.076-1.22,0.771-2.314,2.33-1.778C330.657,301.398,332.461,301.323,332.571,303.362z"/>
<path fill-rule="evenodd" clip-rule="evenodd" fill="#D2E8F4" d="M393.485,453.042c-1.206-0.432-2.697-0.909-2.417-2.149
	c0.387-1.712,1.358-3.51,3.217-4.063c1.315-0.391,2.308,0.668,2.048,2.001C395.994,450.572,395.191,452.195,393.485,453.042z"/>
<path fill-rule="evenodd" clip-rule="evenodd" fill="#D5E9F4" d="M390.01,445.924c-0.843,1.198-0.876,3.363-3.059,3.188
	c-0.922-0.073-1.922-0.979-1.409-2.145c0.576-1.31,1.164-2.896,2.842-3.113C389.636,443.692,389.967,444.751,390.01,445.924z"/>
<path fill-rule="evenodd" clip-rule="evenodd" fill="#F4F9FC" d="M310.902,303.99c-0.119,2.514-0.463,5.268-4.087,5.335
	c-3.621,0.066-4.156-2.595-4.219-5.438c-0.063-2.873,0.484-5.528,4.038-5.605C310.203,298.205,310.815,300.845,310.902,303.99z"/>
<path fill-rule="evenodd" clip-rule="evenodd" fill="#DCEDF6" d="M225.461,361.084c-0.875,1.189-0.389,3.729-2.873,3.758
	c-0.995,0.013-2.558-0.586-2.1-2.154c0.49-1.678,0.925-3.742,3.255-3.823C224.834,358.827,225.507,359.664,225.461,361.084z"/>
<path fill-rule="evenodd" clip-rule="evenodd" fill="#F5FAFC" d="M236.875,342.403c-0.513,2.134-1.709,3.787-4.263,3.817
	c-2.654,0.031-6.974-4.109-6.559-6.407c0.426-2.357,1.992-3.748,4.528-3.634C233.295,336.3,236.959,339.871,236.875,342.403z"/>
<path fill-rule="evenodd" clip-rule="evenodd" fill="#F2F8FB" d="M272.336,313.329c-0.023,2.879-1.533,4.188-3.955,4.444
	c-2.654,0.279-5.83-3.68-5.657-6.955c0.139-2.628,1.938-4.126,4.201-3.964C270.796,307.13,271.566,310.48,272.336,313.329z"/>
<path fill-rule="evenodd" clip-rule="evenodd" fill="#F4F9FC" d="M399.404,434.33c-2.295-0.369-5.701-0.861-5.877-4.964
	c-0.102-2.379,1.604-4.054,4.225-3.825c3.226,0.282,6.527,0.954,6.734,5.059C404.615,433.137,402.961,434.504,399.404,434.33z"/>
<path fill-rule="evenodd" clip-rule="evenodd" fill="#DDEDF6" d="M219.534,425.793c0.155,1.573-0.276,2.774-1.912,2.887
	c-2.235,0.155-2.481-1.758-2.888-3.265c-0.574-2.124,1.169-2.56,2.549-2.649C219.357,422.631,219.15,424.569,219.534,425.793z"/>
<path fill-rule="evenodd" clip-rule="evenodd" fill="#E6F2F8" d="M280.064,491.6c-1.266-0.455-3.286-0.145-3.255-2.187
	c0.017-1.144,0.373-2.965,2.16-2.732c1.573,0.205,3.474,0.654,3.705,2.693C282.865,491.051,281.65,491.641,280.064,491.6z"/>
<path fill-rule="evenodd" clip-rule="evenodd" fill="#F7FBFC" d="M316.543,501.097c-1.736,0.276-2.661-0.436-2.717-2.037
	c-0.073-2.136,1.701-2.099,3.071-2.272c1.445-0.182,2.717,0.471,2.717,2.054C319.615,500.839,317.765,500.734,316.543,501.097z"/>
<path fill-rule="evenodd" clip-rule="evenodd" fill="#C4E1F0" d="M213.827,407.8c-1.801,1.329-3.089,2.807-4.975,1.79
	c-0.804-0.434-0.87-2.058-0.152-2.606C210.401,405.683,211.886,406.903,213.827,407.8z"/>
<path fill-rule="evenodd" clip-rule="evenodd" fill="#CBE4F2" d="M377.739,461.825c1.857,0.367,4.112-0.186,4.473,2.166
	c0.082,0.531-0.934,1.753-1.465,1.766C378.242,465.815,378.765,463.182,377.739,461.825z"/>
<path fill-rule="evenodd" clip-rule="evenodd" fill="#BEDDEF" d="M236.972,461.37c-0.887,1.73-0.586,4.351-3.359,4.362
	c-0.513,0.002-1.55-1.219-1.459-1.714C232.644,461.328,235.159,462.011,236.972,461.37z"/>
<path fill-rule="evenodd" clip-rule="evenodd" fill="#007DC1" d="M363.64,419.759c-0.22,21.587-17.904,38.96-39.443,38.75
	c-21.107-0.205-38.509-18.025-38.403-39.326c0.109-21.813,17.857-39.198,39.729-38.917
	C346.671,380.537,363.857,398.345,363.64,419.759z"/>
<path fill-rule="evenodd" clip-rule="evenodd" fill="#007DC1" d="M254.34,430.369c0-8.884,0.006-17.013-0.001-25.141
	c-0.012-13.15-0.058-26.302-0.041-39.453c0.014-11.57,5.115-16.609,16.712-16.609c21.308-0.001,42.617-0.016,63.926,0.026
	c1.748,0.004,3.596-0.511,5.644,0.699c-5.06,7.105-5.661,14.383-0.372,21.559c-1.134,1.6-2.573,0.809-3.752,0.814
	c-17.979,0.093-35.958,0.219-53.935,0.076c-3.773-0.03-5.121,0.761-5.053,4.871c0.262,15.811,0.107,31.629,0.107,47.443
	c0,1.612,0,3.223,0,5.693C269.604,423.505,262.104,424.887,254.34,430.369z"/>
<path fill-rule="evenodd" clip-rule="evenodd" fill="#017DC2" d="M362.317,361.426c-0.093,6.283-5.198,11.268-11.534,11.262
	c-6.653-0.006-11.468-5.085-11.267-11.888c0.188-6.386,5.354-11.327,11.648-11.141C357.317,349.84,362.408,355.212,362.317,361.426z
	"/>
<path fill-rule="evenodd" clip-rule="evenodd" fill="#017DC1" d="M266.661,430.104c6.468-0.022,11.5,4.852,11.575,11.215
	c0.071,6.031-5.27,11.616-11.298,11.814c-6.162,0.203-11.728-5.391-11.728-11.786C255.211,434.95,260.124,430.127,266.661,430.104z"
	/>
</svg>
