<?xml version="1.0" encoding="utf-8"?>
<!-- Generator: Adobe Illustrator 19.1.0, SVG Export Plug-In . SVG Version: 6.00 Build 0)  -->
<svg version="1.0" id="Слой_1" xmlns="http://www.w3.org/2000/svg" xmlns:xlink="http://www.w3.org/1999/xlink" x="0px" y="0px"
	 viewBox="0 0 203 78.005974" style="enable-background:new 0 0 203 78.005974;" xml:space="preserve">
<g>
	<path style="fill:#223468;" d="M125.956055,33.608707v6.900951c0,2.694889-0.442841,4.902168-1.328522,6.62183
		c-0.887383,1.719612-2.050468,3.067085-3.489227,4.04063c-1.440491,0.973545-3.080887,1.647255-4.917679,2.021179
		c-1.84024,0.372139-3.689102,0.558235-5.550034,0.558235c-2.791412,0-5.129623-0.341167-7.011223-1.025234
		c-1.883331-0.684017-3.389313-1.667919-4.519638-2.953342c-1.130356-1.283688-1.938469-2.817257-2.426109-4.600597
		c-0.48764-1.781715-0.730583-3.792538-0.730583-6.030785V19.184843c0-0.787449,0.043068-1.67828,0.132675-2.672543
		c0.087868-0.995946,0.310165-1.990157,0.665108-2.984367c0.353241-0.995946,0.840874-1.969492,1.461189-2.922318
		c0.620285-0.95288,1.485291-1.79202,2.593216-2.51742c1.106216-0.725452,2.458839-1.316447,4.052696-1.773088
		c1.595566-0.454854,3.523697-0.684069,5.782669-0.684069c2.348541,0,4.462776,0.249881,6.346107,0.746119
		c1.883331,0.497973,3.489227,1.295782,4.81945,2.393373c1.328491,1.099327,2.34684,2.508796,3.056747,4.228406
		c0.708183,1.719664,1.063156,3.782176,1.063156,6.185908v4.850426H113.2621v-7.026678c0-0.37219-0.0224-0.765049-0.065491-1.180359
		c-0.0448-0.415258-0.156784-0.787396-0.332542-1.119992c-0.177475-0.330808-0.410103-0.609978-0.697845-0.83914
		c-0.289474-0.227427-0.677185-0.341166-1.163086-0.341166c-0.975258,0-1.605896,0.384233-1.895378,1.149282
		c-0.287766,0.768519-0.430763,1.52321-0.430763,2.269326v25.117352c0,0.372192,0.02066,0.777088,0.065468,1.213066
		c0.0448,0.434189,0.155067,0.828781,0.332542,1.180305c0.177498,0.35321,0.420433,0.642685,0.732315,0.870167
		c0.308426,0.22916,0.708176,0.34285,1.195816,0.34285c0.885674,0,1.483589-0.4049,1.793724-1.213017
		c0.310173-0.808113,0.46524-1.605923,0.46524-2.393372v-8.455185H125.956055z"/>
	<path style="fill:none;stroke:#FFFFFF;stroke-width:2.126;stroke-miterlimit:10;" d="M125.956055,33.608707v6.900951
		c0,2.694889-0.442841,4.902168-1.328522,6.62183c-0.887383,1.719612-2.050468,3.067085-3.489227,4.04063
		c-1.440491,0.973545-3.080887,1.647255-4.917679,2.021179c-1.84024,0.372139-3.689102,0.558235-5.550034,0.558235
		c-2.791412,0-5.129623-0.341167-7.011223-1.025234c-1.883331-0.684017-3.389313-1.667919-4.519638-2.953342
		c-1.130356-1.283688-1.938469-2.817257-2.426109-4.600597c-0.48764-1.781715-0.730583-3.792538-0.730583-6.030785V19.184843
		c0-0.787449,0.043068-1.67828,0.132675-2.672543c0.087868-0.995946,0.310165-1.990157,0.665108-2.984367
		c0.353241-0.995946,0.840874-1.969492,1.461189-2.922318c0.620285-0.95288,1.485291-1.79202,2.593216-2.51742
		c1.106216-0.725452,2.458839-1.316447,4.052696-1.773088c1.595566-0.454854,3.523697-0.684069,5.782669-0.684069
		c2.348541,0,4.462776,0.249881,6.346107,0.746119c1.883331,0.497973,3.489227,1.295782,4.81945,2.393373
		c1.328491,1.099327,2.34684,2.508796,3.056747,4.228406c0.708183,1.719664,1.063156,3.782176,1.063156,6.185908v4.850426H113.2621
		v-7.026678c0-0.37219-0.0224-0.765049-0.065491-1.180359c-0.0448-0.415258-0.156784-0.787396-0.332542-1.119992
		c-0.177475-0.330808-0.410103-0.609978-0.697845-0.83914c-0.289474-0.227427-0.677185-0.341166-1.163086-0.341166
		c-0.975258,0-1.605896,0.384233-1.895378,1.149282c-0.287766,0.768519-0.430763,1.52321-0.430763,2.269326v25.117352
		c0,0.372192,0.02066,0.777088,0.065468,1.213066c0.0448,0.434189,0.155067,0.828781,0.332542,1.180305
		c0.177498,0.35321,0.420433,0.642685,0.732315,0.870167c0.308426,0.22916,0.708176,0.34285,1.195816,0.34285
		c0.885674,0,1.483589-0.4049,1.793724-1.213017c0.310173-0.808113,0.46524-1.605923,0.46524-2.393372v-8.455185H125.956055z"/>
	<polygon style="fill:#223468;" points="151.700439,14.979785 151.700439,53.032341 139.092651,53.032341 139.092651,14.979785 
		131.635147,14.979785 131.635147,6.350601 159.159653,6.350601 159.159653,14.979785 	"/>
	<polygon style="fill:none;stroke:#FFFFFF;stroke-width:2.126;stroke-miterlimit:10;" points="151.700439,14.979785 
		151.700439,53.032341 139.092651,53.032341 139.092651,14.979785 131.635147,14.979785 131.635147,6.350601 159.159653,6.350601 
		159.159653,14.979785 	"/>
	<path style="fill:#223468;" d="M195.242355,33.608707v6.900951c0,2.694889-0.442871,4.902168-1.328552,6.62183
		c-0.88736,1.719612-2.050446,3.067085-3.489197,4.04063c-1.440491,0.973545-3.080887,1.647255-4.917679,2.021179
		c-1.84024,0.372139-3.689102,0.558235-5.550034,0.558235c-2.791412,0-5.129623-0.341167-7.01123-1.025234
		c-1.883331-0.684017-3.389313-1.667919-4.519638-2.953342c-1.130356-1.283688-1.938461-2.817257-2.426102-4.600597
		c-0.48764-1.781715-0.730591-3.792538-0.730591-6.030785V19.184843c0-0.787449,0.043076-1.67828,0.132675-2.672543
		c0.0896-0.995946,0.310165-1.990157,0.665115-2.984367c0.353241-0.995946,0.840881-1.969492,1.461182-2.922318
		c0.620285-0.95288,1.485291-1.79202,2.593216-2.51742c1.106216-0.725452,2.458847-1.316447,4.052704-1.773088
		c1.595566-0.454854,3.523697-0.684069,5.782669-0.684069c2.348541,0,4.462769,0.249881,6.3461,0.746119
		c1.883331,0.497973,3.489227,1.295782,4.819458,2.393373c1.328461,1.099327,2.346802,2.508796,3.056747,4.228406
		c0.708145,1.719664,1.063156,3.782176,1.063156,6.185908v4.850426h-12.693954v-7.026678
		c0-0.37219-0.0224-0.765049-0.065491-1.180359c-0.0448-0.415258-0.156784-0.787396-0.33255-1.119992
		c-0.177475-0.330808-0.410095-0.609978-0.697845-0.83914c-0.289474-0.227427-0.67717-0.341166-1.163086-0.341166
		c-0.97525,0-1.605896,0.384233-1.89537,1.149282c-0.287766,0.768519-0.430771,1.52321-0.430771,2.269326v25.117352
		c0,0.372192,0.02066,0.777088,0.065475,1.213066c0.0448,0.434189,0.15506,0.828781,0.332535,1.180305
		c0.177505,0.35321,0.420441,0.642685,0.732315,0.870167c0.308441,0.22916,0.708176,0.34285,1.195816,0.34285
		c0.885681,0,1.483597-0.4049,1.793732-1.213017c0.310165-0.808113,0.46524-1.605923,0.46524-2.393372v-8.455185H195.242355z"/>
	<path style="fill:none;stroke:#FFFFFF;stroke-width:2.126;stroke-miterlimit:10;" d="M195.242355,33.608707v6.900951
		c0,2.694889-0.442871,4.902168-1.328552,6.62183c-0.88736,1.719612-2.050446,3.067085-3.489197,4.04063
		c-1.440491,0.973545-3.080887,1.647255-4.917679,2.021179c-1.84024,0.372139-3.689102,0.558235-5.550034,0.558235
		c-2.791412,0-5.129623-0.341167-7.01123-1.025234c-1.883331-0.684017-3.389313-1.667919-4.519638-2.953342
		c-1.130356-1.283688-1.938461-2.817257-2.426102-4.600597c-0.48764-1.781715-0.730591-3.792538-0.730591-6.030785V19.184843
		c0-0.787449,0.043076-1.67828,0.132675-2.672543c0.0896-0.995946,0.310165-1.990157,0.665115-2.984367
		c0.353241-0.995946,0.840881-1.969492,1.461182-2.922318c0.620285-0.95288,1.485291-1.79202,2.593216-2.51742
		c1.106216-0.725452,2.458847-1.316447,4.052704-1.773088c1.595566-0.454854,3.523697-0.684069,5.782669-0.684069
		c2.348541,0,4.462769,0.249881,6.3461,0.746119c1.883331,0.497973,3.489227,1.295782,4.819458,2.393373
		c1.328461,1.099327,2.346802,2.508796,3.056747,4.228406c0.708145,1.719664,1.063156,3.782176,1.063156,6.185908v4.850426
		h-12.693954v-7.026678c0-0.37219-0.0224-0.765049-0.065491-1.180359c-0.0448-0.415258-0.156784-0.787396-0.33255-1.119992
		c-0.177475-0.330808-0.410095-0.609978-0.697845-0.83914c-0.289474-0.227427-0.67717-0.341166-1.163086-0.341166
		c-0.97525,0-1.605896,0.384233-1.89537,1.149282c-0.287766,0.768519-0.430771,1.52321-0.430771,2.269326v25.117352
		c0,0.372192,0.02066,0.777088,0.065475,1.213066c0.0448,0.434189,0.15506,0.828781,0.332535,1.180305
		c0.177505,0.35321,0.420441,0.642685,0.732315,0.870167c0.308441,0.22916,0.708176,0.34285,1.195816,0.34285
		c0.885681,0,1.483597-0.4049,1.793732-1.213017c0.310165-0.808113,0.46524-1.605923,0.46524-2.393372v-8.455185H195.242355z"/>
	<path style="fill:#223468;" d="M91.603485,73.61866v1.169998c0,0.232635,0.046509,0.442818,0.141266,0.630646
		c0.093048,0.189568,0.275696,0.284325,0.54451,0.284325c0.280853,0,0.468681-0.094757,0.563438-0.284325
		c0.093048-0.187828,0.139587-0.39801,0.139587-0.630646v-2.779335h-3.060196v-2.613914h3.060196v-2.140076
		c0-0.110268-0.006912-0.222275-0.018959-0.337692c-0.013802-0.115479-0.041359-0.225746-0.081001-0.329132
		c-0.039627-0.10511-0.103386-0.186089-0.191254-0.248138c-0.087868-0.060265-0.205048-0.091293-0.351501-0.091293
		c-0.296387,0-0.494522,0.117165-0.59446,0.348061c-0.101677,0.230896-0.151627,0.456589-0.151627,0.675446v0.787445h-3.706352
		v-0.348053c0-0.634117,0.111977-1.187195,0.332542-1.664505c0.222275-0.475571,0.534149-0.870163,0.93737-1.187195
		c0.403191-0.317078,0.885651-0.551399,1.449089-0.704735c0.565178-0.151649,1.188927-0.229214,1.873001-0.229214
		c0.685776,0,1.269905,0.070675,1.752365,0.211971c0.4842,0.139557,0.88739,0.322235,1.209602,0.547928
		c0.322235,0.225739,0.573799,0.48246,0.754715,0.766785c0.180916,0.287735,0.318764,0.584106,0.413544,0.88736
		c0.093048,0.304985,0.153366,0.60656,0.180916,0.904655c0.025848,0.299782,0.039627,0.565178,0.039627,0.796021v5.74131
		c0,0.659988-0.077538,1.254448-0.230873,1.783394c-0.155098,0.530731-0.413551,0.98217-0.775406,1.354362
		c-0.363571,0.370453-0.835693,0.658195-1.4198,0.85807c-0.584137,0.201607-1.299202,0.301567-2.145256,0.301567
		c-0.565147,0-1.114815-0.048271-1.652435-0.14476c-0.535858-0.098175-1.013168-0.284271-1.430161-0.558235
		c-0.41526-0.274017-0.747803-0.658249-0.995918-1.152756c-0.249855-0.492821-0.372192-1.135506-0.372192-1.928154V73.61866
		H91.603485z"/>
	<polygon style="fill:#223468;" points="103.768616,77.879303 103.768616,71.93644 102.419434,71.93644 102.419434,77.879303 
		98.571793,77.879303 98.571793,64.129143 102.419434,64.129143 102.419434,69.358704 103.768616,69.358704 103.768616,64.129143 
		107.616234,64.129143 107.616234,77.879303 	"/>
	<polygon style="fill:#223468;" points="109.26696,77.879303 109.26696,64.129143 115.692314,64.129143 115.692314,66.6707 
		113.114578,66.6707 113.114578,69.358704 115.53035,69.358704 115.53035,71.93644 113.114578,71.93644 113.114578,75.30162 
		115.954231,75.30162 115.954231,77.879303 	"/>
	<path style="fill:#223468;" d="M120.989227,69.723953h0.217125c0.396301,0,0.677177-0.137825,0.842583-0.411789
		c0.165428-0.274017,0.248116-0.697899,0.248116-1.271645c0-0.608238-0.096489-1.020081-0.287735-1.233734
		c-0.191277-0.213646-0.47213-0.320496-0.84259-0.320496h-0.177498V69.723953z M125.801819,67.968117
		c0,0.756477-0.0896,1.395744-0.270546,1.921265c-0.180916,0.523796-0.451431,0.945938-0.811554,1.269913
		c-0.361862,0.322182-0.809853,0.558289-1.345741,0.704735c-0.534149,0.144714-1.149277,0.218803-1.843681,0.218803h-0.541069
		v5.796471h-3.847618V64.129089h4.290459c1.569748,0,2.691444,0.313614,3.363449,0.940842
		C125.465805,65.697105,125.801819,66.663757,125.801819,67.968117"/>
	<polygon style="fill:#223468;" points="130.776535,66.67012 130.776535,77.878777 126.928886,77.878777 126.928886,64.128616 
		133.435242,64.128616 133.435242,66.67012 	"/>
	<path style="fill:#223468;" d="M139.395569,67.272736c0-0.108528-0.00174-0.224007-0.008621-0.346313
		c-0.006897-0.122368-0.027588-0.232635-0.060318-0.329132c-0.03447-0.098221-0.091309-0.180885-0.172302-0.248093
		c-0.079269-0.065514-0.194717-0.09996-0.341187-0.09996c-0.148178,0-0.261902,0.031029-0.34288,0.091339
		c-0.080978,0.061996-0.141281,0.143028-0.180908,0.248093c-0.041367,0.103378-0.063766,0.211967-0.070648,0.327393
		c-0.006912,0.11721-0.010361,0.229164-0.010361,0.339485v7.386826c0,0.110268,0.003448,0.229164,0.010361,0.356682
		c0.006882,0.12925,0.029282,0.244675,0.070648,0.348053c0.039627,0.103378,0.103378,0.189568,0.191254,0.255035
		c0.086151,0.0672,0.205048,0.101646,0.351486,0.101646c0.134415,0,0.239532-0.034447,0.31189-0.101646
		c0.074081-0.065468,0.130951-0.151657,0.172318-0.255035c0.039612-0.103378,0.063751-0.218803,0.070648-0.348053
		c0.006882-0.127518,0.008621-0.246414,0.008621-0.356682V67.272736z M143.24321,74.18573
		c0,0.792656-0.134399,1.44223-0.403214,1.94709c-0.268814,0.506599-0.613419,0.902924-1.037308,1.188927
		c-0.42215,0.286064-0.895981,0.4842-1.4198,0.594467c-0.523819,0.108589-1.047638,0.163696-1.569748,0.163696
		c-0.846024,0-1.554199-0.099907-2.126266-0.301521c-0.570328-0.199867-1.026947-0.491081-1.368149-0.868423
		c-0.342865-0.37735-0.58754-0.828835-0.735733-1.352631c-0.148209-0.523842-0.220551-1.11657-0.220551-1.774765v-5.868828
		c0-0.230896,0.012054-0.494507,0.039612-0.787453c0.025848-0.291206,0.093048-0.584106,0.201614-0.877052
		c0.106827-0.292892,0.255005-0.578949,0.442841-0.859802c0.187805-0.279175,0.449722-0.527267,0.785706-0.740913
		c0.33429-0.211967,0.744385-0.385971,1.228561-0.520378c0.482452-0.134403,1.066589-0.201603,1.752365-0.201603
		c0.656509,0,1.261307,0.074093,1.810974,0.220539c0.551376,0.146446,1.018356,0.380814,1.400879,0.702995
		c0.382523,0.323975,0.680588,0.737495,0.895981,1.244095c0.215378,0.50486,0.322235,1.113098,0.322235,1.819572V74.18573z"/>
	<path style="fill:#223468;" d="M153.757095,72.155556v2.029808c0,0.792603-0.134415,1.44223-0.403214,1.94709
		c-0.268814,0.506592-0.620316,0.90287-1.057968,1.188927c-0.435959,0.287758-0.93219,0.4842-1.490479,0.594467
		c-0.556549,0.110268-1.116547,0.163696-1.681732,0.163696c-0.846024,0-1.554199-0.099968-2.124557-0.301575
		c-0.570328-0.199867-1.026947-0.489349-1.369843-0.868423c-0.341171-0.377335-0.587585-0.828781-0.734024-1.352577
		c-0.148193-0.523842-0.222275-1.114838-0.222275-1.773087v-5.870506c0-0.230904,0.013779-0.492821,0.041351-0.785767
		c0.025848-0.2929,0.093048-0.585846,0.201584-0.878738c0.106857-0.291214,0.253296-0.578957,0.442841-0.859802
		c0.187805-0.279175,0.449722-0.527267,0.785721-0.739235c0.334274-0.213646,0.74437-0.387703,1.228577-0.52211
		c0.482452-0.134403,1.066559-0.201553,1.750626-0.201553c0.711655,0,1.352631,0.074089,1.924698,0.220535
		c0.570328,0.146454,1.056229,0.380821,1.459442,0.704735c0.403198,0.322243,0.711624,0.737495,0.927017,1.242355
		c0.213669,0.506546,0.322235,1.113106,0.322235,1.81958v1.426712h-3.847641v-2.067719
		c0-0.108536-0.006927-0.224007-0.018967-0.346321c-0.013794-0.12236-0.048248-0.232628-0.101669-0.329124
		c-0.053421-0.098228-0.124039-0.180939-0.211945-0.246407c-0.086151-0.067207-0.203308-0.101646-0.351501-0.101646
		c-0.296356,0-0.48764,0.113686-0.573792,0.339432c-0.087875,0.225746-0.130936,0.448013-0.130936,0.666817v7.386887
		c0,0.110268,0.006882,0.229156,0.02066,0.356674c0.01207,0.129204,0.046539,0.244675,0.099945,0.348061
		c0.053421,0.103378,0.127518,0.189514,0.222275,0.254982c0.093048,0.0672,0.213669,0.101692,0.361847,0.101692
		c0.268799,0,0.449738-0.118889,0.542786-0.356674c0.094757-0.237785,0.141296-0.47216,0.141296-0.704735v-2.48645H153.757095z"/>
	<polygon style="fill:#223468;" points="155.227249,77.879303 155.227249,64.129143 161.652588,64.129143 161.652588,66.6707 
		159.07486,66.6707 159.07486,69.358704 161.490631,69.358704 161.490631,71.93644 159.07486,71.93644 159.07486,75.30162 
		161.91452,75.30162 161.91452,77.879303 	"/>
	<path style="fill:#223468;" d="M166.949677,69.723953h0.217117c0.396301,0,0.67717-0.137825,0.842575-0.411789
		c0.165436-0.274017,0.248123-0.697899,0.248123-1.271645c0-0.608238-0.096497-1.020081-0.287735-1.233734
		c-0.191284-0.213646-0.472137-0.320496-0.84259-0.320496h-0.17749V69.723953z M171.762268,67.968117
		c0,0.756477-0.089615,1.395744-0.270554,1.921265c-0.180908,0.523796-0.451431,0.945938-0.811554,1.269913
		c-0.361862,0.322182-0.80986,0.558289-1.345734,0.704735c-0.534164,0.144714-1.149292,0.218803-1.843689,0.218803h-0.541061
		v5.796471h-3.847626V64.129089h4.290451c1.569748,0,2.691452,0.313614,3.363449,0.940842
		C171.426254,65.697105,171.762268,66.663757,171.762268,67.968117"/>
	<path style="fill:#223468;" d="M178.005173,73.051964c0-0.463478-0.103409-0.787453-0.311874-0.970078
		c-0.208496-0.182678-0.527267-0.286057-0.956329-0.310143v3.675323c0.468689-0.024132,0.797791-0.130989,0.98732-0.318764
		c0.187836-0.189568,0.280884-0.541092,0.280884-1.052841V73.051964z M176.736969,69.44899
		c0.496246-0.012039,0.83226-0.130936,1.006287-0.356674c0.174026-0.225693,0.261917-0.599625,0.261917-1.123413
		c0-0.232635-0.008621-0.432503-0.029297-0.603088c-0.020691-0.172318-0.074112-0.317085-0.161972-0.439392
		c-0.087875-0.122368-0.213654-0.213654-0.382538-0.273964c-0.16713-0.06205-0.399734-0.091339-0.694397-0.091339V69.44899z
		 M181.852814,74.18573c-0.027573,1.169998-0.427322,2.078079-1.201004,2.724236
		c-0.773666,0.646156-1.888504,0.97007-3.341034,0.97007h-4.421448V64.128143h4.37146
		c0.737473,0,1.378464,0.055115,1.922958,0.165382c0.54451,0.108582,0.990768,0.298096,1.338852,0.56691
		c0.349777,0.267075,0.611679,0.623756,0.785706,1.068298c0.174026,0.446289,0.261917,1.00457,0.261917,1.674866
		c0,0.790863-0.17749,1.404312-0.534164,1.836769c-0.35495,0.432503-0.828781,0.728867-1.419815,0.887413v0.053421
		c0.487625,0.110275,0.87706,0.275703,1.168243,0.494507c0.292923,0.218857,0.518661,0.466949,0.682343,0.740913
		c0.161972,0.274017,0.270538,0.556549,0.323944,0.849495c0.05513,0.292946,0.082703,0.56691,0.082703,0.823631L181.852814,74.18573
		z"/>
	<polygon style="fill:#223468;" points="188.660004,71.662102 187.853607,73.984856 186.928299,76.579788 186.928299,77.878983 
		183.302933,77.878983 183.302933,64.12883 186.928299,64.12883 186.928299,71.003906 187.007553,71.003906 187.874268,68.260742 
		188.780609,65.481453 188.780609,64.12883 192.385284,64.12883 192.385284,77.878983 188.780609,77.878983 188.780609,71.662102 	
		"/>
	<path style="fill:#223468;" d="M203,72.155556v2.029808c0,0.792603-0.134399,1.44223-0.403214,1.94709
		c-0.268814,0.506592-0.620346,0.90287-1.057999,1.188927c-0.435928,0.287758-0.932159,0.4842-1.490448,0.594467
		c-0.556549,0.110268-1.116577,0.163696-1.681747,0.163696c-0.846024,0-1.554184-0.099968-2.124557-0.301575
		c-0.570343-0.199867-1.026932-0.489349-1.369827-0.868423c-0.341171-0.377335-0.58757-0.828781-0.734024-1.352577
		c-0.148178-0.523842-0.222275-1.114838-0.222275-1.773087v-5.870506c0-0.230904,0.013779-0.492821,0.041336-0.785767
		c0.025864-0.2929,0.093063-0.585846,0.201599-0.878738c0.106857-0.291214,0.255035-0.578957,0.44281-0.859802
		c0.187836-0.279175,0.449768-0.527267,0.785721-0.739235c0.334274-0.213646,0.744385-0.387703,1.228577-0.52211
		c0.482468-0.134403,1.066574-0.201553,1.750641-0.201553c0.71167,0,1.352615,0.074089,1.924683,0.220535
		c0.570328,0.146454,1.056259,0.380821,1.459488,0.704735c0.403152,0.322243,0.711609,0.737495,0.927002,1.242355
		C202.891418,66.600342,203,67.206902,203,67.913376v1.426712h-3.847641v-2.067719c0-0.108536-0.006943-0.224007-0.018982-0.346321
		c-0.013779-0.12236-0.048218-0.232628-0.101654-0.329124c-0.053421-0.098228-0.124039-0.180939-0.21196-0.246407
		c-0.086136-0.067207-0.203293-0.101646-0.351471-0.101646c-0.296371,0-0.487671,0.113686-0.573807,0.339432
		c-0.08786,0.225746-0.130936,0.448013-0.130936,0.666817v7.386887c0,0.110268,0.006897,0.229156,0.020676,0.356674
		c0.012039,0.129204,0.046524,0.244675,0.099899,0.348061c0.053436,0.103378,0.127518,0.189514,0.222275,0.254982
		c0.093079,0.0672,0.213699,0.101692,0.361893,0.101692c0.268753,0,0.449692-0.118889,0.54277-0.356674
		c0.094757-0.237785,0.141296-0.47216,0.141296-0.704735v-2.48645H203z"/>
	<path style="fill:#223468;" d="M38.517769,65.284264c-14.306761,0-25.904827-11.766888-25.904827-26.280407
		c0-14.515259,11.598065-26.282146,25.904827-26.282146c14.306732,0,25.9048,11.766887,25.9048,26.282146
		C64.422569,53.517376,52.824501,65.284264,38.517769,65.284264 M38.517769-0.073935C17.244591-0.073935,0,17.422272,0,39.003857
		S17.244591,78.07991,38.517769,78.07991c21.273151,0,38.517738-17.494473,38.517738-39.076054
		S59.79092-0.073935,38.517769-0.073935"/>
	<polygon style="fill:#223468;" points="30.786987,37.902424 30.786987,34.599293 21.5168,34.599293 16.681835,34.599293 
		16.681835,37.581978 16.681835,44.598347 16.681835,47.810143 21.5168,47.810143 30.786987,47.810143 30.786987,45.056671 
		21.022272,45.056671 21.022272,37.902424 	"/>
	<polygon style="fill:#223468;" points="60.625248,37.902424 60.625248,34.599293 51.355061,34.599293 46.520096,34.599293 
		46.520096,37.581978 46.520096,44.598347 46.520096,47.810143 51.355061,47.810143 60.625248,47.810143 60.625248,45.056671 
		50.860531,45.056671 50.860531,37.902424 	"/>
	<rect x="35.429653" y="34.417507" style="fill:#223468;" width="6.177258" height="13.346992"/>
	<rect x="33.46534" y="6.90852" style="fill:#FDFEFF;" width="1.08555" height="4.5162"/>
	<rect x="34.550892" y="7.664945" style="fill:#FDFEFF;" width="0.863276" height="3.006769"/>
	<rect x="41.679268" y="6.90852" style="fill:#FDFEFF;" width="1.083814" height="4.5162"/>
	<rect x="40.816017" y="7.664945" style="fill:#FDFEFF;" width="0.863276" height="3.006769"/>
	<polygon style="fill:#FDFEFF;" points="40.154873,11.59909 36.074596,11.59909 35.414665,10.670399 35.414665,7.663577 
		36.074596,6.908888 40.154873,6.908888 40.816517,7.663577 40.816517,10.670399 	"/>
	<rect x="37.504234" y="5.499051" style="fill:#FDFEFF;" width="1.219929" height="1.409469"/>
	<path style="fill:#FDFEFF;" d="M38.178837,5.92877c-1.140694,0-2.067719-0.940785-2.067719-2.098691
		c0-1.15617,0.927025-2.098743,2.067719-2.098743c1.140659,0,2.067692,0.942573,2.067692,2.098743
		C40.246529,4.987984,39.319496,5.92877,38.178837,5.92877 M38.178837,1.181672c-1.438786,0-2.610493,1.18893-2.610493,2.648407
		c0,1.461159,1.171707,2.648354,2.610493,2.648354c1.438759,0,2.610466-1.187195,2.610466-2.648354
		C40.789303,2.370602,39.617596,1.181672,38.178837,1.181672"/>
	<path style="fill:#FDFEFF;" d="M38.561176,3.818668l1.893665-2.079708c0.101646-0.110322,0.094757-0.284323-0.015511-0.387704
		c-0.108562-0.103381-0.28088-0.096492-0.382526,0.015512l-1.864376,2.047l-1.866108-2.047
		c-0.099937-0.112005-0.272232-0.118893-0.382526-0.015512c-0.110268,0.103381-0.117157,0.277382-0.015511,0.387704
		l1.895397,2.079708l-1.895397,2.079761c-0.101646,0.110322-0.094757,0.284323,0.015511,0.387704
		c0.051689,0.050008,0.118893,0.074091,0.184387,0.074091c0.072357,0,0.144737-0.02929,0.198139-0.089604l1.866108-2.047
		l1.864376,2.047c0.053398,0.060314,0.125782,0.089604,0.199875,0.089604c0.065464,0,0.130959-0.024084,0.182652-0.074091
		c0.110268-0.103381,0.117157-0.277382,0.015511-0.387704L38.561176,3.818668z"/>
	<rect x="37.669662" y="3.314174" style="fill:#FDFEFF;" width="1.016612" height="1.032124"/>
	<path style="fill:#223468;" d="M22.90889,33.604031c-0.003469-0.082664-0.012068-0.161961-0.012068-0.244675
		c0-1.526628,0.642712-2.815468,1.404316-2.815468s1.406025,1.288839,1.406025,2.815468
		c0,0.079296-0.010334,0.156803-0.013779,0.234367l1.314713-0.003471c-0.003445-0.077511-0.012068-0.1516-0.012068-0.230896
		c0-1.526628,0.644421-2.815468,1.406025-2.815468s1.404316,1.288839,1.404316,2.815468
		c0,0.075825-0.008625,0.1465-0.010334,0.220589l1.312977-0.005203c-0.003445-0.072357-0.012041-0.141296-0.012041-0.215385
		c0-1.526628,0.644421-2.815468,1.406023-2.815468c0.761604,0,1.404316,1.288839,1.404316,2.815468
		c0,0.070671-0.008625,0.136139-0.010334,0.205078l1.311245-0.003471c-0.001709-0.068886-0.010334-0.132671-0.010334-0.201607
		c0-1.526628,0.642712-2.815468,1.406052-2.815468c0.761604,0,1.404289,1.288839,1.404289,2.815468
		c0,0.065517-0.006889,0.127514-0.010334,0.191299l1.311268-0.005207c-0.003445-0.061996-0.010334-0.122311-0.010334-0.186092
		c0-1.526628,0.642712-2.815468,1.404316-2.815468c0.763313,0,1.406025,1.288839,1.406025,2.815468
		c0,0.060314-0.006889,0.11721-0.010334,0.175789l1.309532-0.003471c-0.001709-0.058578-0.008595-0.113686-0.008595-0.172318
		c0-1.526628,0.642708-2.815468,1.404289-2.815468c0.761604,0,1.406048,1.288839,1.406048,2.815468
		c0,0.055161-0.006886,0.10685-0.008621,0.16201l1.306087-0.005207c-0.001709-0.053371-0.006889-0.103378-0.006889-0.156803
		c0-1.526628,0.642712-2.815468,1.404316-2.815468s1.404316,1.288839,1.404316,2.815468
		c0,0.050007-0.00518,0.096489-0.006889,0.1465l1.306087-0.003471c-0.001709-0.048222-0.008621-0.094757-0.008621-0.143028
		c0-1.526628,0.644444-2.815468,1.406048-2.815468s1.404316,1.288839,1.404316,2.815468
		c0,0.0448-0.00518,0.087921-0.006889,0.132721l1.166504-0.005207c0-0.043064,0.003471-0.084396,0.003471-0.127514
		c0-2.35541-1.128643-4.199118-2.567402-4.199118c-0.847763,0-1.585232,0.642685-2.050468,1.650724
		c-0.46524-1.008039-1.202709-1.650724-2.050472-1.650724s-1.585232,0.642685-2.050472,1.650724
		c-0.465214-1.008039-1.202705-1.650724-2.050468-1.650724c-0.84774,0-1.585232,0.642685-2.050446,1.650724
		c-0.46524-1.008039-1.202709-1.650724-2.050472-1.650724s-1.585232,0.642685-2.050472,1.650724
		c-0.463501-1.008039-1.200996-1.650724-2.048733-1.650724c-0.849499,0-1.586967,0.642685-2.050472,1.650724
		c-0.46524-1.008039-1.202709-1.650724-2.050472-1.650724s-1.58523,0.642685-2.05047,1.650724
		c-0.465239-1.008039-1.202707-1.650724-2.05047-1.650724c-0.847738,0-1.585232,0.642685-2.050472,1.650724
		c-0.465212-1.008039-1.202707-1.650724-2.050444-1.650724c-1.438786,0-2.567402,1.843708-2.567402,4.199118
		c0,0.08445,0.00518,0.165428,0.006889,0.248142L22.90889,33.604031z"/>
</g>
</svg>
