<?xml version="1.0" encoding="utf-8"?>
<!-- Generator: Adobe Illustrator 19.1.0, SVG Export Plug-In . SVG Version: 6.00 Build 0)  -->
<svg version="1.0" id="Слой_1" xmlns="http://www.w3.org/2000/svg" xmlns:xlink="http://www.w3.org/1999/xlink" x="0px" y="0px"
	 viewBox="0 0 269.080017 30.555387" style="enable-background:new 0 0 269.080017 30.555387;" xml:space="preserve">
<g>
	<polygon style="fill:#1E3E87;" points="67.619347,10.543558 63.091457,10.543558 60.57402,23.589228 57.299698,23.589228 
		59.817081,10.543558 55.290936,10.543558 55.759933,8.119309 68.088295,8.119309 	"/>
	<path style="fill:#1E3E87;" d="M74.181618,17.184498l0.625916-3.264009h-3.236389c-1.43457,0-2.151886,0.665588-2.151886,1.994976
		c0,0.846601,0.539665,1.269032,1.617325,1.269032H74.181618z M72.953995,23.588333l0.874176-4.533041h-3.157089L67.3312,23.588333
		h-3.093315l4.215797-5.088234c-1.296654-0.620703-1.944931-1.51903-1.944931-2.696714
		c0-0.944894,0.394859-1.805282,1.181107-2.579477c0.78624-0.774196,2.107002-1.160425,3.960587-1.160425h6.445244
		l-2.219131,11.524851H72.953995z"/>
	<polygon style="fill:#1E3E87;" points="91.937393,16.640673 95.356529,23.587702 92.213226,23.587702 89.551033,18.375286 
		88.597511,18.602867 87.633667,23.587702 84.840347,23.587702 85.805916,18.602867 84.931747,18.375286 80.157333,23.587702 
		77.326073,23.587702 83.145409,17.480433 80.012474,12.062799 83.026436,12.062799 85.676636,16.640673 86.157684,16.801058 
		87.071533,12.062799 89.864807,12.062799 88.937172,16.801058 89.485466,16.640673 93.894379,12.062799 96.765266,12.062799 	"/>
	<polygon style="fill:#1E3E87;" points="96.542,23.588333 98.759346,12.063482 109.172081,12.063482 106.952995,23.588333 
		104.03038,23.588333 105.896019,13.910175 101.330193,13.910175 99.464561,23.588333 	"/>
	<path style="fill:#1E3E87;" d="M116.971916,21.842775c1.018982,0,1.803543-0.556929,2.355316-1.670786
		c0.55172-1.115593,0.829346-2.262232,0.829346-3.439917c0-1.986294-0.696587-2.981177-2.088066-2.981177
		c-1.051765,0-1.932884,0.543089-2.639832,1.625953c-0.710365,1.086285-1.063866,2.281176-1.063866,3.588148
		c0,0.960417,0.253471,1.679415,0.762146,2.158781C115.635582,21.604828,116.251183,21.842775,116.971916,21.842775
		 M112.654404,27.612068h-2.920876l3.000175-15.549217h2.608788l-0.456947,2.379469
		c1.096649-1.843221,2.470871-2.764015,4.122711-2.764015c1.244881,0,2.253548,0.436272,3.026009,1.313918
		c0.774193,0.877646,1.162163,2.058751,1.162163,3.546735c0,1.851851-0.524147,3.543367-1.572495,5.077921
		c-1.046661,1.534605-2.415672,2.300171-4.101982,2.300171c-1.819115,0-3.05368-0.789719-3.707169-2.369156L112.654404,27.612068z"
		/>
	<path style="fill:#1E3E87;" d="M130.710175,21.809151c1.18457,0,2.053589-0.531092,2.610519-1.591486
		c0.555191-1.062132,0.834503-2.175989,0.834503-3.338152c0-1.994975-0.88797-2.991595-2.662201-2.991595
		c-1.243195,0-2.134628,0.569031-2.674301,1.710461c-0.537979,1.141482-0.808716,2.279492-0.808716,3.410556
		c0,0.960417,0.260361,1.667364,0.782822,2.120842C129.315277,21.583254,129.954971,21.809151,130.710175,21.809151
		 M130.684341,23.883373c-0.982834,0-1.931213-0.189642-2.850212-0.567242c-0.91732-0.3776-1.617325-0.977676-2.100113-1.79497
		c-0.482788-0.820711-0.724205-1.798388-0.724205-2.931189c0-1.836327,0.620705-3.424394,1.865639-4.765831
		c1.243187-1.341491,2.869148-2.012183,4.877907-2.012183c1.653534,0,2.976028,0.482787,3.965744,1.444888
		c0.993149,0.965574,1.489777,2.258759,1.489777,3.88303c0,1.669048-0.591446,3.210546-1.77597,4.624441
		C134.250061,23.176477,132.667206,23.883373,130.684341,23.883373"/>
	<polygon style="fill:#1E3E87;" points="138.786057,23.588333 141.003403,12.063482 145.414047,12.063482 146.953812,21.662394 
		152.354141,12.063482 156.490585,12.063482 154.2715,23.588333 151.585098,23.588333 153.424896,14.046356 153.202469,14.046356 
		147.814194,23.588333 144.827805,23.588333 143.182861,14.046356 142.960434,14.046356 141.122375,23.588333 	"/>
	<path style="fill:#1E3E87;" d="M166.82338,17.706961c-2.270859,0.105186-3.848557,0.365551-4.736526,0.78109
		c-0.886276,0.415539-1.329376,1.024193-1.329376,1.82596c0,0.460371,0.177582,0.836288,0.5345,1.127644
		c0.356934,0.289673,0.84314,0.436272,1.460419,0.436272c0.888016,0,1.708725-0.337978,2.465714-1.015615
		C165.975037,20.186407,166.509552,19.134642,166.82338,17.706961 M168.845932,23.588333h-2.882996
		c-0.017197-0.203428-0.027573-0.370707-0.027573-0.499994c0-0.550034,0.0793-1.210413,0.236221-1.982872
		c-0.436218,0.862123-1.062134,1.539709-1.879425,2.036335c-0.817291,0.494837-1.71904,0.741413-2.700134,0.741413
		c-1.182846,0-2.146744-0.318981-2.889893-0.958681c-0.743149-0.636278-1.115585-1.425945-1.115585-2.362209
		c0-1.293186,0.662109-2.319115,1.988083-3.082996c1.327652-0.762094,3.403656-1.143167,6.229721-1.143167
		c0.367233,0,0.791397,0.013786,1.279388,0.044832c0.062042-0.348291,0.091354-0.624176,0.091354-0.827604
		c0-0.61902-0.244843-1.088021-0.736252-1.405266c-0.491425-0.317298-1.101761-0.475894-1.834595-0.475894
		c-1.400055,0-2.420837,0.532776-3.065689,1.596643l-2.60878-0.71384c1.094849-1.87253,3.032944-2.810531,5.805542-2.810531
		c1.653519,0,2.957077,0.325874,3.914017,0.974203c0.956955,0.65175,1.434586,1.51561,1.434586,2.596737
		c0,0.460371-0.206909,1.675941-0.625916,3.650187c-0.443115,2.077747-0.665543,3.395084-0.665543,3.953751
		C168.792465,23.122807,168.809677,23.346966,168.845932,23.588333"/>
	<path style="fill:#1E3E87;" d="M178.472885,21.842775c1.018982,0,1.803543-0.556929,2.355316-1.670786
		c0.553467-1.115593,0.829346-2.262232,0.829346-3.439917c0-1.986294-0.696579-2.981177-2.088058-2.981177
		c-1.051773,0-1.932892,0.543089-2.639832,1.625953c-0.710373,1.086285-1.063873,2.281176-1.063873,3.588148
		c0,0.960417,0.253479,1.679415,0.762146,2.158781C177.136551,21.604828,177.752151,21.842775,178.472885,21.842775
		 M174.15538,27.612068h-2.920883l3.000183-15.549217h2.60878l-0.456955,2.379469
		c1.096664-1.843221,2.470871-2.764015,4.122726-2.764015c1.244873,0,2.25354,0.436272,3.02774,1.313918
		c0.772461,0.877646,1.160431,2.058751,1.160431,3.546735c0,1.851851-0.524155,3.543367-1.572495,5.077921
		c-1.046661,1.534605-2.41568,2.300171-4.10199,2.300171c-1.819122,0-3.05368-0.789719-3.707169-2.369156L174.15538,27.612068z"/>
	<polygon style="fill:#1E3E87;" points="186.262527,23.588333 188.479874,12.063482 192.890518,12.063482 194.430283,21.662394 
		199.830597,12.063482 203.967041,12.063482 201.747955,23.588333 199.061554,23.588333 200.901367,14.046356 200.67894,14.046356 
		195.290665,23.588333 192.304276,23.588333 190.659332,14.046356 190.436905,14.046356 188.598846,23.588333 	"/>
	<path style="fill:#1E3E87;" d="M214.299789,17.706961c-2.270859,0.105186-3.848557,0.365551-4.736511,0.78109
		c-0.886276,0.415539-1.329391,1.024193-1.329391,1.82596c0,0.460371,0.177597,0.836288,0.534515,1.127644
		c0.356918,0.289673,0.843124,0.436272,1.460403,0.436272c0.888016,0,1.708725-0.337978,2.465714-1.015615
		C213.451462,20.186407,213.985977,19.134642,214.299789,17.706961 M216.322342,23.588333h-2.88298
		c-0.017212-0.203428-0.027573-0.370707-0.027573-0.499994c0-0.550034,0.079285-1.210413,0.236206-1.982872
		c-0.436218,0.862123-1.062134,1.539709-1.879425,2.036335c-0.817291,0.494837-1.71904,0.741413-2.700134,0.741413
		c-1.182846,0-2.146729-0.318981-2.889877-0.958681c-0.743149-0.636278-1.115601-1.425945-1.115601-2.362209
		c0-1.293186,0.662125-2.319115,1.988083-3.082996c1.327652-0.762094,3.403671-1.143167,6.229721-1.143167
		c0.367233,0,0.791397,0.013786,1.279404,0.044832c0.062027-0.348291,0.091339-0.624176,0.091339-0.827604
		c0-0.61902-0.244843-1.088021-0.736252-1.405266c-0.491425-0.317298-1.1035-0.475894-1.834595-0.475894
		c-1.400055,0-2.420822,0.532776-3.065689,1.596643l-2.60878-0.71384c1.094864-1.87253,3.031219-2.810531,5.805542-2.810531
		c1.653534,0,2.957077,0.325874,3.914032,0.974203c0.95694,0.65175,1.43457,1.51561,1.43457,2.596737
		c0,0.460371-0.206909,1.675941-0.625916,3.650187c-0.443115,2.077747-0.665543,3.395084-0.665543,3.953751
		C216.268875,23.122807,216.286087,23.346966,216.322342,23.588333"/>
	<polygon style="fill:#1E3E87;" points="221.202316,23.588333 223.028275,14.101554 219.400452,14.101554 219.793564,12.063482 
		229.902847,12.063482 229.511398,14.101554 225.950882,14.101554 224.123138,23.588333 	"/>
	<path style="fill:#1E3E87;" d="M229.001938,27.679474l0.131027-2.198404c0.513824,0.067247,1.096588,0.101767,1.748398,0.101767
		c0.617279,0,1.129379-0.110397,1.532822-0.334505c0.405212-0.222424,0.772446-0.639698,1.103531-1.251825l0.494843-0.917322
		l-3.248489-11.016175h3.131256l2.010498,7.931548l4.381287-7.931548h2.650146l-6.812485,11.933497
		c-0.625916,1.094913-1.117325,1.857006-1.474243,2.282911c-0.355194,0.427589-0.862137,0.78451-1.519043,1.072498
		c-0.655212,0.2862-1.501816,0.429325-2.538116,0.429325C230.089905,27.78124,229.558868,27.746721,229.001938,27.679474"/>
	<path style="fill:#1E3E87;" d="M249.040314,21.842775c1.018982,0,1.803543-0.556929,2.355316-1.670786
		c0.551712-1.115593,0.829346-2.262232,0.829346-3.439917c0-1.986294-0.696579-2.981177-2.088058-2.981177
		c-1.051773,0-1.932892,0.543089-2.641571,1.625953c-0.708633,1.086285-1.062134,2.281176-1.062134,3.588148
		c0,0.960417,0.253464,1.679415,0.762146,2.158781C247.703979,21.604828,248.31958,21.842775,249.040314,21.842775
		 M244.722809,27.612068h-2.920883l3.000168-15.549217h2.608795l-0.456955,2.379469
		c1.096649-1.843221,2.470871-2.764015,4.122711-2.764015c1.244888,0,2.253555,0.436272,3.026016,1.313918
		c0.774185,0.877646,1.162155,2.058751,1.162155,3.546735c0,1.851851-0.524139,3.543367-1.572495,5.077921
		c-1.046661,1.534605-2.415665,2.300171-4.101974,2.300171c-1.819122,0-3.05368-0.789719-3.707169-2.369156L244.722809,27.612068z"
		/>
	<path style="fill:#1E3E87;" d="M265.819458,17.706961c-2.270844,0.105186-3.848541,0.365551-4.736511,0.78109
		c-0.886292,0.415539-1.329407,1.024193-1.329407,1.82596c0,0.460371,0.177612,0.836288,0.534515,1.127644
		c0.356934,0.289673,0.84314,0.436272,1.460419,0.436272c0.888031,0,1.70874-0.337978,2.465729-1.015615
		C264.97113,20.186407,265.505646,19.134642,265.819458,17.706961 M267.84201,23.588333h-2.882996
		c-0.017181-0.203428-0.027557-0.370707-0.027557-0.499994c0-0.550034,0.079285-1.210413,0.236206-1.982872
		c-0.436218,0.862123-1.062134,1.539709-1.879425,2.036335c-0.817291,0.494837-1.719025,0.741413-2.700134,0.741413
		c-1.182831,0-2.146729-0.318981-2.889893-0.958681c-0.744812-0.636278-1.11557-1.425945-1.11557-2.362209
		c0-1.293186,0.662109-2.319115,1.988068-3.082996c1.325958-0.762094,3.403656-1.143167,6.229706-1.143167
		c0.367249,0,0.791412,0.013786,1.279419,0.044832c0.062042-0.348291,0.091339-0.624176,0.091339-0.827604
		c0-0.61902-0.244843-1.088021-0.736267-1.405266c-0.493073-0.317298-1.101746-0.475894-1.834564-0.475894
		c-1.400055,0-2.420837,0.532776-3.065704,1.596643l-2.608795-0.71384c1.094879-1.87253,3.031219-2.810531,5.805573-2.810531
		c1.653503,0,2.957062,0.325874,3.914001,0.974203c0.95697,0.65175,1.434601,1.51561,1.434601,2.596737
		c0,0.460371-0.206909,1.675941-0.625916,3.650187c-0.443115,2.077747-0.665558,3.395084-0.665558,3.953751
		C267.788544,23.122807,267.805756,23.346966,267.84201,23.588333"/>
	<path style="fill:#E62D31;" d="M10.705139,12.799266c-0.239632,0.148282-0.403437,0.229317-0.54309,0.336187
		c-3.264009,2.477764-5.103809,5.662421-5.646952,9.495461c-0.060355,0.429325,0.112081,0.544827,0.556929,0.541407
		c1.651842-0.015524,3.305421-0.005157,4.957211-0.006893c0.705211,0,0.715577-0.008631,0.715577-0.667273
		c0-3.039848,0-6.079697-0.001737-9.121282C10.743077,13.221698,10.722398,13.064785,10.705139,12.799266 M27.656254,12.766483
		c-0.034519,0.246576-0.068985,0.370707-0.068985,0.493154c-0.003473,3.139827,0.00342,6.277968-0.010366,9.417794
		c-0.001682,0.412119,0.194853,0.49489,0.587975,0.491417c1.527712-0.010313,3.053635,0.001736,4.581347-0.005157
		c1.410423-0.005156,1.270771,0.162069,1.055241-1.158688c-0.562138-3.451967-2.382944-6.295229-5.241728-8.590191
		C28.299374,13.206175,28.013174,13.021689,27.656254,12.766483 M23.11632,19.615168
		c0-2.827738-0.008631-5.653792,0.008575-8.481531c0.003473-0.422432-0.136179-0.600077-0.598288-0.688004
		c-1.724247-0.332767-3.443336-0.446585-5.183107-0.094821c-0.470684,0.094821-0.958681,0.148283-1.439732,0.160333
		c-0.453477,0.012103-0.577607,0.189695-0.574187,0.577662c0.013786,1.824224,0.005209,3.648501,0.005209,5.474463
		c0,3.582991,0.008577,7.165981-0.008629,10.748972c-0.003473,0.601761-0.044832,1.219044-0.189695,1.803545
		c-0.232738,0.936264-0.85865,1.382849-1.796652,1.425945c-1.310445,0.058619-2.034598-0.274149-2.365683-1.275927
		c-0.218951-0.663853-0.27415-1.384586-0.299986-2.082903c-0.013839-0.394859-0.065564-0.562086-0.539721-0.556929
		c-1.670786,0.022415-3.341571,0.017258-5.012356,0.010365c-0.360394-0.001736-0.453478,0.079298-0.389703,0.432798
		c0.098294,0.560349,0.184485,1.144903,0.118974,1.703516c-0.099978,0.841444-0.938002,1.700148-1.572492,1.767395
		c-1.134589,0.117237-2.272599-0.444901-2.61568-1.431154c-0.246577-0.710369-0.351764-1.472515-0.429378-2.219084
		c-0.122394-1.175949-0.246524-2.360527-0.232738-3.539896c0.051725-4.400282,1.805282-8.197066,5.043402-11.4214
		c2.769172-2.755386,6.190041-4.49342,10.183414-5.295188c0.156913-0.03273,0.317245-0.046569,0.477631-0.070669
		c0.286199-0.041412,0.439638-0.169015,0.432745-0.460371c-0.017206-0.624177-0.022415-1.25009,0-1.874266
		c0.012102-0.358657-0.163805-0.444848-0.51899-0.441428c-1.363853,0.013787-2.729496,0.006893-4.095086,0.010366
		c-1.155216,0.00342-1.994925-0.591447-2.165623-1.543235C9.17748,1.253682,9.786133,0.374299,10.89136,0.060527
		c0.167278-0.048305,0.3535-0.056935,0.529356-0.056935c5.193421-0.00342,10.385158-0.005157,15.578578-0.001736
		c1.213888,0.001736,2.143259,0.836287,2.146681,1.912205c0.003471,1.094914-0.901747,1.886316-2.148417,1.884632
		c-1.401793-0.003473-2.803585,0.006893-4.203693-0.013839c-0.43622-0.006893-0.62244,0.11208-0.601761,0.529356
		c0.027573,0.574188,0.018942,1.150112,0.001736,1.724247c-0.010366,0.324191,0.132759,0.472473,0.477577,0.536249
		c6.505602,1.206994,11.183506,4.581347,14.02161,10.047181c1.391479,2.676035,1.888054,5.522768,1.572491,8.491949
		c-0.139652,1.31039-0.262096,2.617363-0.789719,3.855402c-0.48447,1.139746-1.258667,1.601801-2.560482,1.574228
		c-0.874172-0.018942-1.65184-0.681059-1.612164-1.472513c0.032726-0.632807,0.181011-1.265614,0.317245-1.88979
		c0.079296-0.370707,0.03278-0.550035-0.446587-0.546562c-1.670786,0.015522-3.34157,0.010366-5.012356-0.005157
		c-0.441427-0.003471-0.512096,0.162069-0.51899,0.537933c-0.015522,0.682795-0.039675,1.38806-0.231054,2.041544
		c-0.293144,1.006935-1.18284,1.417316-2.560534,1.331125c-0.808662-0.050041-1.415579-0.624176-1.588015-1.565651
		c-0.087929-0.484524-0.13797-0.979361-0.139652-1.470778C23.109373,24.874151,23.11632,22.244686,23.11632,19.615168"/>
</g>
</svg>
