<?xml version="1.0" encoding="utf-8"?>
<!-- Generator: Adobe Illustrator 19.1.0, SVG Export Plug-In . SVG Version: 6.00 Build 0)  -->
<svg version="1.0" id="Слой_1" xmlns="http://www.w3.org/2000/svg" xmlns:xlink="http://www.w3.org/1999/xlink" x="0px" y="0px"
	 viewBox="0 0 123.147438 129.770279" style="enable-background:new 0 0 123.147438 129.770279;" xml:space="preserve">
<g>
	<rect style="fill:#3C4684;" width="123.147438" height="129.770279"/>
	<path style="fill:#FFFFFF;" d="M89.475128,15.501491c0.784508,0.005183,2.913956,0.558665,3.54158,0.998357
		c7.150459,5.000305,11.83007,11.776611,12.928406,20.649578c1.008698,8.124664-1.03627,15.573399-6.393494,21.801376
		c-1.789764,2.082905-3.970955,3.817493-6.029709,5.645191c-0.408646,0.363815-1.069023,0.603493-1.615616,0.606941
		c-8.431564,0.036201-16.864845,0.025864-25.480919,0.025864c-2.298409-5.269299-4.598557-10.538597-6.896992-15.809631
		c-0.174145-0.005184-0.348289-0.012077-0.520725-0.01897c-0.234474,1.49493-0.468975,2.99157-0.731075,4.667538H45.617172
		v-3.432972c0-5.091705,0.008629-10.183414-0.00174-15.276829c-0.005154-2.591557-1.17421-3.807125-3.708855-3.864035
		c-1.294895-0.027599-2.589817-0.005182-4.029549-0.005182v22.93594h-5.414135V26.038378
		c3.867477,0,7.697018-0.229317,11.488647,0.063803c3.79163,0.291382,6.872864,4.145075,6.914223,8.126373
		c0.043121,4.108871,0.012074,8.219482,0.012074,12.33009v2.079433h2.653622
		c4.115791-8.18499,6.934925-10.564461,12.945637-10.905857v5.283085c-2.900166,0.900063-5.681389,2.086349-6.960762,5.591751
		h5.521034c1.774231,3.919205,3.498482,7.731514,5.248589,11.595547h20.149559
		c7.610832-6.167625,11.69558-14.019848,9.771324-24.32568c-1.105255-5.910709-4.38131-10.498922-9.223-13.880169
		c-0.40004-0.279333-1.00869-0.343134-1.52079-0.343134c-19.085693-0.017233-38.173119-0.013786-57.155334-0.013786
		c-12.649099,9.117809-13.849174,27.374132-0.063801,38.393806h29.351849c0.827633,1.884605,1.629402,3.712303,2.432907,5.541714
		H30.997272c-0.125866-0.120689-0.234501-0.270706-0.379335-0.358635c-7.622881-4.63649-12.230089-11.357624-13.435322-20.42889
		c-0.205191-1.53458-0.246576-5.621037-0.224159-5.948647c0.658669-9.428188,4.738232-16.84243,12.366295-22.187607
		c0.470737-0.329321,0.950077-0.810399,1.657-1.141457C43.068741,15.51012,82.174652,15.454948,89.475128,15.501491"/>
	<path style="fill:#FFFFFF;" d="M60.599331,34.603733h-5.460705c-0.186222-3.901947,1.794941-7.072845,5.700359-8.376371
		c4.731342-1.579411,10.312725-0.032782,12.311123,5.424475c0.486237,1.331123,0.570717,2.869152,0.59832,4.317513
		c0.075874,4.158886,0.025856,8.321224,0.025856,12.661148c0.715584,0.055172,1.286293,0.15173,1.853561,0.137943
		c2.920876-0.079323,5.841751-0.167252,8.762627-0.291409c1.505272-0.063801,2.582924-1.241459,2.576035-2.715683
		c-0.006897-1.519054-1.165588-2.651882-2.76915-2.684666c-1.434578-0.029308-2.869148-0.034466-4.303726-0.063774
		c-0.101715-0.001736-0.203453-0.110371-0.39138-0.219002v-5.150326H84.5336c1.488007-0.910404,2.358765-2.055279,1.794937-3.576073
		c-0.332794-0.891434-1.169052-1.960484-1.993233-2.21048c-1.779419-0.539696-2.862259,0.743149-3.579544,2.2691h-4.810638
		c-0.291412-3.289873,1.643211-6.571115,4.891693-7.810839c2.586372-0.987989,6.681458-0.65004,9.600601,2.657064
		c1.891495,2.143234,3.108803,5.77795,0.337952,10.57309c0.643143,2.363949,1.519051,4.35545,1.669075,6.400391
		c0.320717,4.396835-3.722649,8.548828-8.041893,8.569508c-5.379646,0.025864-10.761024,0.005184-16.356224,0.005184
		c-0.032753-0.720734-0.087929-1.36388-0.087929-2.008762c-0.005157-5.581387-0.003441-11.162773,0-16.745872
		c0.00174-1.912205-0.822472-3.296764-2.541534-4.050253c-1.29319-0.569004-2.51223-0.25176-3.460571,0.736258
		C61.392467,33.04158,61.056255,33.86058,60.599331,34.603733"/>
	<polygon style="fill:#FFFFFF;" points="21.858757,75.064575 28.09363,75.064575 28.09363,83.10302 26.512484,83.10302 
		26.512484,76.414673 23.443325,76.414673 23.443325,83.10302 21.858757,83.10302 	"/>
	<polygon style="fill:#FFFFFF;" points="29.930141,83.10318 29.930141,75.064766 35.744293,75.064766 35.744293,76.425194 
		31.514709,76.425194 31.514709,78.208061 35.447727,78.208061 35.447727,79.559868 31.514709,79.559868 31.514709,81.747932 
		35.892574,81.747932 35.892574,83.10318 	"/>
	<polygon style="fill:#FFFFFF;" points="37.459251,83.10318 37.459251,75.064766 39.043819,75.064766 39.043819,78.228745 
		42.144024,78.228745 42.144024,75.064766 43.728592,75.064766 43.728592,83.10318 42.144024,83.10318 42.144024,79.589172 
		39.043819,79.589172 39.043819,83.10318 	"/>
	<path style="fill:#FFFFFF;" d="M46.700691,77.258171l-1.539761-0.368973c0.331059-1.306969,1.27248-1.962196,2.827763-1.962196
		c0.920742,0,1.615616,0.208641,2.082878,0.622444c0.469002,0.413826,0.701794,0.901794,0.701794,1.460434
		c0,0.38623-0.10519,0.731102-0.319008,1.039742c-0.215534,0.310356-0.534515,0.582794-0.96384,0.81385
		c0.522438,0.184479,0.913849,0.443108,1.172478,0.777611c0.260361,0.332794,0.391411,0.746597,0.391411,1.236305
		c0,0.705208-0.251732,1.274216-0.758671,1.708725c-0.503468,0.43795-1.256985,0.653488-2.265656,0.653488
		c-0.817291,0-1.465618-0.139679-1.941513-0.418991c-0.472446-0.279327-0.831078-0.803505-1.067314-1.570808l1.448387-0.487938
		c0.148281,0.48278,0.350002,0.793137,0.596577,0.937973c0.246578,0.143127,0.551773,0.213821,0.917297,0.213821
		c0.500046,0,0.862122-0.110374,1.091465-0.331062c0.227581-0.22242,0.3414-0.475891,0.3414-0.760406
		c0-0.329323-0.129314-0.594864-0.387966-0.796585c-0.25692-0.200012-0.648304-0.300011-1.16732-0.300011H47.50246v-1.212151
		h0.181038c0.486237,0,0.855232-0.110374,1.112148-0.334503c0.258625-0.222427,0.38623-0.520729,0.38623-0.889725
		c0-0.291382-0.105186-0.537964-0.313828-0.737968c-0.208637-0.201744-0.506912-0.303482-0.894878-0.303482
		C47.309345,76.247765,46.885178,76.585716,46.700691,77.258171"/>
	<polygon style="fill:#FFFFFF;" points="52.663837,83.10318 52.663837,75.064766 58.477989,75.064766 58.477989,76.425194 
		54.248405,76.425194 54.248405,78.208061 58.181423,78.208061 58.181423,79.559868 54.248405,79.559868 54.248405,81.747932 
		58.62627,81.747932 58.62627,83.10318 	"/>
	<polygon style="fill:#FFFFFF;" points="60.192738,83.10318 60.192738,75.064766 61.777306,75.064766 61.777306,78.228745 
		64.87751,78.228745 64.87751,75.064766 66.462074,75.064766 66.462074,83.10318 64.87751,83.10318 64.87751,79.589172 
		61.777306,79.589172 61.777306,83.10318 	"/>
	<path style="fill:#FFFFFF;" d="M73.335121,80.147659l1.534576,0.498306c-0.236237,0.877647-0.627647,1.529419-1.17421,1.957039
		c-0.548325,0.424164-1.243195,0.637962-2.082901,0.637962c-1.041451,0-1.898392-0.363815-2.565697-1.094887
		c-0.672455-0.731102-1.006958-1.725983-1.006958-2.993309c0-1.336281,0.337982-2.374283,1.010437-3.1157
		c0.674164-0.7397,1.558701-1.108696,2.658775-1.108696c0.960419,0,1.738029,0.289665,2.336342,0.872459
		c0.356926,0.3414,0.624184,0.834549,0.801796,1.477699l-1.56562,0.38623c-0.093109-0.417274-0.286224-0.746597-0.581085-0.989731
		c-0.293114-0.239685-0.651749-0.360367-1.072472-0.360367c-0.581078,0-1.051788,0.213799-1.415604,0.639702
		c-0.362106,0.431061-0.541405,1.12075-0.541405,2.081169c0,1.013847,0.177589,1.739769,0.534515,2.16909
		c0.356918,0.4328,0.820732,0.648331,1.391449,0.648331c0.418983,0,0.78109-0.13623,1.084549-0.410378
		C72.985092,81.168427,73.204071,80.735626,73.335121,80.147659"/>
	<path style="fill:#FFFFFF;" d="M76.472237,75.064575h1.582863v3.422638c0.353447-0.037918,0.593124-0.129318,0.718994-0.279312
		c0.122421-0.151756,0.315536-0.567291,0.575897-1.253532c0.329323-0.869019,0.658669-1.410423,0.989731-1.620796
		c0.329315-0.213799,0.858673-0.318985,1.589745-0.318985c0.034492,0,0.110344-0.003441,0.227608-0.00518v1.201813
		l-0.224159-0.005188c-0.322426,0-0.562111,0.03968-0.712105,0.120712c-0.148285,0.08448-0.26899,0.208641-0.362099,0.377602
		c-0.093117,0.168991-0.231056,0.513832-0.410362,1.03627c-0.098289,0.275887-0.201744,0.508644-0.31382,0.696602
		c-0.113792,0.186226-0.312088,0.360367-0.598312,0.525887c0.35347,0.103477,0.646591,0.30864,0.875908,0.620728
		c0.231049,0.310379,0.482788,0.748337,0.755226,1.315605l1.069023,2.203583h-1.858719l-0.936287-2.077721
		c-0.013786-0.029305-0.044807-0.086189-0.091377-0.170692c-0.018967-0.029312-0.082771-0.155182-0.198296-0.377602
		c-0.203453-0.394859-0.370712-0.64315-0.498283-0.741417c-0.13105-0.096558-0.329353-0.150017-0.598312-0.151756v3.519188
		h-1.582863V75.064575z"/>
	<polygon style="fill:#FFFFFF;" points="83.371124,75.064575 84.852242,75.064575 84.852242,80.416649 88.030029,75.064575 
		89.605995,75.064575 89.605995,83.10302 88.124847,83.10302 88.124847,77.85614 84.955688,83.10302 83.371124,83.10302 	"/>
	<path style="fill:#FFFFFF;" d="M95.528938,73.062737h0.732811c-0.044838,0.496597-0.213799,0.886276-0.5121,1.170761
		c-0.298302,0.282784-0.684532,0.425911-1.156975,0.425911c-0.474159,0-0.862129-0.143127-1.156952-0.425911
		c-0.298302-0.284485-0.469002-0.674164-0.512123-1.170761h0.732811c0.025856,0.258652,0.113815,0.456924,0.26725,0.589706
		c0.155205,0.132767,0.375893,0.200012,0.669014,0.200012c0.293114,0,0.513832-0.067245,0.669006-0.200012
		C95.415146,73.519661,95.503075,73.321388,95.528938,73.062737 M91.463188,75.064575h1.481117v5.352074l3.177788-5.352074h1.575966
		v8.038445h-1.481148v-5.24688l-3.169159,5.24688h-1.584564V75.064575z"/>
	<path style="fill:#FFFFFF;" d="M25.993677,93.401253l-1.0811-2.984673l-1.058685,2.984673H25.993677z M28.909395,96.580757
		h-1.722536l-0.684532-1.827698h-3.134668l-0.648329,1.827698h-1.677679l3.053635-8.038422h1.674232L28.909395,96.580757z"/>
	<path style="fill:#FFFFFF;" d="M31.550913,89.902756v2.281174h0.863859c0.624176,0,1.041428-0.043106,1.251801-0.127586
		c0.210346-0.084496,0.375889-0.21553,0.496574-0.394859c0.117264-0.179314,0.177589-0.387955,0.177589-0.6259
		c0-0.291397-0.082745-0.532791-0.251732-0.722458c-0.167252-0.189667-0.379337-0.306915-0.636253-0.355194
		c-0.189667-0.036217-0.567268-0.055176-1.137981-0.055176H31.550913z M29.966345,96.580757v-8.038422h2.539801
		c0.962128,0,1.589752,0.03965,1.88287,0.120682c0.450031,0.118973,0.825924,0.38279,1.129379,0.786263
		c0.303486,0.403473,0.455215,0.925911,0.455215,1.565613c0,0.493141-0.087929,0.9104-0.263809,1.244904
		c-0.174145,0.337952-0.398304,0.601761-0.665562,0.793152c-0.268993,0.189667-0.541405,0.318993-0.822475,0.379341
		c-0.377598,0.077583-0.922451,0.117249-1.63974,0.117249h-1.031111v3.031219H29.966345z"/>
	<polygon style="fill:#FFFFFF;" points="37.325439,96.580757 37.325439,88.542336 39.692806,88.542336 41.115334,94.025429 
		42.522308,88.542336 44.898331,88.542336 44.898331,96.580757 43.427528,96.580757 43.427528,90.252769 41.868824,96.580757 
		40.346321,96.580757 38.796219,90.252769 38.796219,96.580757 	"/>
	<path style="fill:#FFFFFF;" d="M50.846111,93.401253l-1.0811-2.984673l-1.058685,2.984673H50.846111z M53.761829,96.580757
		h-1.722538l-0.684532-1.827698h-3.13467l-0.648327,1.827698h-1.677681l3.053635-8.038422h1.674232L53.761829,96.580757z"/>
	<polygon style="fill:#FFFFFF;" points="56.037319,96.580757 56.037319,89.902756 53.713024,89.902756 53.713024,88.542336 
		59.942741,88.542336 59.942741,89.902756 57.621887,89.902756 57.621887,96.580757 	"/>
	<path style="fill:#FFFFFF;" d="M60.385693,88.542152h1.769054l1.831169,4.172691l1.56044-4.172691h1.653557l-2.64846,6.109016
		c-0.287941,0.662102-0.581059,1.165588-0.882809,1.510445c-0.298302,0.344841-0.686241,0.517265-1.158688,0.517265
		c-0.469002,0-0.832813-0.029312-1.098358-0.093109v-1.205246c0.225895,0.013802,0.429348,0.022415,0.608677,0.022415
		c0.368973,0,0.632782-0.06897,0.789692-0.206917c0.160362-0.136208,0.312092-0.431061,0.458664-0.884537L60.385693,88.542152z"/>
	<path style="fill:#FFFFFF;" d="M69.799881,89.902756v2.281174h0.863861c0.624176,0,1.041428-0.043106,1.251801-0.127586
		c0.21035-0.084496,0.375893-0.21553,0.496574-0.394859c0.117264-0.179314,0.177589-0.387955,0.177589-0.6259
		c0-0.291397-0.082741-0.532791-0.251732-0.722458c-0.167252-0.189667-0.379333-0.306915-0.636253-0.355194
		c-0.189667-0.036217-0.567268-0.055176-1.137978-0.055176H69.799881z M68.215317,96.580757v-8.038422h2.539803
		c0.962128,0,1.589752,0.03965,1.882866,0.120682c0.450035,0.118973,0.82592,0.38279,1.129379,0.786263
		c0.30349,0.403473,0.455215,0.925911,0.455215,1.565613c0,0.493141-0.087929,0.9104-0.2621,1.244904
		c-0.17585,0.337952-0.400017,0.601761-0.667267,0.793152c-0.268997,0.189667-0.541405,0.318993-0.822479,0.379341
		c-0.377602,0.077583-0.922447,0.117249-1.63974,0.117249h-1.031113v3.031219H68.215317z"/>
	<polygon style="fill:#FFFFFF;" points="75.747002,96.580757 75.747002,88.542336 77.331573,88.542336 77.331573,91.706314 
		80.431778,91.706314 80.431778,88.542336 82.016342,88.542336 82.016342,96.580757 80.431778,96.580757 80.431778,93.06675 
		77.331573,93.06675 77.331573,96.580757 	"/>
	<path style="fill:#FFFFFF;" d="M91.367653,88.542152h1.584572v8.038445h-1.584572V88.542152z M85.494858,95.230515h1.544922
		c0.494858,0,0.836258-0.024139,1.031113-0.074142c0.193115-0.046555,0.365517-0.160355,0.517273-0.336227
		c0.151733-0.174156,0.229317-0.387962,0.229317-0.641418c0-0.358643-0.124153-0.627625-0.372437-0.806953
		c-0.248291-0.179314-0.694878-0.268982-1.339729-0.268982h-1.610458V95.230515z M83.913734,88.542152h1.581123v3.214005h2.11911
		c0.555191,0,1.032822,0.075867,1.43457,0.232765c0.401756,0.15519,0.736259,0.431061,1.003517,0.832817
		c0.26725,0.400024,0.400017,0.858673,0.400017,1.377678c0,0.546585-0.137947,1.015579-0.415543,1.408714
		c-0.277596,0.39312-0.586235,0.653481-0.929375,0.77935c-0.337952,0.129311-0.837997,0.193115-1.493187,0.193115h-3.700233
		V88.542152z"/>
	<path style="fill:#FFFFFF;" d="M98.897423,86.540306h0.732811c-0.04483,0.496605-0.213799,0.886276-0.5121,1.170769
		c-0.298302,0.282776-0.684532,0.425903-1.156975,0.425903c-0.474159,0-0.862122-0.143127-1.156952-0.425903
		c-0.298302-0.284492-0.469002-0.674164-0.512123-1.170769h0.732811c0.025864,0.258659,0.113815,0.456924,0.267258,0.587975
		c0.155197,0.136208,0.375885,0.201744,0.669006,0.201744c0.293114,0,0.513832-0.065536,0.669006-0.201744
		C98.78363,86.997231,98.871559,86.798965,98.897423,86.540306 M94.831673,88.542152h1.481117v5.352066l3.177788-5.352066h1.575966
		v8.038445h-1.48114v-5.24688l-3.169167,5.24688h-1.584564V88.542152z"/>
	<path style="fill:#FFFFFF;" d="M22.956776,104.210556l-1.539762-0.368988c0.331059-1.306969,1.27248-1.962189,2.827765-1.962189
		c0.920742,0,1.615614,0.208633,2.082878,0.622452c0.469002,0.413811,0.701792,0.901787,0.701792,1.460434
		c0,0.384506-0.105188,0.731087-0.319008,1.039734c-0.215532,0.310364-0.534513,0.582787-0.963839,0.813843
		c0.522436,0.184486,0.912113,0.443123,1.172476,0.777626c0.260363,0.332787,0.391413,0.746597,0.391413,1.23629
		c0,0.705215-0.251734,1.274216-0.758673,1.708725c-0.503468,0.437958-1.256983,0.653488-2.265654,0.653488
		c-0.817291,0-1.46562-0.139664-1.941513-0.418983c-0.472448-0.279335-0.831079-0.803505-1.067316-1.570801l1.448387-0.487953
		c0.148283,0.482788,0.350002,0.793152,0.596579,0.937988c0.246576,0.143112,0.551771,0.213806,0.917295,0.213806
		c0.49831,0,0.862123-0.110359,1.089731-0.331055c0.229317-0.222427,0.343134-0.475899,0.343134-0.760399
		c0-0.329323-0.129314-0.594864-0.387966-0.7966c-0.258627-0.200005-0.648304-0.300011-1.167318-0.300011h-0.358631v-1.212151
		h0.181038c0.486235,0,0.85523-0.110359,1.112146-0.334503c0.256918-0.222427,0.38623-0.520729,0.38623-0.889709
		c0-0.291397-0.105186-0.537971-0.313826-0.737984c-0.208637-0.203468-0.506912-0.303467-0.894878-0.303467
		C23.56543,103.20015,23.141262,103.538101,22.956776,104.210556"/>
	<path style="fill:#FFFFFF;" d="M33.075336,106.876076l-1.081102-2.984673l-1.058685,2.984673H33.075336z M35.991055,110.05558
		h-1.722538l-0.684532-1.827698h-3.134668l-0.648329,1.827698h-1.677679l3.053635-8.038429h1.674231L35.991055,110.05558z"/>
	<path style="fill:#FFFFFF;" d="M38.637569,106.551743v2.148415h1.465622c0.567268,0,0.929371-0.015526,1.084545-0.046555
		c0.234501-0.04483,0.427616-0.153465,0.574162-0.322441c0.148285-0.1707,0.222424-0.398293,0.222424-0.682793
		c0-0.243134-0.058617-0.444862-0.172409-0.613838c-0.11208-0.168976-0.277596-0.289673-0.493126-0.367264
		c-0.21553-0.075859-0.684532-0.115524-1.403557-0.115524H38.637569z M38.637569,103.353256v1.858742h1.03627
		c0.617283,0,1.000065-0.006889,1.148346-0.025856c0.272442-0.031036,0.486237-0.129333,0.641438-0.287949
		c0.153439-0.158638,0.231026-0.369003,0.231026-0.627625c0-0.250023-0.067219-0.450035-0.201717-0.605225
		c-0.132786-0.156898-0.331059-0.251732-0.596603-0.282761c-0.155174-0.018974-0.605206-0.029327-1.351803-0.029327H38.637569z
		 M37.053001,102.01696h3.13467c0.618992,0,1.082836,0.025879,1.388004,0.07933
		c0.303486,0.05172,0.575897,0.163803,0.817291,0.331055c0.239685,0.168976,0.439693,0.39312,0.601788,0.674179
		c0.160332,0.277596,0.239658,0.591408,0.239658,0.937988c0,0.375893-0.098267,0.722458-0.296566,1.03627
		c-0.19656,0.315536-0.463818,0.550034-0.803505,0.708672c0.477631,0.143112,0.843155,0.384506,1.100071,0.727623
		c0.256916,0.344856,0.38623,0.748322,0.38623,1.212151c0,0.367264-0.082771,0.722458-0.250023,1.069031
		c-0.163807,0.344856-0.391388,0.619003-0.679352,0.827644c-0.284489,0.205185-0.639698,0.331055-1.060394,0.379333
		c-0.263809,0.029312-0.900063,0.046555-1.908756,0.055168h-2.669117V102.01696z"/>
	<path style="fill:#FFFFFF;" d="M46.211327,106.029976c0,0.912125,0.206902,1.600105,0.617283,2.072556
		c0.408646,0.468987,0.931084,0.703484,1.56218,0.703484c0.629333,0,1.14835-0.234497,1.551811-0.698318
		c0.40691-0.467278,0.606945-1.165596,0.606945-2.098412c0-0.920746-0.194851-1.608719-0.591423-2.062202
		c-0.39312-0.453476-0.915585-0.681068-1.567333-0.681068c-0.653511,0-1.177685,0.229317-1.579411,0.689705
		C46.413071,104.41436,46.211327,105.107513,46.211327,106.029976 M44.581928,106.085152
		c0-0.817291,0.120682-1.505257,0.356895-2.062202c0.181065-0.408646,0.422455-0.774178,0.731098-1.101791
		c0.308643-0.32415,0.648304-0.567268,1.015564-0.722458c0.486259-0.213806,1.051792-0.318985,1.689781-0.318985
		c1.153503,0,2.077721,0.367264,2.770855,1.101799c0.69487,0.736252,1.041451,1.757004,1.041451,3.067429
		c0,1.296638-0.344841,2.312225-1.032822,3.045021c-0.686268,0.732811-1.60701,1.098351-2.758804,1.098351
		c-1.165585,0-2.093243-0.363815-2.781197-1.093178C44.926773,108.368057,44.581928,107.364548,44.581928,106.085152"/>
	<path style="fill:#FFFFFF;" d="M55.638145,103.367058c0,2.441536-0.21553,4.220955-0.646591,5.338272h2.979492v-5.338272H55.638145
		z M54.129429,102.01696h5.417583v6.68837h0.691425v3.105354h-1.315601v-1.75528H53.98457v1.75528h-1.313866v-3.105354h0.662113
		c0.325878-0.684532,0.539696-1.484581,0.643147-2.393257c0.101715-0.90696,0.153465-2.05703,0.153465-3.44677V102.01696z"/>
</g>
</svg>
