<?xml version="1.0" encoding="utf-8"?>
<!-- Generator: Adobe Illustrator 19.1.0, SVG Export Plug-In . SVG Version: 6.00 Build 0)  -->
<svg version="1.0" id="Слой_1" xmlns="http://www.w3.org/2000/svg" xmlns:xlink="http://www.w3.org/1999/xlink" x="0px" y="0px"
	 viewBox="0 0 171.399887 37.904968" style="enable-background:new 0 0 171.399887 37.904968;" xml:space="preserve">
<g>
	<path style="fill:#344695;" d="M19.86515,22.8473l0.034412,0.098295c0.046621,2.72776-0.765512,4.79685-2.438087,6.203854
		c-1.670786,1.408686-4.039942,2.112186-7.10389,2.112186c-3.122567,0-5.629692-0.903509-7.521165-2.712238
		C0.944947,26.74238,0,24.374987,0,21.450665v-4.996861c0-2.91398,0.910429-5.277927,2.731286-7.091839
		C4.553827,7.54979,6.962553,6.642835,9.957569,6.642835c3.205391,0,5.683154,0.705211,7.434975,2.119106
		c1.75182,1.413869,2.605312,3.469174,2.558798,6.164178l-0.051779,0.098294h-5.707253
		c0-1.467331-0.329295-2.520859-0.989675-3.155375c-0.658695-0.636252-1.741507-0.953525-3.245066-0.953525
		c-1.317286,0-2.329481,0.501757-3.034692,1.50356c-0.706895,1.003513-1.058711,2.336348-1.058711,4.001976v5.029615
		c0,1.675968,0.388019,3.017433,1.162162,4.026129c0.774249,1.008669,1.884632,1.512163,3.331257,1.512163
		c1.341491,0,2.310537-0.317272,2.907142-0.953499c0.594814-0.636253,0.893064-1.698383,0.893064-3.188158H19.86515z"/>
	<polygon style="fill:#344695;" points="44.207932,30.916607 38.36092,30.916607 38.36092,11.2602 29.00869,11.2602 
		29.00869,30.916607 23.144524,30.916607 23.144524,6.987521 44.207932,6.987521 	"/>
	<path style="fill:#344695;" d="M69.295494,6.988021v23.929111h-5.847012V11.260726H57.20335v6.376262
		c0,4.798563-0.805294,8.212591-2.412304,10.240297c-1.608692,2.025995-4.026051,3.039848-7.252171,3.039848h-0.660381v-4.274416
		h0.677639c1.584595,0,2.608788-0.605207,3.070892-1.815622c0.462109-1.210413,0.693111-3.607117,0.693111-7.190107V6.988021
		H69.295494z"/>
	<path style="fill:#344695;" d="M80.694641,21.993122h4.80545l-2.358734-7.429764h-0.10524L80.694641,21.993122z M86.853683,26.2658
		h-7.512634l-1.45694,4.650307h-6.176308l8.240265-23.927376h3.14151v0.015522l0.017258-0.015522h3.139832l8.257423,23.927376
		h-6.176208L86.853683,26.2658z"/>
	<path style="fill:#344695;" d="M102.173851,20.645292v5.998634h3.765793c1.248352,0,2.186356-0.232763,2.810532-0.698317
		c0.624176-0.467264,0.936317-1.181105,0.936317-2.14497c0-1.019009-0.274155-1.791468-0.824242-2.317377
		c-0.548294-0.525883-1.453568-0.805216-2.713921-0.837971h-0.191429H102.173851z M102.173851,16.964006h2.308853
		c1.410423,0,2.463867-0.232763,3.157082-0.698317c0.694901-0.465555,1.039665-1.158689,1.039665-2.079432
		c0-1.019036-0.33445-1.760476-1.005249-2.22774c-0.670692-0.463818-1.700043-0.698318-3.088051-0.698318h-2.4123V16.964006z
		 M96.309792,30.916607V6.987521h8.27636c3.134674,0,5.577919,0.550035,7.329735,1.651816
		c1.753609,1.101808,2.629524,2.741573,2.629524,4.921008c0,1.141457-0.277626,2.151862-0.83287,3.032955
		c-0.555138,0.882803-1.422523,1.548365-2.60363,1.996687c1.503563,0.306906,2.617416,0.943157,3.341675,1.906996
		c0.722366,0.963863,1.082809,2.07601,1.082809,3.336439c0,2.334612-0.827705,4.098534-2.479446,5.291716
		c-1.655312,1.194891-4.026154,1.79147-7.114304,1.79147H96.309792z"/>
	<path style="fill:#344695;" d="M152.568817,31.709745l7.884979-4.970997l0.074097-0.043097v10.029949L152.568817,31.709745z
		 M142.738907,36.735939V26.695652l0.286148,0.167253l7.690186,4.84684L142.738907,36.735939z M171.399368,6.856445
		l-19.765076,13.093948l-19.76506-13.093948v23.718763l10.869675,7.32976l8.902222-5.610695l8.886765,5.600357v0.010338
		l0.008621-0.005157l0.006958,0.005157l0.0121-0.018967l10.843796-7.310793V6.856445z"/>
	<path style="fill:#BBBDC0;" d="M165.813339,9.521298l-1.932938-1.296632l-1.932831-1.298369l3.865768-2.59671l3.863983,2.59671
		L165.813339,9.521298z M161.580292,12.364585V7.8367l1.439774,0.965574l1.932846,1.298368L161.580292,12.364585z
		 M156.854187,15.53893v-4.529595l1.439682,0.967284l1.931137,1.298368L156.854187,15.53893z M152.127975,18.711538v-4.527885
		l3.37262,2.26568L152.127975,18.711538z M151.139984,14.183653v4.527885l-3.37262-2.262205L151.139984,14.183653z
		 M143.042953,13.274987l1.932831-1.298368l1.438095-0.967284v4.529595L143.042953,13.274987z M138.315048,10.100642
		l1.934631-1.298368l1.50177-1.008669v4.614076L138.315048,10.100642z M133.590637,6.926298l3.219177-2.162202V9.0885
		L133.590637,6.926298z M137.797806,4.560641l3.522583,2.365657l-1.932831,1.298369l-1.589752,1.067314V4.560641z
		 M141.75145,1.444915v4.614103l-3.436401-2.307065L141.75145,1.444915z M144.113663,5.050321L142.739441,5.9728V1.531132
		l3.307159,2.22082L144.113663,5.050321z M150.772705,6.926298l-1.932846,1.298369l-1.437988,0.965573V4.662382L150.772705,6.926298
		z M151.634827,7.503932h-0.001694H151.634827z M155.866196,4.662382V9.19024l-1.438095-0.965573l-1.932846-1.298369
		L155.866196,4.662382z M160.5923,1.488037v4.527859l-1.438004-0.965574l-1.932938-1.298368L160.5923,1.488037z
		 M161.087128,1.156979h-0.001678H161.087128z M164.952911,3.751953l-3.37262,2.263942V1.488037L164.952911,3.751953z
		 M160.5923,7.8367v4.527885l-1.438004-0.96731l-1.932938-1.296633L160.5923,7.8367z M156.854187,4.662382l1.439682,0.965574
		l1.931137,1.298342l-3.370819,2.263942V4.662382z M152.127975,12.364585V7.8367l1.439789,0.965574l1.932831,1.298368
		L152.127975,12.364585z M155.866196,11.009335v4.529595l-3.370941-2.263943L155.866196,11.009335z M147.767365,10.100642
		l1.932831-1.298368l1.439789-0.965574v4.527885L147.767365,10.100642z M147.401871,11.009335l3.370834,2.265653l-3.370834,2.263943
		V11.009335z M143.042953,6.926298l1.932831-1.298342l1.438095-0.965574V9.19024L143.042953,6.926298z M142.739441,7.878086
		l3.307159,2.222557l-1.932938,1.296633l-1.374222,0.924189V7.878086z M166.673782,3.751953l-0.431061-0.289672l-0.429382-0.287936
		L161.087128,0l-4.726105,3.174345l-0.860428,0.577608l-3.865768,2.596737l-3.867462-2.596737l-0.860443-0.577608L142.18251,0
		l-4.72789,3.174345l-0.429276,0.287936l-0.431061,0.289672l-4.726212,3.174345l4.726212,3.174345l0.860336,0.577635
		l3.865768,2.59671l4.726212,3.172608v0.001738l0.431061,0.287935l0.42926,0.289671l4.727905,3.172609l4.726196-3.172609
		l0.429276-0.289671l0.431061-0.287935v-0.001738l4.726212-3.172608l3.865768-2.59671l0.860443-0.577635l4.726105-3.174345
		L166.673782,3.751953z"/>
	<polygon style="fill:#344695;" points="120.997971,15.953417 126.191338,18.951906 120.997971,21.950369 	"/>
</g>
</svg>
