<?xml version="1.0" encoding="utf-8"?>
<!-- Generator: Adobe Illustrator 19.1.0, SVG Export Plug-In . SVG Version: 6.00 Build 0)  -->
<svg version="1.0" id="Слой_1" xmlns="http://www.w3.org/2000/svg" xmlns:xlink="http://www.w3.org/1999/xlink" x="0px" y="0px"
	 viewBox="0 0 204 79" style="enable-background:new 0 0 204 79;" xml:space="preserve">
<g>
	<path style="fill:#223468;" d="M126.576523,34.047318v6.975666c0,2.724068-0.445023,4.955242-1.33506,6.693523
		c-0.891754,1.738232-2.06057,3.100292-3.506416,4.084377c-1.447586,0.984085-3.096062,1.665089-4.94191,2.043064
		c-1.849304,0.376167-3.707268,0.564278-5.57737,0.564278c-2.805161,0-5.154892-0.34486-7.045753-1.036335
		c-1.892616-0.691422-3.406021-1.685978-4.541908-2.985317c-1.135925-1.297588-1.948021-2.847759-2.438065-4.65041
		c-0.490036-1.801003-0.734177-3.833595-0.734177-6.096077V19.467289c0-0.795975,0.043282-1.696449,0.133324-2.701477
		c0.088303-1.006729,0.311699-2.011704,0.668388-3.01668c0.354973-1.006728,0.845016-1.990814,1.468384-2.953958
		c0.623344-0.963196,1.492615-1.81142,2.605995-2.544675c1.111664-0.733306,2.470955-1.3307,4.072662-1.792285
		c1.603424-0.459779,3.541054-0.691475,5.81115-0.691475c2.360115,0,4.484756,0.252586,6.377365,0.754196
		c1.892616,0.503365,3.506424,1.309811,4.843201,2.419285c1.33503,1.111229,2.358391,2.535958,3.071808,4.274187
		c0.711662,1.738281,1.068382,3.823125,1.068382,6.252881v4.902941h-12.756477v-7.102755
		c0-0.376221-0.022514-0.773333-0.065819-1.193138c-0.045021-0.419755-0.157555-0.795922-0.334183-1.132119
		c-0.178345-0.334389-0.412125-0.616581-0.701279-0.848225c-0.290901-0.22989-0.680519-0.344861-1.168816-0.344861
		c-0.980057,0-1.613808,0.388393-1.904709,1.161725c-0.289185,0.77684-0.432892,1.539701-0.432892,2.293897v25.38929
		c0,0.376221,0.020767,0.785503,0.065788,1.2262c0.045021,0.438889,0.15583,0.837753,0.334175,1.193085
		c0.178375,0.357033,0.422516,0.649643,0.735924,0.879585c0.309952,0.231644,0.71167,0.346561,1.201714,0.346561
		c0.890038,0,1.490891-0.409283,1.802567-1.226147c0.311691-0.816864,0.467529-1.62331,0.467529-2.419285v-8.546726H126.576523z"/>
	<path style="fill:none;stroke:#FFFFFF;stroke-width:2.126;stroke-miterlimit:10;" d="M126.576523,34.047318v6.975666
		c0,2.724068-0.445023,4.955242-1.33506,6.693523c-0.891754,1.738232-2.06057,3.100292-3.506416,4.084377
		c-1.447586,0.984085-3.096062,1.665089-4.94191,2.043064c-1.849304,0.376167-3.707268,0.564278-5.57737,0.564278
		c-2.805161,0-5.154892-0.34486-7.045753-1.036335c-1.892616-0.691422-3.406021-1.685978-4.541908-2.985317
		c-1.135925-1.297588-1.948021-2.847759-2.438065-4.65041c-0.490036-1.801003-0.734177-3.833595-0.734177-6.096077V19.467289
		c0-0.795975,0.043282-1.696449,0.133324-2.701477c0.088303-1.006729,0.311699-2.011704,0.668388-3.01668
		c0.354973-1.006728,0.845016-1.990814,1.468384-2.953958c0.623344-0.963196,1.492615-1.81142,2.605995-2.544675
		c1.111664-0.733306,2.470955-1.3307,4.072662-1.792285c1.603424-0.459779,3.541054-0.691475,5.81115-0.691475
		c2.360115,0,4.484756,0.252586,6.377365,0.754196c1.892616,0.503365,3.506424,1.309811,4.843201,2.419285
		c1.33503,1.111229,2.358391,2.535958,3.071808,4.274187c0.711662,1.738281,1.068382,3.823125,1.068382,6.252881v4.902941
		h-12.756477v-7.102755c0-0.376221-0.022514-0.773333-0.065819-1.193138c-0.045021-0.419755-0.157555-0.795922-0.334183-1.132119
		c-0.178345-0.334389-0.412125-0.616581-0.701279-0.848225c-0.290901-0.22989-0.680519-0.344861-1.168816-0.344861
		c-0.980057,0-1.613808,0.388393-1.904709,1.161725c-0.289185,0.77684-0.432892,1.539701-0.432892,2.293897v25.38929
		c0,0.376221,0.020767,0.785503,0.065788,1.2262c0.045021,0.438889,0.15583,0.837753,0.334175,1.193085
		c0.178375,0.357033,0.422516,0.649643,0.735924,0.879585c0.309952,0.231644,0.71167,0.346561,1.201714,0.346561
		c0.890038,0,1.490891-0.409283,1.802567-1.226147c0.311691-0.816864,0.467529-1.62331,0.467529-2.419285v-8.546726H126.576523z"/>
	<polygon style="fill:#223468;" points="152.447739,15.216703 152.447739,53.681244 139.777832,53.681244 139.777832,15.216703 
		132.2836,15.216703 132.2836,6.494093 159.943695,6.494093 159.943695,15.216703 	"/>
	<polygon style="fill:none;stroke:#FFFFFF;stroke-width:2.126;stroke-miterlimit:10;" points="152.447739,15.216703 
		152.447739,53.681244 139.777832,53.681244 139.777832,15.216703 132.2836,15.216703 132.2836,6.494093 159.943695,6.494093 
		159.943695,15.216703 	"/>
	<path style="fill:#223468;" d="M196.204132,34.047318v6.975666c0,2.724068-0.445053,4.955242-1.335083,6.693523
		c-0.891739,1.738232-2.060547,3.100292-3.506393,4.084377c-1.447586,0.984085-3.096069,1.665089-4.94191,2.043064
		c-1.849304,0.376167-3.707275,0.564278-5.577377,0.564278c-2.805161,0-5.154877-0.34486-7.045746-1.036335
		c-1.892609-0.691422-3.406021-1.685978-4.541916-2.985317c-1.13591-1.297588-1.948013-2.847759-2.438049-4.65041
		c-0.490051-1.801003-0.734177-3.833595-0.734177-6.096077V19.467289c0-0.795975,0.043274-1.696449,0.133316-2.701477
		c0.090042-1.006729,0.311691-2.011704,0.668396-3.01668c0.354965-1.006728,0.845016-1.990814,1.468384-2.953958
		c0.623337-0.963196,1.492599-1.81142,2.605988-2.544675c1.111664-0.733306,2.470947-1.3307,4.072662-1.792285
		c1.603424-0.459779,3.541061-0.691475,5.811142-0.691475c2.360123,0,4.484772,0.252586,6.37738,0.754196
		c1.892609,0.503365,3.506409,1.309811,4.843185,2.419285c1.335007,1.111229,2.358368,2.535958,3.071808,4.274187
		c0.711639,1.738281,1.06839,3.823125,1.06839,6.252881v4.902941h-12.756485v-7.102755
		c0-0.376221-0.022507-0.773333-0.065811-1.193138c-0.045029-0.419755-0.157547-0.795922-0.334183-1.132119
		c-0.178345-0.334389-0.412125-0.616581-0.701279-0.848225c-0.290909-0.22989-0.680511-0.344861-1.168823-0.344861
		c-0.980057,0-1.6138,0.388393-1.904709,1.161725c-0.289185,0.77684-0.432892,1.539701-0.432892,2.293897v25.38929
		c0,0.376221,0.020767,0.785503,0.065796,1.2262c0.045013,0.438889,0.155838,0.837753,0.334183,1.193085
		c0.178375,0.357033,0.422501,0.649643,0.735916,0.879585c0.309952,0.231644,0.71167,0.346561,1.201706,0.346561
		c0.890045,0,1.490906-0.409283,1.802567-1.226147c0.311707-0.816864,0.467529-1.62331,0.467529-2.419285v-8.546726H196.204132z"/>
	<path style="fill:none;stroke:#FFFFFF;stroke-width:2.126;stroke-miterlimit:10;" d="M196.204132,34.047318v6.975666
		c0,2.724068-0.445053,4.955242-1.335083,6.693523c-0.891739,1.738232-2.060547,3.100292-3.506393,4.084377
		c-1.447586,0.984085-3.096069,1.665089-4.94191,2.043064c-1.849304,0.376167-3.707275,0.564278-5.577377,0.564278
		c-2.805161,0-5.154877-0.34486-7.045746-1.036335c-1.892609-0.691422-3.406021-1.685978-4.541916-2.985317
		c-1.13591-1.297588-1.948013-2.847759-2.438049-4.65041c-0.490051-1.801003-0.734177-3.833595-0.734177-6.096077V19.467289
		c0-0.795975,0.043274-1.696449,0.133316-2.701477c0.090042-1.006729,0.311691-2.011704,0.668396-3.01668
		c0.354965-1.006728,0.845016-1.990814,1.468384-2.953958c0.623337-0.963196,1.492599-1.81142,2.605988-2.544675
		c1.111664-0.733306,2.470947-1.3307,4.072662-1.792285c1.603424-0.459779,3.541061-0.691475,5.811142-0.691475
		c2.360123,0,4.484772,0.252586,6.37738,0.754196c1.892609,0.503365,3.506409,1.309811,4.843185,2.419285
		c1.335007,1.111229,2.358368,2.535958,3.071808,4.274187c0.711639,1.738281,1.06839,3.823125,1.06839,6.252881v4.902941h-12.756485
		v-7.102755c0-0.376221-0.022507-0.773333-0.065811-1.193138c-0.045029-0.419755-0.157547-0.795922-0.334183-1.132119
		c-0.178345-0.334389-0.412125-0.616581-0.701279-0.848225c-0.290909-0.22989-0.680511-0.344861-1.168823-0.344861
		c-0.980057,0-1.6138,0.388393-1.904709,1.161725c-0.289185,0.77684-0.432892,1.539701-0.432892,2.293897v25.38929
		c0,0.376221,0.020767,0.785503,0.065796,1.2262c0.045013,0.438889,0.155838,0.837753,0.334183,1.193085
		c0.178375,0.357033,0.422501,0.649643,0.735916,0.879585c0.309952,0.231644,0.71167,0.346561,1.201706,0.346561
		c0.890045,0,1.490906-0.409283,1.802567-1.226147c0.311707-0.816864,0.467529-1.62331,0.467529-2.419285v-8.546726H196.204132z"/>
	<path style="fill:#223468;" d="M92.054733,74.490448v1.182671c0,0.235153,0.046738,0.447601,0.14196,0.637466
		c0.093506,0.19162,0.277061,0.287407,0.547195,0.287407c0.282234,0,0.470993-0.095787,0.566216-0.287407
		c0.093506-0.189865,0.140274-0.402313,0.140274-0.637466v-2.809433h-3.075272v-2.642212h3.075272v-2.163246
		c0-0.111465-0.00695-0.224678-0.019051-0.341354c-0.01387-0.116722-0.041565-0.228188-0.081406-0.332687
		c-0.039818-0.106255-0.103889-0.18811-0.192192-0.250832c-0.088303-0.060913-0.206062-0.092278-0.353233-0.092278
		c-0.297852,0-0.496964,0.118431-0.597389,0.35183c-0.102173,0.233398-0.152374,0.461533-0.152374,0.682755v0.795975h-3.724609
		v-0.351822c0-0.640976,0.112526-1.20005,0.334183-1.682526c0.223366-0.480721,0.536781-0.879585,0.941986-1.20005
		c0.405174-0.320511,0.890007-0.557365,1.456223-0.712364c0.567963-0.15329,1.194794-0.231697,1.882233-0.231697
		c0.689156,0,1.276161,0.071442,1.761002,0.214264c0.48658,0.141075,0.891754,0.325729,1.215553,0.553864
		c0.323822,0.228188,0.576622,0.487686,0.75843,0.775085c0.181808,0.290855,0.320335,0.590431,0.415588,0.896965
		c0.093506,0.308289,0.154121,0.613129,0.181808,0.914452c0.02597,0.303032,0.039818,0.571297,0.039818,0.804642v5.803467
		c0,0.66713-0.077919,1.268036-0.23201,1.802704c-0.155861,0.536484-0.415588,0.992805-0.779228,1.369026
		c-0.365356,0.374466-0.839813,0.665321-1.426796,0.867363c-0.587006,0.203789-1.305595,0.304832-2.155823,0.304832
		c-0.567932,0-1.1203-0.048798-1.660576-0.146332c-0.538498-0.099236-1.018158-0.287346-1.437202-0.564278
		c-0.417305-0.276985-0.751488-0.665375-1.000824-1.16523c-0.251083-0.498161-0.374023-1.147804-0.374023-1.949036v-0.684517
		H92.054733z"/>
	<polygon style="fill:#223468;" points="104.279793,78.797218 104.279793,72.790016 102.923965,72.790016 102.923965,78.797218 
		99.057365,78.797218 99.057365,64.898193 102.923965,64.898193 102.923965,70.184372 104.279793,70.184372 104.279793,64.898193 
		108.146362,64.898193 108.146362,78.797218 	"/>
	<polygon style="fill:#223468;" points="109.805222,78.797218 109.805222,64.898193 116.262222,64.898193 116.262222,67.467262 
		113.671791,67.467262 113.671791,70.184372 116.099464,70.184372 116.099464,72.790016 113.671791,72.790016 113.671791,76.191628 
		116.525436,76.191628 116.525436,78.797218 	"/>
	<path style="fill:#223468;" d="M121.585236,70.553574h0.218193c0.398247,0,0.680511-0.139313,0.846733-0.416245
		c0.166245-0.276985,0.249336-0.705452,0.249336-1.285416c0-0.614822-0.096962-1.03112-0.289154-1.247086
		c-0.192215-0.215965-0.474457-0.323975-0.846733-0.323975h-0.178375V70.553574z M126.421532,68.778725
		c0,0.764664-0.090042,1.410858-0.271873,1.94207c-0.181808,0.529465-0.453659,0.956184-0.815559,1.283661
		c-0.36364,0.325676-0.813843,0.564331-1.352364,0.712364c-0.536789,0.146278-1.154945,0.221176-1.852768,0.221176h-0.543732
		v5.859222h-3.86657V64.89814h4.311592c1.577477,0,2.704704,0.317009,3.380013,0.951027
		C126.083862,66.483124,126.421532,67.460251,126.421532,68.778725"/>
	<polygon style="fill:#223468;" points="131.420746,67.466682 131.420746,78.796684 127.554153,78.796684 127.554153,64.897659 
		134.09256,64.897659 134.09256,67.466682 	"/>
	<path style="fill:#223468;" d="M140.082245,68.075821c0-0.109711-0.00174-0.226433-0.008667-0.350067
		c-0.006927-0.123688-0.027725-0.235153-0.060608-0.332687c-0.034637-0.099297-0.091766-0.182854-0.173141-0.250778
		c-0.079666-0.066231-0.195679-0.101051-0.34288-0.101051c-0.148911,0-0.263184,0.031364-0.344559,0.092331
		c-0.08139,0.062668-0.141998,0.144577-0.181808,0.250778c-0.041565,0.1045-0.064072,0.214264-0.070999,0.330933
		c-0.006943,0.118484-0.010406,0.231644-0.010406,0.343163v7.466805c0,0.111458,0.003464,0.231644,0.010406,0.360542
		c0.006927,0.130646,0.029434,0.247322,0.070999,0.351822c0.03981,0.1045,0.103882,0.19162,0.192184,0.25779
		c0.086594,0.067932,0.20607,0.102753,0.353241,0.102753c0.135056,0,0.240692-0.034821,0.3134-0.102753
		c0.074463-0.06617,0.131607-0.15329,0.173172-0.25779c0.039825-0.1045,0.064072-0.221176,0.070999-0.351822
		c0.006927-0.128899,0.008667-0.249084,0.008667-0.360542V68.075821z M143.948837,75.06366
		c0,0.801239-0.135071,1.45784-0.405197,1.96817c-0.270142,0.512077-0.61644,0.912697-1.042419,1.201805
		c-0.424225,0.289154-0.900391,0.489433-1.426788,0.600899C140.548035,78.944298,140.021637,79,139.496948,79
		c-0.850189,0-1.561859-0.10099-2.136749-0.304779c-0.573135-0.202042-1.031998-0.496407-1.374878-0.877838
		c-0.344559-0.381424-0.590439-0.837807-0.739349-1.367264c-0.148941-0.529518-0.221649-1.12867-0.221649-1.793991v-5.932365
		c0-0.233398,0.012131-0.499855,0.03981-0.795975c0.02597-0.294365,0.093506-0.590431,0.202606-0.886551
		c0.107346-0.296066,0.256256-0.58522,0.445023-0.86911c0.188721-0.282196,0.451935-0.532974,0.789581-0.748932
		c0.335922-0.214264,0.748047-0.390152,1.234604-0.526009c0.484833-0.135864,1.071854-0.203796,1.761002-0.203796
		c0.659744,0,1.267532,0.074898,1.819901,0.222931c0.554092,0.148033,1.023361,0.384933,1.407776,0.710609
		c0.384399,0.327477,0.683945,0.745476,0.900391,1.257561c0.216446,0.51033,0.323822,1.125153,0.323822,1.839272V75.06366z"/>
	<path style="fill:#223468;" d="M154.514511,73.011505v2.051781c0,0.801186-0.135056,1.45784-0.405197,1.96817
		c-0.270142,0.512085-0.623367,0.912651-1.063187,1.201805c-0.438095,0.290871-0.936768,0.489433-1.497818,0.600899
		c-0.55928,0.111465-1.12204,0.165466-1.690002,0.165466c-0.850189,0-1.561859-0.101044-2.135025-0.304832
		c-0.573135-0.202042-1.032013-0.494652-1.376602-0.877831c-0.34285-0.381416-0.590469-0.837753-0.73764-1.367218
		c-0.148911-0.529518-0.223358-1.126907-0.223358-1.79229v-5.934067c0-0.233398,0.01384-0.498154,0.04155-0.794273
		c0.025986-0.296066,0.093506-0.592178,0.202576-0.888245c0.107376-0.294365,0.254547-0.58522,0.445023-0.869118
		c0.188736-0.282188,0.45195-0.532974,0.789581-0.747231c0.335938-0.215965,0.748062-0.391907,1.234634-0.527763
		c0.484833-0.135864,1.071823-0.203735,1.759262-0.203735c0.715149,0,1.359283,0.07489,1.934174,0.222923
		c0.573135,0.148033,1.061432,0.384941,1.466644,0.712364c0.405167,0.325722,0.715118,0.745476,0.931564,1.255806
		c0.214737,0.512032,0.323822,1.125153,0.323822,1.839272v1.442169h-3.866592v-2.090111
		c0-0.109711-0.006943-0.226433-0.019058-0.350067c-0.01387-0.123688-0.048477-0.235153-0.102158-0.332687
		c-0.053696-0.099289-0.124664-0.182899-0.212997-0.249077c-0.086578-0.067932-0.204315-0.102745-0.353226-0.102745
		c-0.297821,0-0.490036,0.114914-0.57663,0.343102c-0.088303,0.228188-0.131577,0.452873-0.131577,0.674042v7.466858
		c0,0.111465,0.006927,0.231644,0.020767,0.360542c0.012131,0.1306,0.046768,0.247322,0.100433,0.351822
		c0.05368,0.1045,0.128143,0.191566,0.223358,0.257744c0.093506,0.067924,0.214737,0.102798,0.363647,0.102798
		c0.270111,0,0.451935-0.120178,0.545441-0.360542c0.09523-0.240364,0.141998-0.477264,0.141998-0.712364v-2.513367H154.514511z"/>
	<polygon style="fill:#223468;" points="155.991913,78.797218 155.991913,64.898193 162.448914,64.898193 162.448914,67.467262 
		159.858475,67.467262 159.858475,70.184372 162.286148,70.184372 162.286148,72.790016 159.858475,72.790016 159.858475,76.191628 
		162.712128,76.191628 162.712128,78.797218 	"/>
	<path style="fill:#223468;" d="M167.772079,70.553574h0.218185c0.398254,0,0.680527-0.139313,0.846741-0.416245
		c0.166245-0.276985,0.249344-0.705452,0.249344-1.285416c0-0.614822-0.09697-1.03112-0.289154-1.247086
		c-0.19223-0.215965-0.474457-0.323975-0.846741-0.323975h-0.178375V70.553574z M172.608383,68.778725
		c0,0.764664-0.090042,1.410858-0.271881,1.94207c-0.181808,0.529465-0.453659,0.956184-0.815552,1.283661
		c-0.363647,0.325676-0.813843,0.564331-1.352371,0.712364c-0.536789,0.146278-1.154938,0.221176-1.852768,0.221176h-0.543732
		v5.859222h-3.866562V64.89814h4.311584c1.577484,0,2.704712,0.317009,3.38002,0.951027
		C172.270706,66.483124,172.608383,67.460251,172.608383,68.778725"/>
	<path style="fill:#223468;" d="M178.88205,73.91761c0-0.468491-0.103928-0.795975-0.313416-0.980576
		c-0.209534-0.184654-0.529861-0.289154-0.961044-0.313499v3.715118c0.470993-0.024399,0.801712-0.132408,0.992188-0.32222
		c0.188766-0.19162,0.282272-0.546951,0.282272-1.06424V73.91761z M177.60759,70.275635
		c0.498688-0.012169,0.836349-0.132355,1.011246-0.360542c0.174881-0.228134,0.263214-0.60611,0.263214-1.135574
		c0-0.235146-0.008667-0.437187-0.029434-0.609612c-0.020798-0.174187-0.074493-0.320518-0.162796-0.444153
		c-0.088287-0.123688-0.214691-0.215965-0.384399-0.276932c-0.167969-0.062721-0.401718-0.092331-0.69783-0.092331V70.275635z
		 M182.748642,75.06366c-0.02771,1.182663-0.429428,2.100578-1.206909,2.753723
		c-0.777496,0.653152-1.897827,0.980583-3.357513,0.980583h-4.443222v-13.90078h4.39299
		c0.741104,0,1.385269,0.055702,1.932434,0.167168c0.547195,0.109756,0.995651,0.301323,1.345444,0.573044
		c0.351517,0.269966,0.6147,0.630508,0.789581,1.079872c0.174881,0.451111,0.263214,1.015442,0.263214,1.692993
		c0,0.799431-0.178375,1.419518-0.536804,1.856659c-0.356689,0.437187-0.83287,0.736755-1.426804,0.897018v0.054001
		c0.490021,0.111465,0.881378,0.278687,1.173996,0.499855c0.294373,0.22123,0.521225,0.472008,0.685699,0.74894
		c0.162781,0.276978,0.271881,0.562576,0.325531,0.858696c0.05542,0.29612,0.08313,0.573044,0.08313,0.832542L182.748642,75.06366z"
		/>
	<polygon style="fill:#223468;" points="189.589371,72.512711 188.778992,74.860611 187.849136,77.483635 187.849136,78.796898 
		184.205902,78.796898 184.205902,64.897873 187.849136,64.897873 187.849136,71.847389 187.928772,71.847389 188.799759,69.074524 
		189.710556,66.265144 189.710556,64.897873 193.332993,64.897873 193.332993,78.796898 189.710556,78.796898 189.710556,72.512711 
			"/>
	<path style="fill:#223468;" d="M204,73.011505v2.051781c0,0.801186-0.135071,1.45784-0.405197,1.96817
		c-0.270142,0.512085-0.623398,0.912651-1.063217,1.201805c-0.438065,0.290871-0.936752,0.489433-1.497787,0.600899
		c-0.559296,0.111465-1.12207,0.165466-1.690033,0.165466c-0.850189,0-1.561844-0.101044-2.135025-0.304832
		c-0.573135-0.202042-1.031982-0.494652-1.376572-0.877831c-0.34285-0.381416-0.590469-0.837753-0.73764-1.367218
		c-0.148911-0.529518-0.223373-1.126907-0.223373-1.79229v-5.934067c0-0.233398,0.013855-0.498154,0.041534-0.794273
		c0.026001-0.296066,0.093536-0.592178,0.202606-0.888245c0.107376-0.294365,0.256287-0.58522,0.444992-0.869118
		c0.188751-0.282188,0.451965-0.532974,0.789581-0.747231c0.335938-0.215965,0.748062-0.391907,1.234634-0.527763
		c0.484833-0.135864,1.071823-0.203735,1.759262-0.203735c0.715179,0,1.359283,0.07489,1.934174,0.222923
		c0.573135,0.148033,1.061462,0.384941,1.46666,0.712364c0.405151,0.325722,0.715134,0.745476,0.93158,1.255806
		C203.890884,67.396149,204,68.00927,204,68.723389v1.442169h-3.866592v-2.090111c0-0.109711-0.006973-0.226433-0.019089-0.350067
		c-0.01384-0.123688-0.048447-0.235153-0.102142-0.332687c-0.05368-0.099289-0.124649-0.182899-0.213013-0.249077
		c-0.086548-0.067932-0.204285-0.102745-0.353195-0.102745c-0.297836,0-0.490067,0.114914-0.57663,0.343102
		c-0.088303,0.228188-0.131577,0.452873-0.131577,0.674042v7.466858c0,0.111465,0.006912,0.231644,0.020767,0.360542
		c0.0121,0.1306,0.046768,0.247322,0.100403,0.351822c0.05368,0.1045,0.128143,0.191566,0.223358,0.257744
		c0.093536,0.067924,0.214767,0.102798,0.363678,0.102798c0.270081,0,0.451904-0.120178,0.545441-0.360542
		c0.09523-0.240364,0.141998-0.477264,0.141998-0.712364v-2.513367H204z"/>
	<path style="fill:#223468;" d="M38.707512,66.065819c-14.377237,0-26.032436-11.894287-26.032436-26.564941
		c0-14.672411,11.6552-26.566696,26.032436-26.566696c14.377209,0,26.03241,11.894284,26.03241,26.566696
		C64.739922,54.171532,53.084721,66.065819,38.707512,66.065819 M38.707512,0C17.32954,0,0,17.685635,0,39.500877
		S17.32954,79,38.707512,79c21.377945,0,38.707481-17.68388,38.707481-39.499123S60.085457,0,38.707512,0"/>
	<polygon style="fill:#223468;" points="30.938646,38.387524 30.938646,35.048626 21.622793,35.048626 16.764011,35.048626 
		16.764011,38.063602 16.764011,45.155941 16.764011,48.402508 21.622793,48.402508 30.938646,48.402508 30.938646,45.619228 
		21.12583,45.619228 21.12583,38.387524 	"/>
	<polygon style="fill:#223468;" points="60.923893,38.387524 60.923893,35.048626 51.60804,35.048626 46.749256,35.048626 
		46.749256,38.063602 46.749256,45.155941 46.749256,48.402508 51.60804,48.402508 60.923893,48.402508 60.923893,45.619228 
		51.111076,45.619228 51.111076,38.387524 	"/>
	<rect x="35.604183" y="34.864876" style="fill:#223468;" width="6.207688" height="13.491497"/>
	<rect x="33.630196" y="7.058053" style="fill:#FDFEFF;" width="1.090897" height="4.565096"/>
	<rect x="34.721092" y="7.822667" style="fill:#FDFEFF;" width="0.867529" height="3.039322"/>
	<rect x="41.884583" y="7.058053" style="fill:#FDFEFF;" width="1.089153" height="4.565096"/>
	<rect x="41.017078" y="7.822667" style="fill:#FDFEFF;" width="0.867529" height="3.039322"/>
	<polygon style="fill:#FDFEFF;" points="40.35268,11.799406 36.252304,11.799406 35.589123,10.860661 35.589123,7.821285 
		36.252304,7.058424 40.35268,7.058424 41.017582,7.821285 41.017582,10.860661 	"/>
	<rect x="37.688984" y="5.633324" style="fill:#FDFEFF;" width="1.225938" height="1.424729"/>
	<path style="fill:#FDFEFF;" d="M38.366909,6.067695c-1.146309,0-2.077904-0.950971-2.077904-2.121413
		c0-1.168688,0.931595-2.121466,2.077904-2.121466c1.146278,0,2.077877,0.952778,2.077877,2.121466
		C40.444786,5.116724,39.513187,6.067695,38.366909,6.067695 M38.366909,1.269201c-1.445873,0-2.623352,1.201803-2.623352,2.677081
		c0,1.476979,1.177479,2.677027,2.623352,2.677027c1.445847,0,2.623325-1.200048,2.623325-2.677027
		C40.990234,2.471004,39.812756,1.269201,38.366909,1.269201"/>
	<path style="fill:#FDFEFF;" d="M38.751133,3.934748l1.902992-2.102225c0.102146-0.111516,0.095226-0.287401-0.015587-0.391901
		c-0.109097-0.1045-0.282265-0.097537-0.384411,0.01568l-1.873558,2.069163l-1.875305-2.069163
		c-0.100426-0.113217-0.273567-0.12018-0.384407-0.01568c-0.110813,0.1045-0.117733,0.280385-0.015587,0.391901l1.904736,2.102225
		L36.10527,6.037025c-0.102146,0.111516-0.095226,0.287402,0.015587,0.391901c0.051945,0.050549,0.11948,0.074893,0.185295,0.074893
		c0.072712,0,0.145451-0.029606,0.199112-0.090574l1.875305-2.069163l1.873558,2.069163
		c0.053665,0.060967,0.126404,0.090574,0.200859,0.090574c0.065788,0,0.131607-0.024344,0.183552-0.074893
		c0.110813-0.1045,0.117733-0.280385,0.015587-0.391901L38.751133,3.934748z"/>
	<rect x="37.855228" y="3.424792" style="fill:#FDFEFF;" width="1.02162" height="1.043299"/>
	<path style="fill:#223468;" d="M23.021742,34.042587c-0.003489-0.083557-0.012129-0.163712-0.012129-0.247322
		c0-1.543156,0.645878-2.845951,1.411234-2.845951s1.412951,1.302795,1.412951,2.845951
		c0,0.080154-0.010384,0.158504-0.013844,0.236904l1.321188-0.003506c-0.003462-0.07835-0.012129-0.153244-0.012129-0.233398
		c0-1.543156,0.647596-2.845951,1.412952-2.845951s1.411232,1.302795,1.411232,2.845951
		c0,0.076645-0.008665,0.148087-0.010384,0.22298l1.319445-0.005264c-0.003462-0.073139-0.0121-0.142822-0.0121-0.217716
		c0-1.543156,0.647594-2.845951,1.412951-2.845951c0.765354,0,1.411232,1.302795,1.411232,2.845951
		c0,0.071438-0.008667,0.137615-0.010384,0.207298l1.317703-0.00351c-0.00172-0.06963-0.010384-0.134106-0.010384-0.203789
		c0-1.543156,0.645874-2.845951,1.412975-2.845951c0.765354,0,1.411205,1.302795,1.411205,2.845951
		c0,0.066227-0.00692,0.128899-0.010384,0.193371l1.31773-0.00526c-0.003464-0.062668-0.010384-0.123634-0.010384-0.18811
		c0-1.543156,0.645874-2.845951,1.411232-2.845951c0.767075,0,1.412952,1.302795,1.412952,2.845951
		c0,0.060966-0.006924,0.118477-0.010384,0.177692l1.315983-0.00351c-0.00172-0.059212-0.00864-0.114918-0.00864-0.174183
		c0-1.543156,0.645878-2.845951,1.411205-2.845951c0.765358,0,1.412979,1.302795,1.412979,2.845951
		c0,0.055756-0.006924,0.108006-0.008667,0.163765l1.312523-0.00526c-0.00172-0.053951-0.006924-0.1045-0.006924-0.158504
		c0-1.543156,0.645878-2.845951,1.411232-2.845951c0.765358,0,1.411236,1.302795,1.411236,2.845951
		c0,0.050549-0.005207,0.097538-0.006924,0.148087l1.312523-0.00351c-0.001717-0.04874-0.008667-0.095783-0.008667-0.144577
		c0-1.543156,0.647621-2.845951,1.412975-2.845951c0.765358,0,1.411236,1.302795,1.411236,2.845951
		c0,0.045284-0.005207,0.088871-0.006924,0.134159l1.172249-0.00526c0-0.043533,0.00349-0.085312,0.00349-0.128899
		c0-2.380909-1.134205-4.244581-2.580051-4.244581c-0.851936,0-1.59304,0.649643-2.06057,1.668598
		c-0.467533-1.018955-1.208633-1.668598-2.060574-1.668598s-1.59304,0.649643-2.06057,1.668598
		c-0.467506-1.018955-1.208633-1.668598-2.060574-1.668598c-0.851913,0-1.59304,0.649643-2.060543,1.668598
		c-0.467533-1.018955-1.208633-1.668598-2.060574-1.668598s-1.59304,0.649643-2.060574,1.668598
		c-0.465786-1.018955-1.206913-1.668598-2.058826-1.668598c-0.853683,0-1.594784,0.649643-2.060574,1.668598
		c-0.467529-1.018955-1.20863-1.668598-2.06057-1.668598s-1.59304,0.649643-2.060572,1.668598
		c-0.467531-1.018955-1.208633-1.668598-2.060572-1.668598c-0.851913,0-1.593042,0.649643-2.060574,1.668598
		c-0.467505-1.018955-1.208632-1.668598-2.060545-1.668598c-1.445871,0-2.580048,1.863672-2.580048,4.244581
		c0,0.085365,0.005205,0.167221,0.006922,0.250832L23.021742,34.042587z"/>
</g>
</svg>
