<?xml version="1.0" encoding="utf-8"?>
<!-- Generator: Adobe Illustrator 19.1.0, SVG Export Plug-In . SVG Version: 6.00 Build 0)  -->
<svg version="1.0" id="Слой_1" xmlns="http://www.w3.org/2000/svg" xmlns:xlink="http://www.w3.org/1999/xlink" x="0px" y="0px"
	 viewBox="0 0 106.497414 123.441078" style="enable-background:new 0 0 106.497414 123.441078;" xml:space="preserve">
<g>
	<polygon points="98.463417,53.87925 54.405449,31.319201 10.347483,53.87925 10.347483,26.939625 10.347483,0 54.405449,0 
		98.463417,0 98.463417,26.939625 	"/>
	<polyline style="fill:none;stroke:#FFFFFF;stroke-width:0.96;stroke-miterlimit:10;" points="9.940731,-0.647829 
		54.405552,29.83169 98.86869,-0.647829 	"/>
	<path d="M13.264622,81.244438l-2.248342-7.603912l-2.226029,7.603912H13.264622z M14.571698,85.818863H7.42466l-0.994936,3.491608
		H0l7.660818-21.151329h6.867732l7.657346,21.151329h-6.593478L14.571698,85.818863z"/>
	<path d="M30.484045,77.174713h1.543234c1.212151,0,2.063961-0.217239,2.555325-0.655197
		c0.49147-0.437981,0.738049-0.99662,0.738049-1.681152c0-0.662117-0.213848-1.225937-0.641438-1.688042
		c-0.425903-0.462082-1.224255-0.693138-2.403675-0.693138h-1.791494V77.174713z M24.157877,68.158615h10.469561
		c2.27602,0,3.984795,0.562111,5.119278,1.688049c1.13459,1.125931,1.703621,2.72776,1.703621,4.805481
		c0,2.134628-0.619019,3.80368-1.855377,5.005486c-1.237934,1.201813-3.126038,1.803574-5.664104,1.803574h-3.44681v7.848763
		h-6.326168V68.158615z"/>
	<path d="M57.518753,77.811279c2.448402,0.682823,3.669182,2.277756,3.669182,4.789986
		c0,2.069092-0.763828,3.764015-2.296749,5.084785c-1.537975,1.324219-3.701912,1.984612-6.502129,1.984612
		c-4.779568,0-7.750484-2.081169-8.90749-6.246948l5.946991-0.462082c0.336239,1.470779,1.284554,2.207024,2.851891,2.207024
		c0.870754,0,1.531132-0.225883,1.979454-0.677628c0.450005-0.451736,0.674164-1.082832,0.674164-1.889763
		c0-0.779381-0.28278-1.412155-0.848335-1.896683c-0.563877-0.487968-1.33802-0.729362-2.320854-0.729362h-1.710461v-3.781265
		h1.350121c0.805191,0,1.439678-0.217262,1.896629-0.65522c0.456951-0.43795,0.687954-1.044899,0.687954-1.825989
		c0-1.143166-0.691425-1.715614-2.072487-1.715614c-1.427681,0-2.255287,0.656929-2.488075,1.975983l-5.629692-0.677612
		c0.917267-3.665764,3.660553-5.49691,8.229847-5.49691c2.529438,0,4.51405,0.510391,5.950359,1.527687
		c1.43631,1.020744,2.151836,2.391518,2.151836,4.11232C60.130909,75.516319,59.260155,76.973312,57.518753,77.811279"/>
	<polygon points="83.828575,68.158615 83.828575,89.309967 77.909157,89.309967 77.909157,77.695442 70.282852,89.309967 
		64.342812,89.309967 64.342812,68.158615 70.277695,68.158615 70.277695,79.859375 77.940201,68.158615 	"/>
	<path d="M106.763985,89.310112h-6.295227V73.352226h-4.921013v6.507309c0,2.674301-0.136284,4.639938-0.410431,5.893463
		c-0.272362,1.255249-0.913795,2.177727-1.919044,2.763962c-1.005249,0.58625-2.627731,0.879372-4.871017,0.879372
		c-0.686272,0-1.474197-0.077591-2.363899-0.231056v-4.284729h0.946526c0.851814,0,1.455254-0.194847,1.807076-0.584526
		c0.351707-0.389679,0.52935-1.103516,0.52935-2.143234V68.158775h17.497681V89.310112z"/>
	<polygon points="2.93303,100.398232 9.231626,100.398232 9.231626,102.017303 4.812401,102.017303 4.812401,110.048843 
		2.93303,110.048843 	"/>
	<polygon points="10.201831,110.049538 10.201831,100.398933 17.093557,100.398933 17.093557,102.031799 12.077728,102.031799 
		12.077728,104.171585 16.745319,104.171585 16.745319,105.79583 12.077728,105.79583 12.077728,108.423584 17.271202,108.423584 
		17.271202,110.049538 	"/>
	<path d="M20.419132,105.217514c0,1.091438,0.246576,1.920807,0.7311,2.484642
		c0.484522,0.56382,1.103542,0.846603,1.850113,0.846603c0.750044,0,1.362223-0.279335,1.844957-0.839706
		c0.479366-0.560394,0.718998-1.400101,0.718998-2.517403c0-1.10524-0.234474-1.93116-0.700054-2.476028
		c-0.467266-0.544853-1.089653-0.817291-1.863901-0.817291c-0.77067,0-1.396635,0.275887-1.869057,0.82592
		C20.658867,103.276009,20.419132,104.107086,20.419132,105.217514 M18.484615,105.283028
		c0-0.982826,0.143021-1.808731,0.4258-2.476013c0.212162-0.491409,0.501781-0.931099,0.865597-1.322495
		c0.365602-0.391403,0.767302-0.681091,1.20352-0.869019c0.577662-0.255196,1.24667-0.381058,2.001869-0.381058
		c1.372538,0,2.467346,0.441399,3.291582,1.322495c0.820765,0.881088,1.231094,2.108749,1.231094,3.679543
		c0,1.558723-0.406857,2.777763-1.222464,3.65712c-0.817291,0.881096-1.908733,1.32077-3.274323,1.32077
		c-1.381166,0-2.482922-0.43795-3.29674-1.313866C18.894945,108.024582,18.484615,106.819344,18.484615,105.283028"/>
	<path d="M30.845228,102.031799v2.738106h1.029453c0.739626,0,1.234461-0.051727,1.482828-0.153458
		c0.249943-0.098282,0.444847-0.256912,0.587975-0.472443c0.139652-0.21553,0.212059-0.463821,0.212059-0.750046
		c0-0.351753-0.099979-0.641426-0.298252-0.869026c-0.200058-0.229324-0.451794-0.370712-0.756989-0.429344
		c-0.222477-0.043091-0.670692-0.063789-1.350119-0.063789H30.845228z M28.96933,110.049538v-9.650604h3.010487
		c1.14143,0,1.888,0.048286,2.232872,0.144844c0.532829,0.143112,0.979359,0.458649,1.338017,0.943161
		c0.36034,0.484512,0.541458,1.112129,0.541458,1.879425c0,0.59314-0.10524,1.091454-0.310352,1.494926
		c-0.208691,0.405197-0.470737,0.722458-0.791508,0.95179c-0.318981,0.231041-0.64312,0.382782-0.972416,0.456924
		c-0.448318,0.093109-1.098385,0.137924-1.946724,0.137924h-1.225935v3.641609H28.96933z"/>
	<polygon points="37.727905,100.398232 44.026501,100.398232 44.026501,102.017303 39.607273,102.017303 39.607273,110.048843 
		37.727905,110.048843 	"/>
	<polygon points="45.021751,100.398232 46.778728,100.398232 46.778728,106.824509 50.544415,100.398232 52.416943,100.398232 
		52.416943,110.048843 50.659966,110.048843 50.659966,103.750168 46.899437,110.048843 45.021751,110.048843 	"/>
	<polygon points="54.333885,110.049538 54.333885,100.398933 61.225613,100.398933 61.225613,102.031799 56.209782,102.031799 
		56.209782,104.171585 60.877373,104.171585 60.877373,105.79583 56.209782,105.79583 56.209782,108.423584 61.403255,108.423584 
		61.403255,110.049538 	"/>
	<path d="M64.878166,105.843414v2.579475h1.738029c0.677643,0,1.107018-0.018967,1.288033-0.058632
		c0.279305-0.053444,0.506943-0.181038,0.681114-0.384506c0.177536-0.205193,0.263832-0.477615,0.263832-0.819016
		c0-0.291397-0.069038-0.537971-0.201744-0.7397c-0.136284-0.200012-0.332771-0.348305-0.587975-0.439682
		c-0.255203-0.093109-0.812134-0.137939-1.663948-0.137939H64.878166z M64.878166,102.005241v2.231178h1.231094
		c0.731102,0,1.184578-0.010353,1.362221-0.032776c0.324142-0.039642,0.575874-0.155174,0.758675-0.346565
		c0.184486-0.189667,0.277618-0.441414,0.277618-0.753502c0-0.298286-0.081032-0.541405-0.239731-0.727631
		c-0.1586-0.186218-0.391388-0.300011-0.706894-0.337944c-0.186279-0.022423-0.720787-0.032761-1.603539-0.032761H64.878166z
		 M63.00227,100.398232h3.717381c0.732887,0,1.284554,0.031044,1.645004,0.094833
		c0.360336,0.063805,0.684479,0.198303,0.970726,0.398308c0.286255,0.201744,0.522415,0.470726,0.712158,0.806953
		c0.193115,0.336227,0.286148,0.712112,0.286148,1.129379c0,0.451752-0.118919,0.86557-0.351715,1.243179
		c-0.234474,0.379341-0.553452,0.662102-0.955261,0.850052c0.565559,0.1707,1.001778,0.463829,1.306976,0.875923
		c0.303513,0.412086,0.456947,0.896599,0.456947,1.455269c0,0.43795-0.099976,0.863846-0.296562,1.279381
		c-0.194801,0.415543-0.462105,0.746597-0.805191,0.994896c-0.338028,0.248291-0.758675,0.400017-1.258774,0.458649
		c-0.312035,0.032761-1.06723,0.055176-2.265594,0.063789H63.00227V100.398232z"/>
	<path d="M77.831909,106.50103l1.819069,0.598312c-0.279411,1.055252-0.743202,1.836327-1.393272,2.348434
		c-0.646591,0.510376-1.470718,0.767296-2.469131,0.767296c-1.234459,0-2.248337-0.439697-3.045006-1.313881
		c-0.793083-0.875923-1.191414-2.074272-1.191414-3.591606c0-1.606995,0.398331-2.85363,1.196571-3.743347
		c0.80014-0.887993,1.851906-1.33284,3.155403-1.33284c1.13459,0,2.0588,0.348289,2.770859,1.046608
		c0.422432,0.412109,0.739723,1.005241,0.951782,1.77771l-1.860428,0.460373c-0.108604-0.500031-0.337921-0.894882-0.68795-1.184563
		c-0.348343-0.289673-0.774246-0.434509-1.270767-0.434509c-0.691429,0-1.248352,0.256912-1.677734,0.769012
		c-0.429375,0.515556-0.64312,1.346649-0.64312,2.496719c0,1.21904,0.212059,2.088058,0.634491,2.607063
		c0.422432,0.517265,0.970734,0.777626,1.648369,0.777626c0.498314,0,0.927689-0.165527,1.288033-0.494858
		C77.414635,107.726982,77.67321,107.207977,77.831909,106.50103"/>
	<path d="M81.29377,100.398232h1.879372v4.107162c0.415588-0.043106,0.698364-0.155174,0.848335-0.334503
		c0.146599-0.179314,0.375916-0.681068,0.684479-1.501823c0.388016-1.043159,0.78109-1.693199,1.172577-1.948395
		c0.389603-0.253471,1.01725-0.381058,1.884529-0.381058c0.043152,0,0.134499-0.003448,0.274147-0.008621v1.443192
		l-0.267197-0.006889c-0.38623,0-0.665543,0.050003-0.843185,0.148285s-0.324135,0.250008-0.432747,0.451752
		c-0.108711,0.200012-0.274147,0.615547-0.487991,1.243187c-0.115555,0.332779-0.236267,0.612099-0.370758,0.836258
		c-0.132713,0.224144-0.368973,0.434509-0.70858,0.63279c0.418961,0.122421,0.765511,0.370712,1.037979,0.743156
		c0.274147,0.374161,0.572395,0.900063,0.896538,1.579407l1.269081,2.646713h-2.205299l-1.110382-2.493263
		c-0.019051-0.036201-0.053459-0.105171-0.108711-0.205177c-0.022415-0.034492-0.099976-0.187943-0.232689-0.4552
		c-0.243202-0.474167-0.43969-0.769012-0.594917-0.887985c-0.155121-0.118973-0.387909-0.179329-0.705208-0.184494v4.22612H81.29377
		V100.398232z"/>
	<polygon points="89.215584,100.398232 90.972557,100.398232 90.972557,106.824509 94.740036,100.398232 96.612564,100.398232 
		96.612564,110.048843 94.853798,110.048843 94.853798,103.750168 91.094948,110.048843 89.215584,110.048843 	"/>
	<path d="M103.373901,97.994637h0.867279c-0.049988,0.596588-0.251732,1.06559-0.605133,1.405266
		c-0.351814,0.3414-0.808762,0.512093-1.372536,0.512093c-0.56208,0-1.020714-0.170692-1.374214-0.512093
		c-0.351822-0.339676-0.553459-0.808678-0.603554-1.405266h0.867386c0.030937,0.312088,0.136177,0.548309,0.317192,0.708672
		c0.181122,0.160347,0.444847,0.23967,0.79319,0.23967c0.344872,0,0.608604-0.079323,0.79319-0.23967
		C103.237717,98.542946,103.34285,98.306725,103.373901,97.994637 M98.552971,100.398232h1.756981v6.426277l3.767471-6.426277
		h1.870743v9.650612h-1.756973v-6.298676l-3.760536,6.298676h-1.877686V100.398232z"/>
	<path d="M6.38605,119.101494l-0.939685-2.620857l-0.920847,2.620857H6.38605z M8.917274,121.898216H7.420556l-0.593131-1.605278
		H4.106558l-0.563769,1.605278H2.084062l2.653619-7.067688h1.451782L8.917274,121.898216z"/>
	<path d="M11.016386,116.025429v2.007027h0.75341c0.543142,0,0.905272-0.037933,1.088074-0.112076
		c0.182696-0.072418,0.327611-0.187935,0.429273-0.346565c0.103451-0.156914,0.155229-0.3414,0.155229-0.548317
		c0-0.256912-0.070722-0.470726-0.21732-0.637978c-0.146493-0.167252-0.329295-0.270699-0.553455-0.313812
		c-0.165542-0.031029-0.494837-0.048279-0.989674-0.048279H11.016386z M9.642166,121.898216v-7.067688h2.208665
		c0.83634,0,1.381166,0.034492,1.632899,0.106911c0.391386,0.105171,0.717314,0.336227,0.979361,0.691422
		c0.263836,0.355202,0.394859,0.81385,0.394859,1.37767c0,0.431061-0.074089,0.7966-0.227633,1.093178
		c-0.15165,0.294838-0.344765,0.527618-0.577556,0.696594c-0.23279,0.168976-0.469053,0.279327-0.712156,0.336227
		c-0.327612,0.065521-0.803506,0.100006-1.425893,0.100006h-0.898326v2.66568H9.642166z"/>
	<polygon points="15.847203,121.898216 15.847203,114.830528 17.90243,114.830528 19.136995,119.651535 20.359461,114.830528 
		22.421738,114.830528 22.421738,121.898216 21.144022,121.898216 21.144022,116.3358 19.793901,121.898216 18.469776,121.898216 
		17.123129,116.3358 17.123129,121.898216 	"/>
	<path d="M27.396103,119.101494l-0.939686-2.620857l-0.920847,2.620857H27.396103z M29.927326,121.898216h-1.496717
		l-0.593132-1.605278H25.11661l-0.563768,1.605278h-1.458727l2.653618-7.067688h1.451782L29.927326,121.898216z"/>
	<polygon points="31.712824,121.898216 31.712824,116.025429 29.693695,116.025429 29.693695,114.830528 35.102592,114.830528 
		35.102592,116.025429 33.087044,116.025429 33.087044,121.898216 	"/>
	<path d="M35.298759,114.830185h1.536289l1.589752,3.669212l1.355278-3.669212H41.2146l-2.298435,5.37104
		c-0.24826,0.582794-0.506939,1.025932-0.765514,1.327667c-0.260361,0.303467-0.596603,0.456924-1.007038,0.456924
		c-0.408646,0-0.725838-0.027588-0.951786-0.082764v-1.060402c0.193115,0.012062,0.369076,0.020676,0.527672,0.020676
		c0.317295,0,0.548298-0.062065,0.684479-0.182762c0.13797-0.118973,0.270782-0.379333,0.398331-0.777641L35.298759,114.830185z"/>
	<path d="M43.282349,116.025429v2.007027h0.75341c0.544933,0,0.905273-0.037933,1.088074-0.112076
		c0.184486-0.072418,0.32761-0.187935,0.429272-0.346565c0.103451-0.156914,0.155231-0.3414,0.155231-0.548317
		c0-0.256912-0.070721-0.470726-0.217319-0.637978c-0.146496-0.167252-0.329296-0.270699-0.553459-0.313812
		c-0.165539-0.031029-0.494835-0.048279-0.989674-0.048279H43.282349z M41.908131,121.898216v-7.067688h2.208664
		c0.836342,0,1.381165,0.034492,1.6329,0.106911c0.391384,0.105171,0.718998,0.336227,0.979359,0.691422
		c0.263836,0.355202,0.394859,0.81385,0.394859,1.37767c0,0.431061-0.074089,0.7966-0.227634,1.093178
		c-0.151649,0.294838-0.344765,0.527618-0.577553,0.696594c-0.232792,0.168976-0.470737,0.279327-0.712158,0.336227
		c-0.32761,0.065521-0.803505,0.100006-1.42421,0.100006h-0.900009v2.66568H41.908131z"/>
	<polygon points="48.256504,121.898216 48.256504,114.830528 49.630722,114.830528 49.630722,117.61174 52.323914,117.61174 
		52.323914,114.830528 53.699921,114.830528 53.699921,121.898216 52.323914,121.898216 52.323914,118.808365 49.630722,118.808365 
		49.630722,121.898216 	"/>
	<path d="M61.634361,114.830185h1.374222v7.067703h-1.374222V114.830185z M56.532341,120.711601h1.34486
		c0.425903,0,0.724152-0.022423,0.891483-0.063805c0.1707-0.043098,0.320667-0.143112,0.451691-0.296562
		c0.132812-0.155182,0.198273-0.343124,0.198273-0.565559c0-0.313812-0.108608-0.550041-0.32235-0.708656
		c-0.21553-0.156914-0.60355-0.234505-1.163952-0.234505h-1.400005V120.711601z M55.158123,114.830185h1.374218v2.826057h1.841484
		c0.482735,0,0.900013,0.06723,1.246567,0.205177c0.348343,0.136215,0.637962,0.381058,0.87254,0.732811
		c0.229321,0.350014,0.34824,0.755211,0.34824,1.212135c0,0.47934-0.122395,0.891449-0.363815,1.23629
		c-0.239628,0.344841-0.51041,0.574173-0.806976,0.687981c-0.294777,0.112061-0.727627,0.167252-1.296555,0.167252h-3.215702
		V114.830185z"/>
	<path d="M67.981369,113.071457h0.637962c-0.037994,0.436234-0.186272,0.78109-0.444847,1.029381
		c-0.258682,0.248283-0.593239,0.374161-1.003571,0.374161c-0.412117,0-0.746567-0.125877-1.005249-0.374161
		c-0.258568-0.248291-0.406853-0.593147-0.444847-1.029381h0.637962c0.020737,0.227608,0.098297,0.401756,0.229317,0.517281
		c0.134499,0.118973,0.327614,0.175873,0.582817,0.175873c0.253525,0,0.44664-0.0569,0.581032-0.175873
		C67.883072,113.473213,67.96064,113.299065,67.981369,113.071457 M64.451843,114.830185h1.287918v4.705475l2.758858-4.705475
		h1.37075v7.067703h-1.288033v-4.61409l-2.75528,4.61409h-1.374214V114.830185z"/>
	<path d="M74.883514,116.758583l-1.33802-0.322426c0.286148-1.15007,1.105232-1.725975,2.455246-1.725975
		c0.798347,0,1.401894,0.182777,1.810539,0.548317c0.40686,0.363815,0.608604,0.793152,0.608604,1.284554
		c0,0.336243-0.089668,0.641426-0.275833,0.91214c-0.187958,0.272423-0.467262,0.510376-0.838028,0.717285
		c0.451797,0.160347,0.789719,0.38623,1.017357,0.681076c0.227524,0.293114,0.339607,0.655205,0.339607,1.086266
		c0,0.620735-0.219002,1.12249-0.656906,1.505272c-0.438011,0.382782-1.094917,0.574173-1.969139,0.574173
		c-0.712051,0-1.272453-0.124138-1.68457-0.36898c-0.412125-0.246574-0.722473-0.706947-0.927582-1.381126l1.256981-0.429337
		c0.13102,0.424164,0.305191,0.700043,0.518936,0.824196c0.213844,0.12587,0.47937,0.187935,0.796661,0.187935
		c0.432747,0,0.750046-0.096558,0.948318-0.291397c0.196587-0.194839,0.294777-0.417267,0.294777-0.669014
		c0-0.287949-0.112083-0.520706-0.33445-0.698318c-0.224167-0.177589-0.563881-0.265526-1.015564-0.265526h-0.310356v-1.065582
		h0.155128c0.424217,0,0.743202-0.096558,0.967361-0.293129c0.224159-0.196564,0.332764-0.4552,0.332764-0.781075
		c0-0.25692-0.089661-0.474174-0.270782-0.65004c-0.179222-0.177605-0.441376-0.265549-0.777611-0.265549
		C75.412766,115.872322,75.042107,116.167175,74.883514,116.758583"/>
	<path d="M83.480858,119.101494l-0.939682-2.620857l-0.920845,2.620857H83.480858z M86.012085,121.898216h-1.496719
		l-0.593132-1.605278h-2.722549l-0.562088,1.605278h-1.458725l2.653618-7.067688h1.451782L86.012085,121.898216z"/>
	<path d="M88.12056,118.81665v1.889778h1.272453c0.494843,0,0.808662-0.013802,0.943161-0.043106
		c0.205215-0.037941,0.368973-0.132767,0.499992-0.281059c0.127655-0.150009,0.193115-0.350014,0.193115-0.600037
		c0-0.212082-0.049988-0.39312-0.149963-0.53968c-0.098297-0.148285-0.243103-0.255196-0.429382-0.324165
		c-0.186165-0.067253-0.593132-0.10173-1.218987-0.10173H88.12056z M88.12056,116.007858v1.634583h0.901695
		c0.536301,0,0.869072-0.008614,0.998413-0.025864c0.234474-0.027588,0.420639-0.1138,0.553452-0.253471
		c0.134499-0.137924,0.20343-0.322426,0.20343-0.550034c0-0.218979-0.060303-0.396568-0.174065-0.532791
		c-0.115555-0.137939-0.289726-0.220695-0.517365-0.250008c-0.136177-0.015526-0.527565-0.022415-1.175941-0.022415H88.12056z
		 M86.746346,114.830185h2.720757c0.537987,0,0.939789,0.024155,1.203522,0.070694
		c0.268997,0.046555,0.505257,0.144836,0.712158,0.291412c0.208687,0.148277,0.382759,0.344841,0.5242,0.591408
		c0.139648,0.24485,0.206902,0.520721,0.206902,0.82592c0,0.331055-0.082825,0.634514-0.256889,0.9104
		c-0.172493,0.277596-0.405281,0.484512-0.696587,0.622452c0.413803,0.12587,0.730995,0.339676,0.953476,0.641426
		c0.224159,0.303459,0.336243,0.656929,0.336243,1.065575c0,0.320709-0.074196,0.634529-0.217323,0.936264
		c-0.143021,0.305199-0.339607,0.548317-0.587975,0.72937c-0.251732,0.181038-0.556931,0.293114-0.92411,0.334503
		c-0.229317,0.02758-0.78109,0.043091-1.656998,0.048279h-2.317375V114.830185z"/>
	<path d="M94.509666,118.360054c0,0.800064,0.179329,1.405266,0.534508,1.819084
		c0.356873,0.412102,0.808662,0.619003,1.356964,0.619003c0.546616,0,0.998299-0.205177,1.348328-0.613823
		c0.351822-0.41037,0.525887-1.0242,0.525887-1.84494c0-0.810402-0.1707-1.412163-0.5121-1.810463
		c-0.343079-0.400032-0.796555-0.600044-1.362114-0.600044c-0.567245,0-1.024193,0.203461-1.369064,0.605209
		C94.683838,116.939278,94.509666,117.546211,94.509666,118.360054 M93.094086,118.408333
		c0-0.719009,0.103447-1.324219,0.310349-1.813896c0.156914-0.358643,0.36718-0.682808,0.634491-0.967308
		c0.268997-0.287949,0.560402-0.498299,0.881065-0.636246c0.422432-0.187943,0.910431-0.281052,1.467361-0.281052
		c1.001778,0,1.805283,0.324165,2.408722,0.969032c0.600082,0.644859,0.901802,1.544922,0.901802,2.694992
		c0,1.141457-0.300041,2.034615-0.896538,2.677757c-0.596603,0.644867-1.396637,0.9673-2.395042,0.9673
		c-1.013878,0-1.819069-0.320709-2.415672-0.962128C93.392334,120.415359,93.094086,119.532547,93.094086,118.408333"/>
	<path d="M102.502304,116.016472c0,2.148415-0.186279,3.712303-0.562088,4.695129h2.588058v-4.695129H102.502304z
		 M101.193649,114.830185h4.702003v5.881416h0.601761v2.729477h-1.143219v-1.54319h-4.2882v1.54319h-1.141434v-2.729477h0.575874
		c0.282776-0.603485,0.465576-1.305252,0.556931-2.103584c0.089661-0.798325,0.136284-1.808731,0.136284-3.029495V114.830185z"/>
</g>
</svg>
