<?xml version="1.0" encoding="utf-8"?>
<!-- Generator: Adobe Illustrator 19.1.0, SVG Export Plug-In . SVG Version: 6.00 Build 0)  -->
<svg version="1.0" id="Слой_1" xmlns="http://www.w3.org/2000/svg" xmlns:xlink="http://www.w3.org/1999/xlink" x="0px" y="0px"
	 viewBox="0 0 178.213364 39.009407" style="enable-background:new 0 0 178.213364 39.009407;" xml:space="preserve">
<g>
	<path style="fill:#E30613;" d="M26.912052,23.841211v-6.51939c-1.112146,1.324232-2.151863,2.56222-3.213995,3.826096
		C24.786053,22.060028,25.811981,22.918732,26.912052,23.841211 M21.949684,0
		c0.693136,0.151756,1.386271,0.296618,2.077696,0.458687c2.558798,0.598288,4.893435,1.682835,7.090103,3.282952
		c-3.874372,4.615813-7.729776,9.207474-11.640379,13.864697c0.653486,0.550035,1.282846,1.07934,1.969088,1.657
		c2.782932-3.307104,5.545185-6.588373,8.397076-9.976512V30.11055c-2.698452-2.257023-5.34515-4.470951-8.029816-6.719397
		c-3.098467,3.686441-6.165915,7.336679-9.238519,10.993811C17.39249,36.95755,25.537832,36.945446,31.308887,31.152
		c3.222622-3.236435,4.869282-7.176294,4.858917-11.757641c-0.008606-4.581347-1.741482-8.46948-4.941689-11.771427
		c0.624176-0.744886,1.227673-1.462148,1.865639-2.222557c1.288025,1.222464,2.344975,2.546695,3.219173,4.015789
		c7.136646,11.999009-0.068981,27.205143-13.897427,29.332878c-0.608679,0.094822-1.219044,0.174122-1.829433,0.260365h-2.046675
		c-0.118975-0.037937-0.236237-0.093136-0.358658-0.110344c-0.824184-0.11729-1.656998-0.187958-2.47429-0.348343
		c-2.772593-0.54314-5.289978-1.677677-7.629799-3.381245c3.829567-4.55546,7.641875-9.088501,11.486939-13.664639
		c-0.667273-0.560402-1.300079-1.091442-1.969088-1.65358c-2.72947,3.250223-5.426211,6.45735-8.209144,9.767876V8.772991
		c0.860414,0.718998,1.627689,1.389743,2.426012,2.019076c0.344844,0.270729,0.484523,0.553508,0.481076,1.000093
		c-0.020705,3.032955-0.01034,6.064175-0.01034,9.09713v0.737993c4.869257-5.79697,9.616119-11.449026,14.375032-17.113184
		c-5.229624-2.682928-13.133572-2.35879-18.70462,3.138143c-2.755359,2.717394-4.412358,6.008976-4.841683,9.852329
		c-0.587974,5.267563,1.077655,9.809235,4.720974,13.661219c-0.639699,0.755199-1.24317,1.469042-1.86219,2.201876
		c-0.12413-0.110344-0.200008-0.167278-0.263809-0.232788c-2.707054-2.767437-4.47958-6.036602-5.250329-9.833387
		C0.270703,22.401426,0.150019,21.491051,0,20.585831v-2.276018c0.070695-0.400017,0.158649-0.796612,0.206928-1.200102
		C1.179395,8.969579,7.236676,2.258812,15.264754,0.439691C15.937209,0.286252,16.613138,0.146599,17.287304,0H21.949684z"/>
	<path style="fill:#0064AD;" d="M160.75708,16.181549c1.68631,0,3.37262,0.003473,5.058945-0.001736
		c1.00351-0.00342,2.013916,0.039675,3.010544-0.044779c1.260406-0.10866,2.239792-0.731101,2.694977-1.957038
		c0.458664-1.234567,0.268997-2.398413-0.618988-3.393349c-0.72937-0.820712-1.707016-1.098334-2.76741-1.098334
		c-5.077927-0.006893-10.157562,0.001737-15.235443-0.01205c-0.489716-0.001737-0.667313,0.139653-0.658676,0.644856
		c0.024124,1.705304,0.006897,3.410555,0.010345,5.115859c0,0.739676,0.006882,0.744834,0.774185,0.744834
		C155.603302,16.181549,158.179337,16.179813,160.75708,16.181549 M178.213364,14.671097
		c-0.144852,0.467318-0.277618,0.936317-0.434525,1.398373c-1.25351,3.698544-3.891617,5.771082-7.674606,6.429724
		c-1.000076,0.174171-2.036346,0.201746-3.057114,0.206902c-4.660614,0.020733-9.322998,0.008631-13.985352,0.008631
		c-0.80867,0-0.812134,0.003471-0.812134,0.8225c0,3.791576,0,7.581467,0,11.371412c0,0.796558-0.001709,0.796558-0.819,0.796558
		c-1.705276,0.001736-3.412292-0.013786-5.117569,0.010365c-0.477615,0.006893-0.612106-0.160332-0.612106-0.622437
		c0.010345-10.4231,0.010345-20.846142-0.00174-31.269239c0-0.500046,0.151733-0.644856,0.65004-0.644856
		c7.276337,0.015523,14.554398-0.036202,21.830719,0.03273c3.882996,0.037939,7.046982,1.572544,8.93158,5.133119
		c0.5121,0.968994,0.741425,2.089797,1.101807,3.141562V14.671097z"/>
	<path style="fill:#0064AD;" d="M128.691254,22.71562c-2.615685,0-5.231361-0.008631-7.847038,0.005156
		c-1.313896,0.005209-2.177727,0.631071-2.632942,1.857008c-0.286224,0.767302-0.339661,1.548391-0.144836,2.346739
		c0.356918,1.453518,1.356987,2.281176,2.85363,2.284595c5.288269,0.008631,10.57653-0.001682,15.864799,0.012104
		c0.470718,0.001682,0.622467-0.148283,0.615555-0.61902c-0.020691-1.724247-0.032761-3.450232,0.005173-5.174479
		c0.013794-0.598288-0.201736-0.727627-0.753479-0.724154C133.998489,22.727669,131.344879,22.713882,128.691254,22.71562
		 M143.892227,23.57427c0,3.789944,0,7.58152,0,11.371412c0,0.756989-0.003464,0.76041-0.746613,0.76041
		c-7.164246,0-14.328491,0.003471-21.492737-0.00174c-2.343246-0.003418-4.57959-0.444847-6.488342-1.889736
		c-2.908806-2.201876-3.926102-5.241724-3.648506-8.769518c0.174149-2.22945,0.987991-4.233055,2.484634-5.92452
		c1.969109-2.227766,4.524437-2.957077,7.405663-2.941555c5.039955,0.027573,10.081665,0.00342,15.123367,0.001684
		c0.862122,0,0.889694-0.00342,0.850037-0.87591c-0.039642-0.86728-0.084473-1.743191-0.229309-2.596684
		c-0.236237-1.38285-1.0811-2.322587-2.439819-2.626046c-1.0811-0.239683-2.207047-0.375916-3.31572-0.382809
		c-6.045227-0.036202-12.09214-0.017207-18.137375-0.017207c-0.915558,0-0.915558-0.001737-0.915558-0.936265
		c0-1.648422,0.012077-3.296791-0.008629-4.946897c-0.005157-0.467264,0.148285-0.618967,0.619019-0.617284
		c7.240097,0.012103,14.480217-0.006893,21.720345,0.022416c2.432907,0.00863,4.696854,0.6156,6.514206,2.363946
		c1.563889,1.500087,2.298401,3.403662,2.56221,5.50551c0.103455,0.824237,0.132767,1.662208,0.136215,2.493286
		C143.900833,16.903179,143.892227,20.237856,143.892227,23.57427"/>
	<path style="fill:#0064AD;" d="M84.705193,32.900032c0,0.732838-0.022415,1.465622,0.008606,2.19672
		c0.018967,0.470737-0.146553,0.624176-0.617287,0.619022c-1.743217-0.024155-3.488144-0.031048-5.231361,0.001682
		c-0.551743,0.010365-0.663826-0.203426-0.662117-0.696583c0.013817-3.846773,0.008636-7.6936,0.008636-11.540373
		c0-6.500393-0.00174-13.000838,0-19.499495c0-0.789719,0.001709-0.791455,0.775902-0.791455
		c1.68631-0.001737,3.372643,0.018996,5.058952-0.01205c0.537956-0.010366,0.691422,0.175856,0.667274,0.684532
		c-0.034492,0.710368-0.008606,1.424209-0.008606,2.274282c0.310349-0.256943,0.505203-0.422484,0.705208-0.581081
		c1.674232-1.34149,3.650215-1.907048,5.729675-2.122579c1.467331-0.151703,2.948448-0.222424,4.422699-0.231054
		c4.81237-0.027573,9.626457-0.00342,14.440567-0.0241c0.560371-0.003473,0.760384,0.131024,0.748306,0.722418
		c-0.03791,1.705304-0.012047,3.410608-0.013786,5.11586c-0.001709,0.74315-0.00518,0.748306-0.772461,0.74315
		c-4.338219-0.024153-8.678146-0.099977-13.018066-0.056882c-2.550171,0.024153-5.050323,0.465528-7.391853,1.567334
		c-3.012253,1.417316-4.55201,3.843354-4.80719,7.107364c-0.156914,1.991503,0.048279,3.945066,0.975914,5.755505
		c1.374214,2.679508,3.73127,4.031313,6.552139,4.608921c1.472519,0.300037,3.003647,0.437954,4.508919,0.450058
		c4.395096,0.034466,8.791931-0.031046,13.187035-0.055199c0.760384-0.003473,0.763855,0,0.765564,0.750042
		c0.00174,1.724249-0.013786,3.450232,0.008629,5.172743c0.006897,0.482788-0.122421,0.660378-0.637985,0.658642
		c-5.115837-0.020679-10.231667,0.001736-15.349236-0.029308c-1.303528-0.008579-2.613976-0.099979-3.908867-0.260365
		C88.615768,35.148479,86.525993,34.465683,84.705193,32.900032"/>
	<path style="fill:#0064AD;" d="M76.645729,19.445927c0,5.174479,0,10.347219,0,15.519962
		c0,0.737991-0.003479,0.739727-0.758675,0.739727c-7.598755,0-15.197533,0.006893-22.796288-0.001736
		c-4.698559-0.006893-8.200512-3.031219-8.909172-7.67634c-0.062092-0.408646-0.060352-0.831078-0.060352-1.246616
		c-0.003448-7.600517-0.00174-15.199244-0.00174-22.798023c0-0.791402,0.00174-0.793139,0.819031-0.793139
		c1.667339-0.001736,3.334702,0.02068,5.002041-0.012102c0.558666-0.01205,0.698318,0.177644,0.698318,0.713841
		c-0.015522,7.069424-0.010342,14.137112-0.010342,21.206535c0,0.263836-0.006893,0.531092,0.012077,0.794874
		c0.134472,1.89842,1.405239,3.153666,3.313999,3.212284c1.36388,0.041359,2.729469,0.015524,4.093349,0.01726
		c3.733009,0,7.465992,0,11.20071,0c0.903511,0,0.903511-0.001736,0.903511-0.882856
		c0.001709-8.072884,0-16.145821,0.001709-24.218758c0-0.831078,0-0.831078,0.841446-0.831078
		c1.591484-0.001736,3.182945,0,4.774437,0c0.874199,0,0.875938,0,0.875938,0.850021
		C76.645729,9.174639,76.645729,14.311125,76.645729,19.445927"/>
</g>
</svg>
