<?xml version="1.0" encoding="utf-8"?>
<!-- Generator: Adobe Illustrator 19.1.0, SVG Export Plug-In . SVG Version: 6.00 Build 0)  -->
<svg version="1.0" id="Слой_1" xmlns="http://www.w3.org/2000/svg" xmlns:xlink="http://www.w3.org/1999/xlink" x="0px" y="0px"
	 viewBox="0 0 208 58" style="enable-background:new 0 0 208 58;" xml:space="preserve">
<g>
	<polygon points="4.349316,46.547256 4.349316,37.12191 16.956781,37.12191 16.956781,46.547256 20.545509,46.547256 
		20.545509,24.6775 16.956781,24.6775 16.956781,33.533554 4.349316,33.533554 4.349316,24.6775 0.760962,24.6775 
		0.760962,46.547256 	"/>
	<polygon style="fill:#E6AA1C;" points="35.534378,1.600757 44.197384,1.600757 45.306355,0 36.646454,0 	"/>
	<polygon style="fill:#E6AA1C;" points="44.051514,5.430793 52.715984,5.430793 53.823303,3.829325 45.16082,3.829325 	"/>
	<polygon style="fill:#E6AA1C;" points="20.379869,9.005594 29.037037,9.005594 30.147654,7.403752 21.490299,7.403752 	"/>
	<polygon points="54.098083,46.547256 64.779388,29.855267 64.779388,46.547256 68.365166,46.547256 68.365166,24.6775 
		63.83202,24.6775 52.732422,42.026169 52.732422,24.6775 49.146988,24.6775 49.18338,46.547256 	"/>
	<polygon style="fill:#BD1B18;" points="46.197788,49.889545 37.586712,36.431946 47.296349,21.298292 68.364822,21.298292 
		68.364822,17.704433 44.247482,17.687248 34.92083,32.265537 25.734621,17.908825 25.594217,17.687248 0.764069,17.687248 
		0.764069,21.275602 22.199284,21.275602 32.089348,36.691185 23.632042,49.910736 0.760962,49.910736 0.763508,53.497631 
		26.637737,53.497631 34.754852,40.845913 42.872681,53.499092 46.300152,53.499092 46.300152,53.497631 68.36808,53.480446 
		68.36808,49.889545 	"/>
	<polygon points="18.722466,17.687248 20.548243,17.687248 20.548243,14.186318 28.678539,14.186318 28.678539,22.509623 
		30.504168,25.362673 30.506151,14.528155 30.506525,14.528155 30.506525,7.006689 39.640469,7.006689 39.640469,24.888443 
		41.465347,22.035769 41.465347,10.595043 49.128716,10.595043 49.128716,17.690542 50.955242,17.692003 50.955242,7.006689 
		50.044262,7.006689 49.128716,7.006689 41.465347,7.006689 41.465347,4.956939 41.465347,3.417586 28.681459,3.417586 
		28.681459,6.050181 28.681459,7.006689 28.681459,10.604179 28.678539,10.598338 20.548243,10.598338 20.548243,10.595043 
		18.722466,10.595043 18.722466,10.598338 18.721716,10.598338 18.721716,14.186318 18.722466,14.186318 	"/>
	<g>
		<g>
			<g>
				<path style="fill:#010202;" d="M90.772301,17.687248v15.835938h-3.61969v-6.4027h-4.52504v6.4027h-3.61969V17.687248h3.61969
					v5.950026h4.52504v-5.950026H90.772301z"/>
				<path style="fill:#010202;" d="M99.007729,31.102144c0.814224,0,1.605972-0.361969,1.94548-0.85957l3.30265-0.022041
					c-0.746399,2.375265-2.737228,3.619692-5.293907,3.619692c-3.755318,0-6.153473-2.601601-6.153473-5.972914
					c0-3.370468,2.488853-5.972067,6.063622-5.972067c3.30265,0,5.700798,2.555824,5.700798,5.972067
					c0,0.475561-0.045349,0.927385-0.135628,1.357172h-8.076912C96.768097,30.559614,97.831123,31.102144,99.007729,31.102144z
					 M101.202011,26.645771c-0.361969-1.289356-1.357597-1.742029-2.352798-1.742029
					c-1.266891,0-2.148926,0.611193-2.510895,1.742029H101.202011z"/>
				<path style="fill:#010202;" d="M114.663109,33.658817v4.389404h-3.303078v-4.389404
					c-3.461594-0.54253-5.474884-2.872866-5.474884-5.791506s2.01329-5.248129,5.474884-5.791506v-4.388557h3.303078v4.388557
					c3.461166,0.543377,5.474464,2.872864,5.474464,5.791506S118.124275,33.116287,114.663109,33.658817z M111.360031,30.423983
					v-5.113344c-1.402519,0.384857-2.126457,1.312244-2.126457,2.556673
					C109.233574,29.111738,109.957512,30.039125,111.360031,30.423983z M116.789574,27.867311
					c0-1.244429-0.723946-2.171816-2.126465-2.556673v5.113344C116.065628,30.039125,116.789574,29.111738,116.789574,27.867311z"/>
				<path style="fill:#010202;" d="M130.318481,25.378454h-2.918213v8.144732h-3.393356v-8.144732h-2.963997v-3.167017h6.357353
					h2.918213V25.378454z"/>
			</g>
			<g>
				<path style="fill:#010202;" d="M137.423508,31.102144c0.814209,0,1.605972-0.361969,1.945892-0.85957l3.302658-0.022041
					c-0.746826,2.375265-2.737228,3.619692-5.2939,3.619692c-3.755325,0-6.153488-2.601601-6.153488-5.972914
					c0-3.370468,2.488861-5.972067,6.062775-5.972067c3.303497,0,5.701645,2.555824,5.701645,5.972067
					c0,0.475561-0.045761,0.927385-0.136047,1.357172h-8.076492C135.183868,30.559614,136.247314,31.102144,137.423508,31.102144z
					 M139.617783,26.645771c-0.361969-1.289356-1.357178-1.742029-2.352371-1.742029
					c-1.267319,0-2.14978,0.611193-2.511749,1.742029H139.617783z"/>
			</g>
			<g>
				<path style="fill:#010202;" d="M152.423187,33.523186l-2.555832-4.502151l-2.556671,4.502151h-4.117294l4.614899-8.121843
					l-4.388565-7.714094h4.117294l2.330338,4.094404l2.32991-4.094404h4.117722l-4.389404,7.714094l4.615311,8.121843H152.423187z"
					/>
			</g>
			<g>
				<path style="fill:#010202;" d="M167.26561,22.211437v11.311749h-3.30307v-5.882212l-4.162643,5.882212h-2.488861V22.211437
					h3.303497v5.88221l4.162216-5.88221H167.26561z"/>
				<path style="fill:#010202;" d="M182.197052,33.523186h-3.257721V27.16626l-2.104004,4.297853h-1.719147l-2.103989-4.297853
					v6.356926h-3.257721V22.211437h3.257721h0.271255l2.692307,5.452425l2.692307-5.452425h3.528992V33.523186z"/>
			</g>
		</g>
		<g>
			<path style="fill:#010202;" d="M87.378517,44.652073l-5.655869,8.822891h-2.714767V37.639027h3.61969v8.822891l5.655869-8.822891
				h2.714775v15.835938h-3.619698V44.652073z"/>
			<path style="fill:#010202;" d="M103.554382,42.163216v11.311749h-3.393349v-4.072365h-3.167442v4.072365h-3.393356V42.163216
				h3.393356v4.072365h3.167442v-4.072365H103.554382z"/>
			<path style="fill:#010202;" d="M118.237022,53.474964l-3.076736-4.90905v4.90905h-3.303078v-4.90905l-3.076736,4.90905h-3.755325
				l3.755325-5.655876l-3.528984-5.655872h3.755325l2.850395,4.841232v-4.841232h3.303078v4.841232l2.850403-4.841232h3.755745
				l-3.529411,5.655872l3.755325,5.655876H118.237022z"/>
			<path style="fill:#010202;" d="M133.417679,42.163216v11.311749h-3.302643v-5.882214l-4.162643,5.882214h-2.488861V42.163216
				h3.303078v5.88221l4.162651-5.88221H133.417679z"/>
			<path style="fill:#010202;" d="M145.860687,42.163216v11.311749h-3.393356v-4.072365h-3.167007v4.072365h-3.393784V42.163216
				h3.393784v4.072365h3.167007v-4.072365H145.860687z"/>
			<path style="fill:#010202;" d="M158.303696,42.163216v11.311749h-3.302643v-5.882214l-4.162643,5.882214h-2.488861V42.163216
				h3.30307v5.88221l4.162643-5.88221H158.303696z"/>
			<path style="fill:#010202;" d="M172.963867,47.819088c0,3.371315-2.443085,5.972916-5.406647,5.972916
				c-1.516113,0-2.624481-0.520489-3.370895-1.380062V58h-3.393768V42.163216h3.393768v1.063866
				c0.746414-0.860416,1.854782-1.380058,3.370895-1.380058C170.520782,41.847023,172.963867,44.448624,172.963867,47.819088z
				 M169.570511,47.819088c0-1.696251-1.131256-2.76012-2.692307-2.76012c-1.561035,0-2.691879,1.063869-2.691879,2.76012
				c0,1.697102,1.130844,2.76012,2.691879,2.76012C168.439255,50.579208,169.570511,49.51619,169.570511,47.819088z"/>
			<path style="fill:#010202;" d="M184.841461,42.163216v11.311749h-3.30307v-5.882214l-4.162659,5.882214h-2.488419V42.163216
				h3.30307v5.88221l4.162643-5.88221H184.841461z"/>
			<path style="fill:#010202;" d="M197.28447,42.163216v11.311749h-3.393356v-4.072365h-3.16745v4.072365h-3.393356V42.163216
				h3.393356v4.072365h3.16745v-4.072365H197.28447z"/>
			<path style="fill:#010202;" d="M207.239044,45.420937h-4.072372v8.054028h-3.393356V42.163216h7.465729V45.420937z"/>
		</g>
	</g>
</g>
</svg>
