<?xml version="1.0" encoding="utf-8"?>
<!-- Generator: Adobe Illustrator 19.1.0, SVG Export Plug-In . SVG Version: 6.00 Build 0)  -->
<svg version="1.0" id="Слой_1" xmlns="http://www.w3.org/2000/svg" xmlns:xlink="http://www.w3.org/1999/xlink" x="0px" y="0px"
	 viewBox="0 0 123.145859 128.125534" style="enable-background:new 0 0 123.145859 128.125534;" xml:space="preserve">
<g>
	<path style="fill:#29347C;" d="M75.487694,43.494144c0-4.002003-0.334503-7.836727,0.084457-11.585207
		c0.51899-4.626179-3.75885-7.466019-7.572891-7.41082c-7.174561,0.103449-14.350906,0.048252-21.525463,0.025835
		c-4.139919-0.013786-7.648769,3.257116-7.660873,7.340153c-0.041359,12.626659-0.046516,25.253319-0.034466,37.879974
		c0.001736,2.789856,3.386402,6.091751,6.203827,6.09864c9.083344,0.022415,18.168423,0.015526,27.253448,0.031044
		c0.789719,0.00174,1.579437,0.077614,2.457085,0.122452c0.07756,1.4673,0.148285,2.772591,0.213799,4.014046h11.011017
		c0-4.103714,0.010368-7.997055-0.003418-11.89045c-0.012108-3.398453-0.456955-3.864037-3.977852-3.870926
		c-8.721268-0.018944-17.440742,0.005211-26.16201,0.013786c-3.343307,0.003471-4.910641-1.491459-4.915798-4.862339
		c-0.008629-6.265919,0.036201-12.533573,0.082718-18.801228c0.020733-2.643253,1.329441-3.920918,4.026154-3.991585
		c1.000042-0.025887,1.998398-0.006947,2.99844-0.005207c5.284821,0.008629,6.667671-1.215572,6.591789,6.305592
		c-0.001678,0.153439,0.134499,0.308617,0.265572,0.586239H75.487694z M98.297768,46.901226
		c-0.003471,13.80608,0.005157,27.61211-0.008629,41.418186c-0.005211,3.63472-1.029404,4.722687-4.591713,4.726158
		c-21.344452,0.025833-42.688904,0.031044-64.033356,0.008629c-3.570889-0.005211-4.810612-1.334595-4.810612-4.891701
		c-0.008629-27.431042-0.012102-54.86208-0.010366-82.291443c0.001738-4.350293,1.496666-5.869323,5.745193-5.869323
		C51.296509,0,72.006416-0.001736,92.714645,0.003473c4.069199,0.001684,5.579651,1.475934,5.583122,5.47962
		C98.308083,19.289173,98.301186,33.0952,98.297768,46.901226"/>
	<path style="fill:#FFFFFF;" d="M75.487381,43.494827h-10.66452c-0.129288-0.277569-0.267258-0.432743-0.265518-0.586235
		c0.075874-7.521168-1.305237-6.298649-6.591793-6.305542c-0.998356-0.00174-1.998398-0.022419-2.996754,0.003418
		c-2.698452,0.070721-4.00716,1.348385-4.02784,3.993374c-0.046516,6.265919-0.091347,12.533573-0.082771,18.801178
		c0.005211,3.37093,1.572544,4.864124,4.915852,4.862385c8.721264-0.010361,17.442478-0.034462,26.162006-0.015518
		c3.520905,0.006889,3.967484,0.472473,3.979538,3.870926c0.01384,3.893341,0.00174,7.786736,0.00174,11.890404H74.907982
		c-0.067192-1.239731-0.136177-2.54496-0.21553-4.012321c-0.877594-0.046516-1.667313-0.122391-2.457031-0.12413
		c-9.085079-0.013786-18.168369-0.008629-27.253448-0.029305c-2.815689-0.006897-6.202091-3.310577-6.203827-6.09864
		c-0.010368-12.626713-0.005157-25.255054,0.034466-37.881714c0.013786-4.081301,3.520897-7.352203,7.660816-7.340153
		c7.17461,0.022417,14.350906,0.077614,21.52552-0.024153c3.814041-0.055145,8.091873,2.784695,7.572884,7.410822
		C75.152878,35.658154,75.487381,39.491142,75.487381,43.494827"/>
	
		<rect x="52.255188" y="9.98515" transform="matrix(0.707107 -0.707107 0.707107 0.707107 5.871456 45.604782)" style="fill:#FFFFFF;" width="11.460762" height="11.459535"/>
	<path style="fill:#29347C;" d="M9.033354,107.754028l-2.532961,0.456947c-0.086192-0.505203-0.279306-0.888008-0.581081-1.143166
		c-0.299985-0.256943-0.693109-0.384491-1.174212-0.384491c-0.639647,0-1.150059,0.22242-1.53108,0.663795
		c-0.382809,0.443169-0.572451,1.181107-0.572451,2.2174c0,1.151802,0.193115,1.965614,0.581028,2.441513
		c0.38623,0.474205,0.905272,0.713837,1.558758,0.713837c0.487944,0,0.88796-0.139648,1.196628-0.415535
		c0.312088-0.279305,0.531039-0.755203,0.658642-1.431107l2.52428,0.429329c-0.260364,1.156952-0.76383,2.031181-1.508717,2.624306
		c-0.74315,0.5914-1.741454,0.886276-2.989807,0.886276c-1.419052,0-2.553641-0.448318-3.396769-1.34491
		C0.420696,112.573318,0,111.331863,0,109.747269c0-1.603539,0.422432-2.851891,1.270769-3.745064
		c0.846601-0.893166,1.991503-1.339752,3.436444-1.339752c1.184525,0,2.124263,0.253471,2.822581,0.763885
		C8.226377,105.934959,8.728159,106.712624,9.033354,107.754028"/>
	<path style="fill:#29347C;" d="M17.125917,108.90551c-0.018995-0.743156-0.210373-1.308708-0.575924-1.694939
		c-0.365549-0.38797-0.812081-0.581085-1.334544-0.581085c-0.562138,0-1.024193,0.203484-1.389743,0.612129
		c-0.367287,0.408646-0.544878,0.963837-0.541406,1.663895H17.125917z M16.979372,111.50219l2.560482,0.431061
		c-0.329348,0.938004-0.848337,1.65358-1.558706,2.143265c-0.710421,0.491409-1.600117,0.736252-2.665721,0.736252
		c-1.687992,0-2.938082-0.550034-3.750216-1.655258c-0.639699-0.884544-0.95868-1.998398-0.95868-3.345047
		c0-1.610428,0.420695-2.870888,1.260403-3.782997c0.841444-0.910431,1.907048-1.367325,3.19334-1.367325
		c1.444888,0,2.584634,0.477631,3.419185,1.431099c0.836235,0.955261,1.234568,2.417412,1.196629,4.384758h-6.436618
		c0.018944,0.763885,0.225844,1.355278,0.620704,1.77771c0.398333,0.425903,0.891434,0.637962,1.482881,0.637962
		c0.401752,0,0.739676-0.110344,1.015563-0.331032C16.632765,112.343636,16.839666,111.990189,16.979372,111.50219"/>
	<polygon style="fill:#29347C;" points="21.973627,104.881615 25.156549,104.881615 27.5688,111.649315 30.001678,104.881615 
		33.176025,104.881615 33.176025,114.594345 30.98967,114.594345 30.98967,108.20256 28.620565,114.594345 26.427319,114.594345 
		24.166822,108.20256 24.166822,114.594345 21.973627,114.594345 	"/>
	<path style="fill:#29347C;" d="M41.898499,108.90551c-0.018993-0.743156-0.210373-1.308708-0.575924-1.694939
		c-0.365547-0.38797-0.81208-0.581085-1.334545-0.581085c-0.562138,0-1.024193,0.203484-1.38974,0.612129
		c-0.367287,0.408646-0.54488,0.963837-0.541409,1.663895H41.898499z M41.751953,111.50219l2.560482,0.431061
		c-0.329346,0.938004-0.848335,1.65358-1.558704,2.143265c-0.710423,0.491409-1.600117,0.736252-2.665722,0.736252
		c-1.687992,0-2.938084-0.550034-3.750217-1.655258c-0.639698-0.884544-0.958679-1.998398-0.958679-3.345047
		c0-1.610428,0.420696-2.870888,1.260403-3.782997c0.841442-0.910431,1.907047-1.367325,3.19334-1.367325
		c1.444889,0,2.584633,0.477631,3.419186,1.431099c0.836235,0.955261,1.234566,2.417412,1.196629,4.384758h-6.436619
		c0.018944,0.763885,0.225845,1.355278,0.620705,1.77771c0.398331,0.425903,0.891434,0.637962,1.48288,0.637962
		c0.401752,0,0.739677-0.110344,1.015564-0.331032C41.405346,112.343636,41.612247,111.990189,41.751953,111.50219"/>
	<polygon style="fill:#29347C;" points="46.818665,104.881615 49.387779,104.881615 49.387779,108.438766 53.063854,108.438766 
		53.063854,104.881615 55.641594,104.881615 55.641594,114.594345 53.063854,114.594345 53.063854,110.514778 49.387779,110.514778 
		49.387779,114.594345 46.818665,114.594345 	"/>
	<path style="fill:#29347C;" d="M60.642269,109.73764c0,0.963852,0.229317,1.700089,0.688004,2.212242
		c0.455162,0.513779,1.020718,0.770721,1.689728,0.770721c0.672482,0,1.23457-0.256943,1.688046-0.770721
		c0.453476-0.512154,0.681114-1.253563,0.681114-2.231186c0-0.950058-0.227638-1.681152-0.681114-2.193253
		c-0.453476-0.512093-1.015564-0.767303-1.688046-0.767303c-0.66901,0-1.234566,0.255211-1.689728,0.767303
		C60.871586,108.037544,60.642269,108.773796,60.642269,109.73764 M58.00938,109.601402
		c0-0.853493,0.210323-1.681099,0.631069-2.477707c0.420696-0.798347,1.0173-1.408737,1.788025-1.829437
		c0.772457-0.420692,1.632847-0.631065,2.582897-0.631065c1.46909,0,2.674351,0.475891,3.612301,1.431099
		c0.939735,0.953522,1.410477,2.160515,1.410477,3.615776c0,1.470772-0.475899,2.68808-1.424263,3.655396
		c-0.946579,0.963837-2.141525,1.446625-3.579517,1.446625c-0.889698,0-1.739773-0.200012-2.546696-0.601761
		c-0.80698-0.403442-1.422527-0.991417-1.843224-1.770767C58.219704,111.661896,58.00938,110.715317,58.00938,109.601402"/>
	<path style="fill:#29347C;" d="M73.03598,112.947655h2.029442c0.732834,0,1.263878-0.087921,1.600113-0.265518
		c0.336243-0.175858,0.501732-0.493149,0.501732-0.95005c0-0.475891-0.191376-0.803505-0.575874-0.984566
		c-0.382805-0.177597-1.131111-0.268997-2.238075-0.268997H73.03598V112.947655z M73.03598,108.914665h1.655312
		c0.798294,0,1.375908-0.100037,1.732826-0.301781c0.355232-0.200005,0.532829-0.51725,0.532829-0.951729
		c0-0.406967-0.163803-0.698372-0.498314-0.87249c-0.331085-0.17244-0.920738-0.260368-1.767342-0.260368H73.03598V108.914665z
		 M70.447922,104.881615h5.624481c1.151802,0,2.013924,0.210373,2.588058,0.631119
		c0.572449,0.4207,0.858704,1.055244,0.858704,1.903526c0,0.541458-0.156914,1.015617-0.47242,1.417366
		c-0.312088,0.401756-0.708687,0.670746-1.182846,0.803505c0.669014,0.163811,1.169006,0.47242,1.500092,0.924164
		c0.327606,0.451797,0.493095,0.944893,0.493095,1.481148c0,0.756935-0.277565,1.370796-0.831078,1.843216
		c-0.556923,0.47242-1.375954,0.708687-2.460503,0.708687h-6.117584V104.881615z"/>
	<path style="fill:#29347C;" d="M90.308655,107.754028l-2.532967,0.456947c-0.08445-0.505203-0.279305-0.888008-0.581078-1.143166
		c-0.299988-0.256943-0.693108-0.384491-1.17421-0.384491c-0.639648,0-1.150063,0.22242-1.531082,0.663795
		c-0.382812,0.443169-0.572449,1.181107-0.572449,2.2174c0,1.151802,0.193115,1.965614,0.581024,2.441513
		c0.38797,0.474205,0.905273,0.713837,1.558762,0.713837c0.487946,0,0.887955-0.139648,1.198311-0.415535
		c0.310402-0.279305,0.529358-0.755203,0.65696-1.431107l2.524277,0.429329c-0.260361,1.156952-0.763832,2.031181-1.508713,2.624306
		c-0.743156,0.5914-1.739769,0.886276-2.989807,0.886276c-1.419052,0-2.553642-0.448318-3.396774-1.34491
		c-0.844917-0.894905-1.26561-2.13636-1.26561-3.720955c0-1.603539,0.422432-2.851891,1.270767-3.745064
		c0.846603-0.893166,1.991508-1.339752,3.436447-1.339752c1.184525,0,2.12426,0.253471,2.822578,0.763885
		C89.501678,105.934959,90.003456,106.712624,90.308655,107.754028"/>
	<path style="fill:#29347C;" d="M92.531364,104.881615h2.558746v3.969223c0.427643-0.048256,0.729362-0.179276,0.90696-0.393127
		c0.175903-0.213791,0.389702-0.679321,0.639702-1.398369c0.329346-0.956947,0.688004-1.570755,1.079384-1.839752
		c0.389656-0.26725,0.901802-0.401749,1.534554-0.401749c0.196587,0,0.534515,0.017258,1.015617,0.04657l0.010315,1.700089
		c-0.675903,0-1.10865,0.065514-1.300079,0.193115c-0.187904,0.132759-0.391388,0.532776-0.612076,1.196632
		c-0.298302,0.896591-0.727623,1.448357-1.288025,1.655258c0.808662,0.225899,1.496666,0.929375,2.057014,2.113953
		c0.031044,0.060356,0.063828,0.12413,0.100029,0.191376l1.436256,2.679512h-2.762222l-1.279404-2.807114
		c-0.262047-0.567238-0.489677-0.931053-0.682793-1.093178c-0.191376-0.162071-0.475891-0.243103-0.855232-0.243103v4.143394
		h-2.558746V104.881615z"/>
	<polygon style="fill:#29347C;" points="102.3144,104.881615 104.785217,104.881615 104.785217,110.98204 108.735489,104.881615 
		111.258034,104.881615 111.258034,114.594345 108.788902,114.594345 108.788902,108.383568 104.785217,114.594345 
		102.3144,114.594345 	"/>
	<path style="fill:#29347C;" d="M120.356003,100.941757h1.253563c-0.072403,0.827606-0.363808,1.479408-0.87249,1.951828
		c-0.510353,0.47242-1.170738,0.708679-1.979401,0.708679c-0.812134,0-1.472511-0.236259-1.981186-0.708679
		c-0.508621-0.47242-0.800034-1.124222-0.874176-1.951828h1.25351c0.043098,0.432747,0.194855,0.758675,0.458633,0.98278
		c0.2621,0.22242,0.643173,0.332817,1.143219,0.332817c0.5,0,0.879333-0.110397,1.143166-0.332817
		C120.161209,101.700432,120.314644,101.374504,120.356003,100.941757 M114.202217,104.881615h2.470818v6.100426l3.950279-6.100426
		h2.522545v9.71273h-2.469131v-6.210777l-4.003693,6.210777h-2.470818V104.881615z"/>
	<path style="fill:#29347C;" d="M3.230017,124.097855c-0.158649,0.053467-0.408646,0.115555-0.753516,0.189697
		c-0.343134,0.074142-0.569031,0.144806-0.674165,0.21553c-0.162122,0.115501-0.243156,0.2621-0.243156,0.436218
		c0,0.174171,0.065564,0.324188,0.193115,0.450058c0.131076,0.125862,0.294882,0.189644,0.496626,0.189644
		c0.222424,0,0.434482-0.074142,0.637963-0.220688c0.150019-0.110344,0.246577-0.248314,0.294829-0.410385
		c0.032782-0.103447,0.048305-0.306931,0.048305-0.601761V124.097855z M1.573018,123.094345l-1.122487-0.20343
		c0.125867-0.451744,0.343081-0.786247,0.651749-1.003517c0.306932-0.217262,0.767303-0.327606,1.37422-0.327606
		c0.553455,0,0.963838,0.065514,1.23283,0.198273c0.270729,0.129333,0.462107,0.294876,0.570715,0.496574
		c0.112081,0.201744,0.165542,0.570763,0.165542,1.10701l-0.01205,1.446625c0,0.410385,0.018943,0.713844,0.058619,0.908699
		c0.039622,0.196533,0.113764,0.405167,0.222424,0.629326H3.49038c-0.032782-0.082764-0.072458-0.203476-0.118973-0.365547
		c-0.020732-0.074142-0.036255-0.122391-0.043148-0.146545c-0.213794,0.206902-0.437955,0.360344-0.679322,0.462105
		c-0.24142,0.103455-0.49831,0.155182-0.770776,0.155182c-0.482787,0-0.862123-0.131081-1.139693-0.391441
		c-0.279359-0.262047-0.417275-0.593132-0.417275-0.991409c0-0.265518,0.063775-0.501785,0.191378-0.708687
		c0.125867-0.206902,0.303459-0.365547,0.529356-0.474159c0.227581-0.110344,0.556929-0.206902,0.986254-0.289673
		c0.577661-0.106918,0.979361-0.210373,1.201837-0.303459v-0.12413c0-0.237946-0.058671-0.40696-0.177645-0.508675
		c-0.1155-0.101715-0.337924-0.151756-0.663799-0.151756c-0.22074,0-0.393123,0.044838-0.515569,0.129341
		C1.75061,122.723633,1.650579,122.877129,1.573018,123.094345"/>
	<path style="fill:#29347C;" d="M9.1116,123.927002c0,0.525932,0.103451,0.913849,0.313825,1.165634
		c0.208585,0.251732,0.462055,0.375862,0.762094,0.375862c0.287935,0,0.527619-0.113815,0.717314-0.344872
		c0.191379-0.231056,0.2862-0.61039,0.2862-1.134537c0-0.491417-0.098294-0.855232-0.294829-1.093178
		c-0.196588-0.237946-0.441428-0.356918-0.7311-0.356918c-0.303459,0-0.553455,0.115555-0.753516,0.350029
		C9.211577,123.123497,9.1116,123.468369,9.1116,123.927002 M7.887399,121.666504h1.15348v0.686264
		c0.150019-0.232788,0.353499-0.425903,0.60697-0.572449c0.256889-0.146545,0.541406-0.220688,0.851757-0.220688
		c0.543142,0,1.00525,0.213799,1.38285,0.641434c0.379336,0.425858,0.568978,1.017303,0.568978,1.779396
		c0,0.78109-0.191379,1.388008-0.572452,1.820801c-0.38102,0.4328-0.844864,0.65007-1.388006,0.65007
		c-0.258626,0-0.491417-0.051727-0.701738-0.153496c-0.212111-0.103447-0.431062-0.281036-0.663852-0.529297v2.356995H7.887399
		V121.666504z"/>
	<polygon style="fill:#29347C;" points="15.607888,121.666504 17.140705,121.666504 18.302866,124.927094 19.475342,121.666504 
		21.004738,121.666504 21.004738,126.346146 19.951235,126.346146 19.951235,123.266617 18.809807,126.346146 17.752831,126.346146 
		16.66481,123.266617 16.66481,126.346146 15.607888,126.346146 	"/>
	<path style="fill:#29347C;" d="M26.967039,124.097855c-0.158648,0.053467-0.408646,0.115555-0.753515,0.189697
		c-0.343134,0.074142-0.569031,0.144806-0.674166,0.21553c-0.162123,0.115501-0.243156,0.2621-0.243156,0.436218
		c0,0.174171,0.065565,0.324188,0.193115,0.450058c0.131075,0.125862,0.294882,0.189644,0.496626,0.189644
		c0.222424,0,0.434483-0.074142,0.637962-0.220688c0.150021-0.110344,0.246576-0.248314,0.29483-0.410385
		c0.032782-0.103447,0.048304-0.306931,0.048304-0.601761V124.097855z M25.310041,123.094345l-1.122488-0.20343
		c0.125868-0.451744,0.343082-0.786247,0.651751-1.003517c0.306931-0.217262,0.767302-0.327606,1.37422-0.327606
		c0.553455,0,0.963837,0.065514,1.23283,0.198273c0.270729,0.129333,0.462107,0.294876,0.570715,0.496574
		c0.11208,0.201744,0.165543,0.570763,0.165543,1.10701l-0.012051,1.446625c0,0.410385,0.018944,0.713844,0.058619,0.908699
		c0.039623,0.196533,0.113764,0.405167,0.222424,0.629326h-1.224199c-0.032784-0.082764-0.072458-0.203476-0.118975-0.365547
		c-0.020731-0.074142-0.036255-0.122391-0.043148-0.146545c-0.213795,0.206902-0.437956,0.360344-0.679321,0.462105
		c-0.241421,0.103455-0.49831,0.155182-0.770777,0.155182c-0.482786,0-0.862123-0.131081-1.139692-0.391441
		c-0.27936-0.262047-0.417276-0.593132-0.417276-0.991409c0-0.265518,0.063776-0.501785,0.19138-0.708687
		c0.125866-0.206902,0.303457-0.365547,0.529354-0.474159c0.227581-0.110344,0.556929-0.206902,0.986254-0.289673
		c0.577662-0.106918,0.979361-0.210373,1.201838-0.303459v-0.12413c0-0.237946-0.05867-0.40696-0.177645-0.508675
		c-0.115499-0.101715-0.337923-0.151756-0.663799-0.151756c-0.220739,0-0.393122,0.044838-0.515568,0.129341
		C25.487633,122.723633,25.387602,122.877129,25.310041,123.094345"/>
	<polygon style="fill:#29347C;" points="31.104223,121.666504 35.338963,121.666504 35.338963,122.666595 33.840561,122.666595 
		33.840561,126.346146 32.602573,126.346146 32.602573,122.666595 31.104223,122.666595 	"/>
	<path style="fill:#29347C;" d="M37.974113,121.666504h1.317284l1.119064,3.322624l1.093178-3.322624h1.281086l-1.651844,4.502045
		l-0.29483,0.815559c-0.108604,0.274147-0.213795,0.482788-0.312088,0.625916
		c-0.096558,0.14312-0.212055,0.262093-0.337925,0.350021c-0.127602,0.089668-0.286251,0.160332-0.470737,0.208641
		c-0.187958,0.051727-0.398277,0.075821-0.632805,0.075821c-0.237946,0-0.47242-0.024094-0.701736-0.075821l-0.108662-0.967308
		c0.193115,0.036201,0.367287,0.056877,0.5242,0.056877c0.287933,0,0.499992-0.084503,0.637962-0.253471
		c0.137917-0.168961,0.243103-0.384491,0.317245-0.644852L37.974113,121.666504z"/>
	<path style="fill:#29347C;" d="M46.905384,123.927002c0,0.525932,0.105186,0.913849,0.313824,1.165634
		c0.208584,0.251732,0.462055,0.375862,0.762093,0.375862c0.287937,0,0.527622-0.113815,0.717316-0.344872
		c0.191376-0.231056,0.286198-0.61039,0.286198-1.134537c0-0.491417-0.098293-0.855232-0.294827-1.093178
		c-0.19659-0.237946-0.441429-0.356918-0.731102-0.356918c-0.301723,0-0.553455,0.115555-0.753517,0.350029
		C47.00536,123.123497,46.905384,123.468369,46.905384,123.927002 M45.681183,121.666504h1.153481v0.686264
		c0.150017-0.232788,0.3535-0.425903,0.608654-0.572449c0.255203-0.146545,0.539722-0.220688,0.850071-0.220688
		c0.543144,0,1.005253,0.213799,1.382851,0.641434c0.379337,0.425858,0.568977,1.017303,0.568977,1.779396
		c0,0.78109-0.191376,1.388008-0.572449,1.820801c-0.38102,0.4328-0.844864,0.65007-1.388008,0.65007
		c-0.258625,0-0.491417-0.051727-0.701736-0.153496c-0.212112-0.103447-0.431065-0.281036-0.663853-0.529297v2.356995h-1.237988
		V121.666504z"/>
	<polygon style="fill:#29347C;" points="53.435139,121.666504 54.673126,121.666504 54.673126,123.38044 56.443939,123.38044 
		56.443939,121.666504 57.687084,121.666504 57.687084,126.346146 56.443939,126.346146 56.443939,124.380478 54.673126,124.380478 
		54.673126,126.346146 53.435139,126.346146 	"/>
	<path style="fill:#29347C;" d="M66.420403,121.666504h1.237984v4.679642h-1.237984V121.666504z M62.437393,125.561584h1.150059
		c0.300041,0,0.517307-0.048256,0.651752-0.141396c0.13623-0.093079,0.203476-0.246521,0.203476-0.458633
		c0-0.225845-0.087921-0.381073-0.262093-0.463791c-0.175858-0.082771-0.489685-0.125916-0.941425-0.125916h-0.801769V125.561584z
		 M61.199406,121.666504h1.237988v1.943253h1.241463c0.489677,0,0.860382,0.032784,1.119011,0.103447
		c0.255211,0.068985,0.472473,0.219002,0.651802,0.451744c0.175858,0.232788,0.265518,0.505203,0.265518,0.819023
		c0,0.453484-0.155174,0.793144-0.465523,1.020775c-0.312088,0.225845-0.779411,0.3414-1.401848,0.3414h-2.648411V121.666504z"/>
	<path style="fill:#29347C;" d="M74.08622,119.766403h0.603493c-0.034462,0.400017-0.174118,0.715576-0.420692,0.941422
		c-0.244843,0.227631-0.562088,0.343132-0.953522,0.343132c-0.391388,0-0.708633-0.115501-0.953529-0.343132
		c-0.246521-0.225845-0.38623-0.541405-0.420692-0.941422h0.603493c0.020683,0.210373,0.093086,0.367287,0.218956,0.474152
		c0.125862,0.106926,0.310402,0.162125,0.551773,0.162125c0.241417,0,0.425903-0.055199,0.551765-0.162125
		C73.993134,120.13369,74.065536,119.976776,74.08622,119.766403 M71.12056,121.666504h1.189682v2.938133l1.90358-2.938133h1.217361
		v4.679642h-1.189735v-2.9916l-1.931206,2.9916H71.12056V121.666504z"/>
	<path style="fill:#29347C;" d="M89.742043,124.424576v-0.806931c0.213791,0,0.370705-0.013786,0.467262-0.041359
		c0.096558-0.027626,0.189644-0.094872,0.275887-0.201744c0.084457-0.108658,0.129288-0.231056,0.129288-0.369019
		c0-0.146553-0.053459-0.281044-0.160332-0.408646c-0.106926-0.12413-0.26899-0.186226-0.482788-0.186226
		c-0.165543,0-0.312088,0.036255-0.441429,0.106926c-0.127602,0.070717-0.246574,0.236206-0.351761,0.501778l-1.050034-0.224159
		c0.106873-0.412117,0.332771-0.720734,0.679329-0.925949c0.346603-0.206902,0.743149-0.308617,1.18631-0.308617
		c0.56382,0,1.001778,0.129288,1.310394,0.38623c0.310402,0.260361,0.465576,0.584503,0.465576,0.975945
		c0,0.244835-0.067245,0.444847-0.201744,0.605179c-0.134491,0.160385-0.344864,0.30867-0.632805,0.446587
		c0.346558,0.094818,0.606918,0.237946,0.777618,0.427635c0.172432,0.191383,0.258682,0.429329,0.258682,0.713791
		c0,0.363869-0.170753,0.677635-0.510414,0.941475c-0.3414,0.263786-0.831078,0.394859-1.472519,0.394859
		c-1.115593,0-1.798386-0.436272-2.048386-1.308708l1.131119-0.206902c0.182747,0.456902,0.484528,0.686218,0.90522,0.686218
		c0.232788,0,0.417274-0.060356,0.556931-0.182755c0.139648-0.120705,0.208633-0.263832,0.208633-0.429321
		c0-0.1828-0.072403-0.325928-0.217262-0.429382c-0.146545-0.105133-0.336243-0.156906-0.570717-0.156906H89.742043z"/>
	<path style="fill:#29347C;" d="M97.686531,124.097855c-0.158646,0.053467-0.408646,0.115555-0.75351,0.189697
		c-0.34314,0.074142-0.569031,0.144806-0.674171,0.21553c-0.162117,0.115501-0.243156,0.2621-0.243156,0.436218
		c0,0.174171,0.065567,0.324188,0.194855,0.450058c0.129341,0.125862,0.293144,0.189644,0.494888,0.189644
		c0.222427,0,0.436218-0.074142,0.637962-0.220688c0.150017-0.110344,0.246574-0.248314,0.29483-0.410385
		c0.032784-0.103447,0.048302-0.306931,0.048302-0.601761V124.097855z M96.029533,123.094345l-1.122482-0.20343
		c0.125862-0.451744,0.343079-0.786247,0.651749-1.003517c0.306931-0.217262,0.767303-0.327606,1.374222-0.327606
		c0.553452,0,0.963837,0.065514,1.232826,0.198273c0.270729,0.129333,0.462105,0.294876,0.570717,0.496574
		c0.112076,0.201744,0.165543,0.570763,0.165543,1.10701l-0.012054,1.446625c0,0.410385,0.018944,0.713844,0.058624,0.908699
		c0.039619,0.196533,0.113762,0.405167,0.22242,0.629326h-1.224197c-0.032784-0.082764-0.072456-0.203476-0.118973-0.365547
		c-0.020737-0.074142-0.036255-0.122391-0.043152-0.146545c-0.212059,0.206902-0.437958,0.360344-0.679321,0.462105
		c-0.241417,0.103455-0.498306,0.155182-0.770775,0.155182c-0.482788,0-0.862122-0.131081-1.139694-0.391441
		c-0.277618-0.262047-0.417274-0.593132-0.417274-0.991409c0-0.265518,0.065514-0.501785,0.191376-0.708687
		c0.12587-0.206902,0.303459-0.365547,0.529358-0.474159c0.227577-0.110344,0.556931-0.206902,0.986252-0.289673
		c0.57766-0.106918,0.979362-0.210373,1.201836-0.303459v-0.12413c0-0.237946-0.05867-0.40696-0.177643-0.508675
		c-0.115501-0.101715-0.337921-0.151756-0.663795-0.151756c-0.220741,0-0.393127,0.044838-0.515572,0.129341
		C96.20713,122.723633,96.107094,122.877129,96.029533,123.094345"/>
	<path style="fill:#29347C;" d="M103.641052,125.553001h0.977623c0.351761,0,0.60865-0.041405,0.770775-0.127602
		c0.162071-0.084503,0.243103-0.237946,0.243103-0.458687c0-0.229317-0.09314-0.387909-0.277626-0.47242
		c-0.186218-0.087929-0.546562-0.132759-1.079391-0.132759h-0.634483V125.553001z M103.641052,123.609756h0.798294
		c0.382805,0,0.662117-0.048256,0.834549-0.144814c0.172432-0.098289,0.256889-0.251785,0.256889-0.460419
		c0-0.194801-0.081032-0.336189-0.239632-0.418961c-0.160385-0.084511-0.444847-0.12587-0.851807-0.12587h-0.798294V123.609756z
		 M102.394432,121.666504h2.708763c0.555191,0,0.970734,0.101768,1.24662,0.305191
		c0.275887,0.201752,0.413857,0.506943,0.413857,0.915588c0,0.260361-0.075882,0.487999-0.225899,0.682793
		c-0.151756,0.194855-0.3414,0.322456-0.570717,0.38797c0.324135,0.0793,0.56382,0.227631,0.722473,0.444847
		c0.158592,0.21727,0.237946,0.455215,0.237946,0.713844c0,0.363808-0.132812,0.660378-0.40007,0.888008
		c-0.268936,0.225845-0.662117,0.3414-1.186264,0.3414h-2.946709V121.666504z"/>
	<path style="fill:#29347C;" d="M111.045296,124.005142c0,0.465523,0.112076,0.820709,0.331032,1.067284
		c0.220734,0.246582,0.493149,0.370712,0.815605,0.370712c0.322403,0,0.593132-0.12413,0.81208-0.370712
		c0.219002-0.246574,0.327614-0.605179,0.327614-1.075912c0-0.456955-0.108612-0.810402-0.327614-1.056976
		c-0.218948-0.246582-0.489677-0.370712-0.81208-0.370712c-0.322456,0-0.594872,0.12413-0.815605,0.370712
		C111.157372,123.186111,111.045296,123.541298,111.045296,124.005142 M109.778,123.939575
		c0-0.410332,0.101707-0.808662,0.303452-1.193153c0.20343-0.384491,0.489685-0.679375,0.862129-0.881065
		c0.370705-0.203484,0.786247-0.305199,1.243141-0.305199c0.708687,0,1.289764,0.231056,1.741508,0.691429
		c0.451736,0.458633,0.679375,1.039711,0.679375,1.741447c0,0.706947-0.229317,1.294922-0.686272,1.760452
		c-0.456947,0.465584-1.031082,0.698318-1.725983,0.698318c-0.429321,0-0.836235-0.098244-1.227669-0.291359
		c-0.387917-0.193115-0.6828-0.477631-0.88623-0.851807C109.879707,124.932777,109.778,124.477562,109.778,123.939575"/>
	<path style="fill:#29347C;" d="M120.864365,125.332108l0.003471-2.64846h-1.496666
		c-0.049988,1.293182-0.256943,2.175987-0.619019,2.64846H120.864365z M121.58168,126.345932h-3.543365v1.234566h-1.003517v-2.24839
		h0.506943c0.210373-0.234528,0.38623-0.601761,0.5242-1.101807c0.137917-0.500046,0.220688-1.353539,0.246521-2.563957h3.776108
		v3.665764h0.501778v2.24839h-1.008667V126.345932z"/>
</g>
</svg>
