<?xml version="1.0" encoding="utf-8"?>
<!-- Generator: Adobe Illustrator 19.1.0, SVG Export Plug-In . SVG Version: 6.00 Build 0)  -->
<svg version="1.0" id="Слой_1" xmlns="http://www.w3.org/2000/svg" xmlns:xlink="http://www.w3.org/1999/xlink" x="0px" y="0px"
	 viewBox="0 0 125.715546 98.473152" style="enable-background:new 0 0 125.715546 98.473152;" xml:space="preserve">
<g>
	<path style="fill:#11458F;" d="M114.99382,12.307676c2.834732,0.081088,5.562439-2.3329,5.545181-5.548604
		c-0.017151-2.986387-2.317375-5.477936-5.446892-5.531398c-3.208755-0.053409-5.622742,2.47429-5.624428,5.562444
		C109.465889,10.005821,112.169502,12.385291,114.99382,12.307676 M115.89225,0
		c0.21553,0.055198,0.431061,0.106924,0.644806,0.165542c2.798424,0.781089,4.58992,2.560534,5.11412,5.433104
		c0.675957,3.717487-1.653526,6.895252-4.945107,7.74017c-2.412201,0.620704-4.579613,0.043096-6.412468-1.674258
		c-1.098389-1.02935-1.779495-2.300119-2.001869-3.781262c-0.332764-2.210507,0.251732-4.158915,1.806969-5.793498
		c0.962204-1.012143,2.120895-1.667313,3.488167-1.955283c0.20343-0.043114,0.40696-0.089682,0.61039-0.134514H115.89225z"/>
	<path style="fill:#11458F;" d="M113.624962,6.186094c0.803505-0.025889,1.574287,0.077614,2.339798-0.082771
		c0.081032-0.01726,0.162071-0.041359,0.241417-0.072405c0.394859-0.156912,0.593132-0.456951,0.622498-0.874226
		c0.006836-0.112028,0.001678-0.225844,0.001678-0.337925c0-0.362077-0.169014-0.637963-0.493149-0.769039
		c-0.282784-0.113764-0.589661-0.200008-0.89138-0.220687c-0.519043-0.034466-1.041451-0.01205-1.56218-0.010314
		c-0.081032,0-0.160385,0.022363-0.258682,0.037886V6.186094z M116.154503,7.170612
		c0.71553,1.122487,1.417267,2.222557,2.143211,3.362302h-1.343178c-0.675949-1.11212-1.34317-2.205297-2.012184-3.305368h-1.32254
		v3.251907c-0.413803,0.075877-0.78109,0.062091-1.177635,0.00863V2.835894c0.108604-0.013787,0.201744-0.037939,0.296562-0.037939
		c0.987991,0,1.977669-0.006893,2.96566,0.01205c0.438004,0.00863,0.867279,0.087928,1.275925,0.268993
		c0.657013,0.289672,1.001877,0.808662,1.096703,1.496666c0.037888,0.275886,0.034409,0.568978-0.00695,0.844864
		c-0.122391,0.817291-0.589653,1.355277-1.384529,1.59838C116.526848,7.067161,116.364777,7.110309,116.154503,7.170612"/>
	<path style="fill:#11458F;" d="M67.782448,36.703236c9.022934,3.001911,12.228325,10.283394,12.199074,16.142403
		c-0.036201,7.471176-4.846924,13.790501-12.271477,16.156185c-0.049988-0.003418-0.091454-0.029305-0.143127-0.029305h-6.219349
		V36.703236H67.782448z M44.212021,34.625488c0-1.148323-0.929371-2.077694-2.077747-2.077694H26.400518
		c-1.14669,0-2.076063,0.929371-2.076063,2.077694c0,1.148376,0.929373,2.077747,2.076063,2.077747h13.657694v19.840893h-6.976234
		c-1.146692,0-2.076065,0.929371-2.076065,2.077747c0,1.146587,0.929373,2.075958,2.076065,2.075958h6.976234v8.612659
		c0,2.103584,1.71225,3.817467,3.81757,3.817467h15.394039c0.094822,0,0.177647-0.043098,0.268993-0.055199
		c0.093136,0.0121,0.174171,0.055199,0.268993,0.055199h7.759109c0.089668,0,0.165543-0.03968,0.253418-0.051727
		c0.106926,0.017258,0.210373,0.051727,0.32077,0.051727c0.20343,0,0.410332-0.031052,0.613762-0.09314
		c9.298874-2.865677,15.335526-10.783436,15.380356-20.168503c0.031044-6.438354-2.857155-12.221432-7.748795-16.163082h22.216942
		c1.148369,0,2.077744-0.929371,2.077744-2.077747c0-1.148323-0.929375-2.077694-2.077744-2.077694H51.690037
		c-1.148373,0-2.077747,0.929371-2.077747,2.077694c0,1.148376,0.929375,2.077747,2.077747,2.077747h5.502037v32.269283H44.212021
		V34.625488z"/>
	<path style="fill:#11458F;" d="M108.093567,78.573586c-27.065544,20.994476-64.869644,20.994476-91.935181,0
		c-0.90864-0.701736-2.210455-0.537933-2.915667,0.369026c-0.701843,0.906952-0.537985,2.210449,0.368971,2.913979
		C27.89366,92.93486,45.010265,98.473152,62.12508,98.473152c17.116604,0,34.231525-5.538292,48.515179-16.616562
		c0.90696-0.703529,1.070709-2.007027,0.367188-2.913979C110.304024,78.035652,109.002205,77.871849,108.093567,78.573586"/>
	<path style="fill:#11458F;" d="M124.265961,42.247318C117.377495,18.5355,88.296402,8.988364,81.46666,7.896871l-1.306969-0.213794
		c-9.607544-1.591487-32.107262-5.317551-54.648342,6.903882C14.171036,20.733904,5.749755,29.927589,1.797794,40.476555
		c-2.470818,6.593529-4.057096,25.496422,6.864259,30.996773c10.166154,5.119278,14.863002-3.300209,21.97205-16.045845
		c1.839798-3.300209,3.924389-7.040115,6.376263-11.10931c0.591446-0.982834,0.274147-2.258762-0.708683-2.851891
		c-0.98452-0.587975-2.260445-0.274204-2.851891,0.70863c-2.484606,4.127869-4.589926,7.900501-6.445196,11.228287
		C19.348934,67.13166,16.86433,70.950867,10.53111,67.761047c-7.934967-3.995106-6.98318-20.116829-4.843446-25.827503
		c3.60025-9.609226,11.343891-18.025295,21.803139-23.694611c21.289253-11.538691,42.800983-7.978116,51.991245-6.457297
		l1.327705,0.217215c6.314171,1.008722,33.183128,9.773032,39.467941,31.407207
		c1.850113,6.376263,2.060486,15.773376-1.85527,21.337555c-1.853592,2.634628-4.469215,4.07267-7.776375,4.2761
		c-1.458725,0.0914-3.877769,0.041412-6.010658-0.003418c-1.100075-0.022415-2.124268-0.043152-2.910614-0.043152h-7.302162
		V41.307632c0-1.148376-0.929375-2.077747-2.077644-2.077747c-1.14669,0-2.076057,0.929371-2.076057,2.077747v28.63456
		c0,1.757034,1.427681,3.184715,3.184654,3.184715h8.27121c0.763931,0,1.75708,0.020676,2.824318,0.043091
		c1.279396,0.025841,2.653618,0.055145,3.90197,0.055145c0.915588,0,1.762238-0.015518,2.450195-0.056877
		c4.564133-0.282784,8.34024-2.369102,10.91967-6.033127C126.550507,60.412266,126.457474,49.790897,124.265961,42.247318"/>
	<path style="fill:#11458F;" d="M72.261032,59.302937h-3.37262c0.660378-2.079433,1.024193-4.33477,1.055237-6.679722h4.089935
		C73.981804,54.982002,73.361099,57.240765,72.261032,59.302937 M64.539803,59.302937
		c0.322456-2.127686,0.496628-4.395073,0.519043-6.679722h3.662239c-0.03273,2.362209-0.425804,4.619232-1.125854,6.679722
		H64.539803z M64.496765,44.719238h2.894928c0.765617,2.03981,1.217415,4.300304,1.308762,6.681458h-3.646767
		C65.020859,49.102314,64.834686,46.834927,64.496765,44.719238 M71.947205,44.719238
		c1.20005,2.03981,1.905258,4.30204,2.050179,6.681458H69.92292c-0.087875-2.362209-0.513779-4.619232-1.236252-6.681458H71.947205z
		 M78.739059,51.400696h-3.519218c-0.13102-2.365631-0.774246-4.619232-1.872528-6.681458h2.482918
		c0.336243,0,0.610397-0.272411,0.610397-0.610336c0-0.337978-0.274155-0.61039-0.610397-0.61039h-3.164024
		c-1.701836-2.639832-4.181282-4.884808-7.290062-6.496975c-0.303513-0.160385-0.669006-0.037937-0.822556,0.260365
		c-0.156914,0.300037-0.039566,0.66901,0.260368,0.824184c2.643303,1.3708,4.771042,3.239857,6.336693,5.412426h-2.910622
		c-1.105225-2.605366-2.708763-4.827923-4.714104-6.431461c-0.260361-0.210373-0.646591-0.168961-0.85865,0.094822
		c-0.210373,0.263836-0.167225,0.648327,0.094822,0.858704c1.722561,1.37764,3.110569,3.270901,4.124447,5.477936h-2.598473
		c-0.487892-2.508808-1.200047-4.733051-2.146679-6.388367c-0.167225-0.293091-0.541351-0.394859-0.83276-0.227581
		c-0.293198,0.167229-0.394859,0.541409-0.227634,0.832817c0.850021,1.488033,1.49493,3.503639,1.950092,5.783131h-0.168911
		c-0.338032,0-0.612179,0.272411-0.612179,0.61039c0,0.337925,0.274147,0.610336,0.612179,0.610336h0.389599
		c0.343185,2.100163,0.531143,4.376183,0.563873,6.681458h-0.953472c-0.338032,0-0.612179,0.274204-0.612179,0.61039
		c0,0.337978,0.274147,0.612129,0.612179,0.612129h0.95863c-0.02063,2.291542-0.198273,4.564087-0.525883,6.679722h-0.432747
		c-0.338032,0-0.612179,0.274147-0.612179,0.61039c0,0.337975,0.274147,0.612125,0.612179,0.612125h0.229317
		c-0.458633,2.424301-1.125957,4.570984-2.013973,6.164154c-0.16375,0.294876-0.058617,0.665588,0.236263,0.831131
		c0.09314,0.05172,0.19659,0.07756,0.296566,0.07756c0.213741,0,0.422432-0.113815,0.534512-0.315514
		c0.981045-1.758759,1.713936-4.112343,2.201824-6.757332h2.810532c-1.025871,2.46566-2.520805,4.579613-4.40028,6.119324
		c-0.260365,0.213844-0.298248,0.598335-0.084507,0.858696c0.120708,0.148285,0.296566,0.224167,0.472527,0.224167
		c0.136181,0,0.272358-0.044838,0.38623-0.13797c2.150047-1.762192,3.817459-4.217484,4.922691-7.064217h3.119202
		c-1.586388,2.431194-3.884819,4.520943-6.765968,6.052071c-0.296562,0.158653-0.410439,0.527618-0.251732,0.82592
		c0.110291,0.206902,0.322456,0.324196,0.539665,0.324196c0.096504,0,0.194801-0.022415,0.286255-0.070724
		c3.325996-1.767342,5.902054-4.248528,7.603882-7.131462h3.850304c0.337921,0,0.61039-0.274151,0.61039-0.612125
		c0-0.336243-0.272469-0.61039-0.61039-0.61039H73.65419c1.005249-2.077698,1.553551-4.33477,1.60186-6.679722h3.483009
		c0.337921,0,0.610283-0.274151,0.610283-0.612129C79.349342,51.6749,79.076981,51.400696,78.739059,51.400696"/>
	<path style="fill:#FFFFFF;" d="M99.897285,34.733257c0,0.774193-0.627647,1.400108-1.400108,1.400108
		c-0.774246,0-1.401787-0.625916-1.401787-1.400108c0-0.774143,0.627541-1.400059,1.401787-1.400059
		C99.269638,33.333199,99.897285,33.959114,99.897285,34.733257"/>
	<path style="fill:#FFFFFF;" d="M53.342617,34.733257c0,0.774193-0.627651,1.400108-1.400108,1.400108
		c-0.77425,0-1.401794-0.625916-1.401794-1.400108c0-0.774143,0.627544-1.400059,1.401794-1.400059
		C52.714966,33.333199,53.342617,33.959114,53.342617,34.733257"/>
	<path style="fill:#FFFFFF;" d="M27.967958,34.733257c0,0.774193-0.627649,1.400108-1.400108,1.400108
		c-0.774248,0-1.401793-0.625916-1.401793-1.400108c0-0.774143,0.627544-1.400059,1.401793-1.400059
		C27.340309,33.333199,27.967958,33.959114,27.967958,34.733257"/>
	<path style="fill:#FFFFFF;" d="M34.649418,58.628349c0,0.774197-0.627651,1.400108-1.400108,1.400108
		c-0.77425,0-1.401794-0.625912-1.401794-1.400108c0-0.774143,0.627544-1.400059,1.401794-1.400059
		C34.021767,57.228291,34.649418,57.854206,34.649418,58.628349"/>
	<path style="fill:#FFFFFF;" d="M16.435793,80.296623c0,0.774193-0.627649,1.400108-1.400108,1.400108
		c-0.774248,0-1.401793-0.625916-1.401793-1.400108c0-0.774147,0.627544-1.400055,1.401793-1.400055
		C15.808144,78.896568,16.435793,79.522476,16.435793,80.296623"/>
	<path style="fill:#FFFFFF;" d="M109.28183,78.895668c0.774139,0,1.400002,0.627655,1.400002,1.400116
		c0,0.774193-0.625862,1.401787-1.400002,1.401787c-0.774246,0-1.400108-0.627594-1.400108-1.401787
		C107.881721,79.523323,108.507584,78.895668,109.28183,78.895668"/>
	<path style="fill:none;stroke:#FFFFFF;stroke-width:0.567;stroke-linecap:round;stroke-miterlimit:10;" d="M45.30378,71.297264
		h-1.567337c-0.884541,0-1.601852-0.717262-1.601852-1.600067v-1.593224 M95.227699,71.297264h-1.569122
		c-0.882858,0-1.600067-0.717262-1.600067-1.600067v-1.593224"/>
	<path style="fill:none;stroke:#FFFFFF;stroke-width:0.709;stroke-linecap:round;stroke-miterlimit:10;" d="M11.702954,70.521698
		c1.237934,0.40696,3.698439,0.877647,6.155469-0.622444"/>
</g>
</svg>
