<?xml version="1.0" encoding="utf-8"?>
<!-- Generator: Adobe Illustrator 19.1.0, SVG Export Plug-In . SVG Version: 6.00 Build 0)  -->
<svg version="1.0" id="Слой_1" xmlns="http://www.w3.org/2000/svg" xmlns:xlink="http://www.w3.org/1999/xlink" x="0px" y="0px"
	 viewBox="0 0 171.3992 50.793568" style="enable-background:new 0 0 171.3992 50.793568;" xml:space="preserve">
<g>
	<path style="fill:#D91841;" d="M0,47.790951c0.089612-0.217243,0.181012-0.436218,0.284463-0.686245
		c0.10003,0.044834,0.186222,0.084484,0.275886,0.120712c0.767303,0.317245,1.546655,0.391384,2.331164,0.082745
		c0.532829-0.21035,0.891433-0.58279,1.013879-1.167294c0.086191-0.41901-0.017259-0.777641-0.312088-1.067314
		c-0.212058-0.208637-0.458635-0.38623-0.701791-0.558666c-0.299986-0.213795-0.620704-0.400013-0.919006-0.617283
		c-0.175856-0.127575-0.337925-0.28278-0.481051-0.446583c-0.434535-0.496574-0.48968-1.074207-0.310352-1.684574
		c0.217215-0.74144,0.751727-1.189732,1.450045-1.443203c0.915585-0.334503,1.853587-0.348289,2.796745-0.096558
		c0.065512,0.01897,0.131076,0.04657,0.194851,0.074142c0.025836,0.012074,0.044832,0.036201,0.096557,0.077587
		c-0.077614,0.24313-0.156912,0.494862-0.248313,0.78109c-0.12413-0.043098-0.224108-0.079327-0.322402-0.11208
		c-0.724207-0.243107-1.444941-0.296566-2.158782,0.034492c-0.286199,0.132759-0.532776,0.312088-0.706948,0.579342
		c-0.227581,0.346581-0.317245,0.939713,0.124183,1.306973c0.274149,0.231052,0.574135,0.427616,0.865544,0.636253
		c0.293145,0.208637,0.596604,0.401752,0.881119,0.620731c1.051765,0.813843,0.929371,2.138073,0.318981,2.97089
		c-0.370707,0.503464-0.886276,0.803478-1.481143,0.955235c-0.846601,0.217239-1.700095,0.194824-2.548432-0.00692
		C0.291356,48.108219,0.148283,48.030632,0,47.970276V47.790951z"/>
	<path style="fill:#006FAF;" d="M13.893954,27.009136c1.098334,0,2.198405-0.01034,3.296739,0.003447
		c1.089758,0.012075,1.967403-0.874201,1.950144-1.950119c-0.027573-1.586304-0.005156-3.172607-0.010365-4.760649
		c0-0.206902-0.024101-0.417274-0.060303-0.62244c-0.113817-0.634542-0.49489-1.038006-1.122488-1.174238
		c-0.318981-0.068958-0.6518-0.101713-0.979412-0.103451c-2.048386-0.008602-4.096771-0.006893-6.145209-0.003447
		c-0.217267,0.001738-0.441375,0.013813-0.653485,0.058619c-0.908692,0.189669-1.529396,0.998358-1.532869,1.763924
		c-0.008576,1.656998-0.005157,3.313997-0.001683,4.969286c0.001683,0.336214,0.101714,0.651751,0.289672,0.931082
		c0.38965,0.581081,0.946579,0.877647,1.641477,0.884541C11.67487,27.017765,12.783518,27.009136,13.893954,27.009136 M0,17.427483
		c0.0241-0.094822,0.049989-0.187931,0.068932-0.284489c0.298302-1.531133,1.577701-2.758806,3.131249-2.996754
		c0.194851-0.029309,0.39828-0.022389,0.598288-0.022389c4.365816-0.001737,8.733316,0.00171,13.099132-0.00692
		c0.325874,0,0.662117-0.044832,0.970732-0.139653c0.737993-0.227607,1.256983-0.950051,1.26214-1.719064
		c0.008629-1.156979,0.003471-2.315668,0.001736-3.472647c-0.001736-1.050055-0.943159-1.841484-1.869057-1.841484
		C12.685277,6.950976,8.109087,6.94753,3.532949,6.94924c-0.274149,0-0.539669-0.02068-0.784509-0.15173
		C2.219084,6.518178,1.915625,6.095746,1.913889,5.483646C1.912153,4.93532,1.925939,4.387022,1.910416,3.836987
		C1.888,3.043821,2.598421,2.378259,3.37951,2.383442c2.438088,0.017233,4.876176,0.006893,7.315948,0.006893
		c4.736523,0,9.473045,0.001736,14.209568-0.001737c0.50173,0,0.993147,0.041386,1.481091,0.172435
		c1.222517,0.329321,1.936357,1.132826,2.213928,2.346714c0.094873,0.418985,0.131075,0.844864,0.129339,1.275926
		c-0.001736,7.783264-0.001736,15.568239,0.001736,23.353214c0.001684,0.562111-0.187958,1.012115-0.663851,1.324203
		c-0.220688,0.144836-0.467264,0.219006-0.73452,0.220715c-0.089664,0.001738-0.179329,0.001738-0.270729,0.001738
		c-7.743589,0-15.488915-0.008631-23.232506,0.005156c-1.76045,0.001738-3.319155-1.203522-3.74848-2.986387
		C0.051725,27.978157,0.027573,27.852289,0,27.728159V17.427483z"/>
	<path style="fill:#006FAF;" d="M95.646355,2.390151c7.034904,0,14.069817,0.001736,21.106506-0.00171
		c0.758675-0.001736,1.465569,0.167252,2.103584,0.579345c0.915535,0.589684,1.506981,1.412159,1.727669,2.48463
		c0.043098,0.212084,0.063828,0.434535,0.063828,0.651776c0.003418,7.824623,0.001686,15.649274,0.005157,23.473896
		c0,0.51899-0.186226,0.927635-0.600029,1.238014c-0.231049,0.174145-0.493149,0.263809-0.779404,0.26552
		c-2.258759,0.001736-4.517517,0.006918-6.776276-0.001711c-0.812134-0.003447-1.432838-0.643147-1.43631-1.4587
		c-0.003426-1.67597,0-3.353674,0-5.029642c0-5.039982-0.001686-10.079937,0.001732-15.121655
		c0-0.37589-0.041359-0.73452-0.234474-1.065578c-0.358658-0.62073-0.900063-0.967311-1.612167-0.972468
		c-1.958771-0.015522-3.917496-0.008629-5.876266-0.003447c-0.95005,0.00171-1.798386,0.843154-1.820801,1.794942
		c-0.005157,0.189668-0.001686,0.379336-0.001686,0.569004c0,6.567641-0.00174,13.135308,0.001686,19.701241
		c0,0.472446-0.127609,0.884539-0.479317,1.212151c-0.260361,0.241394-0.569031,0.374153-0.922478,0.374153
		c-2.267387,0.005182-4.536514,0.006893-6.803902,0c-0.793144-0.001736-1.484566-0.703501-1.403534-1.534578
		c0.015526-0.148283,0.005211-0.298302,0.005211-0.448296c0.001686-1.398373,0-2.795008,0.001686-4.191645
		c0.001732-5.169294,0.003471-10.336879,0.005203-15.504437c0-0.962128-0.617279-1.734587-1.550125-1.939778
		c-0.115501-0.025863-0.237946-0.032756-0.355186-0.032756c-1.919098-0.001736-3.838196,0.013787-5.75724-0.008629
		c-0.944893-0.01034-1.891525,0.891433-1.888054,1.889763c0.020683,6.517678,0.010315,13.035331,0.008629,19.551247
		c0,0.298302-0.010361,0.596603-0.043144,0.891434c-0.086189,0.82592-0.650017,1.327677-1.486305,1.329388
		c-1.769073,0.003471-3.536415,0.001736-5.305496,0.001736c-0.43969,0-0.879387-0.013786-1.319023,0.001736
		c-0.782822,0.027573-1.493195-0.670744-1.493195-1.472513c0.008575-6.986652,0.006897-13.973305,0.010315-20.959957
		c0-1.565598,0.003471-3.131223,0.005157-4.698557c0.001732-0.336241,0.072456-0.651776,0.26899-0.932818
		c0.282784-0.403489,0.670746-0.615573,1.163902-0.631096c0.099976-0.00171,0.200005,0,0.299988,0
		C81.53508,2.390151,88.590721,2.390151,95.646355,2.390151"/>
	<path style="fill:#006FAF;" d="M36.393673,15.660824c0-3.941621,0.006893-7.884979-0.008629-11.8266
		c-0.001736-0.556928,0.413803-1.234567,1.058659-1.394926c0.115555-0.027573,0.23621-0.046542,0.3535-0.046542
		c2.248394-0.003447,4.496841-0.005183,6.745235,0c0.710365,0,1.281132,0.496573,1.401791,1.194891
		c0.012104,0.067248,0.01384,0.136233,0.01384,0.205191c-0.001736,0.129313-0.01384,0.260363-0.01384,0.389676
		c0,6.436617,0,12.873236,0.001736,19.31159c0,0.317244,0.008629,0.637962,0.053463,0.951761
		c0.101715,0.698317,0.617283,1.319048,1.355278,1.525974c0.179325,0.051725,0.37244,0.075851,0.560349,0.075851
		c1.88805,0.005184,3.776104-0.01034,5.665894,0.008631c1.084549,0.01034,1.953564-0.943159,1.951828-1.965641
		c-0.010315-6.71595-0.005157-13.43361-0.006893-20.149559c0-0.382783,0.077614-0.729337,0.332767-1.027639
		c0.272465-0.318981,0.608707-0.513833,1.034557-0.520726c0.439693-0.00863,0.879383-0.001736,1.319077-0.001736
		c1.819069-0.00171,3.638134,0.001736,5.455521-0.00171c0.512096-0.001736,0.903484,0.213794,1.19836,0.618994
		c0.162071,0.22416,0.236214,0.481077,0.255157,0.755226c0.005157,0.079324,0.001732,0.160359,0.001732,0.239683
		c0,7.714281,0,15.430271,0,23.14455c0,1.146639-0.410378,2.125999-1.237984,2.915718
		c-0.691425,0.658644-1.531132,1.015564-2.489815,1.015564c-7.09531,0.00692-14.190571,0.005182-21.285831,0.001736
		c-0.960419-0.001736-1.786339-0.360367-2.489811-1.013853c-0.663853-0.612125-1.060448-1.36388-1.198364-2.251865
		c-0.027576-0.175882-0.02589-0.358658-0.02589-0.53796C36.393673,23.406149,36.393673,19.533487,36.393673,15.660824"/>
	<path style="fill:#006FAF;" d="M142.219131,27.008266c1.079391,0,2.158783,0.001711,3.236435,0
		c0.139648,0,0.281036-0.003447,0.417221-0.027597c0.99147-0.172409,1.591492-1.015564,1.584595-1.927702
		c-0.012054-1.506981,0-3.012251-0.005157-4.519257c-0.00174-0.267256-0.015518-0.539696-0.062088-0.801767
		c-0.112076-0.637964-0.468994-1.060423-1.113861-1.229385c-0.400009-0.105186-0.808655-0.098293-1.213837-0.10174
		c-1.867371-0.01034-3.734741-0.005156-5.60379-0.003447c-0.158661,0-0.319046,0.032757-0.475906,0.024153
		c-0.631119-0.032782-1.141479,0.201717-1.567383,0.656933c-0.394806,0.425879-0.494843,0.95005-0.5,1.496639
		c-0.010361,1.475962-0.0121,2.951921,0.001694,4.427881c0.003464,0.498283,0.141388,0.963839,0.489731,1.346621
		c0.408646,0.448322,0.915527,0.660379,1.517288,0.658669C140.022461,27.008266,141.120804,27.008266,142.219131,27.008266
		 M143.769257,31.082649c-3.876129,0-7.753952-0.001711-11.630081,0.001736c-1.041458,0-1.944946-0.353474-2.679459-1.075918
		c-0.713852-0.703501-1.132858-1.569071-1.138016-2.589844c-0.008621-2.813951-0.005157-5.62793-0.006897-8.441906
		c0-0.408648,0.003433-0.815556,0.005157-1.224201c0.008636-1.408712,0.99321-2.850181,2.36911-3.381247
		c0.443161-0.172435,0.896637-0.25176,1.372528-0.250023c4.346832,0.003447,8.693649,0.003447,13.040466-0.001737
		c0.458633,0,0.919052-0.013786,1.338013-0.249997c0.632812-0.360367,0.99321-0.901799,1.006989-1.624243
		c0.024109-1.146639,0.013794-2.294989,0.005157-3.443337c-0.006897-1.024193-0.913849-1.860454-1.889786-1.858744
		c-4.576141,0.010366-9.152283,0.003473-13.72847,0.005183c-0.401749,0-0.774139-0.074142-1.086227-0.346581
		c-0.306931-0.26552-0.503525-0.591421-0.510406-1.006959c-0.008636-0.479341-0.003433-0.958681-0.003433-1.436285
		c0-0.187958-0.018982-0.379336,0.010315-0.563822c0.105194-0.694871,0.686279-1.191471,1.389755-1.203547
		c0.181061-0.003447,0.360382-0.00171,0.539719-0.00171c7.005585,0,14.009506,0.00171,21.013367-0.001736
		c0.553497,0,1.09491,0.048279,1.626007,0.206928c1.191422,0.35863,1.870789,1.179368,2.10527,2.37255
		c0.082764,0.418985,0.125854,0.850047,0.125854,1.275952c0.006897,7.753929,0.005219,15.507885,0.006897,23.261814
		c0,0.484524-0.134445,0.903509-0.510361,1.225937c-0.284515,0.246576-0.613815,0.355209-0.991455,0.353474
		c-3.086365-0.003447-6.17453-0.001736-9.262619-0.001736H143.769257z"/>
	<path style="fill:#D91841;" d="M129.586258,48.182861h-0.92247c0.060349-0.291382,0.112076-0.551746,0.167221-0.81382
		c0.236206-1.150085,0.493149-2.296696,0.705215-3.451965c0.17244-0.941422-0.450012-1.182816-1.119019-1.065578
		c-0.489677,0.08448-0.844917,0.387966-1.125954,0.782825c-0.310356,0.441402-0.470688,0.941422-0.577614,1.463886
		c-0.193115,0.946602-0.394859,1.891499-0.596603,2.836365c-0.017204,0.084507-0.048248,0.167252-0.075874,0.2621
		c-0.29657,0.012077-0.570717,0.031021-0.877594-0.015522c0.04483-0.237949,0.082718-0.45174,0.127548-0.663826
		c0.236267-1.139748,0.47937-2.279465,0.708687-3.420921c0.037941-0.193115,0.04657-0.400017,0.024155-0.594868
		c-0.048309-0.401752-0.30867-0.629333-0.724213-0.66901c-0.477577-0.046539-0.882797,0.110371-1.227669,0.436245
		c-0.460373,0.436245-0.703476,0.989727-0.831078,1.594936c-0.21553,1.012115-0.415543,2.029442-0.622444,3.043293
		c-0.017258,0.08622-0.04657,0.172409-0.075874,0.277596h-0.887962c0.015526-0.125866,0.020683-0.231052,0.041359-0.334503
		c0.29483-1.424236,0.593132-2.846733,0.884537-4.270969c0.089668-0.437954,0.156914-0.881092,0.237953-1.34491h0.810394
		c0.058617,0.268993-0.086189,0.520725-0.07756,0.820736c0.089615-0.089638,0.15686-0.156883,0.225845-0.224133
		c0.513832-0.510387,1.12075-0.779377,1.857002-0.744884c0.667274,0.031044,1.119072,0.394859,1.270775,1.051788
		c0.003471,0.017262,0.018997,0.031048,0.039673,0.062065c0.051727-0.063774,0.099976-0.122417,0.150017-0.181038
		c0.572456-0.682793,1.294922-1.019035,2.191513-0.920742c0.524155,0.05862,1.112122,0.389679,1.222458,1.162136
		c0.037949,0.267258,0.012115,0.520725-0.037933,0.770748c-0.267258,1.33802-0.548294,2.672588-0.827606,4.007133
		C129.634521,48.084595,129.608627,48.129425,129.586258,48.182861"/>
	<path style="fill:#D91841;" d="M78.713394,47.250568c0.829346-1.708721,1.629379-3.357094,2.438034-5.019276h1.075974
		c0.146545,1.657001,0.293091,3.307106,0.444847,5.015831c0.834549-1.706989,1.644951-3.360542,2.457031-5.019276h0.953529
		c-1.029404,2.012207-2.03981,3.98819-3.048485,5.960724h-1.101807c-0.139648-1.64666-0.277565-3.276058-0.417221-4.907196
		c-0.018997-0.003448-0.039673-0.008629-0.060356-0.012077c-0.832809,1.625954-1.60527,3.281242-2.438087,4.921009h-1.053551
		c-0.224113-1.981163-0.429329-3.955433-0.634491-5.964169c0.186218-0.005184,0.331032-0.012077,0.477631-0.013813
		c0.137917-0.003448,0.277565-0.001713,0.453476-0.001713C78.428879,43.879688,78.55648,45.529797,78.713394,47.250568"/>
	<path style="fill:#D91841;" d="M104.110313,44.272285c-0.037941-0.191376-0.063774-0.45174-0.143074-0.69487
		c-0.155228-0.482788-0.53109-0.743149-1.038033-0.750042c-0.541405-0.008633-0.987991,0.205189-1.350067,0.601757
		c-0.358658,0.389679-0.581078,0.855232-0.722473,1.360435c-0.163803,0.577633-0.287933,1.162136-0.163803,1.765633
		c0.094818,0.475895,0.325874,0.82592,0.837975,0.939713c0.555244,0.124157,1.031136-0.024128,1.43457-0.403465
		C103.755127,46.346561,104.015495,45.37925,104.110313,44.272285 M104.250015,48.188046h-0.800079
		c0.036201-0.284489,0.068985-0.546562,0.101715-0.800034c-0.241371,0.193115-0.46727,0.401752-0.720734,0.569004
		c-0.529305,0.348293-1.131065,0.415539-1.729408,0.296566c-0.744888-0.148281-1.179367-0.669006-1.317337-1.38974
		c-0.220688-1.162136,0.015526-2.25705,0.620758-3.272614c0.29483-0.496601,0.691422-0.898354,1.196625-1.188026
		c0.503471-0.289673,1.051765-0.382782,1.617325-0.291382c0.515572,0.08448,0.934532,0.341396,1.184578,0.920742
		c0.282776-1.200073,0.501732-2.34153,0.774193-3.48988h0.898331C105.467323,42.430801,104.860359,45.296505,104.250015,48.188046"
		/>
	<path style="fill:#D91841;" d="M72.019524,42.923927c-0.067253-0.029308-0.101768-0.046539-0.139656-0.058617
		c-0.037941-0.012077-0.075874-0.025864-0.115555-0.029308c-0.493149-0.044834-0.974205-0.01897-1.431099,0.200008
		c-0.969048,0.462105-1.565651,1.241459-1.898422,2.238079c-0.162064,0.484524-0.255203,0.981098-0.134491,1.496639
		c0.139648,0.600052,0.581078,0.872463,1.184578,0.736256c0.343132-0.075851,0.624176-0.255177,0.875908-0.489677
		c0.594864-0.553482,0.958679-1.243198,1.16732-2.017368c0.163803-0.605206,0.306931-1.215595,0.455208-1.824249
		C72.002258,43.099812,72.007416,43.020485,72.019524,42.923927 M73.076492,42.3032
		c-0.351761,1.957035-0.993195,3.850246-1.065605,5.884872c-0.282776,0.034492-0.565552,0.024124-0.874168,0.006893
		c-0.055199-0.434509,0.108604-0.837971,0.098244-1.313866c-0.096558,0.131023-0.1586,0.217239-0.222427,0.300011
		c-0.389648,0.517281-0.869019,0.912113-1.51387,1.055241c-0.363815,0.081032-0.737999,0.105186-1.096657-0.012077
		c-0.681053-0.220688-0.998299-0.746597-1.065552-1.417316c-0.231049-2.294987,1.441475-4.314091,3.529533-4.688244
		c0.698318-0.125866,1.391479-0.056908,2.074272,0.115528C72.986832,42.246319,73.026451,42.277336,73.076492,42.3032"/>
	<path style="fill:#D91841;" d="M29.748209,45.863956c0,0.139656-0.008629,0.279335,0,0.418987
		c0.055199,0.772457,0.555193,1.244907,1.325968,1.256981c0.527618,0.010342,0.979359-0.179325,1.353539-0.539696
		c0.820713-0.789719,1.181107-1.762184,1.081078-2.891563c-0.055145-0.62244-0.431065-1.129379-1.098335-1.248352
		c-0.762146-0.134499-1.379377,0.136204-1.858744,0.712101C30.003416,44.232822,29.748209,45.006992,29.748209,45.863956
		 M30.882799,48.295128c-0.413857,0.027599-0.906956-0.12587-1.339754-0.468975
		c-0.465582-0.368999-0.720736-0.860413-0.756937-1.439758c-0.062092-0.969021,0.14481-1.888054,0.656906-2.719131
		c0.718998-1.167316,1.860479-1.717354,3.231226-1.56044c1.032822,0.117237,1.8036,1.019035,1.810493,2.057014
		c0.006893,1.072498-0.274151,2.050148-0.950054,2.896748C32.894981,47.864063,32.060429,48.288235,30.882799,48.295128"/>
	<path style="fill:#D91841;" d="M136.380112,44.388157c-0.043091-0.198273-0.074142-0.477604-0.165543-0.736259
		c-0.141388-0.400017-0.441376-0.656933-0.856903-0.763828c-0.65007-0.163807-1.229416-0.015522-1.727722,0.420723
		c-0.587982,0.513805-0.88797,1.189732-1.03624,1.939777c-0.096558,0.484497-0.113815,0.97073,0.055145,1.446625
		c0.146545,0.415565,0.431061,0.681084,0.863861,0.789719c0.515564,0.127602,0.998352,0.04483,1.427673-0.251736
		C135.904221,46.569328,136.28183,45.593414,136.380112,44.388157 M133.850677,48.303913
		c-0.563873,0.022415-1.070755-0.132759-1.508713-0.486233c-0.531097-0.429325-0.779404-1.008671-0.770782-1.679417
		c0.008636-0.848309,0.194855-1.660442,0.636292-2.398411c0.367233-0.615574,0.862122-1.093178,1.525925-1.384586
		c0.601761-0.263809,1.229401-0.344845,1.872528-0.220688c1.022507,0.198273,1.739761,1.0173,1.707031,2.203587
		c-0.018997,0.724182-0.1828,1.422501-0.525925,2.067356c-0.508636,0.95697-1.258667,1.612194-2.343216,1.832882
		C134.250702,48.278049,134.04895,48.283234,133.850677,48.303913"/>
	<path style="fill:#D91841;" d="M146.023331,45.87793c0,0.139652-0.010361,0.279331,0.00174,0.418983
		c0.048248,0.594868,0.398285,1.048347,0.901749,1.179398c0.589706,0.151726,1.129379,0.034489,1.612167-0.324165
		c0.639694-0.474159,0.982834-1.139721,1.18631-1.886318c0.13623-0.49831,0.174118-1.000065,0.003418-1.501823
		c-0.155167-0.456924-0.453476-0.7673-0.932785-0.881092c-0.767303-0.182774-1.405273,0.067249-1.910477,0.636253
		C146.292328,44.184727,146.028488,44.989941,146.023331,45.87793 M150.768494,44.348507
		c-0.037949,1.213886-0.415604,2.293251-1.33287,3.124355c-0.865585,0.782799-1.886307,1.022484-3.003647,0.682796
		c-0.822449-0.250023-1.369064-1.050056-1.381104-1.908733c-0.013794-0.993172,0.208633-1.922546,0.782761-2.741573
		c0.755264-1.074207,1.812241-1.531132,3.108841-1.401794c1.020767,0.103451,1.786331,0.955235,1.826019,1.975983
		C150.771912,44.169205,150.768494,44.258869,150.768494,44.348507"/>
	<path style="fill:#D91841;" d="M58.24091,44.404362c-0.041412-0.19138-0.081036-0.477604-0.169018-0.748306
		c-0.134441-0.408646-0.436218-0.663853-0.851757-0.765568c-0.829338-0.205189-1.501823,0.075851-2.008762,0.727631
		c-0.64138,0.822472-0.894852,1.769077-0.746571,2.805347c0.0793,0.556927,0.417278,0.972466,1.003513,1.079391
		c0.617283,0.113789,1.150059-0.051754,1.605274-0.456924C57.830528,46.371738,58.152981,45.492382,58.24091,44.404362
		 M55.708,48.29081c-0.322456,0.008633-0.638016-0.022388-0.938004-0.153439
		c-0.848335-0.370705-1.269085-1.025928-1.289764-1.941513c-0.018944-0.884541,0.167278-1.722511,0.629387-2.484631
		c0.686214-1.131115,1.691463-1.674259,3.020851-1.620796c0.962154,0.037937,1.736298,0.653484,1.974247,1.581146
		c0.105186,0.413803,0.075878,0.83279,0.015522,1.244907c-0.113766,0.789692-0.38623,1.522503-0.898327,2.150127
		C57.573586,47.863224,56.744244,48.29081,55.708,48.29081"/>
	<path style="fill:#D91841;" d="M7.069213,46.006557c0.039623,0.193115,0.068932,0.474159,0.156912,0.73452
		c0.134496,0.391415,0.418959,0.643147,0.831078,0.743149c0.670745,0.160362,1.248353-0.031044,1.73977-0.481075
		c0.593131-0.546562,0.906956-1.246616,1.053502-2.03289c0.079298-0.420692,0.065512-0.832787-0.068985-1.237984
		c-0.141389-0.424171-0.424169-0.71558-0.863807-0.836262c-0.634543-0.174145-1.212151-0.044834-1.705304,0.381046
		C7.408875,43.971931,7.153668,44.909935,7.069213,46.006557 M6.157101,46.047916
		c0.001684-0.900036,0.224108-1.739742,0.724154-2.491524c0.737993-1.110409,1.798388-1.593197,3.108833-1.450096
		c1.200048,0.13105,1.815595,1.112144,1.839747,1.963928c0.034518,1.196629-0.2862,2.2691-1.087968,3.172611
		c-0.560401,0.632805-1.269086,0.991436-2.119106,1.038006c-0.268992,0.013786-0.544879,0.015495-0.805242-0.032784
		c-1.037979-0.194824-1.691465-1.094887-1.660419-2.050121C6.158785,46.147945,6.157101,46.097931,6.157101,46.047916"/>
	<path style="fill:#D91841;" d="M90.976715,44.424015c-0.029312-0.170696-0.048256-0.389675-0.106873-0.598312
		c-0.1707-0.624176-0.61039-0.96384-1.260452-0.996593c-0.756935-0.037941-1.320763,0.30864-1.758713,0.893143
		c-0.436218,0.584526-0.63623,1.256981-0.706947,1.970821c-0.03273,0.348293-0.00174,0.698318,0.12413,1.029377
		c0.150017,0.400017,0.429375,0.660381,0.851807,0.762119c0.656906,0.158623,1.229355-0.017231,1.715614-0.45866
		C90.583595,46.344852,90.899155,45.462021,90.976715,44.424015 M86.219566,46.029289
		c0.022362-1.013851,0.275833-1.957012,0.927635-2.750149c0.817291-0.99662,1.889732-1.372509,3.150192-1.120777
		c0.981094,0.194851,1.54834,1.055237,1.589752,1.829433c0.065506,1.238014-0.258629,2.351871-1.094917,3.277798
		c-0.756935,0.837971-1.73288,1.153503-2.843262,0.996616c-1.010406-0.144833-1.722511-1.00351-1.729401-2.024284
		C86.219566,46.168968,86.219566,46.098274,86.219566,46.029289"/>
	<path style="fill:#D91841;" d="M48.025448,50.855804c0.077564-0.287949,0.136181-0.506924,0.196537-0.73452
		c0.153439,0,0.28278-0.008629,0.410381,0.001724c0.436218,0.036201,0.739677-0.179329,0.917271-0.543144
		c0.160385-0.327583,0.301773-0.677612,0.379337-1.034531c0.39312-1.800125,0.762146-3.603672,1.138008-5.407242
		c0.010365-0.048279,0.006893-0.098293,0.010365-0.186222c-0.350025-0.008629-0.693161-0.017231-1.077652-0.027599
		c0.048252-0.251732,0.089664-0.468975,0.13623-0.710369h1.117279c0.067245-0.289669,0.117237-0.563847,0.196587-0.827656
		c0.099979-0.332767,0.19138-0.674164,0.344818-0.982807c0.479366-0.965572,1.500141-1.189735,2.357052-0.875935
		c-0.006893,0.244865-0.082771,0.474182-0.18964,0.710392c-0.115555-0.020679-0.222424-0.03965-0.32761-0.058617
		c-0.4328-0.082771-0.772461,0.055172-0.981098,0.444847c-0.120708,0.225895-0.20348,0.475895-0.274151,0.722469
		c-0.075878,0.267258-0.117287,0.544853-0.1828,0.86039c0.441429,0.003445,0.862125,0.00518,1.322495,0.008629
		c-0.060356,0.256916-0.110344,0.467262-0.167225,0.712105h-1.298344c-0.043148,0.184509-0.081085,0.336239-0.113815,0.489704
		c-0.379337,1.782867-0.753517,3.565731-1.139748,5.346889c-0.108604,0.49831-0.267254,0.987976-0.587975,1.394897
		c-0.158596,0.20002-0.356918,0.374168-0.558662,0.532803c-0.165489,0.129314-0.374126,0.174145-0.593132,0.167252
		C48.734081,50.848911,48.406471,50.855804,48.025448,50.855804"/>
	<path style="fill:#D91841;" d="M20.000908,48.190624h-0.801821c0.039677-0.306908,0.075878-0.593132,0.118975-0.932793
		c-0.181013,0.186195-0.313772,0.331032-0.455162,0.470711c-0.667326,0.658669-1.805283,0.682796-2.374313,0.398304
		c-0.491417-0.244839-0.744886-0.648327-0.789719-1.184578c-0.036202-0.429325,0.032783-0.851757,0.122447-1.274216
		c0.234473-1.079365,0.458634-2.162201,0.686267-3.243301c0.017208-0.075851,0.043097-0.15173,0.070669-0.246578h0.896589
		c-0.017206,0.112083-0.029308,0.225899-0.051725,0.337978c-0.256889,1.237988-0.517252,2.476002-0.770723,3.714016
		c-0.027573,0.134495-0.039675,0.279331-0.024151,0.415539c0.07935,0.712128,0.562138,0.974201,1.265612,0.875935
		c0.725891-0.101742,1.15527-0.581081,1.453518-1.206993c0.23279-0.49139,0.310404-1.027641,0.42417-1.551811
		c0.172434-0.808662,0.331083-1.619061,0.496626-2.42775c0.010313-0.048279,0.032728-0.093109,0.056881-0.156914h0.886276
		C20.806097,44.190384,20.404345,46.183624,20.000908,48.190624"/>
	<path style="fill:#D91841;" d="M112.916084,48.189438h-0.879379c0.017258-0.125866,0.025833-0.231026,0.04657-0.334476
		c0.287933-1.393215,0.581024-2.786404,0.86554-4.181305c0.0793-0.389675,0.134499-0.784534,0.201744-1.175949
		c0.015526-0.087925,0.03968-0.172409,0.062096-0.267254h0.829338c-0.04657,0.306904-0.0914,0.589684-0.13623,0.874199
		c0.229317-0.205193,0.441429-0.434509,0.688004-0.613838c0.59655-0.432796,1.275925-0.510384,1.969086-0.325874
		c0.575874,0.153439,0.884537,0.569004,0.987991,1.156952c0.074142,0.424171-0.006897,0.834553-0.089661,1.241463
		c-0.225899,1.132824-0.46727,2.260494-0.703476,3.391609c-0.015526,0.075851-0.043152,0.149994-0.068985,0.23103h-0.90522
		c0.048248-0.248287,0.089661-0.468975,0.136177-0.68969c0.225899-1.0811,0.456955-2.162201,0.674217-3.245037
		c0.039627-0.201721,0.043098-0.417252,0.029312-0.62418c-0.031044-0.429325-0.315559-0.724178-0.770775-0.784534
		c-0.617287-0.081036-1.143166,0.113815-1.556969,0.584526c-0.30867,0.353477-0.494888,0.769016-0.594872,1.224228
		c-0.239677,1.087994-0.474152,2.177727-0.712105,3.267429C112.97123,48.004955,112.943657,48.089436,112.916084,48.189438"/>
	<path style="fill:#D91841;" d="M156.151917,48.189255h-0.898376c0.04483-0.243103,0.081039-0.463818,0.127609-0.684505
		c0.224152-1.070759,0.460373-2.141521,0.67247-3.215729c0.048264-0.239658,0.051727-0.496574,0.020691-0.739704
		c-0.041367-0.344845-0.246582-0.575897-0.594879-0.66901c-0.674164-0.182774-1.394897,0.089664-1.838058,0.705212
		c-0.277573,0.387966-0.444839,0.824211-0.543137,1.286293c-0.224106,1.06213-0.446594,2.12429-0.669006,3.18642
		c-0.008591,0.036201-0.029312,0.070694-0.053421,0.125866h-0.862122c0.181015-1.010406,0.391388-1.989792,0.589661-2.97089
		c0.198318-0.984543,0.393127-1.970795,0.594864-2.974308c0.256943-0.050018,0.520737-0.031048,0.825928-0.008633
		c-0.043091,0.289673-0.084503,0.558666-0.131027,0.869019c0.191376-0.181038,0.348297-0.337952,0.51384-0.484497
		c0.596542-0.524174,1.301758-0.627625,2.048386-0.470737c0.66037,0.139679,1.056976,0.648331,1.100067,1.320786
		c0.025833,0.374153-0.049988,0.73452-0.12413,1.094887c-0.243164,1.170765-0.484528,2.339821-0.727631,3.510586
		C156.196701,48.097881,156.181229,48.123745,156.151917,48.189255"/>
	<path style="fill:#D91841;" d="M39.863899,48.188572h-0.886276c0.008633-0.096558,0.008633-0.174145,0.022419-0.246552
		c0.256889-1.238014,0.517254-2.474289,0.768986-3.714039c0.036201-0.182777,0.04483-0.375893,0.037937-0.563824
		c-0.022415-0.468998-0.332767-0.784534-0.824184-0.829369c-0.619019-0.056881-1.132851,0.15173-1.536289,0.632809
		c-0.394859,0.467262-0.550034,1.031086-0.674217,1.608719c-0.205166,0.963863-0.408646,1.927704-0.613811,2.891567
		c-0.017258,0.075851-0.053459,0.146545-0.081032,0.222424h-0.855232c0.368973-2.005291,0.837971-3.964039,1.175949-5.958988
		h0.836235c-0.049988,0.312088-0.094822,0.601761-0.134499,0.846603c0.2621-0.21727,0.525936-0.479343,0.829395-0.679352
		c0.517254-0.344868,1.110386-0.387966,1.701832-0.265545c0.70863,0.146572,1.115593,0.670746,1.138008,1.415607
		c0.006893,0.225868-0.015522,0.45866-0.062092,0.681084c-0.24831,1.229385-0.508675,2.457058-0.765564,3.682995
		C39.924202,48.000641,39.893211,48.085121,39.863899,48.188572"/>
	<path style="fill:#D91841;" d="M41.310368,48.012161c0.089611-0.268963,0.168964-0.513805,0.256889-0.775906
		c0.098293,0.039677,0.1707,0.06554,0.241367,0.098297c0.575924,0.255177,1.169056,0.303455,1.779446,0.143097
		c0.237949-0.062065,0.439693-0.182747,0.605232-0.36726c0.29483-0.324165,0.31551-0.787983,0.027576-1.115593
		c-0.12413-0.141388-0.272415-0.267258-0.425907-0.374153c-0.218952-0.155174-0.458633-0.28278-0.682796-0.431061
		c-0.174171-0.115528-0.343132-0.239658-0.505203-0.372444c-0.722469-0.596577-0.615543-1.784576,0.21727-2.303593
		c0.362076-0.225868,0.758671-0.363811,1.177631-0.40691c0.579346-0.056908,1.157005-0.02586,1.717354,0.158623
		c0.072456,0.022419,0.141388,0.060356,0.239685,0.101742c-0.081036,0.23621-0.156914,0.458633-0.244843,0.717289
		c-0.108608-0.036232-0.200008-0.062092-0.287933-0.094849c-0.531094-0.19138-1.070763-0.244839-1.615643-0.086216
		c-0.177589,0.050014-0.350025,0.150017-0.49831,0.262096c-0.289669,0.220688-0.381073,0.750046-0.051723,1.029377
		c0.20348,0.172409,0.427643,0.324165,0.650066,0.475895c0.270676,0.184483,0.558613,0.348289,0.822449,0.54314
		c0.913849,0.674168,0.796612,2.027706-0.084511,2.601868c-0.341396,0.22245-0.706947,0.377628-1.108646,0.427616
		c-0.686268,0.084507-1.372536,0.096558-2.039806-0.141392C41.444813,48.081146,41.394821,48.051838,41.310368,48.012161"/>
	<path style="fill:#D91841;" d="M23.298542,42.92598h-1.046661c-0.015522-0.267254,0.063828-0.477604,0.14139-0.712101h1.048346
		c0.101767-0.460373,0.201744-0.903511,0.305195-1.370773c0.31035-0.094822,0.620756-0.189671,0.991463-0.30175
		c-0.115553,0.584526-0.217268,1.105255-0.327612,1.669075h1.243196c0.024101,0.268993-0.044832,0.481075-0.11208,0.720734
		h-1.274242c-0.034466,0.0914-0.072405,0.162071-0.087927,0.236237c-0.229319,1.0811-0.462109,2.160465-0.681059,3.243305
		c-0.044832,0.222424-0.050041,0.455185-0.050041,0.682793c0,0.281044,0.132759,0.427616,0.41901,0.437958
		c0.186222,0.008629,0.37418-0.037941,0.560402-0.065514c0.084455-0.013813,0.167227-0.043121,0.289673-0.075878
		c-0.02931,0.258652-0.053461,0.481079-0.081087,0.712132c-0.160334,0.143101-0.363813,0.149994-0.558613,0.1707
		c-0.169014,0.018967-0.339714,0.017231-0.508677,0.015495c-0.662115-0.010342-1.074181-0.398281-1.072496-1.06213
		c0.001736-0.344845,0.063828-0.693138,0.132812-1.032825c0.210321-1.044899,0.437954-2.086323,0.656906-3.127773
		C23.293333,43.03635,23.291595,43.007042,23.298542,42.92598"/>
	<path style="fill:#D91841;" d="M139.572617,42.932373h-1.06218c0.029297-0.153439,0.04483-0.267254,0.070709-0.379307
		c0.024155-0.10519,0.058624-0.208641,0.094833-0.336243h1.062119c0.100037-0.45866,0.194855-0.893169,0.298309-1.369064
		c0.305191-0.094818,0.624176-0.193115,0.994888-0.308613c-0.060364,0.313797-0.112091,0.581055-0.165497,0.850044
		c-0.051773,0.262074-0.105179,0.524174-0.165543,0.815556h1.279404c-0.043152,0.251762-0.079346,0.470737-0.120712,0.703503
		c-0.446579,0.067249-0.875916,0-1.331131,0.046543c-0.077606,0.351761-0.158646,0.706947-0.234467,1.063866
		c-0.177643,0.827633-0.35524,1.653553-0.522461,2.482922c-0.037933,0.184486-0.04483,0.375889-0.043091,0.56382
		c0.003418,0.293121,0.141388,0.448322,0.434479,0.465557c0.175858,0.010338,0.355179-0.032757,0.531082-0.060356
		c0.086197-0.013786,0.1707-0.046543,0.268997-0.074142c0.068939,0.268993-0.020737,0.503494-0.051773,0.755226
		c-0.46553,0.156914-0.931061,0.193115-1.393173,0.094822c-0.424164-0.091373-0.682785-0.45348-0.712097-0.893143
		c-0.031052-0.451767,0.048248-0.891434,0.144806-1.331123c0.21727-0.981098,0.42244-1.963905,0.629395-2.946739
		C139.586395,43.046192,139.577774,43.015144,139.572617,42.932373"/>
	<path style="fill:#D91841;" d="M98.487251,39.52145c0.182747,0,0.38102-0.001709,0.579346,0
		c0.087929,0.001736,0.174118,0.012077,0.305138,0.020706c-0.606911,2.888119-1.220726,5.752087-1.834587,8.635021
		c-0.299988,0.048279-0.579346,0.039677-0.85865,0.012077C96.66124,47.939232,98.354439,39.828384,98.487251,39.52145"/>
	<path style="fill:#D91841;" d="M14.430362,39.543709h0.886223c-0.615547,2.889854-1.222464,5.750378-1.834591,8.628155
		c-0.298302,0.060329-0.58108,0.03965-0.862123,0.020679C12.595717,47.956333,14.252717,40.064434,14.430362,39.543709"/>
	<path style="fill:#D91841;" d="M61.952713,42.230083c-0.04657,0.296593-0.087982,0.560402-0.139706,0.881092
		c0.07935-0.068958,0.125866-0.096558,0.153492-0.134468c0.205166-0.279331,0.469002-0.486259,0.760357-0.665562
		c0.40696-0.251762,0.843182-0.258656,1.329388-0.186222c-0.030991,0.32069-0.146545,0.593132-0.220688,0.889694
		c-0.094822-0.003445-0.172436,0-0.246578-0.013786c-0.582764-0.110344-1.034504,0.118977-1.403526,0.544853
		c-0.387966,0.450031-0.587975,0.991463-0.71558,1.560467c-0.203426,0.924191-0.398277,1.848377-0.598286,2.772568
		c-0.020679,0.098293-0.048306,0.193115-0.077614,0.306931h-0.898327c0.417274-1.988056,0.829395-3.950249,1.250088-5.953831
		C61.390575,42.188725,61.661304,42.209404,61.952713,42.230083"/>
	<path style="fill:#D91841;" d="M94.561653,43.062214c0.758621-0.8466,1.482826-1.143166,2.232872-0.891434
		c-0.075882,0.281071-0.151756,0.56385-0.220688,0.817291c-0.251732,0-0.469002-0.015495-0.684532,0.003475
		c-0.448326,0.03965-0.7742,0.291382-1.037979,0.637962c-0.384544,0.505203-0.567299,1.091442-0.696632,1.701832
		c-0.186226,0.875908-0.372444,1.75182-0.55867,2.627754c-0.015465,0.068958-0.039619,0.132759-0.067245,0.224136h-0.891434
		c0.413857-1.989769,0.82592-3.96059,1.241463-5.953804h0.808708C94.642685,42.522545,94.603012,42.791512,94.561653,43.062214"/>
	<path style="fill:#D91841;" d="M27.06307,42.230953h0.932793c-0.417274,2.000134-0.829342,3.972664-1.243196,5.957275h-0.9259
		C26.228519,46.184677,26.652689,44.215561,27.06307,42.230953"/>
	<path style="fill:#D91841;" d="M110.248314,48.189781h-0.865601c-0.024147-0.237919,1.044876-5.42963,1.224205-5.957249h0.881119
		c-0.086243,0.684502-0.267258,1.334541-0.394859,1.99321c-0.129341,0.653488-0.272469,1.305264-0.412117,1.958748
		C110.539665,46.844872,110.396599,47.50354,110.248314,48.189781"/>
	<path style="fill:#D91841;" d="M143.375092,42.23061h0.913849c-0.417282,1.996685-0.827667,3.96751-1.24147,5.953831h-0.934586
		C142.537064,46.184334,142.95433,44.213509,143.375092,42.23061"/>
	<path style="fill:#D91841;" d="M144.775345,39.843906c-0.070709,0.368996-0.134491,0.696606-0.200058,1.043186h-0.963837
		c0.074142-0.358654,0.143127-0.691425,0.21553-1.043186H144.775345z"/>
	<path style="fill:#D91841;" d="M111.056816,39.834934h0.943161c-0.075882,0.365551-0.148285,0.710392-0.219009,1.056973h-0.962097
		C110.899902,40.53154,110.975731,40.195328,111.056816,39.834934"/>
	<path style="fill:#D91841;" d="M27.321856,40.868782c0.081034-0.351738,0.15686-0.684505,0.234474-1.025902h0.943157
		c-0.074141,0.355183-0.14139,0.682793-0.206902,1.005222C28.078793,40.922245,27.713242,40.932583,27.321856,40.868782"/>
	<path style="fill:#006FAF;" d="M166.607056,8.693666c2.005295,0.058619,3.936447-1.646659,3.922653-3.919205
		c-0.010315-2.110477-1.638-3.869216-3.853668-3.907155c-2.269119-0.037939-3.976105,1.7484-3.977844,3.929571
		C162.698196,7.069424,164.610397,8.748838,166.607056,8.693666 M167.243347,0
		c0.151703,0.039675,0.30513,0.075878,0.455154,0.117263c1.981186,0.551745,3.248489,1.808728,3.617508,3.838171
		c0.479309,2.62602-1.169052,4.870993-3.496796,5.469307c-1.705307,0.436245-3.239853,0.029309-4.536514-1.184552
		c-0.775879-0.727627-1.258667-1.624243-1.415588-2.670851c-0.236206-1.562178,0.177597-2.938135,1.277664-4.093377
		c0.681061-0.713841,1.500092-1.177658,2.467407-1.381113C165.756989,0.063802,165.900116,0.031046,166.043243,0H167.243347z"/>
	<path style="fill:#006FAF;" d="M165.640594,4.370789c0.567291-0.018943,1.112122,0.055198,1.65358-0.058619
		c0.058609-0.01205,0.115494-0.029309,0.1707-0.051725c0.281036-0.110343,0.418961-0.322428,0.439636-0.617283
		c0.006943-0.079298,0.00174-0.158623,0.00174-0.239657c0-0.255206-0.118973-0.450031-0.348297-0.543142
		c-0.200012-0.079324-0.417267-0.139653-0.631073-0.155176c-0.36554-0.025863-0.736252-0.00863-1.105225-0.00863
		c-0.056931,0.001737-0.112076,0.017233-0.181061,0.027599V4.370789z M167.428665,5.06566
		c0.506897,0.793165,1.001785,1.569071,1.517303,2.374313h-0.951797c-0.47757-0.784536-0.950043-1.556995-1.42247-2.334638
		h-0.936264v2.298409c-0.293152,0.053462-0.553513,0.043122-0.832809,0.005183V2.003422
		c0.075867-0.010366,0.143127-0.025863,0.210373-0.025863c0.698318,0,1.398315-0.00692,2.098373,0.006893
		c0.30867,0.006893,0.612122,0.062065,0.901794,0.189668c0.463791,0.205165,0.708679,0.572451,0.775879,1.058685
		c0.027634,0.194825,0.024155,0.401752-0.005157,0.596577c-0.086182,0.577634-0.417267,0.956971-0.979355,1.12938
		C167.692444,4.993255,167.57695,5.022564,167.428665,5.06566"/>
</g>
</svg>
