<?xml version="1.0" encoding="utf-8"?>
<!-- Generator: Adobe Illustrator 19.1.0, SVG Export Plug-In . SVG Version: 6.00 Build 0)  -->
<svg version="1.0" id="Слой_1" xmlns="http://www.w3.org/2000/svg" xmlns:xlink="http://www.w3.org/1999/xlink" x="0px" y="0px"
	 viewBox="0 0 240.207596 53.757328" style="enable-background:new 0 0 240.207596 53.757328;" xml:space="preserve">
<g>
	<path d="M2.143312,29.179546c-1.35875,0-2.205403-0.76725-2.143312-1.882843h0.774248
		c-0.027678,0.694845,0.525883,1.212151,1.479354,1.212151c1.031138,0,1.846641-0.563822,1.934621-1.32081
		c0.081035-0.681059-0.36897-0.970732-1.315601-0.970732H1.877687l0.213847-0.631069H3.08647
		c0.912112,0,1.605221-0.467264,1.675942-1.103544c0.075878-0.637962-0.339714-0.962101-1.193208-0.962101
		c-0.917269,0-1.627637,0.467264-2.020813,1.217308H0.774248c0.52241-1.125908,1.565546-1.893209,2.943238-1.893209
		c1.293185,0,1.988083,0.591394,1.879476,1.517345c-0.089664,0.756937-0.756989,1.331125-1.536289,1.456991l-0.025889,0.068932
		c0.662063,0.124184,1.055238,0.567295,0.974204,1.267349C4.871019,28.360571,3.627823,29.179546,2.143312,29.179546"/>
	<path d="M15.474444,26.910473l0.270677-0.8466l-1.922519,0.096558c-1.215624,0.06209-1.944935,0.534512-2.013972,1.284555
		c-0.058619,0.631123,0.470737,1.074234,1.300132,1.074234C14.181259,28.51922,15.181247,27.832952,15.474444,26.910473
		 M10.996601,27.519127c0.110291-1.177631,1.158689-1.893209,2.924294-1.972507l2.01734-0.0914l0.144811-0.460371
		c0.043148-0.148283,0.070721-0.251734,0.081034-0.363813c0.065565-0.700054-0.462107-1.115595-1.415579-1.115595
		c-0.841392,0-1.512189,0.363815-1.763923,0.950052h-0.827604c0.353499-0.984518,1.425998-1.620796,2.719183-1.620796
		c1.358644,0,2.18625,0.658695,2.089744,1.689781c-0.013786,0.158648-0.055145,0.334503-0.106922,0.505203l-1.269086,4.031311
		h-0.762041l0.294777-0.938002h-0.070616c-0.50694,0.631071-1.367379,1.041452-2.236343,1.041452
		C11.682763,29.174442,10.90862,28.462337,10.996601,27.519127"/>
	<path d="M24.650503,23.578375l-0.634489,2.013918h1.57428c1.013775,0,1.648369-0.551771,1.708672-1.194942
		c0.048306-0.529305-0.287935-0.818975-1.032822-0.818975H24.650503z M23.814268,26.223364l-0.694897,2.217348h1.805281
		c1.062185,0,1.786339-0.556929,1.857061-1.308708c0.058619-0.631071-0.40349-0.90864-1.315601-0.90864H23.814268z
		 M24.054005,22.947252h2.408726c1.131117,0,1.738033,0.527672,1.662157,1.348383
		c-0.074089,0.794876-0.74836,1.381113-1.608694,1.534605l-0.018944,0.074142
		c0.748255,0.089663,1.165529,0.539669,1.106911,1.177631c-0.105133,1.124224-1.205204,1.989767-2.862204,1.989767h-2.622574
		L24.054005,22.947252z"/>
	<path d="M35.86916,28.496752c1.31739,0,2.555431-1.256931,2.714027-2.967392c0.115551-1.24667-0.522411-2.01392-1.648369-2.01392
		c-1.501877,0-2.59679,1.331125-2.757069,3.04327C34.070824,27.701876,34.707104,28.496752,35.86916,28.496752 M33.341515,26.638008
		c0.193115-2.075958,1.651737-3.793312,3.727798-3.793312c1.56039,0,2.501865,1.029348,2.363895,2.524279
		c-0.189644,2.031179-1.641426,3.805414-3.722645,3.805414C34.150173,29.174389,33.201756,28.145041,33.341515,26.638008"/>
	<path d="M50.672703,23.578375h-2.80706c-0.118919,0.318981-0.979359,2.519121-1.119015,2.860519
		c-0.348343,0.85865-0.72068,1.546656-1.181103,1.932884l-0.018944,0.068933h3.588146L50.672703,23.578375z M43.358543,30.692577
		l0.717209-2.251865h0.524197c0.503468-0.284464,1.02935-1.074183,1.410423-2.031126
		c0.146599-0.351765,1.227726-3.126093,1.353592-3.462282h4.301991l-1.731194,5.493408h1.043137l-0.717209,2.251865h-0.739731
		l0.515568-1.620745h-5.424473l-0.513885,1.620745H43.358543z"/>
	<path d="M129.136047,29.699272c-1.007034,3.379562-3.439972,4.80035-8.036736,4.80035
		c-4.59687,0-6.034866-1.420788-5.086548-4.602026l1.865585-6.259026c0.970833-3.260536,3.153717-4.60029,7.826363-4.60029
		c4.672745,0,6.202194,1.360434,5.183151,4.779619h-3.467537c0.44664-1.498404,0.244896-2.339794-2.44146-2.339794
		c-2.513962,0-3.239906,0.841391-3.674438,2.301855l-1.781082,5.977983c-0.436218,1.460411-0.210373,2.300119,2.301804,2.300119
		c2.513969,0,3.389877-0.839708,3.843353-2.358791H129.136047z"/>
	<path style="fill:#020203;" d="M125.620415,19.327059c-4.471008,0-6.47982,1.169056-7.416031,4.312355l-1.865692,6.257288
		c-0.912109,3.064003,0.49147,4.312355,4.846916,4.312355c4.322723,0,6.531387-1.225937,7.533264-4.219271h-2.820946
		c-0.598289,1.670839-1.825905,2.358789-4.157074,2.358789c-2.751907,0-3.007118-1.036295-2.543327-2.591526l1.781181-5.979719
		c0.463791-1.553549,1.336235-2.588055,4.086464-2.588055c2.708763,0,3.12088,0.886223,2.760536,2.338057h2.817375
		C131.436279,20.509901,129.999954,19.327059,125.620415,19.327059 M121.013229,34.790085
		c-4.69001,0-6.333221-1.508717-5.326286-4.893383l1.865685-6.257288c1.034508-3.476068,3.420921-4.891699,8.240166-4.891699
		c4.85891,0,6.479713,1.51561,5.420998,5.071026l-0.086182,0.289673h-4.120979l0.086189-0.289673
		c0.36908-1.238039,0.415588-2.050121-2.200035-2.050121c-2.265709,0-2.857155,0.648277-3.262329,2.008711l-1.781181,5.979719
		c-0.406853,1.363853-0.201744,2.010447,2.063965,2.010447c2.363892,0,3.027748-0.725891,3.427765-2.069065l0.086296-0.289673
		h4.120872l-0.086197,0.289673C128.411896,33.21933,125.80658,34.790085,121.013229,34.790085"/>
	<path d="M139.706635,29.039577l0.089676-5.700361l-3.305374,5.700361H139.706635z M143.517258,34.458843h-3.565826
		l-0.1707-2.720814h-4.948578l-1.813919,2.720814h-3.567413l9.931686-15.380255h3.441544L143.517258,34.458843z"/>
	<path style="fill:#020203;" d="M136.996292,28.749432h2.379471l0.065567-4.217533L136.996292,28.749432z M140.039612,29.328775
		h-4.053726l4.165817-7.181503L140.039612,29.328775z M140.275772,34.168697h2.888199l-0.665634-14.800911h-2.962189
		l-9.555756,14.800911h2.888092l1.813904-2.720814h5.424484L140.275772,34.168697z M143.87265,34.748043h-4.245148l-0.1707-2.719131
		h-4.47438l-1.813904,2.719131h-4.246841l10.307495-15.961338h3.922699l0.0121,0.206902L143.87265,34.748043z"/>
	<polygon points="158.223145,21.478579 154.107315,21.478579 150.122528,34.458736 146.57753,34.458736 150.562225,21.478579 
		146.41893,21.478579 147.174133,19.018127 158.978348,19.018127 	"/>
	<path style="fill:#020203;" d="M147.003113,34.168697h2.874313l3.984695-12.980106h4.115814l0.575867-1.881159h-11.131729
		l-0.577652,1.881159h4.143387L147.003113,34.168697z M150.370575,34.748043h-4.21759l3.984802-12.978371H145.9944
		l0.932846-3.043322h12.476578l-0.932739,3.043322h-4.115814L150.370575,34.748043z"/>
	<polygon points="173.324097,19.058224 172.58783,21.458426 164.69075,21.458426 163.475128,25.41728 170.204895,25.41728 
		169.444534,27.898464 162.712982,27.898464 161.466415,31.959085 169.725525,31.959085 168.951385,34.478207 157.121277,34.478207 
		161.856125,19.058224 	"/>
	<path style="fill:#020203;" d="M157.546661,34.18906h11.159409l0.594818-1.939777h-8.257431l1.42421-4.641703h6.729767
		l0.582809-1.898365h-6.729752l1.393158-4.539936h7.895401l0.560394-1.82254h-10.795593L157.546661,34.18906z M169.199219,34.770103
		H156.69664l4.914169-16.002708h12.136871l-0.913803,2.98123h-7.897079l-1.036285,3.379509h6.729752l-0.939682,3.060528h-6.729767
		l-1.069016,3.47954h8.259109L169.199219,34.770103z"/>
	<path d="M185.902344,34.458843h-3.572678l3.967422-12.91975h-4.686432l-1.948395,5.760715
		c-1.457047,4.319246-3.089844,7.619457-8.824768,7.159035l0.957047-2.700134c3.070892,0.200006,3.746735-2.679508,4.345032-4.4589
		l2.724335-8.281576h11.77832L185.902344,34.458843z"/>
	<path style="fill:#020203;" d="M171.268661,34.19022c1.798325,0.1035,3.238113-0.187908,4.365753-0.889698
		c1.946732-1.210415,2.891571-3.631243,3.69339-6.008976l2.044907-6.043493h5.350388l-3.965851,12.919748h2.898514
		l4.562347-14.859528h-11.114471l-2.769165,8.421228c-0.420746,1.296606-0.943161,2.910509-2.293274,3.769213
		c-0.581039,0.367233-1.256989,0.555191-2.015656,0.560349L171.268661,34.19022z M171.779068,34.791981
		c-0.341507,0-0.694901-0.015472-1.060501-0.044781l-0.312042-0.02589l1.16217-3.274321l0.3414,0.020679
		c0.713837,0.049988,1.31044-0.081036,1.808746-0.400017c1.082809-0.688005,1.562073-2.162203,1.946625-3.345043l2.958817-8.995417
		h12.443848L186.150604,34.7472h-4.243378l3.965744-12.918068h-4.026047l-1.853577,5.477938
		c-0.841507,2.503599-1.850128,5.062346-4.045105,6.427988C174.810287,34.442005,173.439438,34.791981,171.779068,34.791981"/>
	<path d="M203.676895,34.458843h-3.572678l3.967438-12.91975h-4.686432l-1.94841,5.760715
		c-1.457031,4.319246-3.089828,7.619457-8.824768,7.159035l0.957062-2.700134c3.070892,0.200006,3.746735-2.679508,4.345016-4.4589
		l2.72435-8.281576h11.77832L203.676895,34.458843z"/>
	<path style="fill:#020203;" d="M189.044586,34.19022c1.796646,0.1035,3.238113-0.187908,4.365768-0.889698
		c1.946716-1.210415,2.891556-3.631243,3.693375-6.008976l2.044922-6.043493h5.346909l-3.965744,12.919748h2.900192
		l4.562347-14.859528h-11.112778l-2.76918,8.417755c-0.418961,1.296658-0.943146,2.910561-2.293274,3.770948
		c-0.581024,0.368971-1.260345,0.556929-2.017334,0.562086L189.044586,34.19022z M189.554993,34.791981
		c-0.339706,0-0.694885-0.015472-1.060501-0.044781l-0.312027-0.02589l1.16037-3.274321l0.3414,0.020679
		c0.710464,0.048252,1.315598-0.082771,1.810547-0.400017c1.084488-0.689741,1.563858-2.163939,1.946609-3.351936l2.958817-8.988523
		h12.442169L203.92305,34.7472h-4.243362l3.967529-12.918068h-4.024353l-1.853592,5.477938
		c-0.841492,2.503599-1.848434,5.062346-4.045105,6.427988C192.586212,34.442005,191.215363,34.791981,189.554993,34.791981"/>
	<polygon points="212.355698,19.038071 215.90239,19.038071 214.785156,22.679733 212.360855,29.219801 221.388947,19.038071 
		224.937531,19.038071 220.202698,34.459736 216.655899,34.459736 217.864578,30.519878 219.975052,24.659134 211.090088,34.459736 
		207.620865,34.459736 	"/>
	<path style="fill:#020203;" d="M217.080643,34.168697h2.876099l4.555405-14.840586h-3.003647l-9.993668,11.271435
		l2.938095-7.936705l1.024185-3.33473h-2.874313l-4.555496,14.840586h2.927765l9.805817-10.819641l-2.584595,7.184978
		L217.080643,34.168697z M220.449905,34.748043h-4.219284l1.298355-4.227848l1.638046-4.553722l-7.962646,8.78157h-4.007095
		l4.912369-16.001013h4.217484l-1.206894,3.933018l-1.910522,5.158955l8.059158-9.091972h4.093399L220.449905,34.748043z"/>
	<polygon points="239.02829,21.509573 234.91246,21.509573 230.927673,34.489731 227.382675,34.489731 231.367355,21.509573 
		227.224075,21.509573 227.979279,19.049122 239.783478,19.049122 	"/>
	<path style="fill:#020203;" d="M227.806885,34.198006h2.874313l3.984695-12.978422h4.114029l0.577652-1.881159h-11.130035
		l-0.57756,1.881159h4.141602L227.806885,34.198006z M231.174347,34.779034h-4.21759l3.984802-12.978369h-4.141708
		l0.934525-3.043322h12.473221l-0.932739,3.043322h-4.115814L231.174347,34.779034z"/>
	<polygon style="fill:#F6B904;" points="109.011482,32.656139 85.630592,9.275352 93.672485,1.231778 109.29763,16.856873 	"/>
	<polygon style="fill:#020203;" points="76.837181,53.471077 100.217972,30.09029 108.261543,38.132183 92.636398,53.757328 	"/>
	<polygon style="fill:#020203;" points="88.734955,0.286199 65.354057,23.667038 57.310486,15.625148 72.935631,0 	"/>
	<polygon style="fill:#F6B904;" points="56.461201,21.19338 79.841988,44.575901 71.800095,52.617794 56.17495,36.992699 	"/>
	<polygon style="fill:#020203;" points="86.814323,25.801247 85.248672,23.07354 83.286484,23.07354 83.286484,20.299212 
		84.481377,20.299212 84.481377,19.581898 83.286484,19.581898 82.569168,19.581898 82.569168,20.299212 82.569168,23.07354 
		80.417336,23.07354 78.851685,25.801247 74.647987,25.801247 74.647987,28.76869 78.851685,28.76869 80.417336,31.49645 
		85.248672,31.49645 86.814323,28.76869 90.82312,28.76869 90.82312,25.801247 	"/>
	<path style="fill:#020203;" d="M82.73629,36.079693c-5.074448,0-9.200584-4.127871-9.200584-9.200581
		c0-5.074501,4.126137-9.200632,9.200584-9.200632c5.072655,0,9.200577,4.126131,9.200577,9.200632
		C91.936867,31.951822,87.808945,36.079693,82.73629,36.079693 M95.954391,29.175758v-4.593346h-3.726112
		c-0.243103-0.998356-0.636284-1.93462-1.158691-2.788115l2.638046-2.638096l-3.248436-3.248487l-2.638145,2.638097
		c-0.853493-0.522463-1.789711-0.917322-2.788116-1.158689v-3.726116h-4.593399v3.726116
		c-0.998306,0.241367-1.934624,0.636227-2.788116,1.158689l-2.638039-2.638097l-3.248543,3.248487l2.638153,2.638096
		c-0.522415,0.853495-0.917274,1.789759-1.158691,2.788115h-3.72612v4.593346h3.72612
		c0.241417,0.998356,0.636276,1.93462,1.158691,2.788115l-2.638153,2.636412l3.248543,3.250172l2.638039-2.638096
		c0.853493,0.522461,1.78981,0.915585,2.788116,1.157005v3.727798h4.593399v-3.727798
		c0.998405-0.241421,1.934624-0.634544,2.788116-1.157005l2.638145,2.638096l3.248436-3.250172l-2.638046-2.636412
		c0.522408-0.853495,0.915588-1.789759,1.158691-2.788115H95.954391z"/>
</g>
</svg>
