<?xml version="1.0" encoding="UTF-8" standalone="no"?>
<svg
   xmlns:dc="http://purl.org/dc/elements/1.1/"
   xmlns:cc="http://creativecommons.org/ns#"
   xmlns:rdf="http://www.w3.org/1999/02/22-rdf-syntax-ns#"
   xmlns:svg="http://www.w3.org/2000/svg"
   xmlns="http://www.w3.org/2000/svg"
   viewBox="0 0 203.89067 132.96533"
   height="132.96533"
   width="203.89067"
   xml:space="preserve"
   id="svg2"
   version="1.1"><metadata
     id="metadata8"><rdf:RDF><cc:Work
         rdf:about=""><dc:format>image/svg+xml</dc:format><dc:type
           rdf:resource="http://purl.org/dc/dcmitype/StillImage" /></cc:Work></rdf:RDF></metadata><defs
     id="defs6"><clipPath
       id="clipPath20"
       clipPathUnits="userSpaceOnUse"><path
         id="path18"
         d="M 0,99.724 H 152.918 V 0 H 0 Z" /></clipPath><clipPath
       id="clipPath38"
       clipPathUnits="userSpaceOnUse"><path
         id="path36"
         d="M 0,99.724 H 152.918 V 0 H 0 Z" /></clipPath><clipPath
       id="clipPath76"
       clipPathUnits="userSpaceOnUse"><path
         id="path74"
         d="M 0,99.724 H 152.918 V 0 H 0 Z" /></clipPath></defs><g
     transform="matrix(1.3333333,0,0,-1.3333333,0,132.96533)"
     id="g10"><path
       id="path12"
       style="fill:#bd1b18;fill-opacity:1;fill-rule:nonzero;stroke:none"
       d="m 147.626,45.289 h 4.583 v 15.602 h -4.583 z" /><g
       id="g14"><g
         clip-path="url(#clipPath20)"
         id="g16"><path
           id="path22"
           style="fill:none;stroke:#bd1b18;stroke-width:1.41700006;stroke-linecap:butt;stroke-linejoin:miter;stroke-miterlimit:10;stroke-dasharray:none;stroke-opacity:1"
           d="m 152.209,45.289 h -4.583 V 60.89 h 4.583 z" /></g></g><path
       id="path24"
       style="fill:none;stroke:#000000;stroke-width:1.41700006;stroke-linecap:butt;stroke-linejoin:miter;stroke-miterlimit:10;stroke-dasharray:none;stroke-opacity:1"
       d="m 118.998,19.163 h 28.628 v 67.853 h -28.628 z" /><path
       id="path26"
       style="fill:none;stroke:#000000;stroke-width:1.41700006;stroke-linecap:butt;stroke-linejoin:miter;stroke-miterlimit:10;stroke-dasharray:none;stroke-opacity:1"
       d="m 118.998,37.489 h -6.443 v 31.202 h 6.443 z" /><path
       id="path28"
       style="fill:none;stroke:#000000;stroke-width:1.41700006;stroke-linecap:butt;stroke-linejoin:miter;stroke-miterlimit:10;stroke-dasharray:none;stroke-opacity:1"
       d="M 106.945,31.144 H 66.244 v -6.752 h 40.701 z" /><path
       id="path30"
       style="fill:none;stroke:#000000;stroke-width:1.41700006;stroke-linecap:butt;stroke-linejoin:miter;stroke-miterlimit:10;stroke-dasharray:none;stroke-opacity:1"
       d="M 110.029,16.925 H 63.16 v 7.467 h 46.869 z" /><g
       id="g32"><g
         clip-path="url(#clipPath38)"
         id="g34"><path
           id="path40"
           style="fill:none;stroke:#000000;stroke-width:1.41700006;stroke-linecap:butt;stroke-linejoin:miter;stroke-miterlimit:10;stroke-dasharray:none;stroke-opacity:1"
           d="m 112.555,0.709 h -51.92 v 16.516 h 51.92 z" /><g
           transform="translate(0.7086,99.0154)"
           id="g42"><path
             id="path44"
             style="fill:none;stroke:#000000;stroke-width:1.41700006;stroke-linecap:butt;stroke-linejoin:miter;stroke-miterlimit:10;stroke-dasharray:none;stroke-opacity:1"
             d="m 0,0 v -67.872 h 39.003 v 4.304 h 26.532 v -4.304 h 46.311 V 0 Z" /></g></g></g><g
       transform="translate(53.2521,60.2712)"
       id="g46"><path
         id="path48"
         style="fill:#bd1b18;fill-opacity:1;fill-rule:nonzero;stroke:none"
         d="M 0,0 V 20.776 Z" /></g><g
       transform="translate(53.2525,60.2716)"
       id="g50"><path
         id="path52"
         style="fill:none;stroke:#bd1b18;stroke-width:2.12599993;stroke-linecap:butt;stroke-linejoin:miter;stroke-miterlimit:10;stroke-dasharray:none;stroke-opacity:1"
         d="M 0,0 V 20.775" /></g><g
       transform="translate(47.0329,49.4989)"
       id="g54"><path
         id="path56"
         style="fill:#bd1b18;fill-opacity:1;fill-rule:nonzero;stroke:#bd1b18;stroke-width:2.12599993;stroke-linecap:butt;stroke-linejoin:miter;stroke-miterlimit:10;stroke-dasharray:none;stroke-opacity:1"
         d="M 0,0 -17.992,-10.388" /></g><g
       transform="translate(59.4722,49.4989)"
       id="g58"><path
         id="path60"
         style="fill:#bd1b18;fill-opacity:1;fill-rule:nonzero;stroke:#bd1b18;stroke-width:2.12599993;stroke-linecap:butt;stroke-linejoin:miter;stroke-miterlimit:10;stroke-dasharray:none;stroke-opacity:1"
         d="M 0,0 17.992,-10.388" /></g><g
       transform="translate(149.9177,76.7156)"
       id="g62"><path
         id="path64"
         style="fill:none;stroke:#000000;stroke-width:1.41700006;stroke-linecap:round;stroke-linejoin:miter;stroke-miterlimit:10;stroke-dasharray:none;stroke-opacity:1"
         d="M 0,0 H -1.791" /></g><g
       transform="translate(149.9177,29.464)"
       id="g66"><path
         id="path68"
         style="fill:none;stroke:#000000;stroke-width:1.41700006;stroke-linecap:round;stroke-linejoin:miter;stroke-miterlimit:10;stroke-dasharray:none;stroke-opacity:1"
         d="M 0,0 H -1.791" /></g><g
       id="g70"><g
         clip-path="url(#clipPath76)"
         id="g72"><g
           transform="translate(53.2526,25.1328)"
           id="g78"><path
             id="path80"
             style="fill:none;stroke:#bd1b18;stroke-width:3.68499994;stroke-linecap:butt;stroke-linejoin:miter;stroke-miterlimit:10;stroke-dasharray:none;stroke-opacity:1"
             d="m 0,0 c -15.44,0 -27.957,12.517 -27.957,27.957 0,15.44 12.517,27.957 27.957,27.957 15.44,0 27.957,-12.517 27.957,-27.957 C 27.957,12.517 15.44,0 0,0 Z" /></g><g
           transform="translate(59.272,53.0898)"
           id="g82"><path
             id="path84"
             style="fill:none;stroke:#bd1b18;stroke-width:2.83500004;stroke-linecap:butt;stroke-linejoin:miter;stroke-miterlimit:10;stroke-dasharray:none;stroke-opacity:1"
             d="m 0,0 c 0,-3.324 -2.695,-6.02 -6.02,-6.02 -3.324,0 -6.019,2.696 -6.019,6.02 0,3.324 2.695,6.02 6.019,6.02 C -2.695,6.02 0,3.324 0,0 Z" /></g><g
           transform="translate(56.5144,53.0898)"
           id="g86"><path
             id="path88"
             style="fill:#ffffff;fill-opacity:1;fill-rule:nonzero;stroke:none"
             d="m 0,0 c 0,-1.801 -1.46,-3.262 -3.262,-3.262 -1.801,0 -3.262,1.461 -3.262,3.262 0,1.801 1.461,3.262 3.262,3.262 C -1.46,3.262 0,1.801 0,0" /></g><g
           transform="translate(56.5144,53.0898)"
           id="g90"><path
             id="path92"
             style="fill:none;stroke:#000000;stroke-width:1.41700006;stroke-linecap:butt;stroke-linejoin:miter;stroke-miterlimit:10;stroke-dasharray:none;stroke-opacity:1"
             d="m 0,0 c 0,-1.801 -1.46,-3.262 -3.262,-3.262 -1.801,0 -3.262,1.461 -3.262,3.262 0,1.801 1.461,3.262 3.262,3.262 C -1.46,3.262 0,1.801 0,0 Z" /></g><g
           transform="translate(90.2288,98.5637)"
           id="g94"><path
             id="path96"
             style="fill:none;stroke:#000000;stroke-width:1.41700006;stroke-linecap:round;stroke-linejoin:miter;stroke-miterlimit:10;stroke-dasharray:none;stroke-opacity:1"
             d="M 0,0 V -21.848" /></g><g
           transform="translate(100.1225,98.5637)"
           id="g98"><path
             id="path100"
             style="fill:none;stroke:#000000;stroke-width:1.41700006;stroke-linecap:round;stroke-linejoin:miter;stroke-miterlimit:10;stroke-dasharray:none;stroke-opacity:1"
             d="M 0,0 V -21.848" /></g></g></g></g></svg>