<?xml version="1.0" encoding="UTF-8" standalone="no"?>
<svg
   xmlns:dc="http://purl.org/dc/elements/1.1/"
   xmlns:cc="http://creativecommons.org/ns#"
   xmlns:rdf="http://www.w3.org/1999/02/22-rdf-syntax-ns#"
   xmlns:svg="http://www.w3.org/2000/svg"
   xmlns="http://www.w3.org/2000/svg"
   viewBox="0 0 113.70213 210.03067"
   height="210.03067"
   width="113.70213"
   xml:space="preserve"
   id="svg2"
   version="1.1"><metadata
     id="metadata8"><rdf:RDF><cc:Work
         rdf:about=""><dc:format>image/svg+xml</dc:format><dc:type
           rdf:resource="http://purl.org/dc/dcmitype/StillImage" /></cc:Work></rdf:RDF></metadata><defs
     id="defs6"><clipPath
       id="clipPath18"
       clipPathUnits="userSpaceOnUse"><path
         id="path16"
         d="M 0,157.523 H 85.277 V 0 H 0 Z" /></clipPath></defs><g
     transform="matrix(1.3333333,0,0,-1.3333333,0,210.03067)"
     id="g10"><g
       id="g12"><g
         clip-path="url(#clipPath18)"
         id="g14"><g
           transform="translate(45.2964,93.4261)"
           id="g20"><path
             id="path22"
             style="fill:#000000;fill-opacity:1;fill-rule:nonzero;stroke:none"
             d="m 0,0 h -20.758 v -7.736 c -14.216,-4.419 -24.538,-17.678 -24.538,-33.348 0,-15.67 10.322,-28.929 24.538,-33.348 v -7.203 H 0 v 7.203 c 14.216,4.419 24.538,17.678 24.538,33.348 0,15.67 -10.322,28.929 -24.538,33.348 z m -1.417,-1.417 v -6.319 -1.043 l 0.996,-0.31 c 14.081,-4.378 23.542,-17.235 23.542,-31.995 0,-14.759 -9.461,-27.617 -23.542,-31.995 l -0.996,-0.31 v -1.043 -5.786 h -17.924 v 5.786 1.043 l -0.996,0.31 c -14.081,4.378 -23.542,17.235 -23.542,31.995 0,14.76 9.461,27.617 23.541,31.995 l 0.997,0.31 v 1.043 6.319 h 17.924" /></g><path
           id="path24"
           style="fill:#bd1b18;fill-opacity:1;fill-rule:nonzero;stroke:#bd1b18;stroke-width:1.41700006;stroke-linecap:butt;stroke-linejoin:miter;stroke-miterlimit:10;stroke-dasharray:none;stroke-opacity:1"
           d="M 48.297,137.089 H 21.538 v 13.101 h 26.759 z" /><path
           id="path26"
           style="fill:none;stroke:#000000;stroke-width:1.41700006;stroke-linecap:butt;stroke-linejoin:miter;stroke-miterlimit:10;stroke-dasharray:none;stroke-opacity:1"
           d="M 53.724,115.903 H 16.111 v 21.185 h 37.613 z" /><path
           id="path28"
           style="fill:none;stroke:#000000;stroke-width:1.41700006;stroke-linecap:butt;stroke-linejoin:miter;stroke-miterlimit:10;stroke-dasharray:none;stroke-opacity:1"
           d="m 51.477,115.903 h -33.12 v -5.762 h 33.12 z" /><path
           id="path30"
           style="fill:none;stroke:#000000;stroke-width:1.41700006;stroke-linecap:butt;stroke-linejoin:miter;stroke-miterlimit:10;stroke-dasharray:none;stroke-opacity:1"
           d="m 44.312,104.497 h -18.79 v 5.644 h 18.79 z" /><path
           id="path32"
           style="fill:none;stroke:#000000;stroke-width:1.41700006;stroke-linecap:butt;stroke-linejoin:miter;stroke-miterlimit:10;stroke-dasharray:none;stroke-opacity:1"
           d="M 41.791,104.497 H 28.044 V 92.454 h 13.747 z" /><path
           id="path34"
           style="fill:none;stroke:#000000;stroke-width:1.41700006;stroke-linecap:butt;stroke-linejoin:miter;stroke-miterlimit:10;stroke-dasharray:none;stroke-opacity:1"
           d="M 41.791,12.755 H 28.044 V 3.981 h 13.747 z" /><path
           id="path36"
           style="fill:none;stroke:#000000;stroke-width:1.41700006;stroke-linecap:butt;stroke-linejoin:miter;stroke-miterlimit:10;stroke-dasharray:none;stroke-opacity:1"
           d="M 40.423,0.709 H 29.412 v 3.272 h 11.011 z" /><g
           transform="translate(36.7581,80.0412)"
           id="g38"><path
             id="path40"
             style="fill:#bd1b18;fill-opacity:1;fill-rule:nonzero;stroke:none"
             d="m 0,0 c 0,-1.017 -0.824,-1.841 -1.841,-1.841 -1.016,0 -1.84,0.824 -1.84,1.841 0,1.017 0.824,1.841 1.84,1.841 C -0.824,1.841 0,1.017 0,0" /></g><g
           transform="translate(36.7581,80.0412)"
           id="g42"><path
             id="path44"
             style="fill:none;stroke:#bd1b18;stroke-width:0.99199998;stroke-linecap:butt;stroke-linejoin:miter;stroke-miterlimit:10;stroke-dasharray:none;stroke-opacity:1"
             d="m 0,0 c 0,-1.017 -0.824,-1.841 -1.841,-1.841 -1.016,0 -1.84,0.824 -1.84,1.841 0,1.017 0.824,1.841 1.84,1.841 C -0.824,1.841 0,1.017 0,0 Z" /></g><g
           transform="translate(7.2182,54.1828)"
           id="g46"><path
             id="path48"
             style="fill:#bd1b18;fill-opacity:1;fill-rule:nonzero;stroke:none"
             d="m 0,0 c 1.017,0 1.841,-0.824 1.841,-1.841 0,-1.016 -0.824,-1.84 -1.841,-1.84 -1.017,0 -1.841,0.824 -1.841,1.84 C -1.841,-0.824 -1.017,0 0,0" /></g><g
           transform="translate(7.2182,54.1828)"
           id="g50"><path
             id="path52"
             style="fill:none;stroke:#bd1b18;stroke-width:0.99199998;stroke-linecap:butt;stroke-linejoin:miter;stroke-miterlimit:10;stroke-dasharray:none;stroke-opacity:1"
             d="m 0,0 c 1.017,0 1.841,-0.824 1.841,-1.841 0,-1.016 -0.824,-1.84 -1.841,-1.84 -1.017,0 -1.841,0.824 -1.841,1.84 C -1.841,-0.824 -1.017,0 0,0 Z" /></g><g
           transform="translate(33.0766,24.643)"
           id="g54"><path
             id="path56"
             style="fill:#bd1b18;fill-opacity:1;fill-rule:nonzero;stroke:none"
             d="m 0,0 c 0,1.017 0.824,1.841 1.841,1.841 1.016,0 1.84,-0.824 1.84,-1.841 0,-1.017 -0.824,-1.841 -1.84,-1.841 C 0.824,-1.841 0,-1.017 0,0" /></g><g
           transform="translate(33.0766,24.643)"
           id="g58"><path
             id="path60"
             style="fill:none;stroke:#bd1b18;stroke-width:0.99199998;stroke-linecap:butt;stroke-linejoin:miter;stroke-miterlimit:10;stroke-dasharray:none;stroke-opacity:1"
             d="m 0,0 c 0,1.017 0.824,1.841 1.841,1.841 1.016,0 1.84,-0.824 1.84,-1.841 0,-1.017 -0.824,-1.841 -1.84,-1.841 C 0.824,-1.841 0,-1.017 0,0 Z" /></g><g
           transform="translate(62.6165,50.5014)"
           id="g62"><path
             id="path64"
             style="fill:#bd1b18;fill-opacity:1;fill-rule:nonzero;stroke:none"
             d="m 0,0 c -1.017,0 -1.841,0.824 -1.841,1.841 0,1.016 0.824,1.84 1.841,1.84 1.017,0 1.841,-0.824 1.841,-1.84 C 1.841,0.824 1.017,0 0,0" /></g><g
           transform="translate(62.6165,50.5014)"
           id="g66"><path
             id="path68"
             style="fill:none;stroke:#bd1b18;stroke-width:0.99199998;stroke-linecap:butt;stroke-linejoin:miter;stroke-miterlimit:10;stroke-dasharray:none;stroke-opacity:1"
             d="m 0,0 c -1.017,0 -1.841,0.824 -1.841,1.841 0,1.016 0.824,1.84 1.841,1.84 1.017,0 1.841,-0.824 1.841,-1.84 C 1.841,0.824 1.017,0 0,0 Z" /></g><path
           id="path70"
           style="fill:none;stroke:#000000;stroke-width:1.41700006;stroke-linecap:butt;stroke-linejoin:miter;stroke-miterlimit:10;stroke-dasharray:none;stroke-opacity:1"
           d="M 78.659,142.042 H 48.297 v 3.76 h 30.362 z" /><path
           id="path72"
           style="fill:#bd1b18;fill-opacity:1;fill-rule:nonzero;stroke:#bd1b18;stroke-width:1.41700006;stroke-linecap:butt;stroke-linejoin:miter;stroke-miterlimit:10;stroke-dasharray:none;stroke-opacity:1"
           d="m 84.568,131.029 h -5.909 v 25.785 h 5.909 z" /><g
           transform="translate(56.953,52.3421)"
           id="g74"><path
             id="path76"
             style="fill:none;stroke:#000000;stroke-width:1.41700006;stroke-linecap:butt;stroke-linejoin:miter;stroke-miterlimit:10;stroke-dasharray:none;stroke-opacity:1"
             d="m 0,0 c 0,-12.17 -9.866,-22.036 -22.036,-22.036 -12.17,0 -22.035,9.866 -22.035,22.036 0,12.17 9.865,22.036 22.035,22.036 C -9.866,22.036 0,12.17 0,0 Z" /></g><g
           transform="translate(48.2969,52.3421)"
           id="g78"><path
             id="path80"
             style="fill:#ffffff;fill-opacity:1;fill-rule:nonzero;stroke:none"
             d="m 0,0 c 0,-12.161 -5.99,-22.019 -13.38,-22.019 -7.389,0 -13.379,9.858 -13.379,22.019 0,12.161 5.99,22.019 13.379,22.019 C -5.99,22.019 0,12.161 0,0" /></g><g
           transform="translate(48.2969,52.3421)"
           id="g82"><path
             id="path84"
             style="fill:none;stroke:#000000;stroke-width:1.41700006;stroke-linecap:butt;stroke-linejoin:miter;stroke-miterlimit:10;stroke-dasharray:none;stroke-opacity:1"
             d="m 0,0 c 0,-12.161 -5.99,-22.019 -13.38,-22.019 -7.389,0 -13.379,9.858 -13.379,22.019 0,12.161 5.99,22.019 13.379,22.019 C -5.99,22.019 0,12.161 0,0 Z" /></g><g
           transform="translate(29.6887,137.0885)"
           id="g86"><path
             id="path88"
             style="fill:none;stroke:#000000;stroke-width:1.41700006;stroke-linecap:round;stroke-linejoin:miter;stroke-miterlimit:10;stroke-dasharray:none;stroke-opacity:1"
             d="M 0,0 V -15.763" /></g><g
           transform="translate(40.1458,137.0885)"
           id="g90"><path
             id="path92"
             style="fill:none;stroke:#000000;stroke-width:1.41700006;stroke-linecap:round;stroke-linejoin:miter;stroke-miterlimit:10;stroke-dasharray:none;stroke-opacity:1"
             d="M 0,0 V -15.763" /></g></g></g></g></svg>