<?xml version="1.0" encoding="UTF-8" standalone="no"?>
<svg
   xmlns:dc="http://purl.org/dc/elements/1.1/"
   xmlns:cc="http://creativecommons.org/ns#"
   xmlns:rdf="http://www.w3.org/1999/02/22-rdf-syntax-ns#"
   xmlns:svg="http://www.w3.org/2000/svg"
   xmlns="http://www.w3.org/2000/svg"
   viewBox="0 0 132.36493 184.29066"
   height="184.29066"
   width="132.36493"
   xml:space="preserve"
   id="svg2"
   version="1.1"><metadata
     id="metadata8"><rdf:RDF><cc:Work
         rdf:about=""><dc:format>image/svg+xml</dc:format><dc:type
           rdf:resource="http://purl.org/dc/dcmitype/StillImage" /></cc:Work></rdf:RDF></metadata><defs
     id="defs6"><clipPath
       id="clipPath18"
       clipPathUnits="userSpaceOnUse"><path
         id="path16"
         d="M 0,138.218 H 99.274 V 0 H 0 Z" /></clipPath><clipPath
       id="clipPath36"
       clipPathUnits="userSpaceOnUse"><path
         id="path34"
         d="M 0,138.218 H 99.274 V 0 H 0 Z" /></clipPath><clipPath
       id="clipPath68"
       clipPathUnits="userSpaceOnUse"><path
         id="path66"
         d="M 0,138.218 H 99.274 V 0 H 0 Z" /></clipPath></defs><g
     transform="matrix(1.3333333,0,0,-1.3333333,0,184.29067)"
     id="g10"><g
       id="g12"><g
         clip-path="url(#clipPath18)"
         id="g14"><path
           id="path20"
           style="fill:none;stroke:#000000;stroke-width:1.41700006;stroke-linecap:butt;stroke-linejoin:miter;stroke-miterlimit:10;stroke-dasharray:none;stroke-opacity:1"
           d="M 53.294,131.852 H 45.98 v 5.658 h 7.314 z" /></g></g><path
       id="path22"
       style="fill:#bd1b18;fill-opacity:1;fill-rule:nonzero;stroke:#bd1b18;stroke-width:1.41700006;stroke-linecap:butt;stroke-linejoin:miter;stroke-miterlimit:10;stroke-dasharray:none;stroke-opacity:1"
       d="M 59.104,131.852 H 40.171 v -10.967 h 18.933 z" /><path
       id="path24"
       style="fill:none;stroke:#000000;stroke-width:1.41700006;stroke-linecap:butt;stroke-linejoin:miter;stroke-miterlimit:10;stroke-dasharray:none;stroke-opacity:1"
       d="M 60.555,75.748 H 38.718 v 35.5 h 21.837 z" /><path
       id="path26"
       style="fill:none;stroke:#000000;stroke-width:1.41700006;stroke-linecap:butt;stroke-linejoin:miter;stroke-miterlimit:10;stroke-dasharray:none;stroke-opacity:1"
       d="M 92.066,48.744 H 7.207 V 6.795 h 84.859 z" /><path
       id="path28"
       style="fill:none;stroke:#000000;stroke-width:1.41700006;stroke-linecap:butt;stroke-linejoin:miter;stroke-miterlimit:10;stroke-dasharray:none;stroke-opacity:1"
       d="M 90.115,75.748 H 9.158 v -7.73 h 80.957 z" /><g
       id="g30"><g
         clip-path="url(#clipPath36)"
         id="g32"><path
           id="path38"
           style="fill:none;stroke:#000000;stroke-width:1.41700006;stroke-linecap:butt;stroke-linejoin:miter;stroke-miterlimit:10;stroke-dasharray:none;stroke-opacity:1"
           d="M 98.565,63.176 H 0.709 v 4.842 h 97.856 z" /></g></g><path
       id="path40"
       style="fill:none;stroke:#000000;stroke-width:1.41700006;stroke-linecap:butt;stroke-linejoin:miter;stroke-miterlimit:10;stroke-dasharray:none;stroke-opacity:1"
       d="M 65.229,111.248 H 34.045 v 9.637 h 31.184 z" /><g
       transform="translate(55.6964,120.8851)"
       id="g42"><path
         id="path44"
         style="fill:none;stroke:#000000;stroke-width:1.41700006;stroke-linecap:butt;stroke-linejoin:miter;stroke-miterlimit:10;stroke-dasharray:none;stroke-opacity:1"
         d="M 0,0 V -8.844" /></g><g
       transform="translate(43.5772,120.4885)"
       id="g46"><path
         id="path48"
         style="fill:none;stroke:#000000;stroke-width:1.41700006;stroke-linecap:butt;stroke-linejoin:miter;stroke-miterlimit:10;stroke-dasharray:none;stroke-opacity:1"
         d="M 0,0 V -8.844" /></g><g
       transform="translate(77.8418,48.7435)"
       id="g50"><path
         id="path52"
         style="fill:none;stroke:#000000;stroke-width:1.41700006;stroke-linecap:butt;stroke-linejoin:miter;stroke-miterlimit:10;stroke-dasharray:none;stroke-opacity:1"
         d="M 0,0 H -57.227 L -67.428,14.433 H 11.695 Z" /></g><g
       transform="translate(27.9751,19.9552)"
       id="g54"><path
         id="path56"
         style="fill:none;stroke:#000000;stroke-width:1.41700006;stroke-linecap:round;stroke-linejoin:miter;stroke-miterlimit:10;stroke-dasharray:none;stroke-opacity:1"
         d="M 0,0 V 14.324 28.649" /></g><g
       transform="translate(71.2985,19.9552)"
       id="g58"><path
         id="path60"
         style="fill:none;stroke:#000000;stroke-width:1.41700006;stroke-linecap:round;stroke-linejoin:miter;stroke-miterlimit:10;stroke-dasharray:none;stroke-opacity:1"
         d="M 0,0 V 14.324 28.649" /></g><g
       id="g62"><g
         clip-path="url(#clipPath68)"
         id="g64"><path
           id="path70"
           style="fill:none;stroke:#000000;stroke-width:1.41700006;stroke-linecap:butt;stroke-linejoin:miter;stroke-miterlimit:10;stroke-dasharray:none;stroke-opacity:1"
           d="m 77.107,0.709 h -54.94 v 6.086 h 54.94 z" /><g
           transform="translate(52.3623,27.7691)"
           id="g72"><path
             id="path74"
             style="fill:none;stroke:#000000;stroke-width:1;stroke-linecap:butt;stroke-linejoin:miter;stroke-miterlimit:10;stroke-dasharray:none;stroke-opacity:1"
             d="m 0,0 c 0,-1.505 -1.22,-2.726 -2.726,-2.726 -1.505,0 -2.725,1.221 -2.725,2.726 0,1.505 1.22,2.726 2.725,2.726 C -1.22,2.726 0,1.505 0,0 Z" /></g><g
           transform="translate(62.144,19.9553)"
           id="g76"><path
             id="path78"
             style="fill:#bd1b18;fill-opacity:1;fill-rule:nonzero;stroke:none"
             d="m 0,0 c 0,-0.786 -0.637,-1.423 -1.423,-1.423 -0.786,0 -1.423,0.637 -1.423,1.423 0,0.786 0.637,1.423 1.423,1.423 C -0.637,1.423 0,0.786 0,0" /></g><g
           transform="translate(62.144,13.765)"
           id="g80"><path
             id="path82"
             style="fill:#bd1b18;fill-opacity:1;fill-rule:nonzero;stroke:none"
             d="m 0,0 c 0,-0.786 -0.637,-1.423 -1.423,-1.423 -0.786,0 -1.423,0.637 -1.423,1.423 0,0.786 0.637,1.423 1.423,1.423 C -0.637,1.423 0,0.786 0,0" /></g><g
           transform="translate(39.9759,19.9553)"
           id="g84"><path
             id="path86"
             style="fill:#bd1b18;fill-opacity:1;fill-rule:nonzero;stroke:none"
             d="m 0,0 c 0,-0.786 -0.637,-1.423 -1.423,-1.423 -0.786,0 -1.423,0.637 -1.423,1.423 0,0.786 0.637,1.423 1.423,1.423 C -0.637,1.423 0,0.786 0,0" /></g><g
           transform="translate(39.9759,13.765)"
           id="g88"><path
             id="path90"
             style="fill:#bd1b18;fill-opacity:1;fill-rule:nonzero;stroke:none"
             d="m 0,0 c 0,-0.786 -0.637,-1.423 -1.423,-1.423 -0.786,0 -1.423,0.637 -1.423,1.423 0,0.786 0.637,1.423 1.423,1.423 C -0.637,1.423 0,0.786 0,0" /></g><path
           id="path92"
           style="fill:none;stroke:#000000;stroke-width:1.41700006;stroke-linecap:butt;stroke-linejoin:miter;stroke-miterlimit:10;stroke-dasharray:none;stroke-opacity:1"
           d="m 29.172,80.865 h -6.311 v -5.117 h 6.311 z" /><path
           id="path94"
           style="fill:none;stroke:#000000;stroke-width:1.41700006;stroke-linecap:butt;stroke-linejoin:miter;stroke-miterlimit:10;stroke-dasharray:none;stroke-opacity:1"
           d="m 76.413,80.865 h -6.311 v -5.117 h 6.311 z" /></g></g></g></svg>