<?xml version="1.0" encoding="UTF-8" standalone="no"?>
<svg
   xmlns:dc="http://purl.org/dc/elements/1.1/"
   xmlns:cc="http://creativecommons.org/ns#"
   xmlns:rdf="http://www.w3.org/1999/02/22-rdf-syntax-ns#"
   xmlns:svg="http://www.w3.org/2000/svg"
   xmlns="http://www.w3.org/2000/svg"
   viewBox="0 0 159.77733 139.44933"
   height="139.44933"
   width="159.77733"
   xml:space="preserve"
   id="svg2"
   version="1.1"><metadata
     id="metadata8"><rdf:RDF><cc:Work
         rdf:about=""><dc:format>image/svg+xml</dc:format><dc:type
           rdf:resource="http://purl.org/dc/dcmitype/StillImage" /></cc:Work></rdf:RDF></metadata><defs
     id="defs6"><clipPath
       id="clipPath22"
       clipPathUnits="userSpaceOnUse"><path
         id="path20"
         d="M 0,104.587 H 119.833 V 0 H 0 Z" /></clipPath><clipPath
       id="clipPath34"
       clipPathUnits="userSpaceOnUse"><path
         id="path32"
         d="M 0,104.587 H 119.833 V 0 H 0 Z" /></clipPath></defs><g
     transform="matrix(1.3333333,0,0,-1.3333333,0,139.44933)"
     id="g10"><path
       id="path12"
       style="fill:none;stroke:#000000;stroke-width:1.41700006;stroke-linecap:butt;stroke-linejoin:miter;stroke-miterlimit:10;stroke-dasharray:none;stroke-opacity:1"
       d="M 88.274,81.421 H 31.56 V 64.793 h 56.714 z" /><path
       id="path14"
       style="fill:#bd1b18;fill-opacity:1;fill-rule:nonzero;stroke:#bd1b18;stroke-width:1.41700006;stroke-linecap:butt;stroke-linejoin:miter;stroke-miterlimit:10;stroke-dasharray:none;stroke-opacity:1"
       d="m 97.706,54.861 h 12.896 V 16.92 H 97.706 Z" /><g
       id="g16"><g
         clip-path="url(#clipPath22)"
         id="g18"><path
           id="path24"
           style="fill:none;stroke:#000000;stroke-width:1.41700006;stroke-linecap:butt;stroke-linejoin:miter;stroke-miterlimit:10;stroke-dasharray:none;stroke-opacity:1"
           d="m 110.602,71.071 h 8.523 V 0.709 h -8.523 z" /></g></g><path
       id="path26"
       style="fill:#bd1b18;fill-opacity:1;fill-rule:nonzero;stroke:#bd1b18;stroke-width:1.41700006;stroke-linecap:butt;stroke-linejoin:miter;stroke-miterlimit:10;stroke-dasharray:none;stroke-opacity:1"
       d="M 22.127,54.861 H 9.231 V 16.92 h 12.896 z" /><g
       id="g28"><g
         clip-path="url(#clipPath34)"
         id="g30"><path
           id="path36"
           style="fill:none;stroke:#000000;stroke-width:1.41700006;stroke-linecap:butt;stroke-linejoin:miter;stroke-miterlimit:10;stroke-dasharray:none;stroke-opacity:1"
           d="M 9.231,71.071 H 0.708 V 0.709 h 8.523 z" /><g
           transform="translate(39.3422,86.8412)"
           id="g38"><path
             id="path40"
             style="fill:#bd1b18;fill-opacity:1;fill-rule:nonzero;stroke:none"
             d="m 0,0 h -3.601 c -1.066,0 -1.938,0.872 -1.938,1.939 v 13.16 c 0,1.066 0.872,1.938 1.938,1.938 H 0 c 1.066,0 1.939,-0.872 1.939,-1.938 V 1.939 C 1.939,0.872 1.066,0 0,0" /></g><g
           transform="translate(39.3422,86.8412)"
           id="g42"><path
             id="path44"
             style="fill:none;stroke:#bd1b18;stroke-width:1.41700006;stroke-linecap:butt;stroke-linejoin:miter;stroke-miterlimit:10;stroke-dasharray:none;stroke-opacity:1"
             d="m 0,0 h -3.601 c -1.066,0 -1.938,0.872 -1.938,1.939 v 13.16 c 0,1.066 0.872,1.938 1.938,1.938 H 0 c 1.066,0 1.939,-0.872 1.939,-1.938 V 1.939 C 1.939,0.872 1.066,0 0,0 Z" /></g><g
           transform="translate(61.7169,86.8412)"
           id="g46"><path
             id="path48"
             style="fill:#bd1b18;fill-opacity:1;fill-rule:nonzero;stroke:none"
             d="m 0,0 h -3.601 c -1.066,0 -1.938,0.872 -1.938,1.939 v 13.16 c 0,1.066 0.872,1.938 1.938,1.938 H 0 c 1.066,0 1.939,-0.872 1.939,-1.938 V 1.939 C 1.939,0.872 1.066,0 0,0" /></g><g
           transform="translate(61.7169,86.8412)"
           id="g50"><path
             id="path52"
             style="fill:none;stroke:#bd1b18;stroke-width:1.41700006;stroke-linecap:butt;stroke-linejoin:miter;stroke-miterlimit:10;stroke-dasharray:none;stroke-opacity:1"
             d="m 0,0 h -3.601 c -1.066,0 -1.938,0.872 -1.938,1.939 v 13.16 c 0,1.066 0.872,1.938 1.938,1.938 H 0 c 1.066,0 1.939,-0.872 1.939,-1.938 V 1.939 C 1.939,0.872 1.066,0 0,0 Z" /></g><g
           transform="translate(84.0916,86.8412)"
           id="g54"><path
             id="path56"
             style="fill:#bd1b18;fill-opacity:1;fill-rule:nonzero;stroke:none"
             d="m 0,0 h -3.601 c -1.066,0 -1.938,0.872 -1.938,1.939 v 13.16 c 0,1.066 0.872,1.938 1.938,1.938 H 0 c 1.066,0 1.939,-0.872 1.939,-1.938 V 1.939 C 1.939,0.872 1.066,0 0,0" /></g><g
           transform="translate(84.0916,86.8412)"
           id="g58"><path
             id="path60"
             style="fill:none;stroke:#bd1b18;stroke-width:1.41700006;stroke-linecap:butt;stroke-linejoin:miter;stroke-miterlimit:10;stroke-dasharray:none;stroke-opacity:1"
             d="m 0,0 h -3.601 c -1.066,0 -1.938,0.872 -1.938,1.939 v 13.16 c 0,1.066 0.872,1.938 1.938,1.938 H 0 c 1.066,0 1.939,-0.872 1.939,-1.938 V 1.939 C 1.939,0.872 1.066,0 0,0 Z" /></g><path
           id="path62"
           style="fill:#ffffff;fill-opacity:1;fill-rule:nonzero;stroke:#000000;stroke-width:1.41700006;stroke-linecap:butt;stroke-linejoin:miter;stroke-miterlimit:10;stroke-dasharray:none;stroke-opacity:1"
           d="M 93.909,89.323 H 25.925 v 7.413 h 67.984 z" /><path
           id="path64"
           style="fill:#ffffff;fill-opacity:1;fill-rule:nonzero;stroke:#000000;stroke-width:1.41700006;stroke-linecap:butt;stroke-linejoin:miter;stroke-miterlimit:10;stroke-dasharray:none;stroke-opacity:1"
           d="M 93.909,81.909 H 25.925 v 7.413 h 67.984 z" /><g
           transform="translate(97.7059,59.7377)"
           id="g66"><path
             id="path68"
             style="fill:none;stroke:#000000;stroke-width:1.41700006;stroke-linecap:butt;stroke-linejoin:miter;stroke-miterlimit:10;stroke-dasharray:none;stroke-opacity:1"
             d="M 0,0 -9.432,5.055 H -66.146 L -75.578,0 v -47.966 h 6.043 c 7.127,-6.286 18.673,-10.39 31.746,-10.39 13.072,0 24.619,4.104 31.746,10.39 H 0 Z" /></g><g
           transform="translate(59.8363,14.8997)"
           id="g70"><path
             id="path72"
             style="fill:none;stroke:#000000;stroke-width:1.41700006;stroke-linecap:round;stroke-linejoin:miter;stroke-miterlimit:10;stroke-dasharray:none;stroke-opacity:1"
             d="M 0,0 C 0,0 15.476,-0.066 25.814,7.917" /></g></g></g></g></svg>