<?xml version="1.0" encoding="UTF-8" standalone="no"?>
<svg
   xmlns:dc="http://purl.org/dc/elements/1.1/"
   xmlns:cc="http://creativecommons.org/ns#"
   xmlns:rdf="http://www.w3.org/1999/02/22-rdf-syntax-ns#"
   xmlns:svg="http://www.w3.org/2000/svg"
   xmlns="http://www.w3.org/2000/svg"
   viewBox="0 0 89.811867 208.87067"
   height="208.87067"
   width="89.811867"
   xml:space="preserve"
   id="svg2"
   version="1.1"><metadata
     id="metadata8"><rdf:RDF><cc:Work
         rdf:about=""><dc:format>image/svg+xml</dc:format><dc:type
           rdf:resource="http://purl.org/dc/dcmitype/StillImage" /></cc:Work></rdf:RDF></metadata><defs
     id="defs6"><clipPath
       id="clipPath24"
       clipPathUnits="userSpaceOnUse"><path
         id="path22"
         d="M 0,156.653 H 67.359 V 0 H 0 Z" /></clipPath><clipPath
       id="clipPath60"
       clipPathUnits="userSpaceOnUse"><path
         id="path58"
         d="M 0,156.653 H 67.359 V 0 H 0 Z" /></clipPath></defs><g
     transform="matrix(1.3333333,0,0,-1.3333333,0,208.87067)"
     id="g10"><path
       id="path12"
       style="fill:none;stroke:#000000;stroke-width:1.41700006;stroke-linecap:butt;stroke-linejoin:miter;stroke-miterlimit:10;stroke-dasharray:none;stroke-opacity:1"
       d="M 53.391,52.185 H 13.968 v 33.454 h 39.423 z" /><g
       transform="translate(20.0223,66.6504)"
       id="g14"><path
         id="path16"
         style="fill:#ffffff;fill-opacity:1;fill-rule:nonzero;stroke:none"
         d="M 0,0 -19.314,-19.314 V -46.628 L 0,-65.942 h 27.314 l 19.314,19.314 v 27.314 L 27.314,0 Z" /></g><g
       id="g18"><g
         clip-path="url(#clipPath24)"
         id="g20"><g
           transform="translate(47.3363,66.6502)"
           id="g26"><path
             id="path28"
             style="fill:none;stroke:#000000;stroke-width:1.41700006;stroke-linecap:butt;stroke-linejoin:miter;stroke-miterlimit:10;stroke-dasharray:none;stroke-opacity:1"
             d="m 0,0 h -27.314 l -19.314,-19.314 v -27.314 l 19.314,-19.314 H 0 l 19.314,19.314 v 27.314 z" /></g></g></g><path
       id="path30"
       style="fill:none;stroke:#000000;stroke-width:1.41700006;stroke-linecap:butt;stroke-linejoin:miter;stroke-miterlimit:10;stroke-dasharray:none;stroke-opacity:1"
       d="m 36.311,136.161 h -5.264 v 7.715 h 5.264 z" /><path
       id="path32"
       style="fill:none;stroke:#000000;stroke-width:1.41700006;stroke-linecap:butt;stroke-linejoin:miter;stroke-miterlimit:10;stroke-dasharray:none;stroke-opacity:1"
       d="m 36.311,85.639 h -5.264 v 43.45 h 5.264 z" /><g
       transform="translate(44.0245,138.09)"
       id="g34"><path
         id="path36"
         style="fill:none;stroke:#000000;stroke-width:1.41700006;stroke-linecap:round;stroke-linejoin:miter;stroke-miterlimit:10;stroke-dasharray:none;stroke-opacity:1"
         d="M 0,0 V -52.451" /></g><g
       transform="translate(23.3343,138.09)"
       id="g38"><path
         id="path40"
         style="fill:none;stroke:#000000;stroke-width:1.41700006;stroke-linecap:round;stroke-linejoin:miter;stroke-miterlimit:10;stroke-dasharray:none;stroke-opacity:1"
         d="M 0,0 V -52.451" /></g><path
       id="path42"
       style="fill:#ffffff;fill-opacity:1;fill-rule:nonzero;stroke:#000000;stroke-width:1.41700006;stroke-linecap:butt;stroke-linejoin:miter;stroke-miterlimit:10;stroke-dasharray:none;stroke-opacity:1"
       d="M 48.333,129.09 H 19.026 v 7.072 h 29.307 z" /><path
       id="path44"
       style="fill:#bd1b18;fill-opacity:1;fill-rule:nonzero;stroke:none"
       d="m 2.321,149.582 h 62.717 v 7.071 H 2.321 Z" /><g
       transform="translate(40.3819,143.8765)"
       id="g46"><path
         id="path48"
         style="fill:#bd1b18;fill-opacity:1;fill-rule:nonzero;stroke:none"
         d="m 0,0 h -13.405 l -4.1,5.705 H 4.1 Z" /></g><g
       transform="translate(40.3819,143.8765)"
       id="g50"><path
         id="path52"
         style="fill:none;stroke:#bd1b18;stroke-width:1.41700006;stroke-linecap:butt;stroke-linejoin:miter;stroke-miterlimit:10;stroke-dasharray:none;stroke-opacity:1"
         d="m 0,0 h -13.405 l -4.1,5.705 H 4.1 Z" /></g><g
       id="g54"><g
         clip-path="url(#clipPath60)"
         id="g56"><g
           transform="translate(46.2735,59.622)"
           id="g62"><path
             id="path64"
             style="fill:#bd1b18;fill-opacity:1;fill-rule:nonzero;stroke:none"
             d="m 0,0 c 0,-0.95 -0.77,-1.721 -1.721,-1.721 -0.95,0 -1.72,0.771 -1.72,1.721 0,0.95 0.77,1.721 1.72,1.721 C -0.77,1.721 0,0.95 0,0" /></g><g
           transform="translate(46.2735,59.622)"
           id="g66"><path
             id="path68"
             style="fill:none;stroke:#bd1b18;stroke-width:0.70899999;stroke-linecap:butt;stroke-linejoin:miter;stroke-miterlimit:10;stroke-dasharray:none;stroke-opacity:1"
             d="m 0,0 c 0,-0.95 -0.77,-1.721 -1.721,-1.721 -0.95,0 -1.72,0.771 -1.72,1.721 0,0.95 0.77,1.721 1.72,1.721 C -0.77,1.721 0,0.95 0,0 Z" /></g><g
           transform="translate(24.2406,60.929)"
           id="g70"><path
             id="path72"
             style="fill:#bd1b18;fill-opacity:1;fill-rule:nonzero;stroke:none"
             d="m 0,0 c 0.672,-0.672 0.672,-1.761 0,-2.433 -0.672,-0.672 -1.761,-0.672 -2.433,0 -0.672,0.672 -0.672,1.761 0,2.433 0.672,0.672 1.761,0.672 2.433,0" /></g><g
           transform="translate(24.2406,60.929)"
           id="g74"><path
             id="path76"
             style="fill:none;stroke:#bd1b18;stroke-width:0.70899999;stroke-linecap:butt;stroke-linejoin:miter;stroke-miterlimit:10;stroke-dasharray:none;stroke-opacity:1"
             d="m 0,0 c 0.672,-0.672 0.672,-1.761 0,-2.433 -0.672,-0.672 -1.761,-0.672 -2.433,0 -0.672,0.672 -0.672,1.761 0,2.433 0.672,0.672 1.761,0.672 2.433,0 z" /></g><g
           transform="translate(7.7368,46.2735)"
           id="g78"><path
             id="path80"
             style="fill:#bd1b18;fill-opacity:1;fill-rule:nonzero;stroke:none"
             d="m 0,0 c 0.95,0 1.721,-0.77 1.721,-1.721 0,-0.95 -0.771,-1.72 -1.721,-1.72 -0.95,0 -1.721,0.77 -1.721,1.72 C -1.721,-0.77 -0.95,0 0,0" /></g><g
           transform="translate(7.7368,46.2735)"
           id="g82"><path
             id="path84"
             style="fill:none;stroke:#bd1b18;stroke-width:0.70899999;stroke-linecap:butt;stroke-linejoin:miter;stroke-miterlimit:10;stroke-dasharray:none;stroke-opacity:1"
             d="m 0,0 c 0.95,0 1.721,-0.77 1.721,-1.721 0,-0.95 -0.771,-1.72 -1.721,-1.72 -0.95,0 -1.721,0.77 -1.721,1.72 C -1.721,-0.77 -0.95,0 0,0 Z" /></g><g
           transform="translate(6.4298,24.2406)"
           id="g86"><path
             id="path88"
             style="fill:#bd1b18;fill-opacity:1;fill-rule:nonzero;stroke:none"
             d="m 0,0 c 0.672,0.672 1.761,0.672 2.433,0 0.672,-0.672 0.672,-1.761 0,-2.433 C 1.761,-3.105 0.672,-3.105 0,-2.433 -0.672,-1.761 -0.672,-0.672 0,0" /></g><g
           transform="translate(6.4298,24.2406)"
           id="g90"><path
             id="path92"
             style="fill:none;stroke:#bd1b18;stroke-width:0.70899999;stroke-linecap:butt;stroke-linejoin:miter;stroke-miterlimit:10;stroke-dasharray:none;stroke-opacity:1"
             d="m 0,0 c 0.672,0.672 1.761,0.672 2.433,0 0.672,-0.672 0.672,-1.761 0,-2.433 C 1.761,-3.105 0.672,-3.105 0,-2.433 -0.672,-1.761 -0.672,-0.672 0,0 Z" /></g><g
           transform="translate(21.0853,7.7368)"
           id="g94"><path
             id="path96"
             style="fill:#bd1b18;fill-opacity:1;fill-rule:nonzero;stroke:none"
             d="m 0,0 c 0,0.95 0.77,1.721 1.721,1.721 0.95,0 1.72,-0.771 1.72,-1.721 0,-0.95 -0.77,-1.721 -1.72,-1.721 C 0.77,-1.721 0,-0.95 0,0" /></g><g
           transform="translate(21.0853,7.7368)"
           id="g98"><path
             id="path100"
             style="fill:none;stroke:#bd1b18;stroke-width:0.70899999;stroke-linecap:butt;stroke-linejoin:miter;stroke-miterlimit:10;stroke-dasharray:none;stroke-opacity:1"
             d="m 0,0 c 0,0.95 0.77,1.721 1.721,1.721 0.95,0 1.72,-0.771 1.72,-1.721 0,-0.95 -0.77,-1.721 -1.72,-1.721 C 0.77,-1.721 0,-0.95 0,0 Z" /></g><g
           transform="translate(43.1182,6.4298)"
           id="g102"><path
             id="path104"
             style="fill:#bd1b18;fill-opacity:1;fill-rule:nonzero;stroke:none"
             d="m 0,0 c -0.672,0.672 -0.672,1.761 0,2.433 0.672,0.672 1.761,0.672 2.433,0 C 3.105,1.761 3.105,0.672 2.433,0 1.761,-0.672 0.672,-0.672 0,0" /></g><g
           transform="translate(43.1182,6.4298)"
           id="g106"><path
             id="path108"
             style="fill:none;stroke:#bd1b18;stroke-width:0.70899999;stroke-linecap:butt;stroke-linejoin:miter;stroke-miterlimit:10;stroke-dasharray:none;stroke-opacity:1"
             d="m 0,0 c -0.672,0.672 -0.672,1.761 0,2.433 0.672,0.672 1.761,0.672 2.433,0 C 3.105,1.761 3.105,0.672 2.433,0 1.761,-0.672 0.672,-0.672 0,0 Z" /></g><g
           transform="translate(59.622,21.0853)"
           id="g110"><path
             id="path112"
             style="fill:#bd1b18;fill-opacity:1;fill-rule:nonzero;stroke:none"
             d="m 0,0 c -0.95,0 -1.721,0.77 -1.721,1.721 0,0.95 0.771,1.72 1.721,1.72 0.95,0 1.721,-0.77 1.721,-1.72 C 1.721,0.77 0.95,0 0,0" /></g><g
           transform="translate(59.622,21.0853)"
           id="g114"><path
             id="path116"
             style="fill:none;stroke:#bd1b18;stroke-width:0.70899999;stroke-linecap:butt;stroke-linejoin:miter;stroke-miterlimit:10;stroke-dasharray:none;stroke-opacity:1"
             d="m 0,0 c -0.95,0 -1.721,0.77 -1.721,1.721 0,0.95 0.771,1.72 1.721,1.72 0.95,0 1.721,-0.77 1.721,-1.72 C 1.721,0.77 0.95,0 0,0 Z" /></g><g
           transform="translate(60.929,43.1182)"
           id="g118"><path
             id="path120"
             style="fill:#bd1b18;fill-opacity:1;fill-rule:nonzero;stroke:none"
             d="m 0,0 c -0.672,-0.672 -1.761,-0.672 -2.433,0 -0.672,0.672 -0.672,1.761 0,2.433 0.672,0.672 1.761,0.672 2.433,0 C 0.672,1.761 0.672,0.672 0,0" /></g><g
           transform="translate(60.929,43.1182)"
           id="g122"><path
             id="path124"
             style="fill:none;stroke:#bd1b18;stroke-width:0.70899999;stroke-linecap:butt;stroke-linejoin:miter;stroke-miterlimit:10;stroke-dasharray:none;stroke-opacity:1"
             d="m 0,0 c -0.672,-0.672 -1.761,-0.672 -2.433,0 -0.672,0.672 -0.672,1.761 0,2.433 0.672,0.672 1.761,0.672 2.433,0 C 0.672,1.761 0.672,0.672 0,0 Z" /></g><g
           transform="translate(51.5607,35.729)"
           id="g126"><path
             id="path128"
             style="fill:none;stroke:#000000;stroke-width:1.41700006;stroke-linecap:butt;stroke-linejoin:miter;stroke-miterlimit:10;stroke-dasharray:none;stroke-opacity:1"
             d="m 0,0 c -3.134,-6.736 -9.962,-11.406 -17.881,-11.406 -8.452,0 -15.661,5.32 -18.463,12.793" /></g><g
           transform="translate(33.6794,17.7572)"
           id="g130"><path
             id="path132"
             style="fill:#bd1b18;fill-opacity:1;fill-rule:nonzero;stroke:none"
             d="m 0,0 c -8.794,0 -15.922,7.129 -15.922,15.922 0,8.794 7.128,15.922 15.922,15.922 8.794,0 15.922,-7.128 15.922,-15.922 C 15.922,7.129 8.794,0 0,0 m 0,36.877 c -11.573,0 -20.955,-9.382 -20.955,-20.955 0,-11.573 9.382,-20.955 20.955,-20.955 11.573,0 20.955,9.382 20.955,20.955 0,11.573 -9.382,20.955 -20.955,20.955" /></g></g></g></g></svg>