<?xml version="1.0" encoding="UTF-8" standalone="no"?>
<svg
   xmlns:dc="http://purl.org/dc/elements/1.1/"
   xmlns:cc="http://creativecommons.org/ns#"
   xmlns:rdf="http://www.w3.org/1999/02/22-rdf-syntax-ns#"
   xmlns:svg="http://www.w3.org/2000/svg"
   xmlns="http://www.w3.org/2000/svg"
   viewBox="0 0 189.12132 171.492"
   height="171.492"
   width="189.12132"
   xml:space="preserve"
   id="svg2"
   version="1.1"><metadata
     id="metadata8"><rdf:RDF><cc:Work
         rdf:about=""><dc:format>image/svg+xml</dc:format><dc:type
           rdf:resource="http://purl.org/dc/dcmitype/StillImage" /></cc:Work></rdf:RDF></metadata><defs
     id="defs6"><clipPath
       id="clipPath26"
       clipPathUnits="userSpaceOnUse"><path
         id="path24"
         d="M 0,128.619 H 141.841 V 0 H 0 Z" /></clipPath><clipPath
       id="clipPath40"
       clipPathUnits="userSpaceOnUse"><path
         id="path38"
         d="M 0,128.619 H 141.841 V 0 H 0 Z" /></clipPath><clipPath
       id="clipPath54"
       clipPathUnits="userSpaceOnUse"><path
         id="path52"
         d="M 0,128.619 H 141.841 V 0 H 0 Z" /></clipPath></defs><g
     transform="matrix(1.3333333,0,0,-1.3333333,0,171.492)"
     id="g10"><path
       id="path12"
       style="fill:#ffffff;fill-opacity:1;fill-rule:nonzero;stroke:#000000;stroke-width:1.41700006;stroke-linecap:butt;stroke-linejoin:miter;stroke-miterlimit:10;stroke-dasharray:none;stroke-opacity:1"
       d="m 126.12,36.689 h -5.618 v 20.489 h 5.618 z" /><path
       id="path14"
       style="fill:#ffffff;fill-opacity:1;fill-rule:nonzero;stroke:#000000;stroke-width:1.41700006;stroke-linecap:butt;stroke-linejoin:miter;stroke-miterlimit:10;stroke-dasharray:none;stroke-opacity:1"
       d="M 33.802,30.166 H 64.736 V 18.847 H 33.802 Z" /><path
       id="path16"
       style="fill:#ffffff;fill-opacity:1;fill-rule:nonzero;stroke:#000000;stroke-width:1.41700006;stroke-linecap:butt;stroke-linejoin:miter;stroke-miterlimit:10;stroke-dasharray:none;stroke-opacity:1"
       d="M 33.802,33.67 H 26.32 V 15.344 h 7.482 z" /><path
       id="path18"
       style="fill:#ffffff;fill-opacity:1;fill-rule:nonzero;stroke:none"
       d="m 68.77,0.708 h 4.301 V 40.009 H 68.77 Z" /><g
       id="g20"><g
         clip-path="url(#clipPath26)"
         id="g22"><path
           id="path28"
           style="fill:none;stroke:#000000;stroke-width:1.41700006;stroke-linecap:butt;stroke-linejoin:miter;stroke-miterlimit:10;stroke-dasharray:none;stroke-opacity:1"
           d="m 68.77,40.01 h 4.302 V 0.709 H 68.77 Z" /></g></g><path
       id="path30"
       style="fill:#bd1b18;fill-opacity:1;fill-rule:nonzero;stroke:#bd1b18;stroke-width:1.41700006;stroke-linecap:butt;stroke-linejoin:miter;stroke-miterlimit:10;stroke-dasharray:none;stroke-opacity:1"
       d="m 7.92,88.675 h 13.419 v 13.433 H 7.92 Z" /><path
       id="path32"
       style="fill:#ffffff;fill-opacity:1;fill-rule:nonzero;stroke:none"
       d="M 0.708,75.573 H 7.92 v 39.636 H 0.708 Z" /><g
       id="g34"><g
         clip-path="url(#clipPath40)"
         id="g36"><path
           id="path42"
           style="fill:none;stroke:#000000;stroke-width:1.41700006;stroke-linecap:butt;stroke-linejoin:miter;stroke-miterlimit:10;stroke-dasharray:none;stroke-opacity:1"
           d="M 7.92,75.573 H 0.709 v 39.636 H 7.92 Z" /></g></g><path
       id="path44"
       style="fill:#bd1b18;fill-opacity:1;fill-rule:nonzero;stroke:#bd1b18;stroke-width:1.41700006;stroke-linecap:butt;stroke-linejoin:miter;stroke-miterlimit:10;stroke-dasharray:none;stroke-opacity:1"
       d="m 133.921,88.675 h -13.419 v 13.433 h 13.419 z" /><path
       id="path46"
       style="fill:#ffffff;fill-opacity:1;fill-rule:nonzero;stroke:none"
       d="m 133.921,75.573 h 7.212 v 39.636 h -7.212 z" /><g
       id="g48"><g
         clip-path="url(#clipPath54)"
         id="g50"><path
           id="path56"
           style="fill:none;stroke:#000000;stroke-width:1.41700006;stroke-linecap:butt;stroke-linejoin:miter;stroke-miterlimit:10;stroke-dasharray:none;stroke-opacity:1"
           d="m 133.921,75.573 h 7.211 v 39.636 h -7.211 z" /><g
           transform="translate(48.4198,111.2611)"
           id="g58"><path
             id="path60"
             style="fill:#bd1b18;fill-opacity:1;fill-rule:nonzero;stroke:none"
             d="m 0,0 h -4.179 c -1.237,0 -2.25,1.012 -2.25,2.25 v 12.858 c 0,1.237 1.013,2.25 2.25,2.25 H 0 c 1.237,0 2.25,-1.013 2.25,-2.25 V 2.25 C 2.25,1.012 1.237,0 0,0" /></g><g
           transform="translate(73.0099,111.2611)"
           id="g62"><path
             id="path64"
             style="fill:#bd1b18;fill-opacity:1;fill-rule:nonzero;stroke:none"
             d="m 0,0 h -4.179 c -1.237,0 -2.25,1.012 -2.25,2.25 v 12.858 c 0,1.237 1.013,2.25 2.25,2.25 H 0 c 1.238,0 2.25,-1.013 2.25,-2.25 V 2.25 C 2.25,1.012 1.238,0 0,0" /></g><g
           transform="translate(97.6,111.2611)"
           id="g66"><path
             id="path68"
             style="fill:#bd1b18;fill-opacity:1;fill-rule:nonzero;stroke:none"
             d="m 0,0 h -4.179 c -1.237,0 -2.25,1.012 -2.25,2.25 v 12.858 c 0,1.237 1.013,2.25 2.25,2.25 H 0 c 1.238,0 2.25,-1.013 2.25,-2.25 V 2.25 C 2.25,1.012 1.238,0 0,0" /></g><path
           id="path70"
           style="fill:#ffffff;fill-opacity:1;fill-rule:nonzero;stroke:#000000;stroke-width:1.41700006;stroke-linecap:butt;stroke-linejoin:miter;stroke-miterlimit:10;stroke-dasharray:none;stroke-opacity:1"
           d="M 115.52,108.59 H 26.321 v 13.24 h 89.199 z" /><g
           transform="translate(101.5376,42.6941)"
           id="g72"><path
             id="path74"
             style="fill:#ffffff;fill-opacity:1;fill-rule:nonzero;stroke:#000000;stroke-width:1.41700006;stroke-linecap:butt;stroke-linejoin:miter;stroke-miterlimit:10;stroke-dasharray:none;stroke-opacity:1"
             d="m 0,0 c 0,-16.998 -13.708,-30.778 -30.617,-30.778 -16.909,0 -30.617,13.78 -30.617,30.778" /></g><path
           id="path76"
           style="fill:#ffffff;fill-opacity:1;fill-rule:nonzero;stroke:#000000;stroke-width:1.41700006;stroke-linecap:butt;stroke-linejoin:miter;stroke-miterlimit:10;stroke-dasharray:none;stroke-opacity:1"
           d="m 101.538,31.669 h 18.965 v 73.967 h -18.965 z" /><g
           transform="translate(101.5376,95.3913)"
           id="g78"><path
             id="path80"
             style="fill:#ffffff;fill-opacity:1;fill-rule:nonzero;stroke:#000000;stroke-width:1.41700006;stroke-linecap:butt;stroke-linejoin:miter;stroke-miterlimit:10;stroke-dasharray:none;stroke-opacity:1"
             d="M 0,0 H -61.234 V -54.646" /></g><path
           id="path82"
           style="fill:#ffffff;fill-opacity:1;fill-rule:nonzero;stroke:#000000;stroke-width:1.41700006;stroke-linecap:butt;stroke-linejoin:miter;stroke-miterlimit:10;stroke-dasharray:none;stroke-opacity:1"
           d="M 45.367,85.147 H 21.338 v 20.489 h 24.029 z" /><g
           transform="translate(52.5984,59.2713)"
           id="g84"><path
             id="path86"
             style="fill:none;stroke:#bd1b18;stroke-width:1.41700006;stroke-linecap:round;stroke-linejoin:miter;stroke-miterlimit:10;stroke-dasharray:none;stroke-opacity:1"
             d="m 0,0 v -18.774 c 0,0 0.151,-9.167 9.163,-14.311" /></g><path
           id="path88"
           style="fill:#ffffff;fill-opacity:1;fill-rule:nonzero;stroke:#000000;stroke-width:1.41700006;stroke-linecap:butt;stroke-linejoin:miter;stroke-miterlimit:10;stroke-dasharray:none;stroke-opacity:1"
           d="M 115.52,95.35 H 26.321 v 13.24 h 89.199 z" /></g></g></g></svg>