<?xml version="1.0" encoding="utf-8"?>
<!-- Generator: Adobe Illustrator 16.0.1, SVG Export Plug-In . SVG Version: 6.00 Build 0)  -->
<!DOCTYPE svg PUBLIC "-//W3C//DTD SVG 1.1//EN" "http://www.w3.org/Graphics/SVG/1.1/DTD/svg11.dtd">
<svg version="1.1" id="Слой_1" xmlns="http://www.w3.org/2000/svg" xmlns:xlink="http://www.w3.org/1999/xlink" x="0px" y="0px"
	 width="32.001px" height="29px" viewBox="0 0 32.001 29" enable-background="new 0 0 32.001 29" xml:space="preserve">
<path fill="#C6C6C6" d="M29.364,2.637c-3.515-3.516-9.214-3.516-12.728,0L2.047,17.053c-2.729,2.729-2.729,7.172,0,9.9
	c2.729,2.729,7.17,2.729,9.898,0l14.59-14.418c1.953-1.953,1.953-5.118,0-7.071c-1.953-1.952-5.119-1.952-7.07,0L8.497,16.433
	c-0.391,0.392-0.391,1.022,0,1.415c0.391,0.391,1.023,0.391,1.414,0L20.88,6.879c1.17-1.169,3.072-1.169,4.242,0
	c1.17,1.17,1.17,3.073,0,4.243l-14.59,14.417c-1.953,1.953-5.117,1.953-7.07,0c-1.953-1.952-1.953-5.118,0-7.07L17.909,4.192
	c2.733-2.734,7.168-2.734,9.897,0c2.736,2.735,2.736,7.165,0.002,9.899L16.982,24.917c-0.393,0.393-0.393,1.023,0,1.414
	c0.392,0.393,1.023,0.393,1.414,0l10.968-10.968C32.88,11.85,32.88,6.151,29.364,2.637"/>
<rect y="0" fill="none" width="32.001" height="29.001"/>
</svg>
