<?xml version="1.0" encoding="utf-8"?>
<!-- Generator: Adobe Illustrator 19.1.0, SVG Export Plug-In . SVG Version: 6.00 Build 0)  -->
<svg version="1.0" id="Слой_1" xmlns="http://www.w3.org/2000/svg" xmlns:xlink="http://www.w3.org/1999/xlink" x="0px" y="0px"
	 viewBox="0 0 86 86" style="enable-background:new 0 0 86 86;" xml:space="preserve">
<g>
	
		<rect x="14.042216" y="14.04198" transform="matrix(0.707107 -0.707107 0.707107 0.707107 -17.811016 42.999931)" style="fill:none;" width="57.915569" height="57.915569"/>
	<path style="fill:#BD1C18;" d="M42.999763,86L0,42.999763L42.999763,0L86,42.999763L42.999763,86z M4.094811,42.999763
		L42.999763,81.90519L81.90519,42.999763L42.999763,4.094811L4.094811,42.999763z"/>
	
		<rect x="25.62533" y="25.625093" transform="matrix(0.707107 -0.707107 0.707107 0.707107 -17.811016 42.999931)" style="fill:none;" width="34.74934" height="34.74934"/>
	<polygon style="fill:#BD1C18;" points="20.475945,43 20.475708,42.999763 43,20.475471 65.524292,42.999763 65.524055,43 
		69.618866,43 69.619102,42.999763 43,16.380661 16.380896,42.999763 16.381132,43 	"/>
</g>
</svg>
