<?xml version="1.0" encoding="utf-8"?>
<!-- Generator: Adobe Illustrator 16.0.1, SVG Export Plug-In . SVG Version: 6.00 Build 0)  -->
<!DOCTYPE svg PUBLIC "-//W3C//DTD SVG 1.1//EN" "http://www.w3.org/Graphics/SVG/1.1/DTD/svg11.dtd">
<svg version="1.1" id="Слой_1" xmlns="http://www.w3.org/2000/svg" xmlns:xlink="http://www.w3.org/1999/xlink" x="0px" y="0px" opacity="0.12"
	 width="262.476px" height="170.667px" viewBox="0 0 262.476 170.667" enable-background="new 0 0 262.476 170.667"
	 xml:space="preserve">
<path fill="#BD1718" d="M201.159,16.318l2.337-0.74c-0.038-0.113-0.069-0.227-0.092-0.344l-2.329,0.737l-0.124,0.239L201.159,16.318
	z"/>
<polygon fill="#BD1718" points="202.948,24.426 197.388,26.185 197.156,26.631 202.717,24.872 "/>
<polygon fill="#BD1718" points="204.071,12.761 202.48,13.264 202.248,13.711 203.839,13.208 "/>
<polygon fill="#BD1718" points="204.354,21.719 198.793,23.479 198.562,23.925 204.122,22.165 "/>
<path fill="#BD1718" d="M216.669-0.273l-8.566,2.71l-0.232,0.447l9.073-2.872C216.862-0.091,216.773-0.189,216.669-0.273"/>
<polygon fill="#BD1718" points="205.477,10.055 203.887,10.559 203.653,11.004 205.245,10.502 "/>
<polygon fill="#BD1718" points="214.014,-1.696 209.508,-0.269 209.276,0.177 214.461,-1.464 "/>
<polygon fill="#BD1718" points="205.759,19.013 200.198,20.773 199.967,21.219 205.527,19.46 "/>
<polygon fill="#BD1718" points="206.883,7.347 205.291,7.849 205.061,8.296 206.65,7.793 "/>
<path fill="#BD1718" d="M213.491-3.784l-0.007-0.005l-2.57,0.813l-0.232,0.447l3.147-0.997
	C213.731-3.626,213.622-3.717,213.491-3.784"/>
<polygon fill="#BD1718" points="212.044,6.087 215.514,4.989 215.745,4.542 211.598,5.854 "/>
<path fill="#BD1718" d="M206.697,5.144l-0.232,0.446l10.454-3.308l0.197-0.379c0.01-0.021,0.015-0.043,0.025-0.065L206.697,5.144z"
	/>
<polygon fill="#BD1718" points="210.229,19.859 209.001,20.249 209.447,20.48 210.675,20.092 "/>
<polygon fill="#BD1718" points="214.328,7.272 214.34,7.249 214.305,7.26 "/>
<polygon fill="#BD1718" points="201.543,27.131 195.182,29.146 195.62,29.379 201.311,27.578 "/>
<path fill="#BD1718" d="M200.938,32.22l0.507-0.161c0.052-0.099,0.105-0.203,0.155-0.299c0.026-0.05,0.051-0.097,0.077-0.146
	l-1.177,0.371L200.938,32.22z"/>
<polygon fill="#BD1718" points="201.604,18.065 201.372,18.512 205.263,17.282 204.815,17.05 "/>
<path fill="#BD1718" d="M198.279,30.8l4.583-1.452c0.151-0.287,0.232-0.442,0.234-0.447l-5.256,1.664L198.279,30.8z"/>
<polygon fill="#BD1718" points="207.522,18.454 206.295,18.843 206.741,19.075 207.97,18.687 "/>
<path fill="#BD1718" d="M122.301,171.481l-12.656-6.572l2.497-4.808l2.212-0.688l9.734,5.054l0.71,2.206L122.301,171.481z
	 M110.331,164.691l11.753,6.104l2.165-4.17l-0.581-1.804l-9.362-4.861l-1.811,0.563L110.331,164.691z"/>
<path fill="#BD1718" d="M123.986,164.987l-9.999-5.191l46.225-89.024l9.999,5.192L123.986,164.987z M114.672,159.578l9.097,4.725
	l45.757-88.122l-9.098-4.723L114.672,159.578z"/>
<path fill="#BD1718" d="M113.513,188.407l-12.657-6.572l9.023-17.376l12.656,6.571L113.513,188.407z M101.542,181.618l11.754,6.103
	l8.554-16.475l-11.754-6.103L101.542,181.618z"/>
<path fill="#BD1718" d="M113.513,188.407l-12.657-6.572l2.976-5.729l12.656,6.571L113.513,188.407z M101.542,181.618l11.754,6.103
	l2.506-4.828l-11.754-6.103L101.542,181.618z"/>
<path fill="#BD1718" d="M98.577,214.739l-10.664-5.538l5.24-10.093l10.664,5.536L98.577,214.739z M88.598,208.984l9.762,5.068
	l4.772-9.19l-9.762-5.069L88.598,208.984z"/>
<path fill="#BD1718" d="M166.076,134.397l-20.865-10.834l0.351-0.678l20.189,10.482l5.128-9.876c2.234-4.305-1.38-6.994-1.706-7.224
	l-15.892-8.252l0.353-0.676l15.952,8.286c0.045,0.032,4.574,3.201,1.97,8.218L166.076,134.397z"/>
<path fill="#BD1718" d="M152.078,116.867c-1.56-0.81-2.556-1.544-2.614-1.586l0.304-0.408c0.076,0.058,7.873,5.744,13.994,2.793
	c1.297-0.625,2.445-1.604,3.416-2.91l0.408,0.303c-1.02,1.373-2.231,2.404-3.604,3.065c-2.655,1.28-6.012,1.192-9.707-0.257
	C153.466,117.55,152.724,117.201,152.078,116.867"/>
<path fill="#BD1718" d="M155.53,128.95c-0.436-0.228-0.86-0.456-1.272-0.68c-0.734-0.398-1.429-0.773-2.082-1.073l0.211-0.461
	c0.669,0.305,1.371,0.684,2.114,1.088c3.238,1.751,7.265,3.933,12.017,1.551c0.77-0.386,1.438-0.838,2.038-1.383
	c0.092-0.084,0.184-0.17,0.273-0.258l0.357,0.363c-0.097,0.093-0.192,0.184-0.289,0.271c-0.636,0.578-1.339,1.055-2.152,1.462
	C162.37,132.023,158.637,130.561,155.53,128.95"/>
<path fill="#BD1718" d="M168.546,128.261c2.782-6.473-4.709-10.097-4.782-10.136l0.217-0.459c0.082,0.033,8.006,3.879,5.032,10.796
	L168.546,128.261z"/>
<rect x="146.827" y="121.114" transform="matrix(-0.3677 0.9299 -0.9299 -0.3677 319.9689 25.1796)" fill="#BD1718" width="9.194" height="0.507"/>
<path fill="#BD1718" d="M173.796,139.872L144.385,124.6l0.825-1.592l29.413,15.273L173.796,139.872z M145.069,124.383l28.51,14.803
	l0.359-0.688l-28.511-14.803L145.069,124.383z"/>
<polygon fill="#BD1718" points="124.657,166.483 124.207,166.249 145.524,125.192 144.835,124.835 124.104,164.762 123.651,164.528 
	144.618,124.15 146.21,124.976 "/>
<polygon fill="#BD1718" points="121.852,174.674 121.401,174.44 146.665,125.785 145.976,125.427 125.244,165.354 124.792,165.12 
	145.759,124.741 147.351,125.567 "/>
<path fill="#BD1718" d="M174.406,138.7l-8.885-4.615l0.96-1.85l8.885,4.614L174.406,138.7z M166.206,133.869l7.983,4.144l0.49-0.945
	l-7.982-4.145L166.206,133.869z"/>
<rect x="111.545" y="163.226" transform="matrix(0.8875 0.4608 -0.4608 0.8875 88.6528 -36.1775)" fill="#BD1718" width="13.752" height="0.51"/>
<rect x="142.687" y="129.888" transform="matrix(0.8864 0.4629 -0.4629 0.8864 88.8722 -48.3432)" fill="#BD1718" width="0.508" height="54.058"/>
<rect x="145.638" y="129.838" transform="matrix(0.8875 0.4608 -0.4608 0.8875 77.1527 -55.8316)" fill="#BD1718" width="14.561" height="0.508"/>
<polygon fill="#BD1718" points="133.12,187.557 132.67,187.323 159.691,135.279 158.549,131.875 159.03,131.713 160.242,135.322 "/>
<rect x="144.927" y="131.376" transform="matrix(0.8875 0.4608 -0.4608 0.8875 77.8633 -55.6494)" fill="#BD1718" width="15.937" height="0.507"/>
<path fill="#BD1718" d="M174.992,163.121l-6.582-3.418l3.098-5.969l6.583,3.419L174.992,163.121z M169.095,159.485l5.68,2.95
	l2.631-5.066l-5.681-2.948L169.095,159.485z"/>
<rect x="164.186" y="160.932" transform="matrix(0.8875 0.4609 -0.4609 0.8875 93.6225 -61.0478)" fill="#BD1718" width="15.265" height="0.508"/>
<polygon fill="#BD1718" points="174.189,164.2 167.96,160.952 164.864,157.848 165.225,157.489 168.292,160.564 174.354,163.713 
	178.636,164.452 178.548,164.955 "/>
<path fill="#BD1718" d="M168.86,159.938l-4.159-2.16l3.099-5.968l4.16,2.159L168.86,159.938z M165.387,157.561l3.257,1.691
	l2.63-5.065l-3.257-1.691L165.387,157.561z"/>
<path fill="#BD1718" d="M174.189,164.201l-6.166-3.202l0.233-0.452l6.097,3.166l2.667,0.46l-2.479-1.287l3.099-5.968l4.158,2.161
	l-3.066,5.906L174.189,164.201z M175.227,162.669l3.257,1.691l2.63-5.065l-3.257-1.69L175.227,162.669z"/>
<path fill="#BD1718" d="M174.992,163.121l-6.582-3.418l3.098-5.969l6.583,3.419L174.992,163.121z M169.095,159.485l5.68,2.95
	l2.631-5.066l-5.681-2.948L169.095,159.485z"/>
<rect x="164.186" y="160.932" transform="matrix(0.8875 0.4609 -0.4609 0.8875 93.6225 -61.0478)" fill="#BD1718" width="15.265" height="0.508"/>
<polygon fill="#BD1718" points="174.189,164.2 167.96,160.952 164.864,157.848 165.225,157.489 168.292,160.564 174.354,163.713 
	178.636,164.452 178.548,164.955 "/>
<path fill="#BD1718" d="M168.86,159.938l-4.159-2.16l3.099-5.968l4.16,2.159L168.86,159.938z M165.387,157.561l3.257,1.691
	l2.63-5.065l-3.257-1.691L165.387,157.561z"/>
<path fill="#BD1718" d="M174.189,164.201l-6.166-3.202l0.233-0.452l6.097,3.166l2.667,0.46l-2.479-1.287l3.099-5.968l4.158,2.161
	l-3.066,5.906L174.189,164.201z M175.227,162.669l3.257,1.691l2.63-5.065l-3.257-1.69L175.227,162.669z"/>
<path fill="#BD1718" d="M191.01,132.271l-6.582-3.418l3.099-5.967l6.583,3.418L191.01,132.271z M185.113,128.636l5.68,2.949
	l2.63-5.065l-5.68-2.949L185.113,128.636z"/>
<rect x="183.067" y="124.567" transform="matrix(0.8875 0.4609 -0.4609 0.8875 78.993 -73.8456)" fill="#BD1718" width="15.266" height="0.508"/>
<polygon fill="#BD1718" points="197.313,128.534 194.029,125.848 187.945,122.689 183.858,121.547 183.994,121.058 188.155,122.225 
	194.33,125.438 197.636,128.141 "/>
<polygon fill="#BD1718" points="194.564,134.493 194.113,134.259 197.131,128.446 193.874,126.755 191.127,132.046 190.675,131.812 
	193.657,126.07 197.817,128.23 "/>
<path fill="#BD1718" d="M184.879,129.088l-4.16-2.16l3.077-5.924l4.311,1.202l-0.137,0.49l-1.752-0.489l1.759,0.912L184.879,129.088
	z M181.405,126.711l3.257,1.691l2.63-5.065l-3.257-1.691L181.405,126.711z"/>
<rect x="188.318" y="122.501" transform="matrix(0.8876 0.4606 -0.4606 0.8876 78.0996 -74.536)" fill="#BD1718" width="6.908" height="0.509"/>
<polygon fill="#BD1718" points="188.265,122.567 187.813,122.334 188.516,120.982 189.851,120.215 194.956,122.866 195.091,124.324 
	194.584,124.373 194.475,123.189 189.862,120.794 188.898,121.348 "/>
<polygon fill="#BD1718" points="194.396,125.751 193.943,125.517 194.577,124.298 194.461,123.051 194.969,123.004 195.098,124.398 
	"/>
<path fill="#BD1718" d="M184.297,147.174l-8.197-4.256l2.362-4.553l8.199,4.257L184.297,147.174z M176.784,142.7l7.296,3.789
	l1.896-3.648l-7.296-3.789L176.784,142.7z"/>
<path fill="#BD1718" d="M180.382,158.916l-6.831-3.548l0.235-0.45l6.831,3.547c1.006,0.522,2.251,0.128,2.774-0.879l3.502-6.745
	c0.522-1.007,0.13-2.252-0.878-2.774l-6.831-3.547l0.233-0.451l6.831,3.547c1.256,0.652,1.748,2.205,1.096,3.46l-3.503,6.745
	C183.191,159.076,181.637,159.567,180.382,158.916"/>
<path fill="#BD1718" d="M187.465,143.612l-6.831-3.546l0.233-0.452l6.831,3.547c1.007,0.523,2.252,0.13,2.775-0.877l3.503-6.745
	c0.614-1.185-0.438-1.955-1.12-2.309l-6.831-3.548l0.234-0.452l6.831,3.548c1.426,0.739,1.926,1.859,1.336,2.994l-3.501,6.746
	C190.273,143.773,188.72,144.266,187.465,143.612"/>
<rect x="191.134" y="115.403" transform="matrix(0.886 0.4636 -0.4636 0.886 79.1208 -74.6022)" fill="#BD1718" width="0.356" height="16.479"/>
<rect x="181.704" y="134.604" transform="matrix(0.8866 0.4626 -0.4626 0.8866 86.2208 -68.0499)" fill="#BD1718" width="0.355" height="14.396"/>
<rect x="186.231" y="131.876" transform="matrix(0.8878 0.4603 -0.4603 0.8878 82.1852 -70.8691)" fill="#BD1718" width="0.356" height="2.418"/>
<rect x="172.73" y="151.89" transform="matrix(0.8878 0.4603 -0.4603 0.8878 92.639 -61.7355)" fill="#BD1718" width="0.356" height="14.396"/>
<rect x="177.256" y="149.16" transform="matrix(0.8883 0.4593 -0.4593 0.8883 88.8812 -64.6934)" fill="#BD1718" width="0.355" height="2.419"/>
<rect x="37.691" y="181.634" transform="matrix(0.8875 0.4608 -0.4608 0.8875 89.1461 -1.4953)" fill="#BD1718" width="19.888" height="0.355"/>
<rect x="34.128" y="175.487" transform="matrix(0.8875 0.4608 -0.4608 0.8875 84.9826 3.2685)" fill="#BD1718" width="3.34" height="0.356"/>
<rect x="57.906" y="187.834" transform="matrix(0.8875 0.4608 -0.4608 0.8875 93.348 -6.3004)" fill="#BD1718" width="3.34" height="0.356"/>
<rect x="61.919" y="194.213" transform="matrix(0.8875 0.4608 -0.4608 0.8875 97.6693 -11.2448)" fill="#BD1718" width="19.888" height="0.356"/>
<rect x="82.133" y="200.413" transform="matrix(0.8874 0.461 -0.461 0.8874 101.8984 -16.0478)" fill="#BD1718" width="3.341" height="0.356"/>
<rect x="26.084" y="172.254" transform="matrix(0.8875 0.4609 -0.4609 0.8875 82.7933 5.7743)" fill="#BD1718" width="6.976" height="0.356"/>
<rect x="133.716" y="231.494" transform="matrix(0.8875 0.4608 -0.4608 0.8875 122.9132 -40.1363)" fill="#BD1718" width="19.888" height="0.356"/>
<rect x="130.153" y="225.347" transform="matrix(0.8874 0.4609 -0.4609 0.8874 118.7828 -35.3748)" fill="#BD1718" width="3.339" height="0.356"/>
<rect x="153.932" y="237.694" transform="matrix(0.8876 0.4606 -0.4606 0.8876 127.0571 -44.9357)" fill="#BD1718" width="3.339" height="0.356"/>
<rect x="158.689" y="241.019" transform="matrix(0.8876 0.4606 -0.4606 0.8876 129.3155 -47.5138)" fill="#BD1718" width="6.64" height="0.358"/>
<rect x="85.697" y="206.56" transform="matrix(0.8875 0.4608 -0.4608 0.8875 106.0346 -20.8134)" fill="#BD1718" width="19.888" height="0.356"/>
<rect x="82.133" y="200.413" transform="matrix(0.8874 0.461 -0.461 0.8874 101.8984 -16.0478)" fill="#BD1718" width="3.341" height="0.356"/>
<rect x="105.912" y="212.759" transform="matrix(0.8875 0.4608 -0.4608 0.8875 110.2368 -25.619)" fill="#BD1718" width="3.34" height="0.357"/>
<rect x="109.924" y="219.14" transform="matrix(0.8875 0.4608 -0.4608 0.8875 114.536 -30.5624)" fill="#BD1718" width="19.887" height="0.355"/>
<rect x="92.139" y="211.906" transform="matrix(0.8863 0.463 -0.463 0.8863 109.3856 -18.4712)" fill="#BD1718" width="0.356" height="3.339"/>
<rect x="82.257" y="215.06" transform="matrix(0.888 0.4598 -0.4598 0.888 116.1922 -11.8555)" fill="#BD1718" width="0.355" height="35.09"/>
<rect x="72.142" y="250.419" transform="matrix(0.8878 0.4603 -0.4603 0.8878 124.1582 -4.9943)" fill="#BD1718" width="0.356" height="3.34"/>
<rect x="85.799" y="179.598" transform="matrix(0.8886 0.4587 -0.4587 0.8886 113.1394 -14.285)" fill="#BD1718" width="0.356" height="92.33"/>
<rect x="132.464" y="134.243" transform="matrix(0.8866 0.4625 -0.4625 0.8866 77.8934 -45.9355)" fill="#BD1718" width="0.357" height="3.341"/>
<rect x="122.582" y="137.399" transform="matrix(0.8878 0.4603 -0.4603 0.8878 85.1021 -39.1169)" fill="#BD1718" width="0.356" height="35.087"/>
<rect x="112.468" y="172.757" transform="matrix(0.8869 0.462 -0.462 0.8869 93.3279 -32.311)" fill="#BD1718" width="0.355" height="3.339"/>
<rect x="102.585" y="175.91" transform="matrix(0.8889 0.4582 -0.4582 0.8889 100.0519 -25.5834)" fill="#BD1718" width="0.356" height="35.09"/>
<rect x="172.474" y="57.194" transform="matrix(0.8883 0.4593 -0.4593 0.8883 46.3208 -72.7187)" fill="#BD1718" width="0.355" height="3.34"/>
<rect x="162.591" y="60.347" transform="matrix(0.8889 0.4582 -0.4582 0.8889 53.7749 -65.917)" fill="#BD1718" width="0.356" height="35.091"/>
<rect x="152.475" y="95.706" transform="matrix(0.8889 0.4582 -0.4582 0.8889 61.5773 -59.1175)" fill="#BD1718" width="0.356" height="3.341"/>
<rect x="142.594" y="98.863" transform="matrix(0.8877 0.4604 -0.4604 0.8877 69.6247 -52.6604)" fill="#BD1718" width="0.354" height="35.088"/>
<rect x="202.916" y="-17.314" transform="matrix(0.8877 0.4604 -0.4604 0.8877 22.9112 -93.4777)" fill="#BD1718" width="0.354" height="35.09"/>
<rect x="192.801" y="18.044" transform="matrix(0.8878 0.4603 -0.4603 0.8878 30.7359 -86.6187)" fill="#BD1718" width="0.356" height="3.34"/>
<rect x="182.918" y="21.199" transform="matrix(0.8872 0.4614 -0.4614 0.8872 38.5361 -80.1162)" fill="#BD1718" width="0.356" height="35.089"/>
<path fill="#BD1718" d="M194.915,74.003l-6.614-3.434l3.055-5.884l6.614,3.435L194.915,74.003z M188.985,70.353l5.713,2.966
	l2.587-4.982l-5.712-2.965L188.985,70.353z"/>
<rect x="186.874" y="66.375" transform="matrix(0.8875 0.4609 -0.4609 0.8875 52.598 -82.1605)" fill="#BD1718" width="15.344" height="0.508"/>
<polygon fill="#BD1718" points="187.668,63.337 187.807,62.848 191.979,64.038 198.142,67.237 197.908,67.688 191.768,64.5 "/>
<rect x="195.962" y="67.885" transform="matrix(0.8862 0.4633 -0.4633 0.8862 55.1902 -82.8265)" fill="#BD1718" width="0.509" height="6.12"/>
<path fill="#BD1718" d="M188.752,70.805l-4.179-2.171l3.034-5.842l4.324,1.226l-0.139,0.489l-1.72-0.488l1.734,0.901L188.752,70.805
	z M185.259,68.417l3.276,1.701l2.586-4.98l-3.276-1.703L185.259,68.417z"/>
<rect x="195.021" y="57.353" transform="matrix(0.8874 0.461 -0.461 0.8874 52.1527 -82.5899)" fill="#BD1718" width="0.254" height="16.23"/>
<rect x="185.735" y="76.263" transform="matrix(0.8882 0.4594 -0.4594 0.8882 59.07 -76.0721)" fill="#BD1718" width="0.255" height="14.177"/>
<rect x="190.193" y="73.578" transform="matrix(0.8874 0.461 -0.461 0.8874 55.8964 -79.317)" fill="#BD1718" width="0.254" height="2.381"/>
<rect x="176.896" y="93.286" transform="matrix(0.8882 0.4595 -0.4595 0.8882 65.9124 -70.1151)" fill="#BD1718" width="0.254" height="14.177"/>
<rect x="181.353" y="90.6" transform="matrix(0.8882 0.4595 -0.4595 0.8882 62.4666 -73.1228)" fill="#BD1718" width="0.254" height="2.38"/>
<polygon fill="#BD1718" points="139.554,185.126 130.686,180.52 130.92,180.069 139.337,184.439 164.999,135.018 165.451,135.251 
	"/>
<rect x="151.953" y="131.988" transform="matrix(0.8869 0.462 -0.462 0.8869 91.1324 -52.284)" fill="#BD1718" width="0.763" height="55.942"/>
<path fill="#BD1718" d="M132.909,187.879c-0.057-0.028-0.113-0.06-0.17-0.091l-1.725-0.896l0.351-0.677l1.734,0.901
	c1.123,0.623,2.184,0.771,3.146,0.438c1.879-0.652,2.838-2.897,2.848-2.921l0.704,0.296c-0.045,0.104-1.105,2.583-3.302,3.344
	C135.371,188.665,134.165,188.532,132.909,187.879"/>
<path fill="#BD1718" d="M175.643,214.64l-47.224-24.521l2.562-3.708l0.418,0.289l-2.234,3.233l46.26,24.022l8.538-16.443
	c-1.462-1.194-0.818-2.944-0.68-3.271v-0.01l5.796-11.161c0.43-0.829,0.105-1.854-0.725-2.285l-7.199-3.739
	c-0.83-0.431-1.855-0.106-2.286,0.723l-0.452-0.232c0.56-1.079,1.894-1.502,2.972-0.941l7.2,3.738
	c1.079,0.56,1.501,1.893,0.941,2.972l-5.77,11.111c-0.085,0.191-0.748,1.812,0.673,2.816l0.182,0.128L175.643,214.64z"/>
<rect x="169.875" y="191.325" transform="matrix(0.8875 0.4609 -0.4609 0.8875 108.339 -60.5156)" fill="#BD1718" width="16.415" height="0.508"/>
<path fill="#BD1718" d="M161.154,196.342l-9.885-5.133c-3.505-1.819-4.875-6.151-3.055-9.656l0.451,0.234
	c-1.691,3.257-0.417,7.28,2.838,8.971l9.885,5.133c3.256,1.689,7.28,0.418,8.97-2.839l8.059-15.519l0.452,0.234l-8.059,15.519
	C168.99,196.79,164.658,198.162,161.154,196.342"/>
<path fill="#BD1718" d="M125.534,301.769l-7.2-3.738c-1.079-0.56-1.501-1.894-0.941-2.972l0.452,0.234
	c-0.431,0.831-0.107,1.856,0.724,2.286l7.199,3.739c0.83,0.431,1.856,0.106,2.287-0.723l5.801-11.165
	c0.186-0.3,1.246-1.838,3.068-1.329l8.537-16.44l-51.458-26.72l0.234-0.451l51.911,26.953l-8.974,17.279l-0.209-0.074
	c-1.639-0.583-2.582,0.889-2.69,1.068l-5.77,11.112C127.946,301.907,126.613,302.329,125.534,301.769"/>
<path fill="#BD1718" d="M8.389,240.942l-7.201-3.738c-1.078-0.561-1.5-1.894-0.94-2.972l5.769-11.111
	c0.086-0.192,0.748-1.811-0.673-2.817l-0.181-0.128l8.972-17.279l51.91,26.955l-0.234,0.449l-51.459-26.72l-8.537,16.443
	c1.462,1.195,0.818,2.946,0.68,3.271v0.009l-5.796,11.161c-0.43,0.83-0.106,1.856,0.724,2.287l7.2,3.738
	c0.83,0.431,1.856,0.106,2.286-0.723l0.451,0.233C10.8,241.08,9.467,241.502,8.389,240.942"/>
<rect x="120.482" y="286.527" transform="matrix(0.8875 0.4608 -0.4608 0.8875 146.586 -27.0471)" opacity="0.12" fill="#BD1718" width="16.414" height="0.357"/>
<path fill="#BD1718" d="M117.845,295.293l-0.451-0.234l8.057-15.518c1.691-3.256,0.418-7.28-2.839-8.97l-16.458-8.547
	c-0.171-0.105-3.85-2.321-6.913,0.521c-0.305,0.283-0.609,0.568-0.911,0.853c-1.988,1.87-4.043,3.806-6.64,5.002
	c-2.898,1.339-5.993,2.042-8.953,2.036c-3.453-0.007-6.462-1.277-9.758-2.812c-2.271-1.059-4.558-2.209-6.803-3.421l0.242-0.448
	c2.233,1.208,4.514,2.354,6.775,3.408c3.241,1.509,6.195,2.758,9.545,2.764c2.885,0.006,5.907-0.681,8.74-1.989
	c2.52-1.162,4.455-2.982,6.504-4.91c0.304-0.285,0.607-0.571,0.914-0.856c3.351-3.107,7.467-0.613,7.508-0.589l16.443,8.537
	c3.505,1.819,4.875,6.151,3.056,9.655L117.845,295.293z"/>
<path fill="#BD1718" d="M148.508,182.09l-0.442-0.248l15.979-28.441c0.796-1.535,2.702-2.138,4.244-1.338l6.924,3.597l-0.234,0.45
	l-6.924-3.595c-1.293-0.671-2.891-0.165-3.563,1.128L148.508,182.09z"/>
<rect x="160.416" y="210.667" transform="matrix(0.8878 0.4603 -0.4603 0.8878 129.8381 -46.6898)" fill="#BD1718" width="0.507" height="64.515"/>
<path fill="#BD1718" d="M84.821,247.486c-3.417-1.773-7.606-4.005-7.87-4.147l0.358-0.671c0.099,0.052,9.825,5.231,11.864,6.159
	c1.747,0.793,3.079-1.341,3.092-1.362l2.901-5.589l-0.768-4.187l0.077-0.124l18.218-29.43l1.854-1.17l5.573-8.944
	c0.903-4.037,3.004-5.853,4.613-6.668c1.409-0.711,2.675-0.798,3.163-0.802c0.538-0.704,2.838-3.777,4.431-6.851
	c-0.173-0.91-3.445-4.13-11.853-9.313l0.401-0.649c2.044,1.262,12.245,7.673,12.222,10.045l-0.001,0.092l-0.041,0.078
	c-1.839,3.581-4.646,7.183-4.674,7.218l-0.124,0.159l-0.201-0.014c-0.228-0.013-5.632-0.258-7.205,6.934l-0.013,0.063l-0.036,0.056
	l-5.701,9.147l-1.852,1.17l-18.048,29.155l0.762,4.151l-3.035,5.847c-0.593,0.97-2.187,2.537-4.071,1.682
	C88.154,249.201,86.591,248.404,84.821,247.486"/>
<rect x="110.743" y="186.352" transform="matrix(0.8416 0.5401 -0.5401 0.8416 134.0884 -25.858)" fill="#BD1718" width="0.763" height="58.603"/>
<rect x="112.657" y="185.755" transform="matrix(0.8465 0.5323 -0.5323 0.8465 133.4423 -26.6315)" fill="#BD1718" width="0.508" height="64.741"/>
<path fill="#BD1718" d="M84.1,239.798l-8.358-4.34c-1.235-0.642-1.719-2.168-1.076-3.404l8.631-16.625
	c0.642-1.235,2.17-1.719,3.405-1.077l8.357,4.339c1.236,0.642,1.719,2.169,1.077,3.405l-8.631,16.624
	C86.863,239.956,85.334,240.439,84.1,239.798 M86.468,214.803c-0.987-0.512-2.207-0.127-2.719,0.862l-8.632,16.624
	c-0.513,0.985-0.127,2.205,0.86,2.719l8.357,4.339c0.987,0.512,2.207,0.126,2.72-0.86l8.631-16.624
	c0.513-0.987,0.127-2.208-0.86-2.72L86.468,214.803z"/>
<path fill="#BD1718" d="M83.243,231.342c-3.515-1.824-5.385-5.212-4.17-7.554c1.215-2.339,5.063-2.758,8.577-0.934
	c3.514,1.825,5.385,5.213,4.171,7.554C90.604,232.747,86.758,233.167,83.243,231.342 M87.416,223.307
	c-3.266-1.695-6.806-1.374-7.892,0.716c-1.086,2.092,0.687,5.172,3.953,6.869c3.266,1.695,6.806,1.373,7.892-0.718
	C92.455,228.081,90.682,225.002,87.416,223.307"/>
<rect x="85.147" y="215.436" transform="matrix(0.8882 0.4595 -0.4595 0.8882 113.8836 -13.8504)" fill="#BD1718" width="0.508" height="23.275"/>
<rect x="86.897" y="216.346" transform="matrix(0.8882 0.4595 -0.4595 0.8882 114.497 -14.5531)" fill="#BD1718" width="0.508" height="23.275"/>
<rect x="88.647" y="217.256" transform="matrix(0.8874 0.461 -0.461 0.8874 115.5269 -15.2104)" fill="#BD1718" width="0.508" height="23.272"/>
<rect x="85.147" y="215.436" transform="matrix(0.8882 0.4595 -0.4595 0.8882 113.8836 -13.8504)" fill="#BD1718" width="0.508" height="23.275"/>
<rect x="81.646" y="213.62" transform="matrix(0.888 0.4599 -0.4599 0.888 112.7624 -12.4314)" fill="#BD1718" width="0.508" height="23.274"/>
<rect x="83.396" y="214.529" transform="matrix(0.8884 0.4591 -0.4591 0.8884 113.165 -13.1608)" fill="#BD1718" width="0.508" height="23.274"/>
<path fill="#BD1718" d="M78.643,262.863l-18.628-9.672c-5.584-2.899-7.768-9.8-4.869-15.384l2.519-4.852l0.451,0.235l-2.519,4.85
	c-2.77,5.335-0.683,11.929,4.652,14.699l18.628,9.672c5.335,2.771,11.928,0.685,14.698-4.651l2.444-4.704l-3.835-4.838l0.398-0.315
	l4.04,5.096l-2.595,4.996C91.128,263.58,84.226,265.765,78.643,262.863"/>
<path fill="#BD1718" d="M78.643,262.863l-18.628-9.672c-5.584-2.899-7.768-9.8-4.869-15.384l2.595-4.998l6.491,0.374l-0.029,0.507
	l-6.163-0.354l-2.443,4.704c-2.77,5.335-0.683,11.929,4.652,14.699l18.628,9.672c5.335,2.771,11.928,0.685,14.698-4.651l2.52-4.852
	l0.451,0.235l-2.519,4.851C91.128,263.58,84.226,265.765,78.643,262.863"/>
<path fill="#BD1718" d="M63.525,246.431c-5.546-3.302-7.301-7.312-5.882-13.414l0.496,0.114c-1.379,5.928,0.253,9.652,5.633,12.856
	l18.615,9.665c5.828,2.607,9.94,1.776,13.738-2.788l0.39,0.325c-3.969,4.771-8.261,5.644-14.348,2.92L63.525,246.431z"/>
<path fill="#BD1718" d="M64.927,243.731c-4.692-2.793-6.637-6.066-6.319-10.618l0.507,0.034c-0.303,4.338,1.566,7.465,6.059,10.14
	l18.616,9.665c4.894,2.19,8.541,1.939,11.81-0.821l0.328,0.388c-3.438,2.903-7.25,3.179-12.359,0.891L64.927,243.731z"/>
<path fill="#BD1718" d="M63.512,246.424c-5.533-3.296-7.288-7.305-5.869-13.408l0.495,0.114c-1.378,5.929,0.254,9.652,5.634,12.857
	L63.512,246.424z"/>
<rect x="74.236" y="254.986" transform="matrix(-0.4558 0.8901 -0.8901 -0.4558 347.3587 298.0959)" fill="#BD1718" width="16.623" height="0.508"/>
<polygon fill="#BD1718" points="176.557,87.509 173.532,85.939 173.768,85.49 176.34,86.826 178.039,83.553 171.859,80.345 
	173.183,77.792 173.634,78.028 172.544,80.126 178.724,83.336 "/>
<path fill="#BD1718" d="M180.93,127.037l-0.101-0.061c-0.671-0.399-1.684-1.004-1.662-3.546c0.264-9.687-9.014-14.173-9.106-14.22
	c-4.175-2.167-5.806-7.317-3.642-11.483l6.566-12.644l3.354,1.742l3.696-7.117l0.451,0.235l-3.695,7.116l1.808,0.94l-0.233,0.45
	l-5.165-2.682l-6.331,12.194c-2.033,3.918-0.502,8.759,3.416,10.795c0.085,0.041,9.662,4.672,9.389,14.683
	c-0.021,2.245,0.776,2.72,1.415,3.102l0.104,0.061L180.93,127.037z"/>
<path fill="#BD1718" d="M197.881,67.674l-6.107-3.171l3.428-6.603l6.107,3.171L197.881,67.674z M192.458,64.286l5.205,2.702
	l2.96-5.7l-5.206-2.702L192.458,64.286z"/>
<path fill="#BD1718" d="M198.766,68.392l-0.881-0.715l-6.118-3.177l-1.092-0.309l3.454-6.651l1.475-0.77l6.397,3.322l0.219,1.649
	L198.766,68.392z M191.956,64.025l6.229,3.241l0.418,0.339l3.092-5.956l-0.162-1.228l-5.929-3.078l-1.098,0.574l-3.092,5.955
	L191.956,64.025z"/>
<rect x="193.834" y="59.457" transform="matrix(0.8875 0.4608 -0.4608 0.8875 49.808 -84.588)" fill="#BD1718" width="8.608" height="0.51"/>
<path fill="#BD1718" d="M189.911,83.643l-6.615-3.435l5.239-10.09l6.614,3.435L189.911,83.643z M183.981,79.991l5.712,2.966
	l4.771-9.187l-5.712-2.965L183.981,79.991z"/>
<path fill="#BD1718" d="M187.87,86.365l-5.627-2.921l1.781-3.431l5.626,2.921L187.87,86.365z M182.929,83.227l4.724,2.452
	l1.313-2.528l-4.725-2.453L182.929,83.227z"/>
<path fill="#BD1718" d="M185.197,94.523l-8.091-4.2l4.138-7.971l8.093,4.202L185.197,94.523z M177.791,90.105l7.19,3.734
	l3.669-7.069l-7.188-3.732L177.791,90.105z"/>
<path fill="#BD1718" d="M176.496,101.391c-1.824-0.947-2.537-3.201-1.591-5.025c0.948-1.823,3.202-2.536,5.025-1.59
	c1.823,0.948,2.536,3.201,1.59,5.025C180.574,101.624,178.319,102.337,176.496,101.391 M179.696,95.228
	c-1.575-0.819-3.521-0.201-4.339,1.373c-0.817,1.575-0.201,3.521,1.373,4.338c1.575,0.818,3.521,0.202,4.339-1.373
	C181.886,97.992,181.271,96.046,179.696,95.228"/>
<path fill="#BD1718" d="M176.712,115.064c-1.097-1.385-1.358-3.379-0.7-5.334c0.586-1.736,1.789-3.069,3.067-3.396
	c0.056-0.014,0.17-0.041,0.317-0.076c0.465-0.111,1.331-0.319,1.611-0.419c1.956-0.704,3.563-2.11,4.521-3.957
	c1.34-2.58,1.212-5.717-0.334-8.183l0.43-0.27c1.643,2.619,1.777,5.947,0.355,8.687c-1.019,1.961-2.724,3.453-4.801,4.202
	c-0.307,0.111-1.157,0.313-1.665,0.434c-0.144,0.035-0.255,0.061-0.31,0.075c-1.115,0.285-2.179,1.489-2.712,3.065
	c-0.603,1.793-0.372,3.606,0.617,4.856L176.712,115.064z"/>
<path fill="#BD1718" d="M175.709,102.906c-1.35-0.699-2.364-1.937-2.783-3.394c-0.393-1.361-0.225-2.762,0.471-3.944
	c2.263-3.848,7.642-3.604,7.87-3.591l0.114,0.005l0.069,0.088c0.037,0.047,0.918,1.151,1.563,2.75
	c0.861,2.14,0.871,4.134,0.022,5.768C181.655,103.249,178.367,104.287,175.709,102.906 M181.124,92.481
	c-0.783-0.014-5.358,0.061-7.288,3.345c-0.625,1.06-0.774,2.319-0.423,3.545c0.383,1.323,1.304,2.448,2.529,3.085
	c2.411,1.252,5.392,0.309,6.644-2.102C184.321,97.01,181.604,93.122,181.124,92.481"/>
<path fill="#BD1718" d="M175.056,104.164l0.235-0.452c3.103,1.612,6.938,0.397,8.552-2.705c0.979-1.89,0.948-4.132-0.084-5.998
	l-0.067-0.119l0.57-1.098l0.451,0.235l-0.445,0.856c1.052,1.992,1.064,4.358,0.025,6.357
	C182.553,104.593,178.408,105.904,175.056,104.164"/>
<path fill="#BD1718" d="M175.099,104.187c-3.352-1.74-4.663-5.885-2.923-9.238c1.039-1.999,2.981-3.351,5.215-3.636l0.445-0.857
	l0.451,0.234l-0.57,1.098l-0.135,0.013c-2.122,0.229-3.974,1.494-4.954,3.383c-1.612,3.104-0.397,6.94,2.706,8.551L175.099,104.187z
	"/>
<path fill="#BD1718" d="M177.601,101.761l-2.003-6.331l0.121-0.111c0.8-0.721,1.874-1.061,2.945-0.931l0.162,0.02l2.003,6.331
	l-0.122,0.109c-0.801,0.723-1.872,1.061-2.944,0.932L177.601,101.761z M176.182,95.592l1.803,5.699
	c0.817,0.057,1.625-0.198,2.26-0.716l-1.804-5.699C177.624,94.819,176.816,95.076,176.182,95.592"/>
<polygon fill="#BD1718" points="177.039,107.455 170.186,103.896 171.881,100.632 172.331,100.866 170.87,103.679 176.822,106.771 
	177.968,104.564 178.418,104.798 "/>
<rect x="169.728" y="103.791" transform="matrix(0.8878 0.4602 -0.4602 0.8878 67.8822 -66.332)" fill="#BD1718" width="0.508" height="4.527"/>
<rect x="168.791" y="93.919" transform="matrix(0.8875 0.4609 -0.4609 0.8875 62.6138 -68.0679)" fill="#BD1718" width="3.782" height="0.508"/>
<rect x="165.661" y="100.633" transform="matrix(0.8875 0.4609 -0.4609 0.8875 65.4722 -66.3739)" fill="#BD1718" width="5.992" height="0.508"/>
<path fill="#BD1718" d="M159.92,104.423l-4.004-2.078l9.399-18.105l4.007,2.081L159.92,104.423z M156.91,102l2.719,1.412
	l8.698-16.749l-2.72-1.413L156.91,102z"/>
<rect x="169.74" y="75.053" transform="matrix(0.3041 0.9526 -0.9526 0.3041 191.7482 -112.0281)" fill="#BD1718" width="5.626" height="0.356"/>
<rect x="166.375" y="76.255" transform="matrix(0.8878 0.4602 -0.4602 0.8878 60.5626 -66.4813)" fill="#BD1718" width="0.508" height="29.426"/>
<path fill="#BD1718" d="M182.403,81.225l-4.289-2.228l4.668-8.991l-7.69-3.993l0.234-0.451l8.089,4.2l0.941-1.813l3.892,2.021
	L182.403,81.225z M178.801,78.779l3.386,1.759l4.434-8.54l-3.387-1.758L178.801,78.779z M183.865,69.996l2.99,1.552l0.706-1.362
	l-2.989-1.552L183.865,69.996z"/>
<polygon fill="#BD1718" points="170.971,88.982 169.641,84.781 170.11,83.876 170.427,84.04 170.024,84.815 171.31,88.875 "/>
<rect x="170.09" y="84.439" transform="matrix(0.8874 0.461 -0.461 0.8874 58.3793 -69.6124)" fill="#BD1718" width="3.183" height="0.507"/>
<rect x="177.635" y="70.593" transform="matrix(0.3018 0.9534 -0.9534 0.3018 193.4761 -122.6377)" fill="#BD1718" width="5.66" height="0.355"/>
<rect x="178.82" y="78.466" transform="matrix(0.8875 0.4607 -0.4607 0.8875 56.6186 -74.5286)" fill="#BD1718" width="4.324" height="0.508"/>
<rect x="194.57" y="74.375" transform="matrix(0.8876 0.4606 -0.4606 0.8876 56.4866 -82.206)" fill="#BD1718" width="4.201" height="0.509"/>
<path fill="#BD1718" d="M198.078,77.948l-4.556-2.366l1.176-2.263l4.554,2.364L198.078,77.948z M194.208,75.365l3.652,1.897
	l0.707-1.361l-3.652-1.898L194.208,75.365z"/>
<path fill="#BD1718" d="M193.13,83.51l-2.933-1.522l3.561-6.857l2.932,1.523L193.13,83.51z M190.883,81.771l2.029,1.054l3.092-5.954
	l-2.029-1.054L190.883,81.771z"/>
<polygon fill="#BD1718" points="192.274,84.87 189.686,83.525 189.919,83.074 192.292,84.306 193.977,83.563 197.186,77.384 
	197.636,77.618 194.345,83.956 "/>
<rect x="192.948" y="83.21" transform="matrix(0.887 0.4617 -0.4617 0.887 60.4126 -79.9597)" fill="#BD1718" width="1.285" height="0.508"/>
<path fill="#BD1718" d="M251.906,40.542l-0.124-0.065l-0.189-2.12l3.58-6.895l1.844-1.063l0.123,0.064
	c3.042,1.58,4.343,5.126,2.899,7.904C258.597,41.146,254.948,42.121,251.906,40.542 M252.112,38.459l0.152,1.693
	c2.767,1.362,6.03,0.472,7.324-2.021s0.145-5.673-2.562-7.152l-1.472,0.849L252.112,38.459z"/>
<polygon fill="#BD1718" points="198.643,75.939 194.463,73.77 197.402,68.112 197.853,68.346 195.148,73.553 198.426,75.255 
	201.034,70.23 197.865,67.66 198.185,67.266 201.676,70.098 "/>
<polygon fill="#BD1718" points="173.381,78.164 173.437,77.658 177.54,78.125 182.413,80.657 182.179,81.106 177.348,78.599 "/>
<rect x="166.376" y="130.821" transform="matrix(0.3018 0.9534 -0.9534 0.3018 244.5868 -71.9758)" fill="#BD1718" width="10.115" height="0.357"/>
<rect x="156.751" y="107.102" transform="matrix(0.3017 0.9534 -0.9534 0.3017 216.7531 -81.3749)" fill="#BD1718" width="14.353" height="0.355"/>
<rect x="178.615" y="135.831" transform="matrix(0.3017 0.9534 -0.9534 0.3017 259.9494 -82.8949)" fill="#BD1718" width="15.896" height="0.356"/>
<polygon fill="#BD1718" points="140.347,183.362 140.239,183.024 149.056,180.234 158.111,164.234 148.293,167.341 156.984,150.602 
	178.566,143.771 178.675,144.111 157.232,150.896 149.005,166.742 158.868,163.621 149.297,180.531 "/>
<rect x="147.788" y="187.827" transform="matrix(0.2997 0.954 -0.954 0.2997 289.2728 -4.8879)" fill="#BD1718" width="0.355" height="13.533"/>
<rect x="170.083" y="186.711" transform="matrix(0.3022 0.9532 -0.9532 0.3022 309.9753 -22.3603)" fill="#BD1718" width="0.355" height="27.657"/>
<rect x="174.9" y="210.632" transform="matrix(0.3047 0.9525 -0.9525 0.3047 324.1706 -18.9704)" fill="#BD1718" width="0.356" height="3.816"/>
<rect x="181.625" y="175.585" transform="matrix(0.3047 0.9525 -0.9525 0.3047 300.8162 -45.8389)" fill="#BD1718" width="0.356" height="15.049"/>
<rect x="181.19" y="152.387" transform="matrix(0.3024 0.9532 -0.9532 0.3024 275.3049 -63.9128)" fill="#BD1718" width="0.255" height="7.488"/>
<rect x="98.337" y="246.225" transform="matrix(0.3009 0.9536 -0.9536 0.3009 307.3243 80.851)" fill="#BD1718" width="0.355" height="7.644"/>
<rect x="111.587" y="252.661" transform="matrix(0.3034 0.9529 -0.9529 0.3034 324.9781 74.162)" fill="#BD1718" width="0.356" height="13.386"/>
<rect x="88.056" y="257.191" transform="matrix(0.3026 0.9531 -0.9531 0.3026 315.8203 101.9594)" fill="#BD1718" width="0.357" height="19.219"/>
<rect x="128.364" y="261.364" transform="matrix(0.3034 0.9529 -0.9529 0.3034 344.9382 64.2253)" fill="#BD1718" width="0.356" height="13.347"/>
<rect x="132.739" y="271.03" transform="matrix(0.3022 0.9532 -0.9532 0.3022 360.5923 69.3676)" fill="#BD1718" width="0.355" height="19.893"/>
<rect x="125.146" y="289.657" transform="matrix(0.3047 0.9525 -0.9525 0.3047 369.2376 86.574)" opacity="0.12" fill="#BD1718" width="0.356" height="13.043"/>
<rect x="120.372" y="183.021" transform="matrix(0.3018 0.9534 -0.9534 0.3018 263.3354 6.8393)" fill="#BD1718" width="13.253" height="0.355"/>
<polygon fill="#BD1718" points="113.393,188.345 107.185,185.122 107.418,184.67 113.416,187.784 114.763,187.223 121.401,174.44 
	121.852,174.674 115.13,187.622 "/>
<rect x="114.079" y="186.357" transform="matrix(0.3017 0.9534 -0.9534 0.3017 262.2339 15.0359)" fill="#BD1718" width="13.546" height="0.355"/>
<rect x="109.573" y="194.035" transform="matrix(0.3017 0.9534 -0.9534 0.3017 266.4674 24.5931)" fill="#BD1718" width="13.743" height="0.356"/>
<rect x="98.786" y="196.749" transform="matrix(0.3089 0.9511 -0.9511 0.3089 263.5171 31.2039)" fill="#BD1718" width="23.002" height="0.355"/>
<rect x="95.277" y="204.016" transform="matrix(0.3198 0.9475 -0.9475 0.3198 265.5167 38.5222)" fill="#BD1718" width="21.302" height="0.356"/>
<rect x="96.643" y="215.306" transform="matrix(0.3017 0.9534 -0.9534 0.3017 277.2627 52.4295)" fill="#BD1718" width="12.397" height="0.356"/>
<rect x="89.135" y="220.634" transform="matrix(0.3017 0.9534 -0.9534 0.3017 278.7397 61.0499)" fill="#BD1718" width="17.116" height="0.356"/>
<rect x="89.756" y="231.803" transform="matrix(0.3017 0.9534 -0.9534 0.3017 287.0309 72.0718)" fill="#BD1718" width="9.118" height="0.355"/>
<polygon fill="#BD1718" points="92.554,248.118 88.509,235.963 88.847,235.852 92.625,247.207 95.407,241.853 95.723,242.018 "/>
<rect x="79.403" y="242.77" transform="matrix(0.3018 0.9534 -0.9534 0.3018 290.11 89.7724)" fill="#BD1718" width="8.726" height="0.356"/>
<path fill="#BD1718" d="M122.303,171.413l-12.656-6.572l2.496-4.809l2.213-0.688l9.733,5.056l0.711,2.204L122.303,171.413z
	 M110.332,164.623l11.753,6.104l2.165-4.169l-0.581-1.805l-9.362-4.861l-1.811,0.563L110.332,164.623z"/>
<path fill="#BD1718" d="M123.987,164.919l-9.998-5.192l46.224-89.023l9.999,5.192L123.987,164.919z M114.674,159.51l9.097,4.724
	l45.756-88.122l-9.097-4.723L114.674,159.51z"/>
<path fill="#BD1718" d="M113.514,188.339l-12.656-6.572l9.023-17.378l12.656,6.573L113.514,188.339z M101.543,181.55l11.753,6.103
	l8.554-16.475l-11.753-6.104L101.543,181.55z"/>
<path fill="#BD1718" d="M113.514,188.339l-12.656-6.572l2.975-5.731l12.657,6.572L113.514,188.339z M101.543,181.55l11.753,6.103
	l2.506-4.827l-11.752-6.103L101.543,181.55z"/>
<path fill="#BD1718" d="M98.577,214.669l-10.664-5.536l5.241-10.094l10.663,5.538L98.577,214.669z M88.598,208.916l9.762,5.069
	l4.772-9.191l-9.762-5.069L88.598,208.916z"/>
<path fill="#BD1718" d="M135.669,118.523l-20.865-10.834l5.58-10.749c2.605-5.016,7.804-3.135,7.856-3.116l0.042,0.019l15.912,8.262
	l-0.353,0.677l-15.89-8.252c-0.376-0.134-4.656-1.544-6.891,2.761l-5.229,10.073l20.188,10.482L135.669,118.523z"/>
<path fill="#BD1718" d="M137.188,109.065c-0.646-0.334-1.356-0.741-2.082-1.22c-3.311-2.19-5.314-4.884-5.794-7.792
	c-0.248-1.503-0.102-3.088,0.435-4.712l0.482,0.16c-0.51,1.545-0.651,3.048-0.416,4.469c1.109,6.704,10.244,9.808,10.336,9.839
	l-0.159,0.484C139.92,110.268,138.747,109.876,137.188,109.065"/>
<path fill="#BD1718" d="M125.319,113.192c-3.106-1.612-6.449-3.827-7.172-8.666c-0.134-0.9-0.148-1.75-0.042-2.6
	c0.016-0.131,0.034-0.261,0.056-0.393l0.502,0.081c-0.021,0.125-0.039,0.251-0.054,0.374c-0.099,0.805-0.087,1.61,0.041,2.462
	c0.785,5.258,4.889,7.297,8.183,8.938c0.756,0.375,1.47,0.731,2.106,1.102l-0.257,0.44c-0.62-0.364-1.328-0.715-2.076-1.088
	C126.187,113.634,125.755,113.419,125.319,113.192"/>
<path fill="#BD1718" d="M118.395,102.151l-0.433-0.267c3.947-6.409,11.645-2.138,11.725-2.094l-0.25,0.442
	c-0.021-0.011-1.875-1.052-4.162-1.321C122.253,98.554,119.938,99.644,118.395,102.151"/>
<rect x="133.627" y="107.593" transform="matrix(0.8356 0.5494 -0.5494 0.8356 83.6468 -55.1039)" fill="#BD1718" width="0.508" height="9.195"/>
<path fill="#BD1718" d="M135.288,119.808l-29.413-15.271l0.827-1.592l29.412,15.272L135.288,119.808z M106.562,104.32l28.51,14.802
	l0.358-0.688l-28.51-14.804L106.562,104.32z"/>
<polygon fill="#BD1718" points="112.83,160.273 112.379,160.039 133.932,118.531 135.522,119.357 114.557,159.736 114.105,159.501 
	134.837,119.574 134.147,119.216 "/>
<polygon fill="#BD1718" points="107.743,167.279 107.292,167.046 132.791,117.938 134.383,118.764 113.417,159.144 112.965,158.909 
	133.697,118.981 133.008,118.624 "/>
<path fill="#BD1718" d="M115.37,107.977l-8.885-4.614l0.96-1.849l8.885,4.614L115.37,107.977z M107.171,103.146l7.982,4.145
	l0.492-0.947l-7.983-4.145L107.171,103.146z"/>
<rect x="111.546" y="163.159" transform="matrix(0.8875 0.4608 -0.4608 0.8875 88.6216 -36.1853)" fill="#BD1718" width="13.752" height="0.508"/>
<rect x="109.43" y="112.55" transform="matrix(0.8866 0.4625 -0.4625 0.8866 76.9918 -34.9035)" fill="#BD1718" width="0.509" height="54.058"/>
<rect x="101.539" y="105.676" transform="matrix(0.8874 0.461 -0.461 0.8874 73.0711 -31.8776)" fill="#BD1718" width="0.508" height="55.942"/>
<rect x="88.356" y="160.46" transform="matrix(0.8875 0.4608 -0.4608 0.8875 84.5529 -24.8785)" fill="#BD1718" width="9.737" height="0.509"/>
<rect x="118.605" y="115.732" transform="matrix(0.8875 0.4608 -0.4608 0.8875 67.611 -44.9614)" fill="#BD1718" width="14.563" height="0.509"/>
<polygon fill="#BD1718" points="90.724,165.474 90.273,165.24 117.395,113.006 121.044,111.919 121.19,112.408 117.747,113.431 "/>
<rect x="116.675" y="116.635" transform="matrix(0.8875 0.4608 -0.4608 0.8875 67.8895 -44.2876)" fill="#BD1718" width="15.937" height="0.509"/>
<path fill="#BD1718" d="M92.755,120.351l-6.582-3.418l3.098-5.968l6.583,3.419L92.755,120.351z M86.858,116.716l5.681,2.95
	l2.629-5.066l-5.68-2.949L86.858,116.716z"/>
<rect x="81.948" y="118.161" transform="matrix(0.8875 0.4608 -0.4608 0.8875 64.6414 -27.9572)" fill="#BD1718" width="15.266" height="0.509"/>
<polygon fill="#BD1718" points="91.952,121.431 85.723,118.182 82.627,115.078 82.987,114.719 86.055,117.795 92.117,120.943 
	96.398,121.683 96.312,122.184 "/>
<path fill="#BD1718" d="M96.463,122.276l-4.159-2.16l3.098-5.968l4.159,2.161L96.463,122.276z M92.99,119.899l3.257,1.691
	l2.63-5.065l-3.257-1.691L92.99,119.899z"/>
<path fill="#BD1718" d="M91.918,121.413l-6.195-3.23l-3.227-3.236l3.067-5.907l4.159,2.161l-3.098,5.967l-2.479-1.288l1.911,1.916
	l6.096,3.165L91.918,121.413z M83.15,114.791l3.257,1.691l2.63-5.065l-3.257-1.691L83.15,114.791z"/>
<path fill="#BD1718" d="M92.755,120.351l-6.582-3.418l3.098-5.968l6.583,3.419L92.755,120.351z M86.858,116.716l5.681,2.95
	l2.629-5.066l-5.68-2.949L86.858,116.716z"/>
<rect x="81.948" y="118.161" transform="matrix(0.8875 0.4608 -0.4608 0.8875 64.6414 -27.9572)" fill="#BD1718" width="15.266" height="0.509"/>
<polygon fill="#BD1718" points="91.952,121.431 85.723,118.182 82.627,115.078 82.987,114.719 86.055,117.795 92.117,120.943 
	96.398,121.683 96.312,122.184 "/>
<path fill="#BD1718" d="M96.463,122.276l-4.159-2.16l3.098-5.968l4.159,2.161L96.463,122.276z M92.99,119.899l3.257,1.691
	l2.63-5.065l-3.257-1.691L92.99,119.899z"/>
<path fill="#BD1718" d="M91.918,121.413l-6.195-3.23l-3.227-3.236l3.067-5.907l4.159,2.161l-3.098,5.967l-2.479-1.288l1.911,1.916
	l6.096,3.165L91.918,121.413z M83.15,114.791l3.257,1.691l2.63-5.065l-3.257-1.691L83.15,114.791z"/>
<path fill="#BD1718" d="M108.773,89.501l-6.582-3.418l3.098-5.967l6.583,3.418L108.773,89.501z M102.876,85.866l5.681,2.95
	l2.629-5.066l-5.68-2.949L102.876,85.866z"/>
<rect x="100.831" y="81.796" transform="matrix(0.8875 0.4608 -0.4608 0.8875 50.0107 -40.7495)" fill="#BD1718" width="15.265" height="0.509"/>
<polygon fill="#BD1718" points="115.077,85.765 111.792,83.079 105.708,79.919 101.621,78.779 101.758,78.289 105.918,79.456 
	112.094,82.668 115.397,85.372 "/>
<polygon fill="#BD1718" points="98.78,84.69 98.329,84.455 101.582,78.191 105.741,80.349 102.759,86.093 102.308,85.859 
	105.055,80.567 101.799,78.876 "/>
<path fill="#BD1718" d="M112.481,91.427l-4.159-2.159l3.099-5.968l1.759,0.914l-1.408-1.152l0.322-0.394l3.464,2.834L112.481,91.427
	z M109.008,89.05l3.256,1.691l2.63-5.065l-3.256-1.691L109.008,89.05z"/>
<rect x="106.08" y="79.732" transform="matrix(0.8875 0.4608 -0.4608 0.8875 49.1743 -41.4727)" fill="#BD1718" width="6.909" height="0.509"/>
<polygon fill="#BD1718" points="112.159,82.981 111.708,82.749 112.342,81.527 112.238,80.419 107.625,78.025 106.597,78.615 
	106.343,78.174 107.614,77.445 112.719,80.098 112.862,81.629 "/>
<polygon fill="#BD1718" points="106.027,79.798 105.576,79.565 106.278,78.212 107.494,77.516 107.746,77.957 106.661,78.578 "/>
<path fill="#BD1718" d="M102.061,104.404l-8.198-4.257l2.363-4.551l8.198,4.257L102.061,104.404z M94.547,99.931l7.296,3.789
	l1.894-3.649l-7.295-3.789L94.547,99.931z"/>
<path fill="#BD1718" d="M93.342,113.652l-6.832-3.547c-1.256-0.652-1.747-2.204-1.095-3.461l3.502-6.744
	c0.653-1.256,2.205-1.748,3.461-1.095l6.831,3.546l-0.235,0.452l-6.831-3.547c-1.007-0.523-2.251-0.129-2.774,0.878l-3.503,6.746
	c-0.523,1.006-0.128,2.251,0.878,2.773l6.832,3.548L93.342,113.652z"/>
<path fill="#BD1718" d="M101.785,99.056l-6.831-3.546c-1.256-0.653-1.747-2.206-1.095-3.461l3.502-6.745
	c0.59-1.136,1.793-1.371,3.219-0.631l6.831,3.547l-0.234,0.452l-6.831-3.548c-0.682-0.354-1.918-0.771-2.534,0.414l-3.502,6.745
	c-0.522,1.007-0.129,2.251,0.878,2.775l6.831,3.546L101.785,99.056z"/>
<rect x="108.948" y="72.631" transform="matrix(0.8878 0.4602 -0.4602 0.8878 49.4547 -41.1244)" fill="#BD1718" width="0.255" height="16.481"/>
<rect x="99.519" y="91.835" transform="matrix(0.8894 0.4572 -0.4572 0.8894 56.2985 -34.6004)" fill="#BD1718" width="0.254" height="14.396"/>
<rect x="104.045" y="89.107" transform="matrix(0.8886 0.4587 -0.4587 0.8886 53.0324 -37.7213)" fill="#BD1718" width="0.254" height="2.418"/>
<rect x="90.543" y="109.12" transform="matrix(0.8862 0.4633 -0.4633 0.8862 64.2065 -28.7704)" fill="#BD1718" width="0.254" height="14.395"/>
<rect x="95.07" y="106.392" transform="matrix(0.887 0.4618 -0.4618 0.887 60.4549 -31.8027)" fill="#BD1718" width="0.253" height="2.418"/>
<path fill="#BD1718" d="M154.218,52.804l-6.614-3.435l3.056-5.883l6.614,3.434L154.218,52.804z M148.289,49.151l5.712,2.966
	l2.587-4.98l-5.712-2.967L148.289,49.151z"/>
<rect x="146.177" y="45.174" transform="matrix(0.8875 0.4608 -0.4608 0.8875 38.2446 -65.7873)" fill="#BD1718" width="15.345" height="0.509"/>
<polygon fill="#BD1718" points="160.498,49.161 157.188,46.476 151.048,43.288 151.282,42.836 157.488,46.065 160.818,48.767 "/>
<rect x="149.103" y="43.485" transform="matrix(0.887 0.4617 -0.4617 0.887 38.3675 -63.7061)" fill="#BD1718" width="0.509" height="6.121"/>
<path fill="#BD1718" d="M157.946,54.739l-4.18-2.169l3.055-5.884l1.735,0.902l-1.389-1.127l0.32-0.396l3.491,2.833L157.946,54.739z
	 M154.452,52.353l3.276,1.701l2.586-4.981l-3.276-1.701L154.452,52.353z"/>
<rect x="154.325" y="36.152" transform="matrix(0.8898 0.4564 -0.4564 0.8898 37.2323 -65.6168)" fill="#BD1718" width="0.254" height="16.231"/>
<rect x="145.038" y="55.062" transform="matrix(0.8906 0.4548 -0.4548 0.8906 44.1539 -59.2263)" fill="#BD1718" width="0.255" height="14.178"/>
<rect x="149.496" y="52.377" transform="matrix(0.889 0.458 -0.458 0.889 41.1496 -62.5789)" fill="#BD1718" width="0.253" height="2.382"/>
<rect x="136.2" y="72.085" transform="matrix(0.8898 0.4564 -0.4564 0.8898 51.1668 -53.496)" fill="#BD1718" width="0.254" height="14.178"/>
<rect x="140.657" y="69.399" transform="matrix(0.8874 0.4609 -0.4609 0.8874 48.3844 -56.9459)" fill="#BD1718" width="0.255" height="2.381"/>
<path fill="#BD1718" d="M90.123,165.594c-1.248-0.647-2.051-1.558-2.379-2.702c-0.64-2.234,0.776-4.528,0.837-4.624l0.645,0.406
	c-0.013,0.02-1.296,2.107-0.748,4.011c0.282,0.977,1.013,1.755,2.157,2.313l1.745,0.906l-0.352,0.677l-1.734-0.9
	C90.235,165.652,90.179,165.622,90.123,165.594"/>
<path fill="#BD1718" d="M90.882,170.561l-47.224-24.521l8.972-17.28l0.209,0.075c1.64,0.583,2.583-0.89,2.691-1.069l5.77-11.112
	c0.559-1.079,1.893-1.5,2.972-0.94l7.2,3.738c1.078,0.56,1.5,1.893,0.94,2.971l-0.451-0.233c0.431-0.831,0.106-1.856-0.724-2.286
	l-7.199-3.739c-0.831-0.432-1.856-0.107-2.287,0.722l-5.801,11.165c-0.186,0.3-1.247,1.837-3.069,1.329l-8.537,16.442l46.261,24.02
	l1.36-3.688l0.477,0.175L90.882,170.561z"/>
<rect x="52.91" y="130.522" transform="matrix(0.8875 0.4608 -0.4608 0.8875 67.1366 -13.4513)" fill="#BD1718" width="16.415" height="0.508"/>
<path fill="#BD1718" d="M76.844,152.495l-9.885-5.134c-3.504-1.818-4.875-6.15-3.055-9.655l8.057-15.517l0.452,0.234l-8.058,15.518
	c-1.691,3.256-0.417,7.278,2.839,8.97l9.885,5.132c3.256,1.691,7.279,0.418,8.97-2.838l0.451,0.235
	C84.681,152.944,80.349,154.315,76.844,152.495"/>
<path fill="#BD1718" d="M0.728,234.412l-0.451-0.234l5.769-11.11c0.085-0.192,0.748-1.813-0.673-2.817l-0.182-0.127l8.973-17.28
	l51.909,26.953l-0.234,0.452l-51.459-26.719l-8.536,16.44c1.466,1.199,0.814,2.956,0.679,3.275L6.5,223.294L0.728,234.412z"/>
<rect x="3.516" y="225.725" transform="matrix(0.8875 0.4608 -0.4608 0.8875 105.4118 20.0096)" fill="#BD1718" width="16.414" height="0.356"/>
<path fill="#BD1718" d="M11.318,240.084l-0.451-0.233l8.128-15.655c1.82-3.504,6.152-4.875,9.656-3.055l16.459,8.547
	c0.028,0.011,4.434,1.944,3.82,6.471c-0.056,0.415-0.115,0.829-0.174,1.241c-0.398,2.785-0.774,5.414-0.275,8.145
	c0.56,3.068,1.736,5.937,3.401,8.292c1.934,2.738,4.655,4.436,7.753,6.218c2.168,1.247,4.417,2.453,6.684,3.581l-0.226,0.456
	c-2.278-1.135-4.536-2.346-6.712-3.597c-3.15-1.812-5.92-3.542-7.914-6.364c-1.707-2.415-2.913-5.354-3.486-8.492
	c-0.514-2.814-0.115-5.608,0.272-8.31c0.058-0.413,0.118-0.825,0.174-1.237c0.562-4.149-3.493-5.93-3.533-5.944l-16.477-8.555
	c-3.256-1.69-7.28-0.417-8.97,2.839L11.318,240.084z"/>
<path fill="#BD1718" d="M85.892,149.508l14.071-29.431c0.674-1.302,0.169-2.9-1.124-3.572l-6.924-3.595l0.234-0.45l6.924,3.595
	c1.542,0.8,2.145,2.706,1.344,4.247l-14.066,29.425L85.892,149.508z"/>
<rect x="28.882" y="142.301" transform="matrix(0.8884 0.4591 -0.4591 0.8884 83.3883 6.1059)" fill="#BD1718" width="0.508" height="64.514"/>
<path fill="#BD1718" d="M69.039,239.223c-1.77-0.92-3.32-1.738-3.986-2.13c-1.784-1.049-1.42-3.254-0.978-4.273l3.046-5.869
	l3.835-1.766l13.465-31.535l-0.11-2.188l0.035-0.08l4.195-9.906l0.044-0.049c4.977-5.423,1.668-9.702,1.525-9.881l-0.124-0.156
	l0.057-0.192c0.013-0.044,1.343-4.412,3.214-7.976l0.042-0.08l0.073-0.053c1.928-1.384,13.04,3.271,15.248,4.22l-0.301,0.701
	c-4.876-2.093-13.005-5.077-14.435-4.342c-1.601,3.077-2.792,6.732-3.056,7.573c0.618,0.917,3.164,5.377-1.637,10.652l-4.109,9.705
	l0.109,2.189l-0.034,0.081l-13.615,31.886l-3.865,1.779l-2.914,5.612c-0.029,0.07-0.971,2.321,0.676,3.29
	c1.93,1.134,11.764,6.109,11.863,6.158l-0.344,0.681C76.691,243.14,72.456,240.997,69.039,239.223"/>
<rect x="50.597" y="199.057" transform="matrix(-0.377 0.9262 -0.9262 -0.377 294.7395 200.6339)" fill="#BD1718" width="58.598" height="0.763"/>
<rect x="44.524" y="199.102" transform="matrix(-0.3846 0.9231 -0.9231 -0.3846 290.4911 205.0575)" fill="#BD1718" width="64.743" height="0.507"/>
<path fill="#BD1718" d="M84.099,239.73l-8.355-4.34c-1.236-0.643-1.72-2.169-1.078-3.405l8.632-16.624
	c0.642-1.236,2.17-1.719,3.405-1.078l8.356,4.339c1.237,0.643,1.72,2.169,1.078,3.405l-8.631,16.624
	C86.863,239.889,85.336,240.371,84.099,239.73 M86.469,214.734c-0.987-0.512-2.207-0.127-2.72,0.862l-8.632,16.623
	c-0.512,0.986-0.126,2.206,0.86,2.72l8.357,4.339c0.987,0.513,2.207,0.126,2.72-0.861l8.632-16.624
	c0.513-0.987,0.126-2.206-0.861-2.719L86.469,214.734z"/>
<path fill="#BD1718" d="M83.152,231.227c-3.515-1.825-5.386-5.214-4.17-7.554c1.215-2.339,5.062-2.76,8.577-0.935
	c3.515,1.826,5.385,5.214,4.17,7.555C90.514,232.633,86.667,233.051,83.152,231.227 M87.324,223.19
	c-3.266-1.695-6.806-1.374-7.891,0.716c-1.086,2.092,0.687,5.173,3.953,6.869c3.266,1.695,6.806,1.373,7.892-0.717
	C92.363,227.967,90.59,224.886,87.324,223.19"/>
<rect x="85.147" y="215.369" transform="matrix(0.8874 0.461 -0.461 0.8874 114.2633 -13.8094)" fill="#BD1718" width="0.508" height="23.274"/>
<rect x="83.397" y="214.46" transform="matrix(0.8882 0.4595 -0.4595 0.8882 113.2393 -13.1558)" fill="#BD1718" width="0.508" height="23.275"/>
<rect x="81.646" y="213.551" transform="matrix(0.8882 0.4595 -0.4595 0.8882 112.6257 -12.4529)" fill="#BD1718" width="0.508" height="23.275"/>
<rect x="85.147" y="215.369" transform="matrix(0.8874 0.461 -0.461 0.8874 114.2633 -13.8094)" fill="#BD1718" width="0.508" height="23.274"/>
<rect x="88.648" y="217.186" transform="matrix(0.8882 0.4595 -0.4595 0.8882 115.0791 -15.2636)" fill="#BD1718" width="0.508" height="23.275"/>
<rect x="86.897" y="216.278" transform="matrix(0.8872 0.4614 -0.4614 0.8872 114.9867 -14.5016)" fill="#BD1718" width="0.508" height="23.275"/>
<path fill="#BD1718" d="M78.644,262.796l-18.628-9.673c-5.584-2.899-7.768-9.802-4.869-15.385l2.595-4.997l6.492,0.372l-0.03,0.509
	l-6.162-0.354l-2.443,4.705c-2.77,5.335-0.684,11.929,4.651,14.699l18.628,9.672c5.336,2.77,11.928,0.684,14.699-4.651l2.519-4.851
	l0.451,0.234l-2.519,4.851C91.128,263.511,84.227,265.695,78.644,262.796"/>
<path fill="#BD1718" d="M78.644,262.796l-18.628-9.673c-5.584-2.899-7.768-9.802-4.869-15.385l2.519-4.851l0.451,0.234l-2.518,4.851
	c-2.77,5.335-0.684,11.929,4.651,14.699l18.628,9.672c5.336,2.77,11.928,0.684,14.699-4.651l2.443-4.704l-3.835-4.838l0.398-0.315
	l4.04,5.096l-2.595,4.996C91.128,263.511,84.227,265.695,78.644,262.796"/>
<path fill="#BD1718" d="M63.526,246.362c-5.744-3.419-7.497-7.433-5.88-13.424l0.49,0.133c-1.547,5.73,0.138,9.572,5.637,12.848
	l18.615,9.665c5.702,2.55,9.688,1.743,13.743-2.795l0.38,0.34c-4.176,4.671-8.466,5.542-14.344,2.912L63.526,246.362z"/>
<path fill="#BD1718" d="M64.928,243.663c-4.823-2.871-6.791-6.148-6.395-10.63l0.506,0.045c-0.376,4.263,1.517,7.39,6.136,10.142
	l18.616,9.664c4.76,2.13,8.393,1.859,11.766-0.884l0.32,0.396c-3.541,2.878-7.336,3.172-12.307,0.946L64.928,243.663z"/>
<path fill="#BD1718" d="M82.167,256.04l0.208-0.463c5.716,2.557,9.701,1.75,13.756-2.788l0.379,0.34
	C92.335,257.801,88.045,258.671,82.167,256.04"/>
<rect x="63.751" y="237.231" transform="matrix(0.8854 0.4648 -0.4648 0.8854 121.4613 -1.6143)" fill="#BD1718" width="0.508" height="16.623"/>
<polygon fill="#BD1718" points="150.143,73.725 147.117,72.154 149.284,67.98 155.465,71.19 156.556,69.091 157.007,69.325 
	155.683,71.876 149.501,68.667 147.804,71.938 150.376,73.274 "/>
<path fill="#BD1718" d="M112.271,91.317l0.203-0.466l0.111,0.049c0.68,0.305,1.525,0.682,3.355-0.63
	c8.026-5.979,17.322-0.815,17.416-0.76c3.91,2.03,8.751,0.498,10.786-3.421l6.331-12.192l-5.165-2.682l0.235-0.451l1.808,0.94
	l3.696-7.117l0.451,0.234l-3.696,7.116l3.355,1.743l-6.564,12.645c-2.164,4.166-7.313,5.795-11.479,3.633
	c-0.1-0.058-9.113-5.059-16.874,0.723c-2.071,1.484-3.149,1.002-3.863,0.683L112.271,91.317z"/>
<path fill="#BD1718" d="M157.183,46.474l-6.106-3.172l3.427-6.602l6.109,3.172L157.183,46.474z M151.761,43.086l5.206,2.703
	l2.96-5.7l-5.206-2.703L151.761,43.086z"/>
<path fill="#BD1718" d="M158.07,47.192l-0.883-0.716l-6.116-3.176l-1.093-0.31l3.453-6.651l1.476-0.77l6.396,3.322l0.22,1.649
	L158.07,47.192z M151.259,42.824l6.229,3.24l0.418,0.339l3.092-5.954l-0.163-1.228l-5.927-3.078l-1.1,0.572l-3.092,5.956
	L151.259,42.824z"/>
<rect x="153.137" y="38.256" transform="matrix(0.8875 0.4607 -0.4607 0.8875 35.4488 -68.2067)" fill="#BD1718" width="8.609" height="0.51"/>
<path fill="#BD1718" d="M149.214,62.441l-6.614-3.435l5.238-10.088l6.614,3.434L149.214,62.441z M143.285,58.79l5.712,2.966
	l4.771-9.187l-5.712-2.966L143.285,58.79z"/>
<path fill="#BD1718" d="M147.173,65.165l-5.627-2.921l1.782-3.431l5.626,2.921L147.173,65.165z M142.232,62.027l4.723,2.453
	l1.313-2.53l-4.724-2.452L142.232,62.027z"/>
<path fill="#BD1718" d="M144.502,73.323l-8.093-4.201l4.14-7.97l8.09,4.201L144.502,73.323z M137.096,68.905l7.188,3.732l3.67-7.067
	l-7.188-3.732L137.096,68.905z"/>
<path fill="#BD1718" d="M135.798,80.191c-1.822-0.947-2.535-3.202-1.589-5.024c0.946-1.825,3.201-2.538,5.024-1.591
	c1.824,0.947,2.537,3.201,1.59,5.025C139.876,80.424,137.622,81.137,135.798,80.191 M138.999,74.027
	c-1.573-0.817-3.521-0.202-4.339,1.373c-0.816,1.575-0.202,3.522,1.373,4.34s3.521,0.2,4.338-1.375
	C141.189,76.792,140.574,74.845,138.999,74.027"/>
<path fill="#BD1718" d="M124.491,87.88l0.029-0.508c1.591,0.091,3.208-0.765,4.326-2.289c0.984-1.342,1.356-2.904,0.948-3.981
	c-0.021-0.053-0.064-0.164-0.121-0.305c-0.191-0.482-0.512-1.291-0.598-1.603c-0.583-2.13-0.345-4.382,0.674-6.343
	c1.421-2.74,4.224-4.544,7.31-4.708l0.026,0.507c-2.907,0.156-5.546,1.854-6.886,4.436c-0.959,1.846-1.185,3.967-0.635,5.974
	c0.078,0.285,0.405,1.109,0.581,1.55c0.057,0.144,0.102,0.257,0.123,0.312c0.468,1.232,0.07,2.984-1.013,4.461
	C128.036,87.048,126.254,87.98,124.491,87.88"/>
<path fill="#BD1718" d="M135.012,81.707c-2.66-1.381-3.699-4.668-2.318-7.327c0.848-1.633,2.484-2.774,4.731-3.3
	c1.678-0.392,3.088-0.308,3.147-0.305l0.113,0.008l0.07,0.089c0.141,0.179,3.434,4.44,1.589,8.504
	c-0.566,1.249-1.616,2.191-2.955,2.654C137.957,82.526,136.361,82.407,135.012,81.707 M140.425,71.278
	c-0.801-0.021-5.546-0.004-7.281,3.336c-1.251,2.409-0.309,5.391,2.103,6.642c1.227,0.636,2.676,0.744,3.978,0.293
	c1.206-0.417,2.15-1.262,2.658-2.383C143.459,75.694,140.886,71.913,140.425,71.278"/>
<path fill="#BD1718" d="M134.359,82.963c-3.352-1.739-4.663-5.884-2.923-9.237c1.039-1.999,2.979-3.351,5.214-3.636l0.445-0.857
	l0.452,0.234l-0.57,1.098l-0.136,0.014c-2.121,0.229-3.974,1.493-4.954,3.383c-1.612,3.103-0.398,6.939,2.707,8.55L134.359,82.963z"
	/>
<path fill="#BD1718" d="M134.316,82.94l0.233-0.451c3.104,1.612,6.94,0.398,8.552-2.707c0.981-1.887,0.949-4.13-0.083-5.996
	l-0.066-0.119l0.57-1.098l0.45,0.234l-0.444,0.857c1.051,1.991,1.063,4.358,0.024,6.357C141.813,83.37,137.668,84.681,134.316,82.94
	"/>
<path fill="#BD1718" d="M134.861,79.5l-0.109-0.121c-0.722-0.802-1.062-1.874-0.932-2.946l0.019-0.161l6.331-2.004l0.11,0.121
	c0.722,0.802,1.062,1.875,0.932,2.945l-0.02,0.162L134.861,79.5z M134.31,76.656c-0.058,0.817,0.197,1.624,0.715,2.26l5.699-1.805
	c0.057-0.816-0.197-1.624-0.716-2.259L134.31,76.656z"/>
<polygon fill="#BD1718" points="137.38,86.792 130.526,83.235 131.906,80.577 132.357,80.813 131.212,83.017 137.164,86.107 
	138.624,83.295 139.075,83.53 "/>
<rect x="135.477" y="85.938" transform="matrix(0.887 0.4617 -0.4617 0.887 56.0625 -52.7078)" fill="#BD1718" width="0.509" height="4.527"/>
<rect x="143.158" y="80.54" transform="matrix(0.8876 0.4606 -0.4606 0.8876 53.515 -57.7281)" fill="#BD1718" width="3.781" height="0.509"/>
<rect x="137.723" y="86.057" transform="matrix(0.8875 0.4608 -0.4608 0.8875 55.6004 -55.1325)" fill="#BD1718" width="5.994" height="0.509"/>
<path fill="#BD1718" d="M146.766,97.592l-3.925-2.037l9.4-18.105l3.926,2.039L146.766,97.592z M143.822,95.206l2.665,1.384
	l8.698-16.751l-2.665-1.383L143.822,95.206z"/>
<rect x="149.746" y="67.554" transform="matrix(0.8862 0.4633 -0.4633 0.8862 55.1763 -60.1288)" fill="#BD1718" width="0.509" height="29.424"/>
<path fill="#BD1718" d="M153.185,65.983l-4.289-2.227l5.845-11.255l3.891,2.02l-0.94,1.813l8.089,4.2l-0.234,0.452l-7.691-3.993
	L153.185,65.983z M149.582,63.539l3.387,1.759l4.434-8.539L154.016,55L149.582,63.539z M154.25,54.548l2.989,1.552l0.707-1.361
	l-2.989-1.552L154.25,54.548z"/>
<rect x="150.637" y="74.267" transform="matrix(0.8876 0.4605 -0.4605 0.8876 51.4248 -61.7339)" fill="#BD1718" width="3.183" height="0.509"/>
<rect x="149.6" y="63.225" transform="matrix(0.8875 0.4608 -0.4608 0.8875 46.3234 -62.7909)" fill="#BD1718" width="4.325" height="0.508"/>
<rect x="143.983" y="48.038" transform="matrix(0.8875 0.4608 -0.4608 0.8875 38.6907 -61.8861)" fill="#BD1718" width="4.201" height="0.51"/>
<path fill="#BD1718" d="M147.114,51.416l-4.555-2.365l1.175-2.263l4.555,2.364L147.114,51.416z M143.245,48.834l3.651,1.896
	l0.707-1.362l-3.651-1.896L143.245,48.834z"/>
<path fill="#BD1718" d="M143.789,57.821l-2.933-1.523l3.56-6.857l2.933,1.525L143.789,57.821z M141.542,56.082l2.029,1.054
	l3.091-5.953l-2.029-1.055L141.542,56.082z"/>
<polygon fill="#BD1718" points="142.825,59.124 140.236,57.78 139.791,55.56 143.082,49.222 143.534,49.456 140.325,55.636 
	140.687,57.44 143.06,58.672 "/>
<rect x="139.986" y="55.64" transform="matrix(0.8873 0.4611 -0.4611 0.8873 41.621 -58.5527)" fill="#BD1718" width="1.284" height="0.508"/>
<polygon fill="#BD1718" points="148.055,49.603 143.877,47.434 146.91,41.592 151.234,42.817 151.096,43.308 147.17,42.194 
	144.562,47.217 147.838,48.918 150.542,43.711 150.993,43.945 "/>
<polygon fill="#BD1718" points="156.59,69.376 153.952,66.381 149.122,63.874 149.355,63.422 154.302,66.009 156.972,69.039 "/>
<rect x="15.703" y="202.972" transform="matrix(0.3042 0.9526 -0.9526 0.3042 209.3321 129.6975)" fill="#BD1718" width="0.355" height="10.354"/>
<rect x="20.835" y="203.464" transform="matrix(0.3047 0.9525 -0.9525 0.3047 224.1756 132.9756)" fill="#BD1718" width="0.356" height="33.125"/>
<rect x="47.021" y="219.059" transform="matrix(0.3034 0.9529 -0.9529 0.3034 247.9672 112.2649)" fill="#BD1718" width="0.356" height="13.347"/>
<rect x="51.691" y="234.608" transform="matrix(0.3011 0.9536 -0.9536 0.3011 263.7625 117.286)" fill="#BD1718" width="0.358" height="7.938"/>
<rect x="53.269" y="247.653" transform="matrix(0.3001 0.9539 -0.9539 0.3001 276.716 124.5954)" fill="#BD1718" width="0.356" height="6.451"/>
<rect x="8.827" y="233.782" transform="matrix(0.3014 0.9535 -0.9535 0.3014 233.0533 157.5565)" fill="#BD1718" width="0.356" height="8.077"/>
<rect x="97.181" y="161.115" transform="matrix(0.3034 0.9529 -0.9529 0.3034 227.6499 24.0749)" fill="#BD1718" width="0.356" height="13.252"/>
<polygon fill="#BD1718" points="107.186,185.053 100.978,181.829 100.57,179.992 107.293,167.045 107.744,167.28 101.106,180.063 
	101.423,181.488 107.42,184.602 "/>
<rect x="97.988" y="167.913" transform="matrix(0.3009 0.9536 -0.9536 0.3009 235.2128 28.5018)" fill="#BD1718" width="0.355" height="13.547"/>
<rect x="94.244" y="175.838" transform="matrix(0.3034 0.9529 -0.9529 0.3034 239.8665 37.3001)" fill="#BD1718" width="0.356" height="13.743"/>
<rect x="95.567" y="177.805" transform="matrix(0.2926 0.9562 -0.9562 0.2926 248.7446 42.3537)" fill="#BD1718" width="0.355" height="23.001"/>
<rect x="92.129" y="186.403" transform="matrix(0.2836 0.9589 -0.9589 0.2836 255.097 52.6565)" fill="#BD1718" width="0.356" height="21.303"/>
<rect x="84.671" y="199.875" transform="matrix(0.3022 0.9532 -0.9532 0.3022 255.6486 62.9198)" fill="#BD1718" width="0.355" height="12.398"/>
<rect x="83.274" y="204.79" transform="matrix(0.3022 0.9532 -0.9532 0.3022 261.6089 69.3275)" fill="#BD1718" width="0.355" height="17.117"/>
<rect x="76.083" y="217.978" transform="matrix(0.3009 0.9536 -0.9536 0.3009 265.5325 82.8427)" fill="#BD1718" width="0.355" height="9.117"/>
<polygon fill="#BD1718" points="64.074,233.262 67.242,227.16 67.558,227.324 64.777,232.68 76.24,229.236 76.343,229.577 "/>
<rect x="73.18" y="233.112" transform="matrix(0.3026 0.9531 -0.9531 0.3026 277.4958 95.6882)" fill="#BD1718" width="0.357" height="8.727"/>
<path fill="#BD1718" d="M172.652-8.112l-4.535-2.354l1.191-2.297l4.535,2.355L172.652-8.112z M168.803-10.684l3.632,1.887
	l0.725-1.393l-3.633-1.888L168.803-10.684z"/>
<path fill="#BD1718" d="M170.689-4.588L163.5-8.32l1.347-2.595c0.411-0.791,1.39-1.1,2.182-0.69l5.754,2.988
	c1.11,0.577,1.545,1.95,0.968,3.06C173.173-4.446,171.801-4.01,170.689-4.588 M164.186-8.538l6.737,3.499
	c0.863,0.447,1.928,0.111,2.375-0.752c0.449-0.862,0.112-1.927-0.75-2.375l-5.754-2.987c-0.543-0.283-1.214-0.069-1.495,0.472
	L164.186-8.538z"/>
<path fill="#BD1718" d="M142.174-16.348c-3.001-1.6-4.323-5.288-2.886-8.055c1.442-2.778,5.091-3.752,8.134-2.173l5.623,2.921
	l-0.413,0.795l-0.452-0.234l0.18-0.345l-5.173-2.686c-2.794-1.45-6.135-0.572-7.447,1.956c-1.312,2.525-0.086,5.902,2.674,7.374
	L142.174-16.348z"/>
<rect x="149.227" y="-15.05" transform="matrix(0.8875 0.4608 -0.4608 0.8875 10.9194 -74.3173)" fill="#BD1718" width="16.854" height="0.507"/>
<rect x="156.733" y="-18.677" transform="matrix(0.887 0.4617 -0.4617 0.887 9.8809 -74.4109)" fill="#BD1718" width="0.509" height="3.323"/>
<path fill="#BD1718" d="M259.814,38.248c-0.009,0.016-0.02,0.031-0.029,0.049c-0.036-0.115-0.073-0.231-0.11-0.347
	c0.086-0.175,0.153-0.35,0.21-0.53c0.045,0.131,0.084,0.267,0.125,0.396C259.95,37.963,259.888,38.108,259.814,38.248"/>
<path fill="#BD1718" d="M259.785,38.298c0.01-0.019,0.021-0.033,0.028-0.049c0.073-0.14,0.138-0.285,0.197-0.432
	c-0.042-0.13-0.082-0.265-0.126-0.397c0.646-1.975-0.074-4.224-1.77-5.686c-0.049-0.151-0.095-0.296-0.137-0.439
	c-0.154-0.116-0.311-0.226-0.477-0.328c0.037,0.124,0.076,0.249,0.118,0.38c-0.187-0.131-0.384-0.256-0.592-0.368l-1.206,0.695
	c-0.027-0.082-0.052-0.167-0.076-0.249l0.616-0.356l-0.268-0.138l0.922-0.532l0.124,0.065c3.039,1.579,4.342,5.124,2.9,7.903
	c-1.444,2.777-5.092,3.751-8.132,2.173l-0.124-0.065l-0.096-1.054l0.266,0.137l-0.104-1.149l0.117-0.226l0.124,0.065l0.172,1.904
	c0.479,0.236,0.975,0.403,1.47,0.507c0.027,0.096,0.059,0.184,0.087,0.276c0.133,0.024,0.267,0.046,0.396,0.061
	c-0.027-0.088-0.055-0.174-0.084-0.266c0.635,0.092,1.27,0.077,1.873-0.034c0.025,0.083,0.051,0.165,0.076,0.242
	c0.12-0.023,0.238-0.047,0.354-0.075l-0.077-0.246c0.598-0.147,1.161-0.396,1.657-0.736c0.024,0.085,0.053,0.173,0.078,0.255
	c0.106-0.071,0.209-0.138,0.309-0.211c-0.027-0.088-0.056-0.175-0.083-0.262c0.518-0.406,0.95-0.921,1.269-1.532
	c0.031-0.06,0.063-0.119,0.085-0.181C259.712,38.066,259.749,38.182,259.785,38.298"/>
<path fill="#BD1718" d="M259.885,37.42c-0.058,0.181-0.124,0.356-0.21,0.53c-0.745-2.394-1.482-4.755-2.054-6.598
	c0.173,0.118,0.339,0.245,0.493,0.381C258.66,33.491,259.27,35.46,259.885,37.42"/>
<path fill="#BD1718" d="M258.32,39.663c0.028,0.086,0.055,0.173,0.083,0.261c-0.1,0.074-0.203,0.141-0.309,0.212
	c-0.025-0.082-0.054-0.17-0.077-0.255C258.124,39.815,258.224,39.742,258.32,39.663"/>
<path fill="#BD1718" d="M258.32,39.663c-0.097,0.079-0.196,0.152-0.303,0.218c-0.272-0.868-0.577-1.831-0.91-2.9
	c-0.559-1.774-1.107-3.55-1.598-5.125l0.312-0.182C256.621,34.235,257.514,37.086,258.32,39.663"/>
<path fill="#BD1718" d="M256.437,40.863c-0.114,0.028-0.233,0.052-0.354,0.075c-0.024-0.078-0.051-0.16-0.077-0.242
	c0.118-0.024,0.235-0.048,0.354-0.08L256.437,40.863z"/>
<path fill="#BD1718" d="M256.358,40.616c-0.118,0.032-0.234,0.056-0.353,0.08c-0.423-1.355-0.953-3.032-1.604-5.121
	c-0.134-0.433-0.27-0.863-0.406-1.294l0.231-0.445C254.966,36.195,255.718,38.583,256.358,40.616"/>
<path fill="#BD1718" d="M254.135,40.729c0.028,0.092,0.056,0.178,0.082,0.266c-0.129-0.015-0.263-0.036-0.396-0.061
	c-0.029-0.091-0.06-0.18-0.087-0.276C253.865,40.687,253.998,40.712,254.135,40.729"/>
<path fill="#BD1718" d="M254.135,40.729c-0.137-0.017-0.27-0.043-0.4-0.071c-0.31-0.976-0.689-2.175-1.154-3.653l0.233-0.449
	C253.294,38.075,253.745,39.51,254.135,40.729"/>
<path fill="#BD1718" d="M257.979,31.294c0.043,0.144,0.089,0.289,0.136,0.438c-0.155-0.137-0.319-0.262-0.493-0.381l-0.002-0.004
	c-0.041-0.131-0.08-0.257-0.116-0.381C257.668,31.069,257.824,31.178,257.979,31.294"/>
<path fill="#BD1718" d="M256.362,31.069l-0.617,0.356l-0.312,0.18l-0.07,0.041l-2.167-1.124l-0.445-0.233l-2.264-1.175l-0.442-0.228
	l-2.263-1.176l-0.446-0.231l-2.259-1.173l-0.445-0.232l-2.264-1.175l-0.441-0.23l-2.263-1.174l-0.446-0.232l-2.263-1.175
	l-0.441-0.229l-2.263-1.175l-0.445-0.232l-2.261-1.173l-0.444-0.231l-2.265-1.176l-0.441-0.228l-2.263-1.176l-0.446-0.232
	l-2.26-1.172l-0.444-0.232l-2.264-1.175l-0.445-0.231l-0.235-0.122l0.09-0.175c0.126-0.243,0.204-0.494,0.233-0.753l0.239,0.125
	c-0.037,0.235-0.11,0.468-0.22,0.694l34.977,18.161l0.737-0.425L256.362,31.069z"/>
<path fill="#BD1718" d="M251.852,38.409l0.103,1.149l-0.264-0.137l-0.078-0.854l-34.977-18.16c-0.122,0.219-0.272,0.415-0.442,0.582
	l-0.24-0.125c0.011-0.005,0.02-0.014,0.024-0.023c0.003-0.003,0.007-0.005,0.011-0.011c0.044-0.038,0.084-0.078,0.12-0.123
	c0.007-0.005,0.012-0.015,0.018-0.02c0.121-0.13,0.225-0.283,0.31-0.449l0.09-0.171l1.544,0.801l0.448,0.233l2.258,1.172
	l0.447,0.232l2.256,1.172l0.452,0.235l2.258,1.171l0.448,0.234l2.256,1.172l0.452,0.234l2.256,1.172l0.449,0.232l2.257,1.172
	l0.448,0.234l2.257,1.171l0.452,0.234l2.256,1.172l0.449,0.233l2.256,1.171l0.452,0.235l2.256,1.171l0.449,0.234l2.257,1.171
	l0.448,0.233l2.257,1.172l0.452,0.235L251.852,38.409z"/>
<path fill="#BD1718" d="M255.746,31.425c0.024,0.082,0.05,0.167,0.075,0.249l-0.312,0.182c-0.026-0.082-0.051-0.168-0.077-0.251
	L255.746,31.425z"/>
<path fill="#BD1718" d="M255.434,31.605c0.025,0.083,0.05,0.169,0.076,0.251l-0.138,0.077l-0.125-0.064l0.116-0.223L255.434,31.605z
	"/>
<path fill="#BD1718" d="M251.969,38.183l-0.116,0.226l-0.856-0.444c-0.036-0.112-0.072-0.228-0.11-0.344L251.969,38.183z"/>
<path fill="#BD1718" d="M252.813,36.557l-0.232,0.449c-0.268-0.85-0.561-1.795-0.888-2.836c-0.536-1.709-1.066-3.416-1.545-4.948
	l0.443,0.23C251.31,31.756,252.092,34.259,252.813,36.557"/>
<path fill="#BD1718" d="M254.227,33.836l-0.231,0.444c-0.396-1.268-0.784-2.512-1.141-3.655l0.445,0.232
	C253.602,31.827,253.912,32.828,254.227,33.836"/>
<path fill="#BD1718" d="M255.363,31.646l-0.116,0.222l-1.947-1.011c-0.032-0.114-0.068-0.225-0.104-0.336L255.363,31.646z"/>
<path fill="#BD1718" d="M250.996,37.965l-0.453-0.235c-0.034-0.111-0.072-0.228-0.107-0.343l0.451,0.234
	C250.923,37.738,250.96,37.854,250.996,37.965"/>
<path fill="#BD1718" d="M250.888,37.621l-0.453-0.234c-0.395-1.264-0.871-2.78-1.445-4.623c-0.536-1.708-1.071-3.416-1.548-4.949
	l0.445,0.231C248.874,31.21,249.979,34.754,250.888,37.621"/>
<path fill="#BD1718" d="M250.544,37.729l-2.257-1.172c-0.034-0.11-0.071-0.226-0.108-0.342l2.256,1.172
	C250.473,37.502,250.509,37.62,250.544,37.729"/>
<path fill="#BD1718" d="M253.3,30.858l-0.446-0.232c-0.032-0.114-0.067-0.224-0.103-0.336l0.445,0.232
	C253.23,30.632,253.267,30.744,253.3,30.858"/>
<path fill="#BD1718" d="M252.751,30.289c0.035,0.112,0.068,0.222,0.103,0.336l-2.262-1.174c-0.034-0.114-0.068-0.225-0.104-0.337
	L252.751,30.289z"/>
<path fill="#BD1718" d="M248.287,36.558l-0.448-0.233c-0.036-0.111-0.071-0.227-0.108-0.343l0.447,0.234
	C248.215,36.332,248.252,36.448,248.287,36.558"/>
<path fill="#BD1718" d="M248.179,36.215l-0.448-0.234c-0.395-1.264-0.875-2.78-1.447-4.622c-0.535-1.708-1.07-3.416-1.547-4.949
	l0.445,0.232C246.165,29.805,247.271,33.349,248.179,36.215"/>
<path fill="#BD1718" d="M247.839,36.325l-2.256-1.172c-0.036-0.111-0.073-0.226-0.109-0.343l2.256,1.172
	C247.767,36.098,247.803,36.214,247.839,36.325"/>
<path fill="#BD1718" d="M250.487,29.114c0.036,0.112,0.07,0.222,0.104,0.337l-0.442-0.229c-0.034-0.115-0.068-0.226-0.104-0.337
	L250.487,29.114z"/>
<path fill="#BD1718" d="M250.046,28.886c0.035,0.11,0.069,0.222,0.104,0.336l-2.263-1.175c-0.035-0.111-0.069-0.226-0.104-0.337
	L250.046,28.886z"/>
<path fill="#BD1718" d="M245.582,35.153l-0.449-0.232c-0.034-0.112-0.071-0.228-0.108-0.345l0.449,0.234
	C245.511,34.927,245.547,35.042,245.582,35.153"/>
<path fill="#BD1718" d="M245.474,34.81l-0.449-0.232c-0.397-1.266-0.874-2.782-1.449-4.625c-0.536-1.708-1.067-3.413-1.545-4.947
	l0.442,0.23C243.461,28.4,244.566,31.943,245.474,34.81"/>
<path fill="#BD1718" d="M245.133,34.92l-2.256-1.171c-0.036-0.111-0.071-0.227-0.108-0.343l2.256,1.171
	C245.062,34.694,245.099,34.81,245.133,34.92"/>
<path fill="#BD1718" d="M247.783,27.71c0.035,0.111,0.068,0.226,0.104,0.336l-0.446-0.23c-0.032-0.114-0.067-0.226-0.104-0.337
	L247.783,27.71z"/>
<path fill="#BD1718" d="M247.337,27.479c0.035,0.112,0.07,0.223,0.104,0.337l-2.261-1.173c-0.034-0.112-0.068-0.226-0.103-0.338
	L247.337,27.479z"/>
<path fill="#BD1718" d="M242.877,33.749l-0.451-0.235c-0.036-0.11-0.072-0.227-0.109-0.343l0.452,0.235
	C242.806,33.522,242.841,33.638,242.877,33.749"/>
<path fill="#BD1718" d="M242.769,33.406l-0.452-0.235c-0.394-1.263-0.875-2.781-1.447-4.621c-0.534-1.709-1.069-3.417-1.548-4.951
	l0.446,0.232C240.756,26.995,241.86,30.538,242.769,33.406"/>
<path fill="#BD1718" d="M242.426,33.514l-2.258-1.172c-0.034-0.11-0.071-0.226-0.107-0.342l2.256,1.171
	C242.354,33.287,242.39,33.404,242.426,33.514"/>
<path fill="#BD1718" d="M245.078,26.305c0.035,0.113,0.068,0.226,0.104,0.338l-0.445-0.232c-0.034-0.115-0.069-0.225-0.104-0.336
	L245.078,26.305z"/>
<path fill="#BD1718" d="M244.632,26.074c0.035,0.112,0.071,0.222,0.104,0.336l-2.263-1.174c-0.035-0.111-0.067-0.226-0.104-0.337
	L244.632,26.074z"/>
<path fill="#BD1718" d="M240.169,32.342l-0.449-0.233c-0.035-0.111-0.072-0.227-0.109-0.343L240.06,32
	C240.097,32.116,240.134,32.232,240.169,32.342"/>
<path fill="#BD1718" d="M240.06,32l-0.448-0.234c-0.398-1.265-0.875-2.782-1.449-4.624c-0.536-1.708-1.068-3.414-1.545-4.947
	l0.442,0.23C238.047,25.588,239.153,29.132,240.06,32"/>
<path fill="#BD1718" d="M239.72,32.11l-2.256-1.172c-0.036-0.111-0.072-0.226-0.109-0.343l2.256,1.172
	C239.647,31.883,239.685,31.999,239.72,32.11"/>
<path fill="#BD1718" d="M242.369,24.899c0.035,0.111,0.069,0.226,0.104,0.337l-0.442-0.23c-0.033-0.114-0.068-0.225-0.103-0.337
	L242.369,24.899z"/>
<path fill="#BD1718" d="M241.928,24.67c0.033,0.111,0.069,0.222,0.103,0.336l-2.263-1.175c-0.035-0.111-0.069-0.226-0.104-0.336
	L241.928,24.67z"/>
<path fill="#BD1718" d="M237.464,30.938l-0.452-0.234c-0.035-0.112-0.072-0.228-0.109-0.343l0.452,0.234
	C237.392,30.712,237.429,30.826,237.464,30.938"/>
<path fill="#BD1718" d="M237.354,30.595l-0.452-0.234c-0.394-1.264-0.871-2.781-1.446-4.623c-0.535-1.708-1.07-3.416-1.547-4.949
	l0.445,0.232C235.342,24.185,236.448,27.728,237.354,30.595"/>
<path fill="#BD1718" d="M237.012,30.704l-2.256-1.172c-0.036-0.112-0.072-0.228-0.109-0.344l2.256,1.173
	C236.939,30.476,236.977,30.592,237.012,30.704"/>
<path fill="#BD1718" d="M239.664,23.495c0.035,0.11,0.068,0.226,0.104,0.336l-0.445-0.232c-0.033-0.113-0.068-0.224-0.104-0.336
	L239.664,23.495z"/>
<path fill="#BD1718" d="M239.218,23.263c0.035,0.112,0.07,0.223,0.104,0.336l-2.262-1.174c-0.036-0.11-0.069-0.226-0.105-0.337
	L239.218,23.263z"/>
<path fill="#BD1718" d="M234.755,29.532l-0.448-0.234c-0.035-0.11-0.072-0.228-0.108-0.343l0.448,0.233
	C234.683,29.304,234.72,29.42,234.755,29.532"/>
<path fill="#BD1718" d="M234.646,29.188l-0.448-0.233c-0.396-1.263-0.875-2.781-1.447-4.622c-0.539-1.71-1.069-3.416-1.547-4.95
	l0.445,0.232C232.634,22.777,233.739,26.321,234.646,29.188"/>
<path fill="#BD1718" d="M234.307,29.299l-2.256-1.172c-0.036-0.11-0.073-0.226-0.109-0.342l2.256,1.171
	C234.234,29.071,234.271,29.188,234.307,29.299"/>
<path fill="#BD1718" d="M236.955,22.087c0.036,0.113,0.069,0.226,0.105,0.337l-0.443-0.23c-0.034-0.114-0.069-0.224-0.104-0.337
	L236.955,22.087z"/>
<path fill="#BD1718" d="M236.513,21.858c0.035,0.112,0.07,0.222,0.104,0.336l-2.264-1.174c-0.034-0.111-0.068-0.226-0.103-0.337
	L236.513,21.858z"/>
<path fill="#BD1718" d="M232.05,28.127l-0.448-0.232c-0.035-0.112-0.072-0.228-0.108-0.344l0.448,0.234
	C231.979,27.899,232.015,28.016,232.05,28.127"/>
<path fill="#BD1718" d="M231.941,27.785l-0.449-0.234c-0.397-1.266-0.874-2.782-1.448-4.624c-0.536-1.708-1.068-3.414-1.546-4.947
	l0.442,0.23C229.929,21.373,231.033,24.917,231.941,27.785"/>
<path fill="#BD1718" d="M231.602,27.895l-2.256-1.172c-0.036-0.112-0.072-0.226-0.109-0.343l2.256,1.172
	C231.529,27.667,231.566,27.783,231.602,27.895"/>
<path fill="#BD1718" d="M234.251,20.683c0.035,0.111,0.068,0.226,0.104,0.337l-0.446-0.231c-0.032-0.116-0.068-0.226-0.104-0.337
	L234.251,20.683z"/>
<path fill="#BD1718" d="M233.805,20.453c0.035,0.11,0.07,0.222,0.104,0.336l-2.26-1.173c-0.035-0.112-0.069-0.226-0.104-0.337
	L233.805,20.453z"/>
<path fill="#BD1718" d="M229.345,26.723l-0.452-0.234c-0.035-0.112-0.071-0.228-0.108-0.343l0.452,0.234
	C229.273,26.496,229.309,26.61,229.345,26.723"/>
<path fill="#BD1718" d="M229.236,26.379l-0.453-0.234c-0.393-1.264-0.874-2.782-1.446-4.623c-0.534-1.708-1.069-3.417-1.547-4.948
	l0.445,0.231C227.224,19.969,228.329,23.512,229.236,26.379"/>
<path fill="#BD1718" d="M228.894,26.488l-2.256-1.172c-0.036-0.112-0.073-0.228-0.11-0.344l2.257,1.173
	C228.82,26.261,228.857,26.376,228.894,26.488"/>
<path fill="#BD1718" d="M231.545,19.279c0.035,0.11,0.069,0.226,0.104,0.336l-0.444-0.231c-0.034-0.115-0.069-0.225-0.104-0.337
	L231.545,19.279z"/>
<path fill="#BD1718" d="M231.1,19.047c0.035,0.111,0.071,0.223,0.104,0.336l-2.263-1.174c-0.035-0.112-0.067-0.226-0.104-0.338
	L231.1,19.047z"/>
<path fill="#BD1718" d="M226.637,25.317l-0.449-0.234c-0.035-0.11-0.072-0.227-0.107-0.343l0.447,0.233
	C226.564,25.089,226.602,25.205,226.637,25.317"/>
<path fill="#BD1718" d="M226.527,24.973l-0.448-0.233c-0.397-1.265-0.875-2.781-1.449-4.623c-0.536-1.709-1.068-3.415-1.545-4.949
	l0.445,0.232C224.515,18.562,225.621,22.106,226.527,24.973"/>
<path fill="#BD1718" d="M226.188,25.083l-2.256-1.172c-0.036-0.111-0.072-0.227-0.109-0.342l2.256,1.171
	C226.115,24.855,226.152,24.972,226.188,25.083"/>
<path fill="#BD1718" d="M228.836,17.872c0.036,0.112,0.07,0.226,0.104,0.336l-0.442-0.228c-0.033-0.115-0.068-0.225-0.104-0.338
	L228.836,17.872z"/>
<path fill="#BD1718" d="M228.395,17.644c0.035,0.112,0.071,0.222,0.104,0.336l-2.264-1.174c-0.035-0.112-0.068-0.226-0.104-0.337
	L228.395,17.644z"/>
<path fill="#BD1718" d="M223.932,23.911l-0.452-0.234c-0.035-0.112-0.071-0.228-0.109-0.344l0.452,0.236
	C223.859,23.683,223.896,23.8,223.932,23.911"/>
<path fill="#BD1718" d="M223.822,23.569l-0.452-0.235c-0.394-1.265-0.871-2.781-1.446-4.623c-0.535-1.708-1.066-3.415-1.547-4.949
	l0.444,0.23C221.81,17.157,222.915,20.701,223.822,23.569"/>
<path fill="#BD1718" d="M223.479,23.677l-2.256-1.172c-0.036-0.111-0.072-0.226-0.109-0.343l2.256,1.172
	C223.407,23.45,223.444,23.566,223.479,23.677"/>
<path fill="#BD1718" d="M226.132,16.468c0.035,0.111,0.067,0.225,0.104,0.336l-0.445-0.23c-0.033-0.116-0.068-0.227-0.104-0.337
	L226.132,16.468z"/>
<path fill="#BD1718" d="M225.687,16.237c0.034,0.11,0.07,0.222,0.104,0.336l-2.259-1.174c-0.036-0.112-0.069-0.226-0.104-0.336
	L225.687,16.237z"/>
<path fill="#BD1718" d="M221.223,22.505l-0.448-0.232c-0.035-0.112-0.071-0.228-0.108-0.344l0.448,0.233
	C221.151,22.278,221.188,22.394,221.223,22.505"/>
<path fill="#BD1718" d="M221.114,22.162l-0.449-0.232c-0.394-1.264-0.874-2.782-1.446-4.623c-0.157-0.506-0.317-1.013-0.475-1.514
	l0.234-0.449C219.713,17.701,220.466,20.104,221.114,22.162"/>
<path fill="#BD1718" d="M220.774,22.273l-2.256-1.172c-0.036-0.111-0.073-0.227-0.109-0.343l2.257,1.171
	C220.701,22.046,220.738,22.161,220.774,22.273"/>
<path fill="#BD1718" d="M223.427,15.063c0.035,0.111,0.069,0.226,0.104,0.336l-0.446-0.231c-0.034-0.114-0.069-0.225-0.104-0.336
	L223.427,15.063z"/>
<path fill="#BD1718" d="M222.981,14.832c0.034,0.111,0.069,0.223,0.104,0.336l-2.263-1.175c-0.035-0.111-0.069-0.225-0.104-0.337
	L222.981,14.832z"/>
<path fill="#BD1718" d="M218.518,21.101l-0.448-0.233c-0.035-0.111-0.072-0.228-0.108-0.344l0.448,0.233
	C218.447,20.873,218.482,20.989,218.518,21.101"/>
<path fill="#BD1718" d="M218.409,20.757l-0.448-0.234c-0.191-0.603-0.399-1.269-0.633-2.004l0.237-0.454
	C217.857,19.004,218.144,19.908,218.409,20.757"/>
<path fill="#BD1718" d="M218.069,20.868l-1.544-0.801l0.117-0.226l1.318,0.683C217.997,20.64,218.034,20.757,218.069,20.868"/>
<path fill="#BD1718" d="M220.718,13.656c0.035,0.112,0.069,0.226,0.104,0.336l-0.446-0.23c-0.033-0.114-0.068-0.225-0.104-0.336
	L220.718,13.656z"/>
<path fill="#BD1718" d="M220.272,13.425c0.035,0.112,0.07,0.223,0.104,0.337l-0.456-0.235l0.116-0.223L220.272,13.425z"/>
<path fill="#BD1718" d="M220.6,12.5l-0.238-0.124c0.121-0.918-0.337-1.86-1.202-2.309l-2.177-1.13l-0.442-0.23l-2.263-1.176
	l-0.067-0.033l0.117-0.226l4.949,2.569C220.27,10.357,220.777,11.45,220.6,12.5"/>
<path fill="#BD1718" d="M215.953,20.864l0.239,0.123c-0.756,0.749-1.941,0.961-2.935,0.446l-2.17-1.128l0.295-0.133l0.08,0.042
	l1.912,0.992c0.106,0.056,0.215,0.1,0.325,0.138c0.01,0.004,0.018,0.004,0.029,0.006c0.043,0.019,0.09,0.03,0.137,0.039
	c0.03,0.007,0.058,0.014,0.087,0.02c0.041,0.014,0.087,0.021,0.132,0.025c0.009,0,0.016,0.003,0.023,0.003
	c0.618,0.087,1.246-0.088,1.729-0.475C215.878,20.93,215.919,20.899,215.953,20.864"/>
<path fill="#BD1718" d="M216.525,20.066l-0.089,0.171c-0.086,0.166-0.19,0.319-0.31,0.449c-0.031-0.096-0.063-0.192-0.093-0.289
	c0.064-0.085,0.124-0.178,0.177-0.278l0.205-0.396l0.228,0.117L216.525,20.066z"/>
<path fill="#BD1718" d="M217.564,18.064l-0.235,0.456c-0.248-0.792-0.521-1.66-0.819-2.619c-0.972-3.107-1.937-6.215-2.569-8.256
	l0.442,0.23C215.297,10.822,216.493,14.651,217.564,18.064"/>
<path fill="#BD1718" d="M218.979,15.344l-0.233,0.449c-0.808-2.578-1.569-5.034-2.1-6.744l0.442,0.23
	C217.646,11.071,218.303,13.187,218.979,15.344"/>
<path fill="#BD1718" d="M220.037,13.303l-0.116,0.223l-0.226-0.117l0.207-0.399c0.013-0.026,0.025-0.051,0.034-0.074
	c0.01,0.029,0.017,0.053,0.026,0.081c0.091-0.191,0.153-0.388,0.189-0.587c-0.014-0.039-0.027-0.083-0.039-0.122
	c0.064-0.56-0.111-1.124-0.482-1.547c-0.029-0.1-0.057-0.2-0.088-0.297c-0.142-0.146-0.311-0.273-0.493-0.381
	c0.028,0.087,0.056,0.175,0.081,0.265c-0.024-0.021-0.058-0.039-0.089-0.055l-1.954-1.014c-0.037-0.116-0.071-0.231-0.105-0.342
	l2.177,1.13c0.866,0.449,1.323,1.39,1.202,2.309c-0.029,0.26-0.108,0.51-0.234,0.752L220.037,13.303z"/>
<path fill="#BD1718" d="M216.126,20.687c-0.007,0.005-0.011,0.015-0.018,0.019c-0.04,0.044-0.08,0.084-0.121,0.124
	c-0.003,0.006-0.008,0.007-0.009,0.011c-0.046,0.04-0.092,0.082-0.141,0.121l-0.083-0.261c0.103-0.089,0.196-0.189,0.279-0.304
	C216.065,20.494,216.096,20.591,216.126,20.687"/>
<path fill="#BD1718" d="M215.987,20.83c0.041-0.04,0.081-0.08,0.12-0.124C216.072,20.752,216.031,20.792,215.987,20.83"/>
<path fill="#BD1718" d="M215.978,20.841c-0.005,0.01-0.013,0.017-0.024,0.023c-0.034,0.036-0.075,0.067-0.115,0.098
	C215.887,20.923,215.932,20.882,215.978,20.841"/>
<path fill="#BD1718" d="M219.963,13.018c-0.01-0.028-0.017-0.053-0.026-0.081c0.098-0.205,0.155-0.418,0.177-0.628
	c0.012,0.039,0.025,0.082,0.039,0.121C220.116,12.63,220.054,12.827,219.963,13.018"/>
<path fill="#BD1718" d="M215.755,20.701l0.083,0.261c-0.483,0.387-1.111,0.562-1.729,0.475c-0.027-0.086-0.057-0.179-0.086-0.269
	C214.64,21.293,215.285,21.115,215.755,20.701"/>
<path fill="#BD1718" d="M220.113,12.309c-0.021,0.211-0.078,0.424-0.177,0.628c-0.303-0.974-0.574-1.85-0.806-2.588
	c0.197,0.109,0.364,0.248,0.5,0.413C219.788,11.254,219.947,11.773,220.113,12.309"/>
<path fill="#BD1718" d="M216.034,20.396c-0.084,0.114-0.177,0.215-0.278,0.304c-0.479-1.505-1.111-3.518-1.95-6.205
	c-0.642-2.042-1.277-4.085-1.819-5.826l0.232-0.448C213.432,12.112,214.932,16.928,216.034,20.396"/>
<path fill="#BD1718" d="M214.108,21.437c-0.009,0-0.015-0.003-0.022-0.003c-0.045-0.007-0.09-0.014-0.133-0.025
	c-0.029-0.006-0.057-0.013-0.086-0.02c-0.047-0.012-0.093-0.024-0.138-0.039c-0.012-0.002-0.02-0.002-0.029-0.006
	c-0.031-0.102-0.067-0.206-0.099-0.316c0.135,0.067,0.278,0.109,0.421,0.138C214.051,21.258,214.081,21.351,214.108,21.437"/>
<path fill="#BD1718" d="M219.543,10.465c0.03,0.097,0.06,0.196,0.088,0.297c-0.137-0.165-0.303-0.304-0.5-0.413
	c-0.025-0.091-0.054-0.178-0.081-0.265C219.232,10.191,219.401,10.318,219.543,10.465"/>
<path fill="#BD1718" d="M213.953,21.409c0.043,0.011,0.087,0.017,0.133,0.025C214.04,21.431,213.994,21.422,213.953,21.409"/>
<path fill="#BD1718" d="M213.729,21.351c0.045,0.015,0.091,0.026,0.137,0.039C213.819,21.38,213.772,21.369,213.729,21.351"/>
<path fill="#BD1718" d="M213.7,21.344c-0.11-0.038-0.22-0.082-0.325-0.138l-1.913-0.992c-0.034-0.112-0.072-0.225-0.107-0.344
	l2.139,1.11c0.035,0.018,0.07,0.038,0.108,0.048C213.633,21.138,213.669,21.242,213.7,21.344"/>
<path fill="#BD1718" d="M214.022,21.167c-0.142-0.03-0.286-0.073-0.421-0.139c-0.511-1.582-1.289-4.054-2.505-7.939
	c-0.175-0.564-0.352-1.128-0.528-1.689l0.232-0.449C211.993,14.771,213.237,18.728,214.022,21.167"/>
<path fill="#BD1718" d="M211.463,20.214l-0.079-0.041l-0.373-0.194c-0.035-0.111-0.073-0.224-0.111-0.344l0.454,0.235
	C211.39,19.99,211.428,20.102,211.463,20.214"/>
<path fill="#BD1718" d="M216.982,8.937c0.035,0.111,0.069,0.226,0.105,0.342l-0.442-0.23c-0.036-0.116-0.07-0.23-0.105-0.342
	L216.982,8.937z"/>
<path fill="#BD1718" d="M211.383,20.172l-0.295,0.134l-6.372-3.309c-1.233-0.641-1.718-2.169-1.077-3.404l3.692-7.109
	c0.567-1.092,1.822-1.596,2.959-1.255l-0.096,0.183l0.424,0.221c-1.109-0.576-2.486-0.14-3.062,0.968l-3.691,7.11
	c-0.575,1.106-0.139,2.485,0.968,3.06l2.321,1.205l1.148,0.597l0.454,0.237l2.254,1.169L211.383,20.172z"/>
<path fill="#BD1718" d="M211.354,19.87l-0.455-0.235c-0.396-1.224-0.949-2.982-1.746-5.51l0.232-0.449
	C210.146,16.091,210.847,18.31,211.354,19.87"/>
<path fill="#BD1718" d="M211.011,19.979l-2.254-1.17c-0.034-0.112-0.071-0.224-0.106-0.343l2.249,1.168
	C210.938,19.754,210.977,19.868,211.011,19.979"/>
<path fill="#BD1718" d="M216.54,8.708c0.035,0.111,0.069,0.226,0.106,0.341l-2.264-1.174c-0.036-0.116-0.07-0.231-0.105-0.341
	L216.54,8.708z"/>
<path fill="#BD1718" d="M208.758,18.81l-0.454-0.237c-0.036-0.111-0.073-0.228-0.116-0.346l0.461,0.24
	C208.685,18.584,208.723,18.697,208.758,18.81"/>
<path fill="#BD1718" d="M214.277,7.532c0.035,0.113,0.069,0.226,0.105,0.343l-0.442-0.23c-0.036-0.116-0.07-0.23-0.105-0.342
	l0.375,0.196L214.277,7.532z"/>
<path fill="#BD1718" d="M208.648,18.466l-0.461-0.24c-0.127-0.402-0.273-0.866-0.442-1.389l0.234-0.452
	C208.229,17.16,208.452,17.863,208.648,18.466"/>
<path fill="#BD1718" d="M214.328,7.272l-0.118,0.226l-0.375-0.195l-0.897-0.466l-2.319-1.205l-0.425-0.221l0.097-0.183
	c0.151,0.041,0.301,0.102,0.444,0.178L214.328,7.272z"/>
<path fill="#BD1718" d="M208.303,18.572l-1.148-0.596l0.117-0.228l0.917,0.478C208.23,18.344,208.268,18.461,208.303,18.572"/>
<path fill="#BD1718" d="M213.835,7.303c0.035,0.112,0.069,0.226,0.105,0.342l-1.12-0.582l0.117-0.226L213.835,7.303z"/>
<path fill="#BD1718" d="M207.271,17.75l-0.118,0.226l-2.32-1.205c-1.106-0.575-1.544-1.954-0.968-3.061l3.691-7.109
	c0.575-1.108,1.954-1.544,3.062-0.968l2.319,1.205l-0.117,0.225l-2.32-1.205c-0.986-0.512-2.205-0.126-2.718,0.861l-3.691,7.109
	c-0.513,0.986-0.127,2.205,0.859,2.718L207.271,17.75z"/>
<path fill="#BD1718" d="M207.316,18.489l-2.659-1.38c-1.297-0.673-1.804-2.276-1.131-3.574l3.692-7.111
	c0.673-1.297,2.277-1.803,3.574-1.13l2.658,1.38l-0.469,0.904l-2.659-1.382c-0.799-0.414-1.787-0.102-2.202,0.698l-3.692,7.109
	c-0.414,0.8-0.103,1.788,0.697,2.203l2.659,1.381L207.316,18.489z"/>
<path fill="#BD1718" d="M168.532,75.663l-7.108-3.692l44.419-85.546l7.08,3.676l-0.089,0.24L168.532,75.663z M162.109,71.755
	l6.207,3.224l43.949-84.645l-6.207-3.223L162.109,71.755z"/>
<rect x="193.984" y="30.32" transform="matrix(0.882 0.4712 -0.4712 0.882 37.7435 -89.6165)" fill="#BD1718" width="7.742" height="0.508"/>
<path fill="#BD1718" d="M181.84,69.41c-0.026-0.132-0.054-0.269,17.836-34.508l3.078-5.894l-1.947-1.01l4.792-9.23l-3.313-1.72
	l0.234-0.451l3.765,1.954l-4.792,9.23l1.948,1.012l-3.315,6.344c-4.105,7.859-17.524,33.56-17.793,34.295l-0.212-0.078L181.84,69.41
	z"/>
<path fill="#BD1718" d="M203.823,33.201l-2.337-1.214l0.234-0.451l2.337,1.213c0.186,0.097,0.381,0.166,0.581,0.207
	c1.053,0.237,2.133-0.267,2.63-1.223l3.997-7.699l-6.392-3.318l0.234-0.451l6.843,3.552l-4.231,8.15
	c-0.604,1.162-1.914,1.773-3.188,1.487C204.289,33.404,204.049,33.318,203.823,33.201"/>
<rect x="201.245" y="28.36" transform="matrix(0.8875 0.4607 -0.4607 0.8875 36.2349 -91.2197)" fill="#BD1718" width="7.456" height="0.508"/>
<rect x="196.49" y="31.391" transform="matrix(0.8874 0.461 -0.461 0.8874 44.4483 -85.2516)" fill="#BD1718" width="0.508" height="33.948"/>
<rect x="192.328" y="33.733" transform="matrix(0.8875 0.4608 -0.4608 0.8875 37.9254 -87.3747)" fill="#BD1718" width="11.174" height="0.508"/>
<rect x="252.021" y="36.932" transform="matrix(0.887 0.4617 -0.4617 0.887 45.8633 -112.2391)" fill="#BD1718" width="0.509" height="1.327"/>
<rect x="253.15" y="34.138" transform="matrix(0.8866 0.4625 -0.4625 0.8866 45.1184 -113.1913)" fill="#BD1718" width="0.508" height="2.563"/>
<rect x="254.483" y="31.744" transform="matrix(0.8878 0.4602 -0.4602 0.8878 43.7017 -113.5524)" fill="#BD1718" width="0.508" height="2.216"/>
<rect x="219.195" y="13.411" transform="matrix(0.8874 0.461 -0.461 0.8874 31.3595 -99.5325)" fill="#BD1718" width="0.51" height="2.047"/>
<rect x="217.976" y="13.733" transform="matrix(0.8882 0.4594 -0.4594 0.8882 32.1082 -98.3897)" fill="#BD1718" width="0.509" height="6.1"/>
<rect x="216.732" y="18.435" transform="matrix(0.8878 0.4602 -0.4602 0.8878 33.1733 -97.7121)" fill="#BD1718" width="0.508" height="1.489"/>
<path fill="#BD1718" d="M214.25-1.572l-0.677-0.352l0.139-0.267c0.237-0.456,0.06-1.019-0.396-1.255l-1.779-0.924l0.353-0.677
	l1.777,0.923c0.829,0.43,1.153,1.455,0.724,2.284L214.25-1.572z"/>
<path fill="#BD1718" d="M210.628,5.404l-0.677-0.352l3.798-7.315l2.793,1.45c1.048,0.545,1.457,1.843,0.911,2.891l-2.787,5.37
	l-0.676-0.352l2.787-5.368c0.351-0.677,0.088-1.513-0.587-1.863l-2.116-1.099L210.628,5.404z"/>
<rect x="218.079" y="21.341" transform="matrix(0.8875 0.4608 -0.4608 0.8875 36.827 -107.3969)" fill="#BD1718" width="40.565" height="0.763"/>
<rect x="213.681" y="29.833" transform="matrix(0.8875 0.4608 -0.4608 0.8875 40.2464 -104.4155)" fill="#BD1718" width="40.555" height="0.762"/>
<polygon fill="#BD1718" points="208.113,16.128 205.031,14.528 208.895,7.089 211.977,8.688 211.625,9.365 209.22,8.116 
	206.061,14.203 208.464,15.451 "/>
<path fill="#BD1718" d="M168.531,75.595l-7.08-3.678l0.089-0.24l44.303-85.32l7.108,3.69L168.531,75.595z M162.108,71.687
	l6.207,3.223l43.95-84.644l-6.206-3.224L162.108,71.687z"/>
<path fill="#BD1718" d="M123.987,164.988l-9.999-5.192L203.35-12.307l9.999,5.192L123.987,164.988z M114.673,159.578l9.097,4.725
	L212.664-6.898l-9.097-4.723L114.673,159.578z"/>
<path fill="#BD1718" d="M123.985,164.919l-9.97-5.178l0.088-0.24L203.35-12.375l9.999,5.191L123.985,164.919z M114.672,159.509
	l9.096,4.724l88.895-171.2l-9.096-4.723L114.672,159.509z"/>
<path fill="#BD1718" d="M189.239,3.174l-0.235,0.452c-0.238-0.762-0.501-1.602-0.796-2.531l0.453,0.235
	C188.855,1.957,189.049,2.574,189.239,3.174"/>
<path fill="#BD1718" d="M190.65,0.455l-0.231,0.447c-0.897-2.858-1.765-5.66-2.359-7.573l0.442,0.23
	C189.131-4.41,189.892-1.974,190.65,0.455"/>
<path fill="#BD1718" d="M192.067-2.275l-0.232,0.449c-0.407-1.302-0.771-2.482-1.07-3.44l0.445,0.231
	C191.476-4.179,191.766-3.248,192.067-2.275"/>
<path fill="#BD1718" d="M185.934,6.957l-0.452-0.234c-0.416-1.239-1.189-3.664-2.687-8.438l0.449,0.232
	C184.391,2.176,185.44,5.492,185.934,6.957"/>
<path fill="#BD1718" d="M183.225,5.55l-0.452-0.235c-0.363-1.074-0.992-3.053-2.137-6.693l0.233-0.449
	C181.885,1.399,182.783,4.23,183.225,5.55"/>
<path fill="#BD1718" d="M187.834,5.878L187.6,6.331c-0.512-1.591-1.271-4.003-2.418-7.664c-0.596-1.918-1.193-3.833-1.714-5.5
	l0.233-0.449c0.716,2.303,1.525,4.892,2.288,7.329C186.672,2.224,187.321,4.275,187.834,5.878"/>
<path fill="#BD1718" d="M185.797-7.847c0.83,2.673,1.882,6.049,2.863,9.177l-0.451-0.235c-0.102-0.327-0.209-0.67-0.318-1.021
	c-0.956-3.054-1.904-6.108-2.54-8.152L185.797-7.847z"/>
<path fill="#BD1718" d="M180.52,4.146l-0.452-0.234c-0.193-0.569-0.458-1.391-0.839-2.578l0.234-0.452
	C179.913,2.292,180.281,3.437,180.52,4.146"/>
<path fill="#BD1718" d="M182.283-4.552c0.323,1.029,0.647,2.062,0.96,3.069l-0.447-0.232c-0.104-0.332-0.21-0.671-0.318-1.023
	c-0.142-0.456-0.286-0.911-0.427-1.364L182.283-4.552z"/>
<rect x="136.059" y="-22.738" transform="matrix(0.8875 0.4608 -0.4608 0.8875 5.6529 -68.2746)" fill="#BD1718" width="13.181" height="0.356"/>
<rect x="149.947" y="-18.27" transform="matrix(0.8875 0.4607 -0.4607 0.8875 8.6744 -71.7219)" fill="#BD1718" width="2.622" height="0.356"/>
<rect x="152.773" y="-10.192" transform="matrix(0.8875 0.4609 -0.4609 0.8875 14.1558 -78.0042)" fill="#BD1718" width="28.075" height="0.354"/>
<rect x="181.418" y="-2.23" transform="matrix(0.8878 0.4603 -0.4603 0.8878 19.497 -84.069)" fill="#BD1718" width="1.46" height="0.356"/>
<rect x="183.207" y="-1.509" transform="matrix(0.8872 0.4614 -0.4614 0.8872 20.0922 -84.8375)" fill="#BD1718" width="0.657" height="0.356"/>
<rect x="185.982" y="0.374" transform="matrix(0.8874 0.4611 -0.4611 0.8874 21.3354 -86.2319)" fill="#BD1718" width="2.36" height="0.355"/>
<rect x="187.243" y="6.961" transform="matrix(0.8875 0.4608 -0.4608 0.8875 25.7761 -91.295)" fill="#BD1718" width="25.206" height="0.354"/>
<rect x="212.475" y="14.199" transform="matrix(0.8876 0.4607 -0.4607 0.8876 30.6634 -96.8766)" fill="#BD1718" width="2.624" height="0.356"/>
<rect x="214.668" y="21.944" transform="matrix(0.8875 0.4608 -0.4608 0.8875 35.9239 -102.901)" fill="#BD1718" width="28.074" height="0.357"/>
<rect x="242.607" y="29.844" transform="matrix(0.8874 0.461 -0.461 0.8874 41.3057 -109.0664)" fill="#BD1718" width="2.625" height="0.356"/>
<rect x="245.842" y="35.395" transform="matrix(0.8875 0.4608 -0.4608 0.8875 45.0374 -113.3262)" fill="#BD1718" width="17.539" height="0.357"/>
<rect x="173.025" y="23.641" transform="matrix(0.8875 0.4608 -0.4608 0.8875 31.1079 -79.6214)" fill="#BD1718" width="11.171" height="0.509"/>
<path fill="#BD1718" d="M158.883,57.42l-0.205-0.464l0.103,0.232l-0.198-0.158c0.352-0.505,9.48-18.128,17.813-34.285
	c0.646-1.245,1.216-2.35,1.687-3.265c0.928-1.794,1.481-2.869,1.481-2.869l0.117-0.226l1.947,1.011l4.793-9.228l4.672,2.425
	l-8.091,15.581l-0.451-0.235l7.855-15.129l-3.768-1.958l-4.793,9.23l-1.947-1.011c-0.208,0.404-0.687,1.331-1.364,2.641
	c-0.471,0.916-1.041,2.022-1.688,3.266C159.145,57.304,158.993,57.372,158.883,57.42"/>
<path fill="#BD1718" d="M184.352,23.021l-8.494-4.411c-0.229-0.118-0.437-0.265-0.619-0.438c-0.965-0.875-1.22-2.299-0.616-3.459
	l4.23-8.152l6.843,3.553l-0.234,0.452l-6.391-3.319l-3.998,7.7c-0.496,0.956-0.285,2.128,0.512,2.852
	c0.15,0.143,0.32,0.263,0.508,0.36l8.494,4.41L184.352,23.021z"/>
<rect x="175.216" y="14.774" transform="matrix(0.8875 0.4607 -0.4607 0.8875 27.0482 -80.7548)" fill="#BD1718" width="7.456" height="0.509"/>
<rect x="167.271" y="16.149" transform="matrix(0.887 0.4617 -0.4617 0.887 34.2228 -73.6116)" fill="#BD1718" width="0.509" height="33.949"/>
<path fill="#BD1718" d="M198.308-10.728l-0.451-0.236l0.138-0.266c0.399-0.767,1.346-1.067,2.109-0.671l2.588,1.344l-0.233,0.452
	l-2.589-1.344c-0.516-0.268-1.153-0.065-1.424,0.453L198.308-10.728z"/>
<path fill="#BD1718" d="M194.59-3.567l-0.451-0.236l3.6-6.934l-2.227-1.157c-0.74-0.384-1.653-0.094-2.037,0.644l-2.905,5.595
	l-0.451-0.234l2.906-5.595c0.512-0.988,1.733-1.374,2.721-0.861l2.68,1.391L194.59-3.567z"/>
<rect x="180.858" y="6.997" transform="matrix(0.191 0.9816 -0.9816 0.191 154.8469 -173.3875)" fill="#BD1718" width="3.517" height="0.508"/>
<rect x="182.19" y="7.197" transform="matrix(0.8875 0.4608 -0.4608 0.8875 24.1833 -84.1663)" fill="#BD1718" width="4.597" height="0.508"/>
<polygon fill="#BD1718" points="187.207,8.191 177.666,3.236 178.321,1.978 178.772,2.211 178.352,3.021 186.99,7.505 
	191.738,-1.638 192.189,-1.404 "/>
<polygon fill="#BD1718" points="182.776,-5.499 182.325,-5.733 184.161,-9.27 193.475,-4.433 193.241,-3.982 184.377,-8.583 "/>
<path fill="#BD1718" d="M194.016-0.169l-2.396-1.244l1.63-3.136l2.395,1.243L194.016-0.169z M192.306-1.63l1.494,0.775l1.16-2.234
	l-1.493-0.776L192.306-1.63z"/>
<polygon fill="#BD1718" points="179.836,0.163 148.024,-16.356 148.258,-16.809 179.619,-0.524 182.324,-5.734 182.776,-5.5 "/>
<path fill="#BD1718" d="M182.6-5.161l-31.884-16.556l1.051-2.023L183.65-7.185L182.6-5.161z M151.744-22.042l30.53,15.853
	l0.349-0.671l-30.531-15.852L151.744-22.042z"/>
<path fill="#BD1718" d="M178.597,2.55L142.03-16.436l1.095-2.108l2.796,1.451c0.654,0.34,1.398,0.393,2.096,0.151
	c0.649-0.223,1.18-0.68,1.496-1.289l1.856-3.576l0.677,0.352l-1.857,3.576c-0.406,0.783-1.089,1.372-1.925,1.657
	c-0.895,0.312-1.852,0.243-2.694-0.195l-2.118-1.099l-0.392,0.755l35.212,18.284l1.006-1.938l0.676,0.351L178.597,2.55z"/>
<rect x="196.051" y="-12.059" transform="matrix(0.8882 0.4594 -0.4594 0.8882 21.946 -90.1922)" fill="#BD1718" width="0.509" height="24.117"/>
<rect x="194.365" y="-12.205" transform="matrix(0.3043 0.9526 -0.9526 0.3043 126.6725 -191.655)" fill="#BD1718" width="0.356" height="6.195"/>
<path fill="#BD1718" d="M149.868-19.224c0.074,0.243,0.148,0.476,0.222,0.709l0.086-0.166l0.146-0.282
	c-0.739-2.366-1.503-4.81-2.165-6.944l-0.443-0.23C148.315-24.197,149.09-21.711,149.868-19.224"/>
<path fill="#BD1718" d="M151.506-21.242l0.201-0.389l-0.386-0.201C151.383-21.637,151.443-21.44,151.506-21.242"/>
<path fill="#BD1718" d="M139.563-24.371c-0.017,0.03-0.035,0.056-0.05,0.086c-0.066,0.127-0.121,0.257-0.176,0.387
	c0.961,3.07,1.624,5.175,2.089,6.621c0.153,0.114,0.314,0.222,0.481,0.324C141.304-18.832,140.452-21.532,139.563-24.371"/>
<path fill="#BD1718" d="M151.278-21.973l0.232-0.448c-0.223-0.714-0.439-1.414-0.646-2.081l-0.444-0.23
	C150.678-23.898,150.969-22.964,151.278-21.973"/>
<path fill="#BD1718" d="M141.748-23.44c0.718,2.293,1.282,4.091,1.729,5.508l0.451,0.235c-0.777-2.45-1.745-5.537-2.667-8.494
	c-0.104,0.068-0.207,0.138-0.307,0.212C141.215-25.146,141.48-24.294,141.748-23.44"/>
<path fill="#BD1718" d="M147.16-20.63c0.477,1.522,0.886,2.826,1.238,3.946c0.11-0.05,0.217-0.107,0.321-0.17
	c-1-3.175-2.177-6.946-3.159-10.105c-0.131-0.025-0.261-0.045-0.391-0.062C145.744-25.168,146.451-22.899,147.16-20.63"/>
<path fill="#BD1718" d="M144.454-22.035c0.709,2.265,1.269,4.048,1.714,5.457c0.137,0.046,0.273,0.083,0.411,0.11
	c-0.965-3.046-2.209-7.024-3.295-10.513c-0.117,0.022-0.233,0.047-0.349,0.075C143.405-25.394,143.93-23.715,144.454-22.035"/>
<polygon fill="#BD1718" points="190.545,1.254 190.313,1.699 196.454,-0.243 196.685,-0.69 "/>
<polygon fill="#BD1718" points="189.139,3.96 188.907,4.407 195.048,2.463 195.28,2.016 "/>
<polygon fill="#BD1718" points="194.904,-2.388 194.672,-1.941 197.859,-2.95 198.09,-3.396 "/>
<polygon fill="#BD1718" points="194.883,-4.643 194.65,-4.196 199.264,-5.656 199.495,-6.103 "/>
<polygon fill="#BD1718" points="184.777,7.601 185.224,7.833 186.37,7.472 185.923,7.239 "/>
<polygon fill="#BD1718" points="183.217,5.834 182.405,6.091 182.465,6.402 182.517,6.428 183.664,6.067 "/>
<polygon fill="#BD1718" points="192.038,-1.481 191.949,-1.454 191.719,-1.007 192.484,-1.25 "/>
<polygon fill="#BD1718" points="193.874,4.723 187.733,6.666 187.501,7.113 193.644,5.17 "/>
<path fill="#BD1718" d="M188.02,15.999l0.231-0.446l-6.411,2.028l-0.087,0.169l-0.167-0.088l-2.699,0.854
	c-0.072,0.142-0.148,0.289-0.229,0.447L188.02,15.999z"/>
<polygon fill="#BD1718" points="186.614,18.706 186.846,18.259 179.94,20.443 180.387,20.676 "/>
<polygon fill="#BD1718" points="189.425,13.292 189.655,12.847 183.246,14.875 183.014,15.323 "/>
<polygon fill="#BD1718" points="185.209,21.413 185.44,20.966 182.646,21.85 183.093,22.082 "/>
<polygon fill="#BD1718" points="197.694,-10.056 197.646,-9.965 197.462,-9.609 201.5,-10.888 201.055,-11.12 "/>
<polygon fill="#BD1718" points="189.405,11.037 189.404,11.035 190.831,10.582 191.063,10.135 188.601,10.915 188.602,10.919 
	184.65,12.169 184.419,12.616 "/>
<polygon fill="#BD1718" points="196.288,-7.349 196.057,-6.904 200.669,-8.362 200.901,-8.809 "/>
<polygon fill="#BD1718" points="186.698,9.629 192.237,7.875 192.469,7.429 186.058,9.458 185.823,9.909 186.699,9.631 "/>
<rect x="209.664" y="6.132" transform="matrix(0.8871 0.4615 -0.4615 0.8871 29.4309 -95.5346)" fill="#BD1718" width="0.763" height="12.551"/>
<rect x="200.92" y="16.206" transform="matrix(0.8874 0.4611 -0.4611 0.8874 30.3109 -91.1499)" fill="#BD1718" width="1.57" height="0.509"/>
<rect x="153.264" y="63.373" transform="matrix(0.3017 0.9534 -0.9534 0.3017 171.8791 -107.5576)" fill="#BD1718" width="12.195" height="0.356"/>
<rect x="152.23" y="77.178" transform="matrix(0.3016 0.9534 -0.9534 0.3016 181.3836 -92.9035)" fill="#BD1718" width="3.75" height="0.355"/>
<rect x="142.164" y="89.497" transform="matrix(0.3018 0.9534 -0.9534 0.3018 186.284 -75.0018)" fill="#BD1718" width="4.363" height="0.356"/>
<rect x="66.973" y="255.475" transform="matrix(0.3009 0.9536 -0.9536 0.3009 295.2876 118.0104)" fill="#BD1718" width="0.355" height="9.884"/>
<rect x="127.398" y="92.935" transform="matrix(0.3016 0.9534 -0.9534 0.3016 180.9365 -60.7878)" fill="#BD1718" width="9.127" height="0.355"/>
<rect x="114.002" y="93.935" transform="matrix(0.3018 0.9534 -0.9534 0.3018 172.5551 -47.3814)" fill="#BD1718" width="9.246" height="0.356"/>
<rect x="96.718" y="93.738" transform="matrix(0.3016 0.9534 -0.9534 0.3016 162.9016 -34.5663)" fill="#BD1718" width="16.656" height="0.355"/>
<rect x="91.757" y="97.898" transform="matrix(0.3009 0.9536 -0.9536 0.3009 162.4687 -15.6872)" fill="#BD1718" width="0.355" height="10.152"/>
<rect x="105.252" y="103.086" transform="matrix(0.2973 0.9548 -0.9548 0.2973 181.3348 -21.7311)" fill="#BD1718" width="0.356" height="18.472"/>
<rect x="100.71" y="122.419" transform="matrix(0.3009 0.9536 -0.9536 0.3009 192.1241 -7.0744)" fill="#BD1718" width="0.355" height="10.179"/>
<rect x="92.681" y="138.756" transform="matrix(0.3109 0.9504 -0.9504 0.3109 200.4072 10.6502)" fill="#BD1718" width="0.357" height="9.545"/>
<rect x="65.374" y="144.966" transform="matrix(0.3026 0.9531 -0.9531 0.3026 190.3472 43.3456)" fill="#BD1718" width="0.357" height="13.566"/>
<rect x="53.921" y="131.793" transform="matrix(0.3034 0.9529 -0.9529 0.3034 172.8093 47.2333)" fill="#BD1718" width="0.356" height="20.037"/>
<rect x="64.103" y="115.979" transform="matrix(0.3059 0.9521 -0.9521 0.3059 163.1449 25.2116)" fill="#BD1718" width="0.356" height="17.037"/>
<rect x="82.229" y="153.718" transform="matrix(0.3039 0.9527 -0.9527 0.3039 210.2763 33.2181)" fill="#BD1718" width="0.357" height="13.566"/>
<rect x="118.049" y="116.93" transform="matrix(0.888 0.4599 -0.4599 0.888 79.1113 -38.3616)" fill="#BD1718" width="0.508" height="52.569"/>
<rect x="116.519" y="116.165" transform="matrix(0.8874 0.461 -0.461 0.8874 78.9189 -37.7673)" fill="#BD1718" width="0.508" height="53.017"/>
<path fill="#BD1718" d="M184.521,23.25l-6.725-3.491l0.171-0.339c0.928-1.793,1.482-2.866,1.482-2.866l0.175-0.341l1.948,1.013
	l4.441-8.554l-3.749-1.929l-0.496-1.949l5.09,2.687l4.941-9.516l1.944,1.009l1.043-2.009l-0.938-0.488l3.965-7.637
	c0.431-0.828,1.454-1.153,2.279-0.724l2.054,1.066L184.521,23.25z M178.821,19.434l5.485,2.847l16.974-32.69l-1.536-0.797
	c-0.454-0.236-1.016-0.056-1.253,0.398l-3.613,6.962l0.938,0.486l-1.746,3.363l-1.944-1.009l-4.865,9.369l-4.69-2.436l0.131,0.378
	l4.255,2.209l-5.058,9.74l-1.946-1.011C179.742,17.648,179.353,18.404,178.821,19.434"/>
<path fill="#BD1718" d="M211.705,24.292l-4.739-2.462l2.814-0.89l-3.955-2.054l-5.247-2.576L212.752-7.14l0.451,0.235
	l-11.935,22.986l4.784,2.351l5.052,2.622l-1.128,0.357l2.536,1.325L211.705,24.292z M208.29,21.944l3.198,1.661l0.34-0.654
	l-2.536-1.324L208.29,21.944z"/>
<path fill="#BD1718" d="M201.299,32.841l-7.095-3.684l0.585-1.127l1.199-0.415l5.497-10.698l-0.738-0.383l0.351-0.678l5.3,2.753
	l-4.799,9.243l1.804,0.937L201.299,32.841z M195.231,28.831l5.742,2.982l1.4-2.699l-1.804-0.938l4.801-9.243l-3.209-1.664
	l-5.641,10.976l-1.214,0.44L195.231,28.831z"/>
<path fill="#BD1718" d="M189.847,83.621l-6.55-3.401l5.232-10.078l6.551,3.401L189.847,83.621z M184.288,79.896l5.254,2.728
	l4.548-8.755l-5.256-2.728L184.288,79.896z"/>
<path fill="#BD1718" d="M149.152,62.491l-6.552-3.402l5.232-10.079l6.552,3.402L149.152,62.491z M143.593,58.764l5.254,2.728
	l4.547-8.755l-5.255-2.729L143.593,58.764z"/>
<rect x="76.045" y="229.425" transform="matrix(0.8877 0.4605 -0.4605 0.8877 121.1661 -7.7297)" fill="#BD1718" width="0.761" height="30.094"/>
<rect x="101.412" y="105.675" transform="matrix(0.8874 0.461 -0.461 0.8874 73.071 -31.8778)" fill="#BD1718" width="0.763" height="55.943"/>
</svg>
