<?xml version="1.0" encoding="utf-8"?>
<!-- Generator: Adobe Illustrator 16.0.1, SVG Export Plug-In . SVG Version: 6.00 Build 0)  -->
<!DOCTYPE svg PUBLIC "-//W3C//DTD SVG 1.1//EN" "http://www.w3.org/Graphics/SVG/1.1/DTD/svg11.dtd">
<svg version="1.1" id="Слой_1" xmlns="http://www.w3.org/2000/svg" xmlns:xlink="http://www.w3.org/1999/xlink" x="0px" y="0px"
	 width="49px" height="64px" viewBox="0 0 49 64" enable-background="new 0 0 49 64" xml:space="preserve">
<g>
	<defs>
		<rect id="SVGID_1_" width="49" height="64"/>
	</defs>
	<clipPath id="SVGID_2_">
		<use xlink:href="#SVGID_1_"  overflow="visible"/>
	</clipPath>
	<path clip-path="url(#SVGID_2_)" fill="#BD1C18" d="M49,16.842v42.105C49,61.738,46.73,64,43.931,64H5.069
		C2.269,64,0,61.738,0,58.947V5.053C0,2.262,2.269,0,5.069,0h27.034L49,16.842z"/>
	<path clip-path="url(#SVGID_2_)" fill="#FFFFFF" d="M36.395,37.681c-0.283-0.136-0.649-0.203-1.098-0.203
		c-0.798,0-1.367,0.244-1.706,0.732s-0.508,1.246-0.508,2.271c0,1.025,0.174,1.774,0.522,2.248c0.348,0.474,0.941,0.71,1.782,0.71
		c0.363,0,0.696-0.051,0.998-0.153c0.304-0.103,0.59-0.329,0.862-0.679l1.77,1.239c-0.362,0.537-0.841,0.944-1.434,1.221
		c-0.593,0.277-1.343,0.416-2.25,0.416c-1.537,0-2.699-0.417-3.485-1.253c-0.787-0.835-1.18-2.073-1.18-3.713
		c0-1.598,0.381-2.843,1.143-3.736c0.764-0.892,1.906-1.339,3.432-1.339c0.816,0,1.544,0.133,2.182,0.398
		c0.64,0.266,1.124,0.676,1.457,1.229l-1.742,1.24C36.928,38.025,36.68,37.816,36.395,37.681 M24.443,45.482
		c-3.049,0-4.574-1.667-4.574-5.002c0-1.604,0.366-2.845,1.098-3.723c0.732-0.877,1.891-1.316,3.477-1.316
		c1.572,0,2.726,0.439,3.458,1.316c0.731,0.878,1.098,2.119,1.098,3.723c0,1.58-0.366,2.81-1.098,3.687
		C27.169,45.045,26.016,45.482,24.443,45.482 M26.086,38.196c-0.327-0.479-0.874-0.719-1.643-0.719
		c-0.762,0-1.313,0.245-1.651,0.737c-0.339,0.491-0.509,1.247-0.509,2.266c0,1.014,0.168,1.759,0.504,2.239
		c0.336,0.479,0.888,0.719,1.656,0.719c0.756,0,1.301-0.236,1.634-0.71c0.332-0.474,0.499-1.223,0.499-2.248
		C26.576,39.438,26.413,38.676,26.086,38.196 M15.559,44.279c-0.436,0.368-0.896,0.661-1.38,0.878
		c-0.484,0.218-1.035,0.325-1.652,0.325c-1.198,0-2.114-0.431-2.749-1.293c-0.636-0.862-0.953-2.081-0.953-3.654
		c0-1.61,0.349-2.861,1.048-3.755c0.699-0.892,1.68-1.339,2.945-1.339c0.447,0,0.907,0.093,1.379,0.276
		c0.472,0.184,0.862,0.418,1.171,0.701v-4.686h2.341v13.47h-2.15V44.279z M15.368,38.346c-0.248-0.223-0.555-0.421-0.921-0.593
		c-0.366-0.171-0.74-0.257-1.121-0.257c-0.629,0-1.134,0.27-1.516,0.809c-0.381,0.54-0.571,1.271-0.571,2.194
		c0,0.911,0.155,1.625,0.467,2.144c0.312,0.52,0.794,0.778,1.448,0.778c0.387,0,0.781-0.089,1.184-0.268
		c0.402-0.178,0.745-0.396,1.03-0.655V38.346z"/>
	<path clip-path="url(#SVGID_2_)" fill="#FFFFFF" d="M46.125,18.191v2.096H32.312c-2.859,0-4.179-2.32-4.179-5.181V2.292h2.092
		L46.125,18.191z"/>
</g>
</svg>
