<?xml version="1.0" encoding="utf-8"?>
<!-- Generator: Adobe Illustrator 16.0.1, SVG Export Plug-In . SVG Version: 6.00 Build 0)  -->
<!DOCTYPE svg PUBLIC "-//W3C//DTD SVG 1.1//EN" "http://www.w3.org/Graphics/SVG/1.1/DTD/svg11.dtd">
<svg version="1.1" id="Слой_1" xmlns="http://www.w3.org/2000/svg" xmlns:xlink="http://www.w3.org/1999/xlink" x="0px" y="0px"
	 width="49.584px" height="62.899px" viewBox="0 0 49.584 62.899" enable-background="new 0 0 49.584 62.899" xml:space="preserve">
<g>
	<defs>
		<rect id="SVGID_1_" y="0" width="49.584" height="62.9"/>
	</defs>
	<clipPath id="SVGID_2_">
		<use xlink:href="#SVGID_1_"  overflow="visible"/>
	</clipPath>
	<path clip-path="url(#SVGID_2_)" fill="#FFFFFF" d="M44.208,40.226v-0.303c0-2.75-2.25-5-4.999-5c-2.75,0-5,2.25-5,5v0.303
		c0,1.502,0.686,2.838,1.742,3.757h-7.118v8.722h15.375v-8.722h-1.741C43.523,43.063,44.208,41.728,44.208,40.226"/>
	<polyline clip-path="url(#SVGID_2_)" fill="#FFFFFF" points="35.71,57.709 0.708,57.709 0.708,0.708 39.209,0.708 39.209,32.263 	
		"/>
	<polyline clip-path="url(#SVGID_2_)" fill="none" stroke="#000000" stroke-width="1.417" stroke-miterlimit="10" points="
		35.71,57.709 0.708,57.709 0.708,0.708 39.209,0.708 39.209,32.263 	"/>
	<path clip-path="url(#SVGID_2_)" fill="#BD1B18" d="M48.379,38.343c-0.325-0.289-0.692-0.616-0.773-0.866
		c-0.09-0.271,0.014-0.749,0.112-1.211c0.156-0.724,0.332-1.545-0.114-2.159c-0.453-0.621-1.293-0.706-2.034-0.781
		c-0.443-0.045-0.947-0.096-1.172-0.26c-0.221-0.16-0.421-0.619-0.6-1.023c-0.301-0.688-0.643-1.466-1.383-1.706
		c-0.136-0.045-0.281-0.067-0.43-0.067c-0.566,0-1.11,0.316-1.636,0.621c-0.414,0.241-0.844,0.49-1.141,0.49
		c-0.298,0-0.726-0.249-1.141-0.49c-0.525-0.305-1.069-0.621-1.636-0.621c-0.149,0-0.294,0.022-0.43,0.067
		c-0.74,0.24-1.082,1.018-1.384,1.706c-0.177,0.404-0.378,0.863-0.598,1.023c-0.226,0.164-0.729,0.215-1.174,0.26
		c-0.74,0.075-1.58,0.16-2.032,0.781c-0.448,0.614-0.271,1.436-0.116,2.159c0.1,0.462,0.202,0.94,0.113,1.211
		c-0.08,0.25-0.448,0.577-0.773,0.866c-0.565,0.503-1.205,1.072-1.205,1.862c0,0.791,0.64,1.361,1.205,1.863
		c0.325,0.289,0.693,0.616,0.774,0.865c0.088,0.272-0.015,0.75-0.114,1.211c-0.155,0.725-0.332,1.545,0.116,2.16
		c0.452,0.621,1.292,0.706,2.032,0.782c0.444,0.045,0.948,0.096,1.174,0.26c0.22,0.159,0.421,0.618,0.598,1.023
		c0.302,0.687,0.644,1.465,1.384,1.705c0.136,0.045,0.281,0.066,0.43,0.066c0.566,0,1.11-0.314,1.636-0.62
		c0.415-0.24,0.843-0.489,1.141-0.489c0.297,0,0.727,0.248,1.141,0.489c0.525,0.306,1.069,0.62,1.636,0.62
		c0.148,0,0.294-0.022,0.431-0.066c0.739-0.24,1.081-1.02,1.382-1.705c0.179-0.405,0.379-0.864,0.6-1.023
		c0.225-0.164,0.729-0.215,1.172-0.26c0.741-0.076,1.581-0.161,2.034-0.782c0.446-0.614,0.271-1.436,0.114-2.16
		c-0.099-0.461-0.202-0.938-0.112-1.211c0.081-0.249,0.448-0.576,0.773-0.865c0.565-0.502,1.205-1.072,1.205-1.863
		C49.584,39.415,48.944,38.846,48.379,38.343 M39.209,43.982c-2.086,0-3.777-1.691-3.777-3.777c0-2.085,1.691-3.775,3.777-3.775
		c2.085,0,3.776,1.69,3.776,3.775C42.985,42.291,41.294,43.982,39.209,43.982"/>
	<path clip-path="url(#SVGID_2_)" d="M40.459,40.206c0,0.689-0.561,1.25-1.25,1.25c-0.691,0-1.25-0.561-1.25-1.25
		c0-0.69,0.559-1.25,1.25-1.25C39.898,38.956,40.459,39.516,40.459,40.206"/>
	
		<line clip-path="url(#SVGID_2_)" fill="none" stroke="#000000" stroke-width="1.417" stroke-linecap="round" stroke-miterlimit="10" x1="7.292" y1="9.096" x2="25.588" y2="9.096"/>
	
		<line clip-path="url(#SVGID_2_)" fill="none" stroke="#000000" stroke-width="1.417" stroke-linecap="round" stroke-miterlimit="10" x1="7.292" y1="15.305" x2="32.625" y2="15.305"/>
	
		<line clip-path="url(#SVGID_2_)" fill="none" stroke="#000000" stroke-width="1.417" stroke-linecap="round" stroke-miterlimit="10" x1="7.292" y1="19.624" x2="32.625" y2="19.624"/>
	
		<line clip-path="url(#SVGID_2_)" fill="none" stroke="#000000" stroke-width="1.417" stroke-linecap="round" stroke-miterlimit="10" x1="7.292" y1="23.942" x2="32.625" y2="23.942"/>
	
		<line clip-path="url(#SVGID_2_)" fill="none" stroke="#000000" stroke-width="1.417" stroke-linecap="round" stroke-miterlimit="10" x1="7.292" y1="28.261" x2="32.625" y2="28.261"/>
	<path clip-path="url(#SVGID_2_)" fill="#BD1B18" d="M42.701,51.035c-0.241,0.079-0.498,0.119-0.76,0.119
		c-0.851,0-1.575-0.421-2.156-0.758c-0.165-0.098-0.422-0.246-0.575-0.313c-0.155,0.067-0.411,0.217-0.576,0.313
		c-0.582,0.337-1.308,0.758-2.157,0.758c-0.262,0-0.517-0.04-0.761-0.119c-0.719-0.233-1.178-0.723-1.506-1.25v12.526
		c0,0.232,0.138,0.443,0.352,0.538c0.214,0.094,0.463,0.053,0.634-0.105l4.015-3.689l4.013,3.689
		c0.109,0.103,0.253,0.155,0.397,0.155c0.08,0,0.16-0.017,0.236-0.05c0.214-0.094,0.353-0.306,0.353-0.538V49.78
		C43.88,50.306,43.414,50.805,42.701,51.035"/>
</g>
</svg>
