<?xml version="1.0" encoding="utf-8"?>
<!-- Generator: Adobe Illustrator 16.0.1, SVG Export Plug-In . SVG Version: 6.00 Build 0)  -->
<!DOCTYPE svg PUBLIC "-//W3C//DTD SVG 1.1//EN" "http://www.w3.org/Graphics/SVG/1.1/DTD/svg11.dtd">
<svg version="1.1" id="Слой_1" xmlns="http://www.w3.org/2000/svg" xmlns:xlink="http://www.w3.org/1999/xlink" x="0px" y="0px"
	 width="67.884px" height="64.397px" viewBox="0 0 67.884 64.397" enable-background="new 0 0 67.884 64.397" xml:space="preserve">
<g>
	<defs>
		<rect id="SVGID_1_" width="67.884" height="64.397"/>
	</defs>
	<clipPath id="SVGID_2_">
		<use xlink:href="#SVGID_1_"  overflow="visible"/>
	</clipPath>
	<path clip-path="url(#SVGID_2_)" fill="#FFFFFF" d="M62.25,5.722c0,2.769-2.245,5.014-5.015,5.014
		c-2.769,0-5.014-2.245-5.014-5.014c0-2.769,2.245-5.014,5.014-5.014C60.005,0.708,62.25,2.954,62.25,5.722"/>
	
		<circle clip-path="url(#SVGID_2_)" fill="none" stroke="#000000" stroke-width="1.417" stroke-miterlimit="10" cx="57.236" cy="5.722" r="5.014"/>
	<rect x="47.297" y="13.271" clip-path="url(#SVGID_2_)" fill="#FFFFFF" width="19.878" height="29.894"/>
	
		<rect x="47.297" y="13.271" clip-path="url(#SVGID_2_)" fill="none" stroke="#000000" stroke-width="1.417" stroke-miterlimit="10" width="19.878" height="29.894"/>
	<rect x="20.587" y="23.519" clip-path="url(#SVGID_2_)" fill="#FFFFFF" width="26.71" height="40.169"/>
	
		<rect x="20.587" y="23.519" clip-path="url(#SVGID_2_)" fill="none" stroke="#000000" stroke-width="1.417" stroke-miterlimit="10" width="26.71" height="40.169"/>
	
		<circle clip-path="url(#SVGID_2_)" fill="none" stroke="#000000" stroke-width="1.417" stroke-miterlimit="10" cx="33.942" cy="13.377" r="6.737"/>
	<path clip-path="url(#SVGID_2_)" fill="#FFFFFF" d="M40.679,13.377c0,3.721-3.016,6.737-6.736,6.737
		c-3.722,0-6.737-3.016-6.737-6.737c0-3.721,3.016-6.737,6.737-6.737C37.663,6.64,40.679,9.656,40.679,13.377"/>
	
		<circle clip-path="url(#SVGID_2_)" fill="none" stroke="#000000" stroke-width="1.417" stroke-miterlimit="10" cx="33.942" cy="13.377" r="6.737"/>
	<polygon clip-path="url(#SVGID_2_)" fill="#BD1B18" points="37.677,23.502 33.941,29.971 30.207,23.502 	"/>
	<polygon clip-path="url(#SVGID_2_)" fill="#BD1B18" points="37.272,54.554 33.941,57.171 30.611,54.554 32.277,39.99 
		33.941,25.426 35.607,39.99 	"/>
	
		<rect x="20.587" y="23.519" clip-path="url(#SVGID_2_)" fill="none" stroke="#000000" stroke-width="1.417" stroke-miterlimit="10" width="26.71" height="40.169"/>
	<rect x="0.709" y="13.271" clip-path="url(#SVGID_2_)" fill="#FFFFFF" width="19.878" height="29.894"/>
	
		<rect x="0.709" y="13.271" clip-path="url(#SVGID_2_)" fill="none" stroke="#000000" stroke-width="1.417" stroke-miterlimit="10" width="19.878" height="29.894"/>
	<path clip-path="url(#SVGID_2_)" fill="#FFFFFF" d="M15.662,5.722c0,2.769-2.245,5.014-5.014,5.014S5.633,8.491,5.633,5.722
		c0-2.769,2.245-5.014,5.014-5.014S15.662,2.954,15.662,5.722"/>
	
		<circle clip-path="url(#SVGID_2_)" fill="none" stroke="#000000" stroke-width="1.417" stroke-miterlimit="10" cx="10.647" cy="5.722" r="5.014"/>
	<polygon clip-path="url(#SVGID_2_)" fill="#BD1B18" points="13.427,13.258 10.648,18.072 7.868,13.258 	"/>
	<polygon clip-path="url(#SVGID_2_)" fill="#BD1B18" points="13.126,36.367 10.647,38.314 8.168,36.367 9.409,25.528 10.647,14.69 
		11.888,25.528 	"/>
	
		<rect x="0.709" y="13.271" clip-path="url(#SVGID_2_)" fill="none" stroke="#000000" stroke-width="1.417" stroke-miterlimit="10" width="19.878" height="29.894"/>
	<polygon clip-path="url(#SVGID_2_)" fill="#BD1B18" points="60.016,13.258 57.236,18.072 54.456,13.258 	"/>
	<polygon clip-path="url(#SVGID_2_)" fill="#BD1B18" points="59.715,36.367 57.236,38.314 54.757,36.367 55.997,25.528 
		57.236,14.69 58.476,25.528 	"/>
	
		<rect x="47.297" y="13.271" clip-path="url(#SVGID_2_)" fill="none" stroke="#000000" stroke-width="1.417" stroke-miterlimit="10" width="19.878" height="29.894"/>
</g>
</svg>
