<?xml version="1.0" encoding="utf-8"?>
<!-- Generator: Adobe Illustrator 16.0.1, SVG Export Plug-In . SVG Version: 6.00 Build 0)  -->
<!DOCTYPE svg PUBLIC "-//W3C//DTD SVG 1.1//EN" "http://www.w3.org/Graphics/SVG/1.1/DTD/svg11.dtd">
<svg version="1.1" id="Слой_1" xmlns="http://www.w3.org/2000/svg" xmlns:xlink="http://www.w3.org/1999/xlink" x="0px" y="0px"
	 width="72.784px" height="64.313px" viewBox="0 0 72.784 64.313" enable-background="new 0 0 72.784 64.313" xml:space="preserve">
<g>
	<defs>
		<rect id="SVGID_1_" y="0" width="72.784" height="64.313"/>
	</defs>
	<clipPath id="SVGID_2_">
		<use xlink:href="#SVGID_1_"  overflow="visible"/>
	</clipPath>
	<path clip-path="url(#SVGID_2_)" d="M71.84,47.09c-23.063-7.335-47.833-7.335-70.895,0c-0.382,0.121-0.789-0.079-0.911-0.452
		c-0.121-0.373,0.094-0.775,0.481-0.898c23.342-7.425,48.413-7.425,71.755,0c0.387,0.123,0.603,0.526,0.481,0.898
		S72.222,47.211,71.84,47.09"/>
	<path clip-path="url(#SVGID_2_)" d="M71.84,51.34c-23.063-7.335-47.833-7.335-70.895,0c-0.382,0.121-0.789-0.079-0.911-0.452
		c-0.121-0.373,0.094-0.775,0.481-0.898c23.342-7.425,48.413-7.425,71.755,0c0.387,0.123,0.603,0.526,0.481,0.898
		S72.222,51.461,71.84,51.34"/>
	<path clip-path="url(#SVGID_2_)" d="M71.84,55.59c-23.063-7.335-47.833-7.335-70.895,0c-0.382,0.121-0.789-0.079-0.911-0.452
		c-0.121-0.373,0.094-0.775,0.481-0.898c23.342-7.425,48.413-7.425,71.755,0c0.387,0.123,0.603,0.526,0.481,0.898
		S72.222,55.711,71.84,55.59"/>
	<path clip-path="url(#SVGID_2_)" d="M71.84,59.84c-23.063-7.335-47.833-7.335-70.895,0c-0.382,0.121-0.789-0.079-0.911-0.452
		c-0.121-0.373,0.094-0.775,0.481-0.898c23.342-7.425,48.413-7.425,71.755,0c0.387,0.123,0.603,0.526,0.481,0.898
		S72.222,59.961,71.84,59.84"/>
	<path clip-path="url(#SVGID_2_)" d="M71.84,64.09c-23.063-7.335-47.833-7.335-70.895,0c-0.382,0.121-0.789-0.079-0.911-0.452
		c-0.121-0.373,0.094-0.775,0.481-0.898c23.342-7.425,48.413-7.425,71.755,0c0.387,0.123,0.603,0.526,0.481,0.898
		S72.222,64.211,71.84,64.09"/>
	<path clip-path="url(#SVGID_2_)" fill="#FFFFFF" d="M65.698,6.973h-11.29c-0.895-1.546,0.569-1.887,0.97-1.887h0.7v-0.71
		c0-2.02,1.522-3.563,3.39-3.66c3.129-0.164,3.4,2.69,3.4,2.69S67.93,2.781,65.698,6.973"/>
	<path clip-path="url(#SVGID_2_)" fill="none" stroke="#000000" stroke-width="1.417" stroke-miterlimit="10" d="M65.698,6.973
		h-11.29c-0.895-1.546,0.569-1.887,0.97-1.887h0.7v-0.71c0-2.02,1.522-3.563,3.39-3.66c3.129-0.164,3.4,2.69,3.4,2.69
		S67.93,2.781,65.698,6.973z"/>
	<path clip-path="url(#SVGID_2_)" fill="#BD1B18" d="M42.087,29.812c0,5.645-2.55,6.678-5.695,6.678
		c-3.145,0-5.695-1.033-5.695-6.678s2.55-13.765,5.695-13.765C39.537,16.047,42.087,24.167,42.087,29.812"/>
	<line clip-path="url(#SVGID_2_)" fill="#BD1B18" x1="36.393" y1="40.865" x2="36.393" y2="32.116"/>
	
		<line clip-path="url(#SVGID_2_)" fill="none" stroke="#000000" stroke-width="1.417" stroke-linecap="round" stroke-miterlimit="10" x1="36.393" y1="40.865" x2="36.393" y2="32.116"/>
	<path clip-path="url(#SVGID_2_)" fill="#BD1B18" d="M57.087,31.786c0,4.996-2.396,6.211-5.351,6.211s-5.352-1.216-5.352-6.211
		c0-4.996,2.396-11.88,5.352-11.88S57.087,26.79,57.087,31.786"/>
	<line clip-path="url(#SVGID_2_)" fill="#BD1B18" x1="51.736" y1="41.868" x2="51.736" y2="34.126"/>
	
		<line clip-path="url(#SVGID_2_)" fill="none" stroke="#000000" stroke-width="1.417" stroke-linecap="round" stroke-miterlimit="10" x1="51.736" y1="41.868" x2="51.736" y2="34.126"/>
	<path clip-path="url(#SVGID_2_)" fill="#BD1B18" d="M70.034,35.639c0,4.5-1.987,5.313-4.438,5.313
		c-2.452,0-4.439-0.813-4.439-5.313s1.987-10.983,4.439-10.983C68.047,24.656,70.034,31.139,70.034,35.639"/>
	<line clip-path="url(#SVGID_2_)" fill="#BD1B18" x1="65.596" y1="44.439" x2="65.596" y2="37.464"/>
	
		<line clip-path="url(#SVGID_2_)" fill="none" stroke="#000000" stroke-width="1.417" stroke-linecap="round" stroke-miterlimit="10" x1="65.596" y1="44.439" x2="65.596" y2="37.464"/>
	<path clip-path="url(#SVGID_2_)" fill="#BD1B18" d="M15.715,31.496c0,4.996,2.396,6.211,5.351,6.211s5.351-1.215,5.351-6.211
		s-2.396-11.88-5.351-11.88S15.715,26.5,15.715,31.496"/>
	<line clip-path="url(#SVGID_2_)" fill="#BD1B18" x1="21.066" y1="41.579" x2="21.066" y2="33.836"/>
	
		<line clip-path="url(#SVGID_2_)" fill="none" stroke="#000000" stroke-width="1.417" stroke-linecap="round" stroke-miterlimit="10" x1="21.066" y1="41.579" x2="21.066" y2="33.836"/>
	<path clip-path="url(#SVGID_2_)" fill="#BD1B18" d="M2.768,35.349c0,4.5,1.987,5.313,4.438,5.313c2.452,0,4.439-0.813,4.439-5.313
		c0-4.5-1.987-10.982-4.439-10.982C4.755,24.366,2.768,30.849,2.768,35.349"/>
	<line clip-path="url(#SVGID_2_)" fill="#BD1B18" x1="7.206" y1="44.149" x2="7.206" y2="37.175"/>
	
		<line clip-path="url(#SVGID_2_)" fill="none" stroke="#000000" stroke-width="1.417" stroke-linecap="round" stroke-miterlimit="10" x1="7.206" y1="44.149" x2="7.206" y2="37.175"/>
</g>
</svg>
