<?xml version="1.0" encoding="utf-8"?>
<!-- Generator: Adobe Illustrator 16.0.1, SVG Export Plug-In . SVG Version: 6.00 Build 0)  -->
<!DOCTYPE svg PUBLIC "-//W3C//DTD SVG 1.1//EN" "http://www.w3.org/Graphics/SVG/1.1/DTD/svg11.dtd">
<svg version="1.1" id="Слой_1" xmlns="http://www.w3.org/2000/svg" xmlns:xlink="http://www.w3.org/1999/xlink" x="0px" y="0px"
	 width="47.814px" height="51.008px" viewBox="0 0 47.814 51.008" enable-background="new 0 0 47.814 51.008" xml:space="preserve">
<polygon fill="#FFFFFF" points="4.338,0.708 4.338,38.326 1.105,49.709 14.555,43.418 47.105,43.418 47.105,0.708 "/>
<g>
	<defs>
		<rect id="SVGID_1_" width="47.814" height="51.008"/>
	</defs>
	<clipPath id="SVGID_2_">
		<use xlink:href="#SVGID_1_"  overflow="visible"/>
	</clipPath>
	<polygon clip-path="url(#SVGID_2_)" fill="none" stroke="#000000" stroke-width="1.417" stroke-miterlimit="10" points="
		47.105,0.708 4.337,0.708 4.337,38.326 1.105,49.709 14.555,43.418 47.105,43.418 	"/>
	<path clip-path="url(#SVGID_2_)" fill="#BD1C17" d="M32.752,24.813c-0.809-0.642-1.391-0.115-2.158,0.651l-1.879,1.876
		c-0.117-0.063-2.006-0.213-4.889-3.467c-2.365-2.671-3.41-4.767-3.474-4.883l1.259-1.257l0.62-0.619
		c0.769-0.77,1.22-1.319,0.478-2.058l-4.736-4.792c-0.547-0.55-1.391-0.329-2.162,0.441l-1.049,1.054l0.027,0.029
		c-0.351,0.45-0.646,0.967-0.865,1.525c-0.201,0.532-0.328,1.039-0.385,1.547c-0.492,4.075,1.373,7.8,6.434,12.854
		c6.996,6.986,12.634,6.46,12.876,6.434c0.529-0.063,1.48-0.371,1.979-0.61c1.479-0.709,2.186-1.661,2.186-1.661
		c0.766-0.769,1.355-1.518,0.65-2.159L32.752,24.813z"/>
</g>
</svg>
