<?xml version="1.0" encoding="utf-8"?>
<!-- Generator: Adobe Illustrator 18.1.1, SVG Export Plug-In . SVG Version: 6.00 Build 0)  -->
<svg version="1.0" id="Слой_1" xmlns="http://www.w3.org/2000/svg" xmlns:xlink="http://www.w3.org/1999/xlink" x="0px" y="0px"
	 viewBox="-0.000008 42.794529 240.500977 41.681488" style="enable-background:new -0.000008 42.794529 240.500977 41.681488;"
	 xml:space="preserve">
<g>
	<g style="enable-background:new    ;">
		<path style="fill:#E6AA1C;" d="M63.123047,82.218201h-0.780273v-6.016602h-3.446777v6.016602h-0.780273V75.50824h5.007324
			V82.218201z"/>
		<path style="fill:#E6AA1C;" d="M69.194824,79.698669c0,0.820312-0.206543,1.459961-0.619629,1.920898
			c-0.413086,0.459961-0.983887,0.69043-1.711914,0.69043c-0.449707,0-0.849121-0.105469-1.197754-0.316406
			s-0.618164-0.514648-0.807617-0.90918c-0.189941-0.394531-0.284668-0.856445-0.284668-1.385742
			c0-0.820312,0.205078-1.458984,0.614746-1.916016c0.410156-0.458008,0.979492-0.686523,1.70752-0.686523
			c0.703613,0,1.262695,0.234375,1.677246,0.702148C68.987305,78.267029,69.194824,78.899841,69.194824,79.698669z
			 M65.362793,79.698669c0,0.642578,0.128418,1.131836,0.385254,1.46875c0.256836,0.335938,0.634766,0.504883,1.133789,0.504883
			c0.498535,0,0.876953-0.167969,1.135742-0.50293c0.258301-0.334961,0.387695-0.825195,0.387695-1.470703
			c0-0.639648-0.129395-1.125-0.387695-1.457031c-0.258789-0.332031-0.640137-0.498047-1.14502-0.498047
			c-0.499023,0-0.875,0.164062-1.128906,0.491211S65.362793,79.050232,65.362793,79.698669z"/>
		<path style="fill:#E6AA1C;" d="M72.540527,82.309998c-0.728027,0-1.291992-0.223633-1.690918-0.672852
			c-0.399414-0.447266-0.599121-1.082031-0.599121-1.901367c0-0.841797,0.202637-1.492188,0.60791-1.951172
			c0.405762-0.458984,0.98291-0.688477,1.73291-0.688477c0.241211,0,0.483398,0.026367,0.725098,0.078125
			s0.431152,0.113281,0.568848,0.183594l-0.233887,0.647461c-0.168457-0.067383-0.352051-0.123047-0.550781-0.167969
			c-0.199219-0.043945-0.375-0.066406-0.527832-0.066406c-1.021973,0-1.532715,0.651367-1.532715,1.955078
			c0,0.618164,0.124512,1.092773,0.374023,1.422852c0.249023,0.330078,0.618652,0.496094,1.108398,0.496094
			c0.418945,0,0.848633-0.09082,1.289551-0.271484v0.674805C73.475098,82.223083,73.051758,82.309998,72.540527,82.309998z"/>
		<path style="fill:#E6AA1C;" d="M78.396484,77.840271h-1.633789v4.37793h-0.761719v-4.37793h-1.615723v-0.652344h4.01123V77.840271
			z"/>
		<path style="fill:#E6AA1C;" d="M82.48584,82.218201l-0.151367-0.71582h-0.036621
			c-0.250977,0.31543-0.500977,0.52832-0.750488,0.639648c-0.249512,0.112305-0.560547,0.167969-0.934082,0.167969
			c-0.498535,0-0.889648-0.128906-1.172363-0.385742c-0.283203-0.256836-0.424316-0.62207-0.424316-1.09668
			c0-1.015625,0.812012-1.547852,2.437012-1.59668l0.853516-0.02832v-0.311523c0-0.394531-0.084961-0.686523-0.254883-0.874023
			c-0.169922-0.188477-0.441406-0.283203-0.814453-0.283203c-0.419434,0-0.893555,0.128906-1.422852,0.385742l-0.233887-0.583008
			c0.247559-0.133789,0.519043-0.240234,0.814453-0.316406s0.591309-0.114258,0.888184-0.114258
			c0.599609,0,1.043945,0.132812,1.333008,0.399414c0.289062,0.265625,0.433594,0.692383,0.433594,1.280273v3.432617H82.48584z
			 M80.765137,81.681091c0.474121,0,0.84668-0.129883,1.117188-0.389648c0.270996-0.260742,0.40625-0.624023,0.40625-1.092773
			v-0.454102l-0.761719,0.032227c-0.605957,0.021484-1.04248,0.115234-1.310547,0.282227
			c-0.267578,0.166992-0.401367,0.425781-0.401367,0.777344c0,0.275391,0.083496,0.485352,0.25,0.628906
			C80.231934,81.609802,80.464844,81.681091,80.765137,81.681091z"/>
		<path style="fill:#E6AA1C;" d="M88.699707,78.450623c0,0.327148-0.094238,0.575195-0.282227,0.745117
			s-0.452148,0.28418-0.791504,0.341797v0.041992c0.428223,0.057617,0.741211,0.183594,0.938477,0.375977
			s0.295898,0.458984,0.295898,0.798828c0,0.467773-0.171875,0.829102-0.516113,1.083008s-0.84668,0.380859-1.507812,0.380859
			h-2.216797v-5.030273h2.20752C88.075684,77.187927,88.699707,77.608826,88.699707,78.450623z M87.956055,78.523865
			c0-0.245117-0.09375-0.418945-0.282227-0.521484c-0.187988-0.102539-0.473145-0.15332-0.855957-0.15332h-1.436035v1.417969
			h1.289551c0.471191,0,0.803223-0.057617,0.995605-0.173828C87.859863,78.97699,87.956055,78.78656,87.956055,78.523865z
			 M88.098633,80.703552c0-0.272461-0.103516-0.470703-0.310059-0.59375c-0.206543-0.124023-0.54834-0.186523-1.025391-0.186523
			h-1.381348v1.657227h1.399414C87.659668,81.580505,88.098633,81.288513,88.098633,80.703552z"/>
		<path style="fill:#E6AA1C;" d="M92.898926,77.187927h0.835449l-2.170898,2.427734l2.350098,2.602539h-0.890625l-2.294434-2.546875
			v2.546875h-0.762207v-5.030273h0.762207v2.446289L92.898926,77.187927z"/>
		<path style="fill:#E6AA1C;" d="M95.561523,77.187927v3.189453l-0.032227,0.835938l-0.013672,0.261719l2.721191-4.287109h0.950195
			v5.030273h-0.711426v-3.075195l0.013672-0.605469l0.022949-0.59668l-2.716797,4.277344h-0.950195v-5.030273H95.561523z"/>
		<path style="fill:#E6AA1C;" d="M106.635254,77.840271h-1.633789v4.37793h-0.761719v-4.37793h-1.615723v-0.652344h4.01123
			V77.840271z"/>
		<path style="fill:#E6AA1C;" d="M109.972168,82.309998c-0.327637,0-0.626465-0.060547-0.897461-0.181641
			c-0.270508-0.120117-0.497559-0.306641-0.681152-0.557617h-0.055176c0.036621,0.293945,0.055176,0.572266,0.055176,0.835938
			v2.069336h-0.762207v-7.288086h0.619629l0.105469,0.688477h0.037109c0.195312-0.275391,0.42334-0.473633,0.683594-0.59668
			c0.260254-0.12207,0.558105-0.183594,0.89502-0.183594c0.666992,0,1.181641,0.228516,1.544434,0.683594
			c0.362305,0.456055,0.543945,1.095703,0.543945,1.918945c0,0.826172-0.18457,1.467773-0.553223,1.924805
			C111.138672,82.081482,110.626953,82.309998,109.972168,82.309998z M109.861816,77.743591
			c-0.513672,0-0.885742,0.142578-1.115234,0.426758s-0.347168,0.737305-0.353027,1.358398v0.169922
			c0,0.707031,0.117676,1.211914,0.353027,1.516602c0.23584,0.304688,0.61377,0.457031,1.133789,0.457031
			c0.43457,0,0.774902-0.175781,1.020996-0.52832c0.246582-0.351562,0.369629-0.836914,0.369629-1.454102
			c0-0.62793-0.123047-1.108398-0.369629-1.444336C110.655273,77.910583,110.308594,77.743591,109.861816,77.743591z"/>
		<path style="fill:#E6AA1C;" d="M112.592773,77.187927h0.816895l1.101562,2.868164
			c0.241699,0.655273,0.391602,1.12793,0.449707,1.418945h0.036621c0.039551-0.15625,0.123047-0.422852,0.25-0.800781
			s0.54248-1.540039,1.246094-3.486328h0.816895l-2.161621,5.727539c-0.214355,0.566406-0.464355,0.967773-0.750488,1.205078
			s-0.637207,0.355469-1.053223,0.355469c-0.232422,0-0.461914-0.025391-0.688477-0.078125v-0.610352
			c0.168457,0.037109,0.356445,0.055664,0.564453,0.055664c0.523438,0,0.896484-0.293945,1.120117-0.881836l0.279785-0.71582
			L112.592773,77.187927z"/>
		<path style="fill:#E6AA1C;" d="M117.866211,79.202576c0-1.101562,0.162109-1.959961,0.486328-2.576172
			c0.324219-0.617188,0.838379-1.001953,1.541992-1.154297c0.875-0.186523,1.646484-0.338867,2.3125-0.455078l0.142578,0.669922
			c-1.061523,0.177734-1.820312,0.318359-2.275879,0.422852c-0.443848,0.100586-0.776855,0.339844-0.998535,0.71582
			s-0.343262,0.888672-0.364746,1.537109h0.055176c0.189453-0.256836,0.434082-0.458984,0.734375-0.605469
			c0.299805-0.146484,0.613281-0.220703,0.94043-0.220703c0.618164,0,1.100586,0.201172,1.446289,0.601562
			c0.345703,0.401367,0.517578,0.956055,0.517578,1.666016c0,0.786133-0.199219,1.400391-0.599609,1.842773
			c-0.402344,0.442383-0.959961,0.663086-1.67627,0.663086c-0.706543,0-1.260254-0.270508-1.661133-0.8125
			C118.066406,80.956482,117.866211,80.190857,117.866211,79.202576z M120.197266,81.672302
			c0.933594,0,1.400391-0.595703,1.400391-1.785156c0-1.135742-0.423828-1.703125-1.271973-1.703125
			c-0.232422,0-0.456543,0.047852-0.671875,0.144531c-0.21582,0.09668-0.413086,0.224609-0.592285,0.382812
			c-0.179199,0.15918-0.317383,0.323242-0.415527,0.491211c0,0.804688,0.126953,1.417969,0.381348,1.838867
			C119.28125,81.461365,119.670898,81.672302,120.197266,81.672302z"/>
		<path style="fill:#E6AA1C;" d="M128.073242,79.698669c0,0.820312-0.207031,1.459961-0.619141,1.920898
			c-0.413086,0.459961-0.984375,0.69043-1.711914,0.69043c-0.450195,0-0.849609-0.105469-1.198242-0.316406
			s-0.618164-0.514648-0.807617-0.90918s-0.285156-0.856445-0.285156-1.385742c0-0.820312,0.205078-1.458984,0.615234-1.916016
			c0.410156-0.458008,0.979492-0.686523,1.707031-0.686523c0.704102,0,1.263672,0.234375,1.677734,0.702148
			C127.866211,78.267029,128.073242,78.899841,128.073242,79.698669z M124.241211,79.698669
			c0,0.642578,0.12793,1.131836,0.385742,1.46875c0.256836,0.335938,0.634766,0.504883,1.132812,0.504883
			c0.499023,0,0.87793-0.167969,1.136719-0.50293c0.257812-0.334961,0.387695-0.825195,0.387695-1.470703
			c0-0.639648-0.129883-1.125-0.387695-1.457031c-0.258789-0.332031-0.640625-0.498047-1.145508-0.498047
			c-0.499023,0-0.875,0.164062-1.128906,0.491211S124.241211,79.050232,124.241211,79.698669z"/>
		<path style="fill:#E6AA1C;" d="M130.169922,82.218201h-0.761719v-5.030273h4.222656v5.030273h-0.771484V77.84906h-2.689453
			V82.218201z"/>
		<path style="fill:#E6AA1C;" d="M137.586914,82.309998c-0.327148,0-0.626953-0.060547-0.897461-0.181641
			c-0.270508-0.120117-0.498047-0.306641-0.681641-0.557617h-0.054688c0.036133,0.293945,0.054688,0.572266,0.054688,0.835938
			v2.069336h-0.761719v-7.288086h0.620117l0.105469,0.688477h0.036133c0.196289-0.275391,0.423828-0.473633,0.68457-0.59668
			c0.259766-0.12207,0.557617-0.183594,0.894531-0.183594c0.666992,0,1.181641,0.228516,1.543945,0.683594
			c0.363281,0.456055,0.543945,1.095703,0.543945,1.918945c0,0.826172-0.18457,1.467773-0.552734,1.924805
			C138.75293,82.081482,138.241211,82.309998,137.586914,82.309998z M137.476562,77.743591
			c-0.513672,0-0.885742,0.142578-1.115234,0.426758s-0.34668,0.737305-0.353516,1.358398v0.169922
			c0,0.707031,0.118164,1.211914,0.353516,1.516602s0.613281,0.457031,1.133789,0.457031
			c0.43457,0,0.774414-0.175781,1.021484-0.52832c0.246094-0.351562,0.369141-0.836914,0.369141-1.454102
			c0-0.62793-0.123047-1.108398-0.369141-1.444336C138.269531,77.910583,137.923828,77.743591,137.476562,77.743591z"/>
		<path style="fill:#E6AA1C;" d="M145.347656,79.698669c0,0.820312-0.207031,1.459961-0.619141,1.920898
			c-0.413086,0.459961-0.984375,0.69043-1.711914,0.69043c-0.450195,0-0.849609-0.105469-1.198242-0.316406
			s-0.618164-0.514648-0.807617-0.90918s-0.285156-0.856445-0.285156-1.385742c0-0.820312,0.205078-1.458984,0.615234-1.916016
			c0.410156-0.458008,0.979492-0.686523,1.707031-0.686523c0.704102,0,1.263672,0.234375,1.677734,0.702148
			C145.140625,78.267029,145.347656,78.899841,145.347656,79.698669z M141.515625,79.698669
			c0,0.642578,0.12793,1.131836,0.385742,1.46875c0.256836,0.335938,0.634766,0.504883,1.132812,0.504883
			c0.499023,0,0.87793-0.167969,1.136719-0.50293c0.257812-0.334961,0.387695-0.825195,0.387695-1.470703
			c0-0.639648-0.129883-1.125-0.387695-1.457031c-0.258789-0.332031-0.640625-0.498047-1.145508-0.498047
			c-0.499023,0-0.875,0.164062-1.128906,0.491211S141.515625,79.050232,141.515625,79.698669z"/>
		<path style="fill:#E6AA1C;" d="M150.762695,78.450623c0,0.327148-0.09375,0.575195-0.282227,0.745117
			s-0.452148,0.28418-0.791992,0.341797v0.041992c0.428711,0.057617,0.741211,0.183594,0.938477,0.375977
			c0.198242,0.192383,0.296875,0.458984,0.296875,0.798828c0,0.467773-0.172852,0.829102-0.516602,1.083008
			c-0.344727,0.253906-0.84668,0.380859-1.507812,0.380859h-2.216797v-5.030273h2.208008
			C150.138672,77.187927,150.762695,77.608826,150.762695,78.450623z M150.019531,78.523865
			c0-0.245117-0.094727-0.418945-0.282227-0.521484c-0.188477-0.102539-0.473633-0.15332-0.856445-0.15332h-1.436523v1.417969
			h1.290039c0.470703,0,0.802734-0.057617,0.996094-0.173828C149.922852,78.97699,150.019531,78.78656,150.019531,78.523865z
			 M150.161133,80.703552c0-0.272461-0.102539-0.470703-0.30957-0.59375c-0.206055-0.124023-0.547852-0.186523-1.025391-0.186523
			h-1.381836v1.657227h1.400391C149.722656,81.580505,150.161133,81.288513,150.161133,80.703552z"/>
		<path style="fill:#E6AA1C;" d="M156.371094,79.698669c0,0.820312-0.207031,1.459961-0.619141,1.920898
			c-0.413086,0.459961-0.984375,0.69043-1.711914,0.69043c-0.450195,0-0.849609-0.105469-1.198242-0.316406
			s-0.618164-0.514648-0.807617-0.90918s-0.285156-0.856445-0.285156-1.385742c0-0.820312,0.205078-1.458984,0.615234-1.916016
			c0.410156-0.458008,0.979492-0.686523,1.707031-0.686523c0.704102,0,1.263672,0.234375,1.677734,0.702148
			C156.164062,78.267029,156.371094,78.899841,156.371094,79.698669z M152.539062,79.698669
			c0,0.642578,0.12793,1.131836,0.385742,1.46875c0.256836,0.335938,0.634766,0.504883,1.132812,0.504883
			c0.499023,0,0.87793-0.167969,1.136719-0.50293c0.257812-0.334961,0.387695-0.825195,0.387695-1.470703
			c0-0.639648-0.129883-1.125-0.387695-1.457031c-0.258789-0.332031-0.640625-0.498047-1.145508-0.498047
			c-0.499023,0-0.875,0.164062-1.128906,0.491211S152.539062,79.050232,152.539062,79.698669z"/>
		<path style="fill:#E6AA1C;" d="M162.076172,83.957458h-0.738281v-1.739258h-3.515625v1.739258h-0.734375v-2.395508h0.394531
			c0.410156-0.556641,0.731445-1.209961,0.963867-1.959961c0.232422-0.749023,0.353516-1.553711,0.362305-2.414062h2.546875
			v4.374023h0.720703V83.957458z M160.621094,81.561951V77.78949h-1.128906c-0.039062,0.678711-0.169922,1.367188-0.392578,2.0625
			c-0.22168,0.696289-0.49707,1.266602-0.828125,1.709961H160.621094z"/>
		<path style="fill:#E6AA1C;" d="M163.842773,77.187927v2.106445h2.818359v-2.106445h0.761719v5.030273h-0.761719v-2.267578
			h-2.818359v2.267578h-0.761719v-5.030273H163.842773z"/>
		<path style="fill:#E6AA1C;" d="M173.379883,79.698669c0,0.820312-0.207031,1.459961-0.619141,1.920898
			c-0.413086,0.459961-0.984375,0.69043-1.711914,0.69043c-0.450195,0-0.849609-0.105469-1.198242-0.316406
			s-0.618164-0.514648-0.807617-0.90918s-0.285156-0.856445-0.285156-1.385742c0-0.820312,0.205078-1.458984,0.615234-1.916016
			c0.410156-0.458008,0.979492-0.686523,1.707031-0.686523c0.704102,0,1.263672,0.234375,1.677734,0.702148
			C173.172852,78.267029,173.379883,78.899841,173.379883,79.698669z M169.547852,79.698669
			c0,0.642578,0.12793,1.131836,0.385742,1.46875c0.256836,0.335938,0.634766,0.504883,1.132812,0.504883
			c0.499023,0,0.87793-0.167969,1.136719-0.50293c0.257812-0.334961,0.387695-0.825195,0.387695-1.470703
			c0-0.639648-0.129883-1.125-0.387695-1.457031c-0.258789-0.332031-0.640625-0.498047-1.145508-0.498047
			c-0.499023,0-0.875,0.164062-1.128906,0.491211S169.547852,79.050232,169.547852,79.698669z"/>
		<path style="fill:#E6AA1C;" d="M175.431641,77.187927v3.189453l-0.032227,0.835938l-0.013672,0.261719l2.72168-4.287109h0.950195
			v5.030273h-0.710938v-3.075195l0.013672-0.605469l0.022461-0.59668l-2.716797,4.277344h-0.950195v-5.030273H175.431641z
			 M176.868164,76.522888c-0.56543,0-0.978516-0.109375-1.239258-0.328125c-0.259766-0.21875-0.405273-0.579102-0.435547-1.081055
			h0.71582c0.027344,0.318359,0.111328,0.540039,0.25,0.665039c0.139648,0.125977,0.381836,0.188477,0.727539,0.188477
			c0.31543,0,0.548828-0.067383,0.700195-0.202148c0.151367-0.133789,0.244141-0.351562,0.277344-0.651367h0.720703
			c-0.037109,0.483398-0.191406,0.838867-0.463867,1.067383C177.848633,76.40863,177.431641,76.522888,176.868164,76.522888z"/>
		<path style="fill:#E6AA1C;" d="M186.208008,82.218201l-0.151367-0.71582h-0.037109
			c-0.250977,0.31543-0.500977,0.52832-0.75,0.639648c-0.25,0.112305-0.561523,0.167969-0.93457,0.167969
			c-0.498047,0-0.889648-0.128906-1.172852-0.385742c-0.282227-0.256836-0.423828-0.62207-0.423828-1.09668
			c0-1.015625,0.8125-1.547852,2.436523-1.59668l0.853516-0.02832v-0.311523c0-0.394531-0.084961-0.686523-0.253906-0.874023
			c-0.169922-0.188477-0.441406-0.283203-0.81543-0.283203c-0.418945,0-0.893555,0.128906-1.422852,0.385742l-0.233398-0.583008
			c0.248047-0.133789,0.519531-0.240234,0.814453-0.316406s0.59082-0.114258,0.887695-0.114258
			c0.599609,0,1.044922,0.132812,1.333984,0.399414c0.289062,0.265625,0.433594,0.692383,0.433594,1.280273v3.432617H186.208008z
			 M184.486328,81.681091c0.474609,0,0.84668-0.129883,1.118164-0.389648c0.270508-0.260742,0.40625-0.624023,0.40625-1.092773
			v-0.454102l-0.762695,0.032227c-0.605469,0.021484-1.041992,0.115234-1.30957,0.282227s-0.402344,0.425781-0.402344,0.777344
			c0,0.275391,0.083984,0.485352,0.250977,0.628906C183.953125,81.609802,184.186523,81.681091,184.486328,81.681091z"/>
		<path style="fill:#E6AA1C;" d="M190.682617,82.309998c-0.327148,0-0.626953-0.060547-0.897461-0.181641
			c-0.270508-0.120117-0.498047-0.306641-0.681641-0.557617h-0.054688c0.036133,0.293945,0.054688,0.572266,0.054688,0.835938
			v2.069336h-0.761719v-7.288086h0.620117l0.105469,0.688477h0.036133c0.196289-0.275391,0.423828-0.473633,0.68457-0.59668
			c0.259766-0.12207,0.557617-0.183594,0.894531-0.183594c0.666992,0,1.181641,0.228516,1.543945,0.683594
			c0.363281,0.456055,0.543945,1.095703,0.543945,1.918945c0,0.826172-0.18457,1.467773-0.552734,1.924805
			C191.848633,82.081482,191.336914,82.309998,190.682617,82.309998z M190.572266,77.743591
			c-0.513672,0-0.885742,0.142578-1.115234,0.426758s-0.34668,0.737305-0.353516,1.358398v0.169922
			c0,0.707031,0.118164,1.211914,0.353516,1.516602s0.613281,0.457031,1.133789,0.457031
			c0.43457,0,0.774414-0.175781,1.021484-0.52832c0.246094-0.351562,0.369141-0.836914,0.369141-1.454102
			c0-0.62793-0.123047-1.108398-0.369141-1.444336C191.365234,77.910583,191.019531,77.743591,190.572266,77.743591z"/>
		<path style="fill:#E6AA1C;" d="M196.712891,81.483826l0.142578-0.426758l0.197266-0.541992l1.363281-3.317383h0.967773v5.020508
			h-0.673828v-4.15332l-0.091797,0.265625l-0.266602,0.702148l-1.298828,3.185547h-0.637695l-1.298828-3.194336
			c-0.162109-0.410156-0.274414-0.729492-0.334961-0.958984v4.15332h-0.679688v-5.020508h0.931641l1.317383,3.189453
			C196.482422,80.72406,196.602539,81.089294,196.712891,81.483826z"/>
		<path style="fill:#E6AA1C;" d="M204.102539,82.218201l-0.151367-0.71582h-0.037109
			c-0.250977,0.31543-0.500977,0.52832-0.75,0.639648c-0.25,0.112305-0.561523,0.167969-0.93457,0.167969
			c-0.498047,0-0.889648-0.128906-1.172852-0.385742c-0.282227-0.256836-0.423828-0.62207-0.423828-1.09668
			c0-1.015625,0.8125-1.547852,2.436523-1.59668l0.853516-0.02832v-0.311523c0-0.394531-0.084961-0.686523-0.253906-0.874023
			c-0.169922-0.188477-0.441406-0.283203-0.81543-0.283203c-0.418945,0-0.893555,0.128906-1.422852,0.385742l-0.233398-0.583008
			c0.248047-0.133789,0.519531-0.240234,0.814453-0.316406s0.59082-0.114258,0.887695-0.114258
			c0.599609,0,1.044922,0.132812,1.333984,0.399414c0.289062,0.265625,0.433594,0.692383,0.433594,1.280273v3.432617H204.102539z
			 M202.380859,81.681091c0.474609,0,0.84668-0.129883,1.118164-0.389648c0.270508-0.260742,0.40625-0.624023,0.40625-1.092773
			v-0.454102l-0.762695,0.032227c-0.605469,0.021484-1.041992,0.115234-1.30957,0.282227s-0.402344,0.425781-0.402344,0.777344
			c0,0.275391,0.083984,0.485352,0.250977,0.628906C201.847656,81.609802,202.081055,81.681091,202.380859,81.681091z"/>
		<path style="fill:#E6AA1C;" d="M209.626953,77.840271h-1.633789v4.37793h-0.761719v-4.37793h-1.615234v-0.652344h4.010742
			V77.840271z"/>
		<path style="fill:#E6AA1C;" d="M209.824219,77.187927h0.817383l1.101562,2.868164
			c0.241211,0.655273,0.391602,1.12793,0.449219,1.418945h0.037109c0.040039-0.15625,0.123047-0.422852,0.25-0.800781
			s0.541992-1.540039,1.246094-3.486328h0.817383l-2.162109,5.727539c-0.213867,0.566406-0.463867,0.967773-0.75,1.205078
			s-0.637695,0.355469-1.053711,0.355469c-0.232422,0-0.461914-0.025391-0.688477-0.078125v-0.610352
			c0.167969,0.037109,0.356445,0.055664,0.564453,0.055664c0.523438,0,0.896484-0.293945,1.120117-0.881836l0.280273-0.71582
			L209.824219,77.187927z"/>
		<path style="fill:#E6AA1C;" d="M217.700195,82.309998c-0.327148,0-0.626953-0.060547-0.897461-0.181641
			c-0.270508-0.120117-0.498047-0.306641-0.681641-0.557617h-0.054688c0.036133,0.293945,0.054688,0.572266,0.054688,0.835938
			v2.069336h-0.761719v-7.288086h0.620117l0.105469,0.688477h0.036133c0.196289-0.275391,0.423828-0.473633,0.68457-0.59668
			c0.259766-0.12207,0.557617-0.183594,0.894531-0.183594c0.666992,0,1.181641,0.228516,1.543945,0.683594
			c0.363281,0.456055,0.543945,1.095703,0.543945,1.918945c0,0.826172-0.18457,1.467773-0.552734,1.924805
			C218.866211,82.081482,218.354492,82.309998,217.700195,82.309998z M217.589844,77.743591
			c-0.513672,0-0.885742,0.142578-1.115234,0.426758s-0.34668,0.737305-0.353516,1.358398v0.169922
			c0,0.707031,0.118164,1.211914,0.353516,1.516602s0.613281,0.457031,1.133789,0.457031
			c0.43457,0,0.774414-0.175781,1.021484-0.52832c0.246094-0.351562,0.369141-0.836914,0.369141-1.454102
			c0-0.62793-0.123047-1.108398-0.369141-1.444336C218.382812,77.910583,218.037109,77.743591,217.589844,77.743591z"/>
		<path style="fill:#E6AA1C;" d="M221.880859,79.267029h1.37207c0.639648,0,1.113281,0.119141,1.420898,0.355469
			c0.307617,0.237305,0.460938,0.591797,0.460938,1.0625c0,0.504883-0.163086,0.886719-0.488281,1.145508
			c-0.326172,0.258789-0.805664,0.387695-1.439453,0.387695h-2.087891v-5.030273h0.761719V79.267029z M221.880859,79.923279
			v1.657227h1.290039c0.807617,0,1.211914-0.283203,1.211914-0.849609c0-0.28125-0.09375-0.486328-0.280273-0.614258
			c-0.186523-0.128906-0.504883-0.193359-0.955078-0.193359H221.880859z M226.741211,82.218201h-0.761719v-5.030273h0.761719
			V82.218201z"/>
	</g>
	<rect x="35.642056" y="47.957245" style="fill:#201D16;" width="1.345983" height="9.308915"/>
	<rect x="28.650038" y="46.447083" style="fill:#201D16;" width="1.344925" height="16.979801"/>
	<rect x="13.235242" y="50.601715" style="fill:#201D16;" width="1.345877" height="7.236894"/>
	<polygon style="fill:#201D16;" points="2.64436,77.094833 2.64436,70.149246 11.934763,70.149246 11.934763,77.094833 
		14.579132,77.094833 14.579132,60.97868 11.934763,60.97868 11.934763,67.504875 2.64436,67.504875 2.64436,60.97868 
		-0.000008,60.97868 -0.000008,77.094833 	"/>
	<polygon style="fill:#E6AA1C;" points="25.624443,43.974129 32.008156,43.974129 32.825268,42.794529 26.44367,42.794529 	"/>
	<polygon style="fill:#E6AA1C;" points="31.90069,46.796196 38.285465,46.796196 39.101517,45.6166 32.7178,45.6166 	"/>
	<polygon style="fill:#E6AA1C;" points="14.457172,49.430199 20.836761,49.430199 21.654825,48.250599 15.275341,48.250599 	"/>
	<rect x="20.574341" y="47.252857" style="fill:#201D16;" width="1.344925" height="6.247266"/>
	<rect x="20.572332" y="49.424023" style="fill:#201D16;" width="1.344925" height="13.370558"/>
	<rect x="13.235244" y="50.603676" style="fill:#201D16;" width="8.683996" height="2.644367"/>
	<rect x="29.699526" y="47.957283" style="fill:#201D16;" width="6.617053" height="2.644367"/>
	<rect x="20.574364" y="45.312889" style="fill:#201D16;" width="9.420614" height="2.644368"/>
	<polygon style="fill:#201D16;" points="39.303967,77.094833 47.175087,64.794395 47.175087,77.094833 49.817341,77.094833 
		49.817341,60.97868 46.476765,60.97868 38.29784,73.762611 38.29784,60.97868 35.655483,60.97868 35.68235,77.094833 	"/>
	<polygon style="fill:#BD1B18;" points="34.709328,57.838547 19.068316,82.218346 16.543791,82.218346 33.203308,57.838547 	"/>
	<polygon style="fill:#BD1B18;" points="49.819458,82.203857 49.819458,79.55748 33.482235,79.55748 18.403099,55.991615 
		18.299757,55.828407 0.002002,55.828407 0.002002,58.472775 15.797974,58.472775 31.031965,82.218346 33.557549,82.218346 
		33.557549,82.216232 	"/>
	<polygon style="fill:#BD1B18;" points="0.002002,82.216232 19.068316,82.216232 34.292046,58.489273 49.817341,58.489273 
		49.817341,55.840782 32.045391,55.828407 16.85371,79.573982 -0.000008,79.573982 	"/>
	<g style="enable-background:new    ;">
		<path style="fill:#13110C;" d="M67.379883,55.892033v12.293941h-2.810059v-4.970211h-3.512695v4.970211H58.24707V55.892033
			h2.810059v4.619141h3.512695v-4.619141H67.379883z"/>
		<path style="fill:#13110C;" d="M73.770508,66.307068c0.632324,0,1.24707-0.28125,1.510742-0.667969l2.563965-0.017578
			c-0.57959,1.844727-2.125,2.810547-4.109375,2.810547c-2.915527,0-4.777344-2.019531-4.777344-4.636715
			c0-2.617188,1.932129-4.636719,4.707031-4.636719c2.563965,0,4.425781,1.984863,4.425781,4.636719
			c0,0.368649-0.035156,0.720211-0.105469,1.053707h-6.27002C72.032227,65.885193,72.857422,66.307068,73.770508,66.307068z
			 M75.474121,62.847111c-0.280762-1.001465-1.053711-1.352539-1.826172-1.352539c-0.983887,0-1.668457,0.474121-1.949707,1.352539
			H75.474121z"/>
		<path style="fill:#13110C;" d="M85.922363,68.291443v3.407227h-2.563965v-3.407227
			c-2.6875-0.421875-4.250488-2.230469-4.250488-4.49609c0-2.265625,1.562988-4.074707,4.250488-4.496094v-3.407227h2.563965
			v3.407227c2.687012,0.421387,4.25,2.230469,4.25,4.496094C90.172363,66.060974,88.609375,67.869568,85.922363,68.291443z
			 M83.358398,65.779724V61.81049c-1.089355,0.298828-1.651367,1.019043-1.651367,1.984863
			C81.707031,64.761169,82.269043,65.480896,83.358398,65.779724z M87.573242,63.795353
			c0-0.96582-0.562012-1.686035-1.650879-1.984863v3.969234C87.01123,65.480896,87.573242,64.761169,87.573242,63.795353z"/>
		<path style="fill:#13110C;" d="M97.723145,61.863224H95.45752v6.32275h-2.634277v-6.32275h-2.300781v-2.458496h4.935059h2.265625
			V61.863224z"/>
		<path style="fill:#13110C;" d="M102.972656,66.307068c0.632324,0,1.24707-0.28125,1.510742-0.667969l2.563965-0.017578
			c-0.57959,1.844727-2.125,2.810547-4.109375,2.810547c-2.915527,0-4.777344-2.019531-4.777344-4.636715
			c0-2.617188,1.932129-4.636719,4.707031-4.636719c2.563965,0,4.425781,1.984863,4.425781,4.636719
			c0,0.368649-0.035156,0.720211-0.105469,1.053707h-6.27002C101.234375,65.885193,102.05957,66.307068,102.972656,66.307068z
			 M104.67627,62.847111c-0.280762-1.001465-1.053711-1.352539-1.826172-1.352539c-0.983887,0-1.668457,0.474121-1.949707,1.352539
			H104.67627z"/>
		<path style="fill:#13110C;" d="M115.124512,68.185974l-1.984863-3.495117l-1.984375,3.495117h-3.196289l3.58252-6.305172
			l-3.407227-5.98877h3.196777l1.808594,3.178711l1.809082-3.178711h3.196777l-3.407227,5.98877l3.58252,6.305172H115.124512z"/>
		<path style="fill:#13110C;" d="M127.188477,59.404728v8.781246h-2.564453v-4.566402l-3.231445,4.566402h-1.932129v-8.781246
			h2.563965v4.566406l3.231445-4.566406H127.188477z"/>
		<path style="fill:#13110C;" d="M138.77832,68.185974h-2.529297v-4.935055l-1.633789,3.336422h-1.334961l-1.632812-3.336422
			v4.935055h-2.529297v-8.781246h2.529297h0.210938l2.089844,4.232422l2.089844-4.232422h2.740234V68.185974z"/>
		<path style="fill:#13110C;" d="M147.469727,61.336369l-4.390625,6.849606h-2.107422V55.892033h2.810547v6.849609
			l4.390625-6.849609h2.107422v12.293941h-2.810547V61.336369z"/>
		<path style="fill:#13110C;" d="M160.024414,59.404728v8.781246h-2.633789v-3.161133h-2.458984v3.161133h-2.634766v-8.781246
			h2.634766v3.161133h2.458984v-3.161133H160.024414z"/>
		<path style="fill:#13110C;" d="M171.421875,68.185974l-2.388672-3.811035v3.811035h-2.564453v-3.811035l-2.388672,3.811035
			h-2.915039l2.915039-4.390621l-2.739258-4.390625h2.915039l2.212891,3.758301v-3.758301h2.564453v3.758301l2.212891-3.758301
			h2.915039l-2.739258,4.390625l2.915039,4.390621H171.421875z"/>
		<path style="fill:#13110C;" d="M183.204102,59.404728v8.781246h-2.563477v-4.566402l-3.232422,4.566402h-1.931641v-8.781246
			h2.564453v4.566406l3.231445-4.566406H183.204102z"/>
		<path style="fill:#13110C;" d="M192.861328,59.404728v8.781246h-2.633789v-3.161133h-2.458984v3.161133h-2.634766v-8.781246
			h2.634766v3.161133h2.458984v-3.161133H192.861328z"/>
		<path style="fill:#13110C;" d="M202.519531,59.404728v8.781246h-2.563477v-4.566402l-3.232422,4.566402h-1.931641v-8.781246
			h2.564453v4.566406l3.231445-4.566406H202.519531z"/>
		<path style="fill:#13110C;" d="M213.898438,63.795353c0,2.617184-1.897461,4.636715-4.198242,4.636715
			c-1.175781,0-2.037109-0.404297-2.616211-1.071289v4.337891h-2.634766V59.404728h2.634766v0.825195
			c0.579102-0.66748,1.44043-1.071289,2.616211-1.071289C212.000977,59.158634,213.898438,61.178165,213.898438,63.795353z
			 M211.263672,63.795353c0-1.317383-0.87793-2.142578-2.089844-2.142578s-2.089844,0.825195-2.089844,2.142578
			c0,1.317379,0.87793,2.142574,2.089844,2.142574S211.263672,65.112732,211.263672,63.795353z"/>
		<path style="fill:#13110C;" d="M223.117188,59.404728v8.781246h-2.563477v-4.566402l-3.232422,4.566402h-1.931641v-8.781246
			h2.564453v4.566406l3.231445-4.566406H223.117188z"/>
		<path style="fill:#13110C;" d="M232.774414,59.404728v8.781246h-2.633789v-3.161133h-2.458984v3.161133h-2.634766v-8.781246
			h2.634766v3.161133h2.458984v-3.161133H232.774414z"/>
		<path style="fill:#13110C;" d="M240.500977,61.933537h-3.161133v6.252438h-2.634766v-8.781246h5.795898V61.933537z"/>
	</g>
</g>
</svg>
