<?xml version="1.0" encoding="utf-8"?>
<!-- Generator: Adobe Illustrator 16.0.1, SVG Export Plug-In . SVG Version: 6.00 Build 0)  -->
<!DOCTYPE svg PUBLIC "-//W3C//DTD SVG 1.1//EN" "http://www.w3.org/Graphics/SVG/1.1/DTD/svg11.dtd">
<svg version="1.1" id="Слой_1" xmlns="http://www.w3.org/2000/svg" xmlns:xlink="http://www.w3.org/1999/xlink" x="0px" y="0px"
	 width="23.268px" height="34.319px" viewBox="0 0 23.268 34.319" enable-background="new 0 0 23.268 34.319" xml:space="preserve">
<g>
	<defs>
		<rect id="SVGID_1_" width="23.268" height="34.319"/>
	</defs>
	<clipPath id="SVGID_2_">
		<use xlink:href="#SVGID_1_"  overflow="visible"/>
	</clipPath>
	<path clip-path="url(#SVGID_2_)" fill="#FFFFFF" d="M11.634,1C4.516,1,1,6.028,1,12.237C1,18.447,11.634,32.65,11.634,32.65
		s10.634-14.203,10.634-20.413C22.268,6.028,18.752,1,11.634,1"/>
	<path clip-path="url(#SVGID_2_)" fill="none" stroke="#1D1D1B" stroke-width="1.417" stroke-miterlimit="10" d="M11.634,1
		C4.516,1,1,6.028,1,12.237C1,18.447,11.634,32.65,11.634,32.65s10.634-14.203,10.634-20.413C22.268,6.028,18.752,1,11.634,1z"/>
	<path clip-path="url(#SVGID_2_)" fill="#BD1B18" d="M11.634,14.389c-2.199,0-3.983-1.805-3.983-4.041
		c0-2.23,1.784-4.042,3.983-4.042s3.983,1.812,3.983,4.042C15.617,12.584,13.833,14.389,11.634,14.389"/>
</g>
</svg>
