<?xml version="1.0" encoding="utf-8"?>
<!-- Generator: Adobe Illustrator 16.0.1, SVG Export Plug-In . SVG Version: 6.00 Build 0)  -->
<!DOCTYPE svg PUBLIC "-//W3C//DTD SVG 1.1//EN" "http://www.w3.org/Graphics/SVG/1.1/DTD/svg11.dtd">
<svg version="1.1" id="Слой_1" xmlns="http://www.w3.org/2000/svg" xmlns:xlink="http://www.w3.org/1999/xlink" x="0px" y="0px"
	 width="34.462px" height="34.384px" viewBox="0 0 34.462 34.384" enable-background="new 0 0 34.462 34.384" xml:space="preserve">
<path fill="#FFFFFF" d="M33.688,27.196l-5.322-5.323c-1.061-1.056-2.814-1.023-3.911,0.075l-2.682,2.681
	c-0.169-0.092-0.345-0.191-0.529-0.294c-1.694-0.94-4.01-2.225-6.451-4.664c-2.446-2.447-3.733-4.769-4.673-6.464
	c-0.101-0.178-0.196-0.35-0.288-0.516l1.798-1.796l0.886-0.886c1.098-1.1,1.13-2.854,0.072-3.912L7.265,0.772
	C6.208-0.286,4.453-0.253,3.352,0.846L1.854,2.354l0.038,0.041C1.391,3.037,0.971,3.778,0.659,4.574
	C0.371,5.335,0.189,6.061,0.109,6.786c-0.705,5.826,1.959,11.15,9.182,18.377c9.988,9.984,18.038,9.232,18.386,9.193
	c0.755-0.089,1.479-0.27,2.217-0.556c0.791-0.308,1.532-0.728,2.171-1.23l0.033,0.03l1.521-1.49
	C34.714,30.011,34.746,28.258,33.688,27.196"/>
</svg>
