<?xml version="1.0" encoding="utf-8"?>
<!-- Generator: Adobe Illustrator 16.0.1, SVG Export Plug-In . SVG Version: 6.00 Build 0)  -->
<!DOCTYPE svg PUBLIC "-//W3C//DTD SVG 1.1//EN" "http://www.w3.org/Graphics/SVG/1.1/DTD/svg11.dtd">
<svg version="1.1" id="Слой_1" xmlns="http://www.w3.org/2000/svg" xmlns:xlink="http://www.w3.org/1999/xlink" x="0px" y="0px"
	 width="205.472px" height="205.472px" viewBox="0 0 205.472 205.472" enable-background="new 0 0 205.472 205.472"
	 xml:space="preserve">
<path fill="#808080" d="M0,205.472h205.471V0.001H0V205.472z M149.876,114.5l17.845,20.502c2.281,2.621,0.416,6.71-3.057,6.71
	h-20.138c-3.185,0-6.248-1.203-8.579-3.37l-5.962-5.543c-6.731-5.892-9.588-7.91-12.283-7.91c-2.691,0-3.361,2.019-3.361,7.234
	c0,5.215-1.014,9.589-16.488,9.589c-15.479,0-27.592-11.604-41.219-29.611c-13.627-18-19.685-37.345-19.685-37.345
	c-0.752-2.423,1.059-4.878,3.594-4.878h16.115c3.068,0,5.858,1.77,7.144,4.552c1.319,2.857,3.589,7.264,7.467,13.784
	c5.511,9.252,10.799,13.42,13.796,15.199c1.116,0.662,2.526-0.158,2.526-1.455V79.762c0-2.907-1.05-5.71-2.957-7.901l-2.27-2.614
	c-0.591-0.674-0.107-1.728,0.786-1.728h25.467c3.903,0,7.067,3.164,7.067,7.066v25.812c0,1.661,2.158,2.311,3.074,0.926
	l18.332-27.626c1.448-2.174,3.887-3.485,6.5-3.485h21.519c2.94,0,4.728,3.238,3.163,5.726l-19.043,30.265
	C147.594,108.806,147.854,112.175,149.876,114.5z"/>
<rect fill="none" width="205.472" height="205.472"/>
</svg>
